<?xml version="1.0" encoding="utf-8"?>
<!-- Generator: Adobe Illustrator 16.0.0, SVG Export Plug-In . SVG Version: 6.00 Build 0)  -->
<!DOCTYPE svg PUBLIC "-//W3C//DTD SVG 1.1//EN" "http://www.w3.org/Graphics/SVG/1.1/DTD/svg11.dtd">
<svg version="1.1" id="Layer_1" xmlns="http://www.w3.org/2000/svg" xmlns:xlink="http://www.w3.org/1999/xlink" x="0px" y="0px"
	 width="41.005px" height="46.043px" viewBox="0 0 41.005 46.043" enable-background="new 0 0 41.005 46.043" xml:space="preserve">
<path fill="#27BDC0" d="M41.005,3.658c0-2.02-1.638-3.658-3.657-3.658H3.658C1.637,0,0,1.638,0,3.658c0,0,0.014,18.468,0.035,18.912
	c-0.003,0.325,0.279,0.482,0.69,0.365v0.001l13.809-3.703c0.592-0.184,0.536-0.578,0.435-0.804
	c-0.905-1.979-2.118-3.446-3.318-4.021c-0.677-0.445-1.201-1.126-1.427-1.97c-0.49-1.827,0.594-3.706,2.422-4.196l8.721-2.336
	c1.828-0.491,3.706,0.595,4.195,2.422c0.227,0.843,0.112,1.696-0.25,2.419c-1.041,1.518-1.254,4.517-0.395,7.722
	c0.87,3.247,2.587,5.758,4.268,6.518c0.64,0.443,1.135,1.1,1.354,1.91c0.488,1.828-0.596,3.707-2.422,4.195l-8.721,2.336
	c-1.829,0.49-3.707-0.594-4.196-2.422c-0.217-0.812-0.116-1.627,0.217-2.33c0.785-1.096,1.118-3.012,0.901-5.231l-0.007-0.001
	c-0.029-0.137-0.067-0.735-0.777-0.479l-0.001-0.002L1.16,26.812l0.001,0.004c-0.238,0.066-0.496,0.188-0.432,0.531
	c2.239,8.887,9.52,14.473,19.761,18.686l0.003,0.01c0.003-0.002,0.005-0.002,0.009-0.004c0.002,0,0.005,0.002,0.008,0.004v-0.008
	c12.42-5.105,20.494-12.232,20.494-24.816l-0.007-0.006L41.005,3.658z"/>
</svg>
