<?xml version="1.0" encoding="utf-8"?>
<!-- Generator: Adobe Illustrator 16.0.0, SVG Export Plug-In . SVG Version: 6.00 Build 0)  -->
<!DOCTYPE svg PUBLIC "-//W3C//DTD SVG 1.1//EN" "http://www.w3.org/Graphics/SVG/1.1/DTD/svg11.dtd">
<svg version="1.1" id="Layer_1" xmlns="http://www.w3.org/2000/svg" xmlns:xlink="http://www.w3.org/1999/xlink" x="0px" y="0px"
	 width="138px" height="46.042px" viewBox="0 0 138 46.042" enable-background="new 0 0 138 46.042" xml:space="preserve">
<path fill="#FFFFFF" d="M59.326,26.981c0,4.455-2.108,6.881-6.484,6.881c-0.994,0-1.949-0.12-2.824-0.358l0.239-3.857
	c0.517,0.159,1.233,0.318,2.068,0.318c1.949,0,2.784-0.955,2.784-3.104V5.62h4.216L59.326,26.981L59.326,26.981z"/>
<path fill="#FFFFFF" d="M69.866,9.519v7.875h6.166v3.898h-6.166v8.273h7.637v3.897H65.65V5.62h11.854v3.898L69.866,9.519
	L69.866,9.519z"/>
<path fill="#FFFFFF" d="M87.288,9.519v7.875h5.966v3.898h-5.966v12.172h-4.216V5.62h11.654v3.898L87.288,9.519L87.288,9.519z"/>
<path fill="#FFFFFF" d="M103.714,9.519v7.875h5.966v3.898h-5.966v12.172h-4.216V5.62h11.654v3.898L103.714,9.519L103.714,9.519z"/>
<path fill="#FFFFFF" d="M115.925,33.464V5.62h4.218v27.844H115.925z"/>
<path fill="#FFFFFF" d="M133.505,9.598v23.866h-4.216V9.598h-4.495V5.62H138v3.978H133.505z"/>
<path fill="#FFFFFF" d="M41.005,3.658c0-2.02-1.638-3.658-3.658-3.658H3.658C1.637,0,0,1.638,0,3.658c0,0,0.014,18.468,0.035,18.912
	c-0.003,0.325,0.279,0.482,0.69,0.365v0.001l13.809-3.703c0.592-0.184,0.536-0.578,0.435-0.804
	c-0.905-1.979-2.118-3.446-3.318-4.021c-0.677-0.445-1.201-1.126-1.427-1.97c-0.49-1.827,0.594-3.706,2.422-4.196l8.721-2.336
	c1.828-0.491,3.706,0.595,4.196,2.422c0.226,0.843,0.112,1.696-0.251,2.419c-1.04,1.518-1.253,4.517-0.394,7.722
	c0.87,3.247,2.587,5.757,4.267,6.518c0.64,0.442,1.136,1.099,1.354,1.909c0.489,1.828-0.595,3.707-2.422,4.195l-8.721,2.336
	c-1.829,0.49-3.707-0.594-4.196-2.422c-0.217-0.812-0.116-1.627,0.217-2.33c0.785-1.096,1.118-3.012,0.901-5.23l-0.007-0.001
	c-0.029-0.137-0.067-0.735-0.777-0.479l-0.001-0.002L1.16,26.812l0.001,0.004c-0.238,0.066-0.496,0.188-0.432,0.532
	c2.239,8.886,9.52,14.473,19.761,18.685l0.003,0.01c0.003-0.002,0.005-0.002,0.009-0.004c0.002,0,0.005,0.002,0.008,0.004v-0.008
	c12.42-5.105,20.494-12.232,20.494-24.816l-0.007-0.006L41.005,3.658z"/>
</svg>
