<svg id="Слой_1" xmlns="http://www.w3.org/2000/svg" width="106.199" height="56.238" viewBox="0 0 106.199 56.238"><path fill="#56AFB8" d="M106.046,25.863l-17.875-25.5c-0.133-0.189-0.336-0.316-0.563-0.353c-0.227-0.036-0.459,0.021-0.644,0.16 L73.484,10.311c-0.094-0.036-0.193-0.062-0.301-0.062H33.02c-0.107,0-0.209,0.024-0.304,0.062L19.235,0.171 c-0.184-0.139-0.414-0.196-0.644-0.16c-0.228,0.035-0.431,0.162-0.563,0.353l-17.875,25.5c-0.131,0.188-0.182,0.42-0.139,0.645 c0.042,0.226,0.173,0.424,0.363,0.551l14.25,9.5c0.145,0.097,0.309,0.144,0.471,0.144c0.27,0,0.533-0.128,0.698-0.365l4.07-5.839 c0.19,0.145,0.19,0.145,0.301,0.241l2.166,1.912v2.996c-0.005,0.006-0.012,0.01-0.017,0.017L21.1,37.339 c-1.251,1.603-0.966,3.922,0.66,5.191l1.677,1.216c0.654,0.512,1.438,0.782,2.267,0.782c0.451,0,0.881-0.103,1.291-0.257 c0.115,0.943,0.592,1.849,1.409,2.486l1.677,1.216c0.654,0.512,1.438,0.782,2.267,0.782c0.392,0,0.766-0.082,1.128-0.198 c0.142,0.896,0.604,1.747,1.383,2.354l1.677,1.217c0.654,0.513,1.438,0.781,2.267,0.781c0.796,0,1.543-0.264,2.166-0.72 c0.192,0.779,0.625,1.51,1.313,2.048l1.677,1.216c0.654,0.512,1.438,0.782,2.267,0.782c1.143,0,2.201-0.517,2.923-1.441l1.217-1.676 c0.157-0.201,0.289-0.414,0.399-0.638c0.062,0.128,0.144,0.246,0.268,0.333l4.008,2.792c0.633,0.426,1.352,0.629,2.061,0.629 c1.182,0,2.34-0.563,3.037-1.601l1.252-1.724c0.461-0.682,0.66-1.478,0.609-2.284l0.775,0.547c0.634,0.427,1.352,0.629,2.061,0.629 c1.182,0,2.34-0.562,3.038-1.6l1.252-1.724c0.431-0.639,0.64-1.376,0.624-2.129l1.455,0.941c0.633,0.426,1.352,0.629,2.061,0.629 c1.182,0,2.34-0.562,3.037-1.6l1.252-1.724c0.498-0.736,0.692-1.607,0.592-2.48L79.9,43.26c0.634,0.427,1.352,0.63,2.061,0.63 c1.182,0,2.34-0.563,3.038-1.601l1.252-1.724c0.552-0.816,0.752-1.798,0.563-2.766c-0.188-0.967-0.74-1.801-1.567-2.358 l-2.031-1.323l3.509-3.069l3.683,5.283c0.165,0.237,0.429,0.365,0.698,0.365c0.162,0,0.326-0.047,0.471-0.144l14.25-9.5 c0.189-0.128,0.32-0.325,0.363-0.551C106.229,26.283,106.177,26.05,106.046,25.863z M14.878,34.681L2.045,26.125L18.916,2.058 l12.268,9.229L14.878,34.681z M24.459,42.389l-1.677-1.217c-0.862-0.675-1.017-1.925-0.325-2.811l0.795-1.096 c0.371-0.435,0.781-0.933,0.781-0.933c0.343-0.264,0.762-0.412,1.208-0.412c0.445,0,0.866,0.146,1.243,0.438l1.677,1.218 c0.418,0.326,0.684,0.795,0.749,1.321c0.064,0.525-0.08,1.046-0.425,1.486l-1.217,1.679C26.615,42.902,25.356,43.089,24.459,42.389z M31.103,46.617l-1.677-1.216c-0.862-0.675-1.017-1.925-0.312-2.827l3.205-4.66c0.379-0.483,0.949-0.763,1.566-0.763 c0.445,0,0.866,0.146,1.243,0.438l1.677,1.219c0.418,0.325,0.684,0.796,0.749,1.32c0.064,0.526-0.08,1.046-0.438,1.506L35.09,44.58 l-0.801,1.17c-0.178,0.229-0.364,0.439-0.524,0.696C33.083,47.144,31.939,47.269,31.103,46.617z M37.557,50.773l-1.677-1.217 c-0.684-0.534-0.913-1.429-0.648-2.205c0.016-0.021,0.2-0.273,0.216-0.293l0.998-1.451l4.327-5.538 c0.379-0.485,0.949-0.763,1.566-0.763c0.445,0,0.866,0.146,1.243,0.438l1.677,1.217c0.418,0.326,0.684,0.796,0.749,1.322 c0.064,0.525-0.08,1.045-0.407,1.463l-5.234,6.701C39.713,51.286,38.454,51.473,37.557,50.773z M49.006,52.097l-1.217,1.678 c-0.653,0.836-1.912,1.022-2.81,0.323l-1.677-1.217c-0.862-0.675-1.017-1.925-0.325-2.811l1.218-1.678 c0.379-0.484,0.949-0.763,1.566-0.763c0.445,0,0.866,0.146,1.243,0.438l1.677,1.218c0.418,0.326,0.684,0.795,0.749,1.321 C49.495,51.135,49.351,51.656,49.006,52.097z M85.143,38.128c0.102,0.521-0.006,1.049-0.287,1.465l-1.252,1.726 c-0.61,0.906-1.847,1.146-2.768,0.526L64.104,30.947c-0.026-0.018-0.054-0.034-0.082-0.049c-0.24-0.129-1.064-0.646-1.557,0.077 c-0.395,0.577-0.131,1.071,0.262,1.327l13.156,8.47c0.812,0.594,0.774,0.596,0.906,1.28c0.1,0.521-0.35,1.158-0.629,1.573 l-1.253,1.725c-0.609,0.905-1.845,1.147-2.769,0.526l-9.279-6.013l-2.398-1.593c-0.051-0.034-0.788-0.474-0.788-0.474 c-0.394-0.255-0.921-0.143-1.175,0.252c-0.256,0.395-0.145,0.92,0.251,1.177l3.132,2.028l5.299,3.521 c0.439,0.297,0.737,0.746,0.84,1.267c0.101,0.521-0.008,1.05-0.287,1.465l-1.254,1.725c-0.61,0.905-1.85,1.147-2.74,0.547 l-8.15-5.747c-0.387-0.272-0.915-0.179-1.186,0.205s-0.178,0.914,0.205,1.185l0.324,0.229l4.514,3.558 c0.438,0.297,0.736,0.746,0.839,1.268c0.101,0.521-0.007,1.05-0.287,1.465l-1.253,1.724c-0.611,0.907-1.85,1.147-2.744,0.544 l-3.996-2.784c-0.28-0.194-0.636-0.192-0.912-0.031c0.047-0.323,0.067-0.653,0.026-0.986c-0.119-0.979-0.613-1.849-1.413-2.473 l-1.677-1.218c-0.58-0.454-1.267-0.706-1.992-0.759l0.905-1.16c0.606-0.774,0.874-1.739,0.754-2.717 c-0.119-0.978-0.613-1.85-1.413-2.473l-1.677-1.217c-0.653-0.513-1.438-0.782-2.266-0.782c-1.144,0-2.203,0.517-2.906,1.416 l-0.306,0.392c-0.206-0.768-0.643-1.452-1.3-1.965l-1.677-1.217c-0.653-0.511-1.438-0.781-2.266-0.781 c-1.144,0-2.203,0.516-2.937,1.457l-0.601,0.873c-0.24-0.602-0.626-1.14-1.164-1.56l-1.677-1.218 c-0.653-0.511-1.438-0.781-2.266-0.781c-0.421,0-0.822,0.093-1.208,0.227v-2.182c0-0.244-0.104-0.477-0.287-0.638l-2.453-2.167 c-0.161-0.144-0.161-0.144-0.417-0.413l11.945-17.14c0.066,0.018,0.129,0.04,0.199,0.04h9.142l-8.321,4.832 c-0.262,0.151-0.423,0.432-0.423,0.734V28.99c0,0.424,0.311,0.781,0.729,0.842c0.328,0.047,0.709,0.076,1.127,0.076 c2.497-0.001,6.301-1.01,7.977-4.977c0.044-0.104,0.066-0.218,0.066-0.33V21.13h8.999c0.568,1.608,2.379,5.761,6.029,6.148 c3.986,0.424,9.828-0.579,10.074-0.622c0.05-0.009,0.089-0.036,0.136-0.053l15.75,10.258C84.743,37.158,85.041,37.608,85.143,38.128 z M81.957,32.96c-0.075,0.066-0.129,0.146-0.176,0.23l-12.412-8.084c-0.244-0.158-1.08-0.153-1.242-0.125 c-0.059,0.01-5.848,1.008-9.604,0.605c-3.291-0.351-4.756-5.482-4.771-5.536c-0.104-0.366-0.438-0.623-0.819-0.623H42.466 c-0.47,0-0.85,0.382-0.85,0.852v4.144c-1.552,3.451-4.942,3.808-6.5,3.773v-10.19l9.911-5.755c0.129-0.074,0.219-0.182,0.29-0.301 h27.867c0.068,0,0.131-0.023,0.194-0.039l12.363,17.737L81.957,32.96z M91.32,34.681L75.016,11.287l12.269-9.229l16.87,24.066 L91.32,34.681z"/></svg>