<svg id="Слой_1" xmlns="http://www.w3.org/2000/svg" width="79.7" height="76.348" viewBox="0 0 79.7 76.348"><g fill="#56AFB8"><path d="M41.5,33.279c0,0.469,0.379,0.85,0.851,0.85h14.481v36.65c0,0.184,0.07,0.344,0.17,0.481h-9.153 c-0.47,0-0.851,0.382-0.851,0.852s0.381,0.851,0.851,0.851h20.668c0.469,0,0.851-0.381,0.851-0.851s-0.382-0.852-0.851-0.852 H58.362c0.1-0.139,0.17-0.299,0.17-0.481v-36.65h14.484c0.471,0,0.85-0.381,0.85-0.85c0-0.47-0.379-0.852-0.85-0.852H42.351 C41.879,32.429,41.5,32.81,41.5,33.279z"/><path d="M73.017,74.596H42.351c-0.472,0-0.851,0.381-0.851,0.85c0,0.47,0.379,0.851,0.851,0.851h30.666 c0.471,0,0.851-0.381,0.851-0.851C73.866,74.977,73.487,74.596,73.017,74.596z"/><path d="M78.849,51.179h-1.718l-4.809-14.665c-0.111-0.344-0.43-0.578-0.791-0.584 c-0.365-0.033-0.688,0.214-0.812,0.553l-5.462,14.696h-1.741c-0.252,0-0.49,0.111-0.651,0.305 c-0.162,0.192-0.229,0.448-0.187,0.696c0.506,2.807,2.932,8.115,8.504,8.115c5.571,0,7.998-5.31,8.504-8.115 c0.043-0.248-0.022-0.504-0.187-0.696C79.338,51.291,79.101,51.179,78.849,51.179z M71.465,39.354l3.877,11.825h-8.271 L71.465,39.354z M71.183,58.596c-4.272,0-5.988-3.84-6.572-5.718h13.138C77.149,54.751,75.409,58.596,71.183,58.596z"/><path d="M51.687,52.18c0.043-0.248-0.022-0.504-0.187-0.696c-0.162-0.192-0.399-0.305-0.651-0.305h-1.718 l-4.809-14.665c-0.111-0.344-0.43-0.578-0.791-0.584c-0.352-0.033-0.688,0.214-0.812,0.553l-5.461,14.696h-1.743 c-0.252,0-0.49,0.111-0.652,0.305c-0.16,0.192-0.229,0.448-0.184,0.696c0.504,2.807,2.931,8.115,8.503,8.115 C48.754,60.296,51.181,54.986,51.687,52.18z M43.465,39.354l3.877,11.825h-8.271L43.465,39.354z M43.183,58.596 c-4.273,0-5.988-3.84-6.572-5.718h13.138C49.149,54.751,47.409,58.596,43.183,58.596z"/><path d="M35.725,66.59h-4.576l3.229-7.723c-0.486-0.57-0.822-1.254-1.014-1.984l-1.506,3.604l-1.199-8.093 c0.113-0.044,0.217-0.108,0.303-0.196c0.029-0.03,0.041-0.07,0.066-0.104l0.088-2.956l-0.082-2.394 c-0.01-0.254-0.131-0.49-0.332-0.645l-1.277-0.983l6.604-4.938c0.171-0.127,0.284-0.311,0.325-0.516l1.816,1.299 c0.135-0.571,0.361-1.116,0.678-1.604l-2.17-1.551c-0.096-0.068-0.199-0.113-0.309-0.139v-1.105c0-0.2-0.08-0.377-0.195-0.521 c2.998-2.83,5.508-7.943,6.026-17.041c0.012-0.217-0.064-0.414-0.189-0.571c1.252-1.357,2.51-4.009,1.68-9.052 c-0.402-2.434-1.537-4.329-3.373-5.635c-3.381-2.403-8.095-2.044-9.524-1.865c-1.053-0.858-4.482-2.918-11.652-1.092 c-2.832,0.721-4.949,2.279-6.293,4.629c-3.152,5.517-0.91,13.431-0.812,13.765c0.107,0.372,0.447,0.613,0.816,0.613 c0.078,0,0.158-0.011,0.236-0.034c0.451-0.131,0.711-0.602,0.58-1.053c-0.021-0.075-2.145-7.551,0.656-12.447 c1.105-1.936,2.867-3.223,5.236-3.825c7.576-1.931,10.301,0.885,10.318,0.904c0.195,0.222,0.492,0.324,0.783,0.275 c0.053-0.01,5.299-0.883,8.671,1.515c1.454,1.034,2.355,2.558,2.68,4.527c0.9,5.469-0.895,7.498-1.859,8.174l-1.584-2.508 c-0.174-0.273-0.48-0.422-0.811-0.392c-0.15,0.019-14.897,1.575-21.056-3.161c-0.371-0.285-0.906-0.217-1.191,0.155 c-0.287,0.372-0.217,0.906,0.154,1.191c6.072,4.67,18.93,3.809,21.747,3.557l1.719,2.726c0.205,0.321,0.6,0.47,0.969,0.356 c0.029-0.009,0.162-0.055,0.352-0.145c-0.024,0.359-0.053,0.718-0.084,1.063h-2.193c-0.006,0-0.012,0-0.018,0h-8.366 c-0.469,0-0.85,0.381-0.85,0.851v1.114h-2.74v-1.114c0-0.47-0.381-0.851-0.85-0.851h-8.365c-0.006,0-0.012,0-0.018,0h-1.777 c0.416-2.756,1.607-3.896,1.641-3.93c0.348-0.308,0.385-0.84,0.078-1.192c-0.307-0.354-0.844-0.393-1.199-0.085 c-0.111,0.099-2.01,1.826-2.316,6.008c-0.002,0.018-0.01,0.031-0.01,0.05c0,0.01,0.004,0.017,0.004,0.024 c-0.113,1.682,0.02,3.74,0.637,6.263c0.686,2.803,1.984,5.884,4.383,8.159c-0.148,0.153-0.242,0.361-0.242,0.593v1.105 c-0.109,0.024-0.213,0.069-0.309,0.139l-3.896,2.784h-2.443c-0.043,0-0.086,0.004-0.129,0.011c-0.113,0.018-2.846,0.444-5.613,1.96 C1.996,44.628,0,47.719,0,51.5v10.439c0,2.196,1.188,6.351,5.684,6.351H24.85h4.652h6.512c0.01-0.017,0.021-0.032,0.03-0.05 c0.082,0.025,0.164,0.05,0.246,0.05c0.332,0,0.648-0.196,0.785-0.521l2.131-5.099c-0.557-0.256-1.025-0.613-1.408-1.039 L35.725,66.59z M29.506,66.112c-0.064,0.158-0.064,0.321-0.035,0.478h-3.967c0.029-0.155,0.029-0.318-0.037-0.478l-0.5-1.199 l-0.426-1.394l1.08-11.062h3.328l1.641,11.064L29.506,66.112z M18.197,65.932l-5.902-7.923l2.549-2.646 c0.174-0.181,0.26-0.427,0.234-0.676c-0.026-0.249-0.16-0.475-0.365-0.614l-3.621-2.48l1.174-9.302h1.4l9.699,23.202l0.336,1.098 h-5.355C18.387,66.366,18.344,66.129,18.197,65.932z M23.564,52.187c0.004,0.003,0.004,0.008,0.008,0.011 c0.096,0.1,0.217,0.162,0.346,0.205l-0.791,8.11l-1.969-4.711c0.02-0.023,0.049-0.035,0.066-0.062L23.564,52.187z M29.469,50.756 h-4.406l0.123-3.553l1.848-1.423c0.1-0.077,0.176-0.176,0.232-0.285c0.057,0.109,0.133,0.208,0.232,0.285l1.85,1.423L29.469,50.756 z M30.639,22.371h6.54c-0.102,0.587-0.229,1.203-0.348,1.514c-0.568,1.472-1.233,2.128-3.667,2.128 c-2.375,0-2.52-2.107-2.525-2.524V22.371z M24.5,22.371v1.116c0,0.259-0.072,2.523-2.525,2.523c-2.434,0-3.098-0.655-3.666-2.126 c-0.121-0.312-0.248-0.928-0.348-1.515L24.5,22.371L24.5,22.371z M15.674,27.404c-0.486-1.989-0.646-3.652-0.621-5.033h1.186 c0.104,0.658,0.273,1.584,0.484,2.127c0.904,2.344,2.328,3.215,5.252,3.215c2.768,0,3.846-1.895,4.135-3.375h2.92 c0.289,1.48,1.367,3.375,4.135,3.375c2.923,0,4.347-0.871,5.253-3.215c0.209-0.543,0.381-1.469,0.484-2.127h1.273 c-1.73,13.188-8.472,15.275-12.546,15.275C19.82,37.646,16.818,32.076,15.674,27.404z M27.629,39.347 c2.014,0,4.602-0.431,7.041-2.093v1.815l-7.162,5.354c-0.104,0.077-0.184,0.178-0.242,0.288c-0.059-0.11-0.139-0.211-0.242-0.288 l-7.16-5.354v-1.914C21.82,38.492,24.35,39.347,27.629,39.347z M18.18,39.662c0.041,0.205,0.154,0.389,0.324,0.516l6.605,4.938 L23.83,46.1c-0.201,0.153-0.322,0.391-0.33,0.645l-0.102,2.938c-0.168,0.061-0.324,0.159-0.43,0.319l-2.354,3.574l-2.326-4.633 l-3.012-7.206L18.18,39.662z M1.699,61.939V51.5c0-6.146,6.221-8.334,8.822-8.98L9.34,51.894c-0.039,0.314,0.1,0.628,0.363,0.808 l3.221,2.205l-2.354,2.444c-0.287,0.3-0.316,0.764-0.068,1.097l6.064,8.143H5.684C1.768,66.59,1.699,62.128,1.699,61.939z"/></g></svg>