<svg id="Слой_1" xmlns="http://www.w3.org/2000/svg" width="79.7" height="76.347" viewBox="0 0 79.7 76.347"><g fill="#00B0BA"><path d="M74.851,40.979H64.534l-0.004-3.063c-0.141-1.477-1.229-4.27-4.346-4.27h-0.5H49.35h-0.5 c-3.116,0-4.205,2.793-4.35,4.35v2.983h-1.482h-2.444l-3.896-2.784c-0.095-0.068-0.2-0.114-0.308-0.138V36.95 c0-0.2-0.08-0.377-0.196-0.522c2.997-2.829,5.508-7.943,6.024-17.041c0.013-0.216-0.063-0.414-0.188-0.571 c1.25-1.358,2.51-4.009,1.679-9.051c-0.401-2.434-1.536-4.33-3.373-5.636c-3.379-2.403-8.094-2.043-9.524-1.865 c-1.054-0.858-4.485-2.918-11.652-1.092c-2.832,0.722-4.95,2.279-6.293,4.629c-3.153,5.515-0.91,13.431-0.813,13.765 c0.108,0.372,0.447,0.613,0.816,0.613c0.079,0,0.158-0.011,0.237-0.034c0.451-0.131,0.71-0.603,0.58-1.053 c-0.022-0.075-2.143-7.551,0.656-12.447c1.106-1.935,2.868-3.222,5.237-3.826c7.577-1.931,10.299,0.884,10.319,0.905 C30.073,3.945,30.371,4.051,30.662,4c0.053-0.009,5.298-0.882,8.67,1.515c1.454,1.033,2.355,2.556,2.68,4.526 c0.901,5.469-0.895,7.499-1.859,8.175l-1.583-2.508c-0.173-0.275-0.489-0.43-0.812-0.391c-0.149,0.016-14.903,1.57-21.056-3.162 c-0.372-0.286-0.905-0.217-1.192,0.156c-0.286,0.372-0.216,0.906,0.156,1.192c6.07,4.669,18.93,3.809,21.746,3.556l1.72,2.724 c0.205,0.324,0.601,0.472,0.969,0.358c0.03-0.009,0.163-0.056,0.351-0.145c-1.104,15.666-8.477,18.039-12.821,18.039 c-7.808,0-10.81-5.57-11.954-10.242c-1.894-7.734,1.093-10.604,1.154-10.661c0.349-0.309,0.385-0.841,0.079-1.193 c-0.307-0.355-0.845-0.394-1.199-0.085c-0.159,0.137-3.859,3.468-1.686,12.344c0.687,2.803,1.984,5.884,4.383,8.16 c-0.149,0.153-0.243,0.361-0.243,0.592v1.106c-0.108,0.024-0.213,0.07-0.308,0.138l-3.896,2.784h-2.444 c-0.043,0-0.085,0.004-0.127,0.01c-0.115,0.018-2.847,0.445-5.614,1.961C1.997,45.018,0,48.11,0,51.889v10.44 c0,2.197,1.188,6.351,5.684,6.351h19.167h4.986l0,3.057c0.13,1.5,1.289,4.258,4.688,4.576c0.053,0.012,0.103,0.033,0.159,0.033h0.5 h39.167h0.5c0.057,0,0.105-0.021,0.16-0.033c3.398-0.318,4.557-3.08,4.689-4.65V45.997C79.7,42.028,76.528,40.979,74.851,40.979z M46.197,38.077c0.011-0.111,0.287-2.73,2.653-2.73h0.5h10.334h0.5c2.303,0,2.625,2.454,2.649,2.65v2.983h-7.817 c-0.088,0-0.169,0.025-0.249,0.051c-0.08-0.025-0.161-0.051-0.249-0.051h-8.317L46.197,38.077z M42.948,42.68 c0.109,0.019,0.377,0.07,0.743,0.157c0.083-0.059,0.178-0.104,0.267-0.157h10.561c0.088,0,0.169-0.025,0.249-0.051 c0.08,0.025,0.161,0.051,0.249,0.051h19.831c0.322,0.003,3.154,0.125,3.154,3.316v6.561c-0.219-0.041-0.453,0.002-0.648,0.145 c-0.072,0.051-6.059,4.281-16.144,5.668c-0.473-1.973-1.984-2.557-2.858-2.557h-3.5c-0.059,0-0.111,0.021-0.167,0.033 c-0.056-0.012-0.108-0.033-0.167-0.033h-3.5c-0.884,0-2.423,0.593-2.877,2.621c-9.504-1.176-15.54-4.904-16.605-5.608v-6.829 c0-3.191,2.832-3.313,3.15-3.316h5.617H42.948z M54.85,61.813c-0.059,0-0.111,0.023-0.167,0.034 c-0.056-0.011-0.108-0.034-0.167-0.034h-3.5c-0.054,0-1.316-0.023-1.316-2.15c0-1.997,1.109-2.142,1.316-2.15h3.5 c0.059,0,0.111-0.021,0.167-0.033c0.056,0.012,0.108,0.033,0.167,0.033h3.5c0.054,0,1.316,0.025,1.316,2.15 c0,1.998-1.109,2.143-1.316,2.15H54.85z M23.702,66.979h-5.354c0.04-0.223-0.004-0.461-0.15-0.658L12.296,58.4l2.549-2.647 c0.173-0.18,0.259-0.428,0.233-0.676c-0.025-0.249-0.159-0.475-0.365-0.615l-3.622-2.48l1.174-9.301h1.401l3.369,8.057 c-0.026,0.178-0.011,0.363,0.083,0.533l0.575,1.041l5.674,13.573L23.702,66.979z M21.158,56.192 c0.02-0.023,0.051-0.035,0.068-0.062l2.339-3.553c0.003,0.003,0.003,0.008,0.006,0.01c0.096,0.1,0.217,0.163,0.346,0.206 l-0.792,8.11L21.158,56.192z M27.267,45.885c0.057,0.109,0.133,0.208,0.232,0.285l1.849,1.422l0.123,3.554h-4.407l0.123-3.554 l1.849-1.422C27.134,46.093,27.21,45.995,27.267,45.885z M29.842,45.828l-0.418-0.321l0.466-0.35 C29.864,45.37,29.848,45.594,29.842,45.828z M37.651,40.979h-2.174l0.552-0.412c0.17-0.127,0.284-0.311,0.325-0.515L37.651,40.979z M27.63,39.737c2.014,0,4.601-0.43,7.04-2.092v1.816l-7.161,5.354c-0.103,0.078-0.184,0.178-0.242,0.288 c-0.058-0.11-0.139-0.21-0.242-0.288l-7.161-5.354v-1.915C21.821,38.881,24.35,39.737,27.63,39.737z M18.181,40.052 c0.041,0.204,0.155,0.388,0.325,0.515l6.604,4.939l-1.278,0.982c-0.201,0.154-0.323,0.391-0.332,0.645l-0.101,2.938 c-0.168,0.06-0.324,0.159-0.43,0.319L20.58,54.02l-1.356-2.455l-3.945-9.438L18.181,40.052z M1.7,62.33v-10.44 c0-6.145,6.221-8.334,8.824-8.981L9.34,52.284c-0.04,0.315,0.1,0.627,0.363,0.807l3.221,2.206l-2.353,2.444 c-0.289,0.299-0.318,0.764-0.069,1.097l6.066,8.142H5.684C1.77,66.979,1.701,62.517,1.7,62.33z M25.504,66.979 c0.029-0.156,0.029-0.318-0.037-0.477l-0.499-1.193l-0.428-1.4l1.08-11.063h3.329l0.885,5.978l0.001,8.156H25.504z M74.351,74.646 H35.184c-3.257,0-3.623-2.748-3.65-2.982V54.833c2.343,1.395,8.096,4.304,16.505,5.307c0.203,2.635,1.992,3.375,2.977,3.375h3.5 c0.059,0,0.111-0.023,0.167-0.034c0.056,0.011,0.108,0.034,0.167,0.034h3.5c0.991,0,2.803-0.752,2.982-3.437 c9.315-1.241,15.225-4.805,16.668-5.763l0.004,17.27C77.974,71.897,77.608,74.646,74.351,74.646z"/><path d="M72.351,45.68h2.5c0.469,0,0.85-0.381,0.85-0.851s-0.381-0.851-0.85-0.851h-2.5 c-0.469,0-0.85,0.381-0.85,0.851S71.882,45.68,72.351,45.68z"/><path d="M60.35,45.68h9.5c0.469,0,0.85-0.381,0.85-0.851s-0.381-0.851-0.85-0.851h-9.5 c-0.469,0-0.85,0.381-0.85,0.851S59.881,45.68,60.35,45.68z"/></g></svg>