<svg width="27" height="23" viewBox="0 0 27 23" xmlns="http://www.w3.org/2000/svg">
    <path fill="#a7daf4" d="M24.469 13.964c1.398 0 2.531-1.103 2.531-2.464s-1.133-2.464-2.531-2.464c-.49 0-.946.144-1.331.38-1.07.657-2.241 1.15-3.504 1.23a17.23 17.23 0 0 1-1.072.041h-12.9c-1.027 0-1.54-1.21-.814-1.918l5.294-5.155c.562-.548 1.683-1.06 2.144-1.508.213-.209.369-.539.37-.873C12.66.627 12.249 0 11.391 0c-.324 0-.648.121-.895.361-.415.404-.986 1.543-1.549 2.091L.248 10.927a.808.808 0 0 0-.001 1.164l3.408 3.321c4.285 4.171 4.651 5.658 4.962 6.346.278.616.797 1.242 1.939 1.242 1.168-.002 2.108-.915 2.101-2.054 0-.926-.661-1.66-1.324-1.89-.764-.266-3.14-1.551-6.516-4.837-.71-.692-.159-1.888.845-1.888h12.9c.303 0 .667.014 1.072.04 1.262.082 2.433.573 3.504 1.231.385.237.84.362 1.331.362"/>
</svg>
