<svg xmlns="http://www.w3.org/2000/svg" height="60" viewBox="0 0 78.53 78.47"><title>Vector Smart Object3</title><path d="M-448,116.91c-1-10-.69-29.28,0-36.45.36-3.51,1.54-5.54,1.5-8.13a2.7,2.7,0,0,0-2.73-2.66,2.69,2.69,0,0,0-2.66,2.73c0,1.06,1,3.22-.26,3.28-1.13.05-18.65,1.3-21.07-1.32s-2.13-20-2.13-21.77,2-.64,3.31-.73c1.49-.11,2.75-1.07,2.64-2.55s-1.58-2.05-3.07-1.94-1.61.61-4.12.93A315.35,315.35,0,0,1-518,48.09c-2.41-.21-2.67-.7-4.25-.74s-2.64.72-2.68,2.2a2.56,2.56,0,0,0,0,.29,1,1,0,0,0,.13.61,2.43,2.43,0,0,0,2.39,1.43c1.14,0,3-1.07,3,.33s0,2.18,0,3.42c0,13.42,0,26.83,0,40.25.06,14.66,9.44,24,24.16,24,13.42,0,26.83,0,40.25,0,1.25,0,3.05-.14,3.37.57s-.23,1.47-.21,2.72a2.68,2.68,0,0,0,1.47,2.34,4.07,4.07,0,0,0,1.27.31,2.69,2.69,0,0,0,2.65-2.73C-446.46,120.88-447.37,120.33-448,116.91Zm-30.67-2c-5.38,1-11.18,2.13-16.82,2.12a21.29,21.29,0,0,1-21-21.18c0-14.58-1.65-38.39.76-41.39,3.69-3.9,34.41-3.33,37,0s-.95,18.75,3.07,22.57,21.06.78,23.45,3.5c2.29,3,1.38,15.92.38,23.73C-452.67,111.24-471.05,113.48-478.63,114.89Z" transform="translate(524.96 -47.34)" fill="#fff"/><line x1="27.71" y1="26.07" x2="27.85" y2="23.98" fill="none" stroke="#fff" stroke-linecap="round" stroke-miterlimit="10" stroke-width="2"/><line x1="31.97" y1="27.96" x2="33.01" y2="26.64" fill="none" stroke="#fff" stroke-linecap="round" stroke-miterlimit="10" stroke-width="2"/><line x1="22.23" y1="29.67" x2="21.11" y2="28.91" fill="none" stroke="#fff" stroke-linecap="round" stroke-miterlimit="10" stroke-width="2"/><line x1="21.67" y1="37.32" x2="20.62" y2="37.42" fill="none" stroke="#fff" stroke-linecap="round" stroke-miterlimit="10" stroke-width="2"/><line x1="22.99" y1="47.3" x2="24.66" y2="46.07" fill="none" stroke="#fff" stroke-linecap="round" stroke-miterlimit="10" stroke-width="2"/><line x1="22.66" y1="42.18" x2="21.14" y2="42.71" fill="none" stroke="#fff" stroke-linecap="round" stroke-miterlimit="10" stroke-width="2"/><line x1="36.5" y1="58.13" x2="36.13" y2="59.83" fill="none" stroke="#fff" stroke-linecap="round" stroke-miterlimit="10" stroke-width="2"/><line x1="41.89" y1="57.27" x2="42.65" y2="58.03" fill="none" stroke="#fff" stroke-linecap="round" stroke-miterlimit="10" stroke-width="2"/><line x1="44.35" y1="53.21" x2="45.68" y2="53.3" fill="none" stroke="#fff" stroke-linecap="round" stroke-miterlimit="10" stroke-width="2"/><line x1="42.27" y1="47.82" x2="43.12" y2="46.78" fill="none" stroke="#fff" stroke-linecap="round" stroke-miterlimit="10" stroke-width="2"/><line x1="30.37" y1="54.09" x2="29.42" y2="55.25" fill="none" stroke="#fff" stroke-linecap="round" stroke-miterlimit="10" stroke-width="2"/><line x1="33.01" y1="37.37" x2="34.52" y2="37.99" fill="none" stroke="#fff" stroke-linecap="round" stroke-miterlimit="10" stroke-width="2"/><line x1="34.05" y1="33.32" x2="35.27" y2="33.16" fill="none" stroke="#fff" stroke-linecap="round" stroke-miterlimit="10" stroke-width="2"/><circle cx="60.9" cy="39.23" r="2.94" fill="#fff"/><circle cx="36.83" cy="17.23" r="2.13" fill="#fff"/><circle cx="12.04" cy="21.34" r="1.84" fill="#fff"/><circle cx="54.28" cy="58.13" r="2.32" fill="#fff"/><circle cx="15.51" cy="54.67" r="1.45" fill="#fff"/><circle cx="-505.19" cy="58.29" r="2.74" transform="translate(335.78 -387.49) rotate(-45)" fill="#fff"/><circle cx="65.72" cy="53.22" r="1.45" fill="#fff"/><circle cx="43.03" cy="37.37" r="1.25" fill="#fff"/><path d="M-481.12,96.21c-2.08-4.2-9.07-4-10.54-6.83-1.59-3.13,3.23-7.31.85-12.41a6.87,6.87,0,0,0-9.6-3.51c-4.57,2.33-4.59,11.46,0,20.4s11.95,14.29,16.52,12C-480.82,104.24-478.66,101.17-481.12,96.21ZM-500.18,80a1.23,1.23,0,0,1-1.23-1.23,1.23,1.23,0,0,1,1.23-1.23,1.23,1.23,0,0,1,1.23,1.23A1.23,1.23,0,0,1-500.18,80Zm8.27,15.51a1.18,1.18,0,0,1,1.18-1.18,1.18,1.18,0,0,1,1.18,1.18,1.18,1.18,0,0,1-1.18,1.18A1.18,1.18,0,0,1-491.9,95.54Zm3.64,8a2.17,2.17,0,0,1-2.17-2.17,2.17,2.17,0,0,1,2.17-2.17,2.17,2.17,0,0,1,2.17,2.17A2.17,2.17,0,0,1-488.26,103.51Z" transform="translate(524.96 -47.34)" fill="#fff"/></svg>
