<svg xmlns="http://www.w3.org/2000/svg" height="60" viewBox="0 0 65.14 78.2"><title>Vector Smart Object2</title><path d="M-829.77,63.92l-1.26.76V68l.51,1c9.36,6.28,6.31,17.36,4.36,26.31-1,4.56,5.91,30.92-8.81,30.93-6,0-11.47-1.11-11.47-7.57,0-6.86,2.69-13.4,2.69-20.27,0-10.59-7.12-21.32,4.17-29.41l.47-.94V64.69l-1.26-.76-.43-.25a.36.36,0,0,0,.21,0,.77.77,0,0,0,.3.1l10.45,0,.21.29A.46.46,0,0,0-829.77,63.92Zm-.07-.17v0a.54.54,0,0,0,.3-.09.38.38,0,0,0,.22,0S-829.83,63.8-829.84,63.75Zm-10.45,0,.08,0a.4.4,0,0,0-.08.14l-.08,0a.46.46,0,0,0-.14.12Zm1.64-12.46-.36,0a2.88,2.88,0,0,0-2.1,2c-.54,1.38-.92,5.91-.92,9a2.35,2.35,0,0,0,.61,3.39v1.64c-12,9.05-4.64,19.66-4.64,30.94,0,6.86-2.69,13.39-2.69,20.27,0,8.25,7.12,9.88,13.78,9.88s13.78-1.63,13.78-9.88c0-5.75-3.52-19.17-2.71-22.87,2.11-9.77,5-21.29-4.83-28.35V65.74a2.34,2.34,0,0,0,.6-3.39c0-3.38-.86-9.29-1.53-10a3.72,3.72,0,0,0-1.66-1Z" transform="translate(885.82 -50.77)" fill="#fff" stroke="#fff" stroke-linecap="round" stroke-linejoin="round" fill-rule="evenodd"/><path d="M-837.67,82.33c-.32,1.64-.86,1.57-1.33,2s-.62,1.61-1.18,1.61c-1.78,0-2.65-1.9-2.65-4.51s.87-4.8,2.65-4.8,2.52,2.1,2.52,4.72A4.92,4.92,0,0,1-837.67,82.33Zm1.16-.94c0-3-1.65-5.41-3.68-5.41s-3.68,2.42-3.68,5.41,1.65,5.4,3.68,5.4c1.37,0,2,0,2.43-.45s.5-.9,1-3h0A7.68,7.68,0,0,0-836.51,81.4Z" transform="translate(885.82 -50.77)" fill="#fff" fill-rule="evenodd"/><path d="M-826.78,82.77a3.89,3.89,0,0,0-3.73-4,2.41,2.41,0,0,0-1.81.53c-.19.15,0-1.38,0-2.48a27.15,27.15,0,0,1,3.73.19c.45.09.56.28.89.3a.57.57,0,0,0,.6-.53.56.56,0,0,0-.53-.6c-.23,0-.64.09-1,.12s-4.45-.18-4.68,0-.41,3.49-.1,3.75.38.26.57.19a6.26,6.26,0,0,1,2.27-.82c1.8,0,2.5,1.38,2.5,3.33a3.1,3.1,0,0,1,0,.75c-.32,1.23-.82,1.11-1.29,1.46s-.69,1.2-1.26,1.2-1.18,0-1.5-.44-.26-.58-.41-.81a.62.62,0,0,0-.81-.26c-.33.25.11.92.46,1.27a3.88,3.88,0,0,0,2.3.88c1.39,0,2,0,2.46-.33a4.56,4.56,0,0,0,1.08-2A7.84,7.84,0,0,0-826.78,82.77Z" transform="translate(885.82 -50.77)" fill="#fff"/><path d="M-834.65,86.84a.54.54,0,0,0-.39-.66.54.54,0,0,0-.66.39c-.07.27,0,.86-.07,1.31a2.42,2.42,0,0,1-.31.8c0,.06,0,.1,0,.08A4,4,0,0,0-834.65,86.84Z" transform="translate(885.82 -50.77)" fill="#fff"/><path d="M-875.67,81.89s9.64-6.19,11.22-7,3.51-1.2,4.52-1.88a2.35,2.35,0,0,0,1.3-1.56,2.13,2.13,0,0,0-2-2.41,2.82,2.82,0,0,0-2.35.9c-.62.53-2.63,2.62-3.36,3.14s-17.38,11-18,11.52-1.46,1.21-1.46,2.12a2.64,2.64,0,0,0,1.19,2c.61.49,7.55,4.4,7.55,4.4,9.3,6.28,11.17,7.3,12,8.24s1.9,2.78,3.8,2.78a2.68,2.68,0,0,0,2.49-3.62c-.75-1.69-3.93-2-5.92-2.55-1.65-.49-9.58-5.87-10.94-6.57-1.55-.8-4.92-2.85-4.88-4.7S-875.67,81.89-875.67,81.89Z" transform="translate(885.82 -50.77)" fill="#fff"/><path d="M-884.68,104.4c2.11,1.27,4.69,1.6,6.79,2.88l3.57,2.16,3.57,2.16,3.57,2.16c2.11,1.27,3.6,3.41,5.7,4.68a2.09,2.09,0,0,0,2.87-.71,2.09,2.09,0,0,0-.7-2.87c-2.11-1.27-4.68-1.61-6.79-2.89l-3.57-2.16-3.57-2.16-3.57-2.16c-2.11-1.27-3.6-3.4-5.71-4.67a2.09,2.09,0,0,0-2.87.7A2.09,2.09,0,0,0-884.68,104.4Z" transform="translate(885.82 -50.77)" fill="#fff"/></svg>
