<svg xmlns="http://www.w3.org/2000/svg" height="60" viewBox="0 0 40.97 87.47"><title>Vector Smart Object9</title><path d="M-621.77,228.87s.11-15.61-1.77-18.42c-2.11-3.15-6.13-3.73-6.09-3.94l0-10.33a.79.79,0,0,0-.31,0l.87-.72c.17-1.55.48-4-.79-5.17l-.39-.22a12.06,12.06,0,0,0-6.84,0,3.07,3.07,0,0,0-.86,1.29,16.23,16.23,0,0,0-.3,3.88l.92,1a.58.58,0,0,0-.38-.08l-.1,10.24a11.15,11.15,0,0,0-6,4.13c-2.75,3.5-1.83,13.53-1.93,18.75,0,.39-.12,6.76-.07,15.08.32-.07.8,0,1.12-.08a2.76,2.76,0,0,1,1,0c-.06-12.76.16-25,.24-26.63a9.88,9.88,0,0,1,6.48-9,14.17,14.17,0,0,1,7-.12c5.19,2.13,5.51,7.13,5.63,9.54s3.2,54.26-9.17,54.32a41,41,0,0,1-9-1.21c-.78-2-1.09-9.57-1.2-19.79-.16.05-.53.44-.7.5a7.57,7.57,0,0,1-1.45.17c.15,9.64.64,17.74,1.69,20.36l.71.61c8.38,1.81,11.15,1.82,19.54,0l.71-.61C-621,267-621.78,231.24-621.77,228.87Z" transform="translate(662.12 -189.1)" fill="#fff" stroke="#fff" stroke-linecap="round" stroke-linejoin="round" fill-rule="evenodd"/><path d="M-641.13,274.56c-2.87,0-7-2.13-7-5v-6a4.46,4.46,0,0,1,2-4c4.47-3.18,10-7.59,10-13.08a1.94,1.94,0,0,0-2-1.92h-22.06a1.94,1.94,0,0,0-2,1.92c0,5.49,5.53,9.9,10,13.08a4.46,4.46,0,0,1,2,4v6c0,2.87-4.14,5-7,5a1,1,0,0,0-1,1,1,1,0,0,0,1,1h16a1,1,0,0,0,1-1A1,1,0,0,0-641.13,274.56ZM-657,252.14a3.83,3.83,0,0,1-2.35-3c-.35-1.21,1-2.53,2.25-2.53h10.26c.05,0,3.76,0,3.81,0h1.93c1.27,0,2.12,1,1.4,1.82a8.56,8.56,0,0,1-3.06,2,40.48,40.48,0,0,1-4.45,1.42C-649.27,252.48-655.3,253-657,252.14Z" transform="translate(662.12 -189.1)" fill="#fff" fill-rule="evenodd"/></svg>
