<svg xmlns="http://www.w3.org/2000/svg" height="60" viewBox="0 0 84.55 74.61"><title>Vector Smart Object6</title><path d="M-581.24-51.06a5.21,5.21,0,0,1-1.63-2c-4.06-10.9-14.64-16.69-26-14a3.77,3.77,0,0,1-3.51-.7,15.65,15.65,0,0,0-19.67,1,5.24,5.24,0,0,1-3.75,1.53c-6.07.14-10.76,2.8-13.53,8.33a5.66,5.66,0,0,1-2.86,2.9,14,14,0,0,0-7.61,16.67,5.67,5.67,0,0,1,0,2.8,14,14,0,0,0,5.88,15.67c.82.55,1.65,1.07,2.43,1.67a15.52,15.52,0,0,0,15.41,2.44,2.73,2.73,0,0,1,3.16.61,15.33,15.33,0,0,0,12.72,3.48c5.25-.81,5.14-.45,10.26.7,3.82.86,9.7,2.66,11.77,5.45A7.83,7.83,0,0,1-597-2.62c.63,2.1.4,3.29,1.45,4.95a2.66,2.66,0,0,0,4.18.75A3,3,0,0,0-591-1a15.55,15.55,0,0,0-3.49-3,5.14,5.14,0,0,1-.94-2.75c.05-2.83,8.06-5.63,11.56-9.38,3.11-3.33,5.39-8.58,4.76-13.19a3.82,3.82,0,0,1,.67-2.42C-574-38.31-575.13-46.13-581.24-51.06Zm-.4,14.62c-4.08-5.13-8.72-3.05-10-12.38.12-2,.88-2.9.73-4.41A1.94,1.94,0,0,0-593.07-55a1.94,1.94,0,0,0-1.74,2.13,27.26,27.26,0,0,0,1.25,4.23c.3,1.09,1.71,8.5,4.29,10.83-2.92-.42-9.24-.09-13.58.37,0,0-.88.08-1.26.14l-.23,0c-2.64.37-3.94-.47-5.83,0a2.38,2.38,0,0,0-1.67,2.91,2.37,2.37,0,0,0,2.91,1.67c1.72-.46,3.25-2.19,4.42-2.63s6.32-.9,10-.79a17,17,0,0,1,11.44,5.65c1.93,2.42,1.87,7.7-1,10.3-1.92,1.74-17.73,9.4-22.21,8.33-1.47-.34-3.74-1-4.8-2.46,4.5-2.85,7.44-12.28,13.62-11.61,1.94.55,2.92,2.64,4.49,3a2.38,2.38,0,0,0,2.86-1.77,2.37,2.37,0,0,0-1.77-2.86,18.64,18.64,0,0,0-4-.39,11.74,11.74,0,0,0-3.24.3h0v0a11.42,11.42,0,0,0-2.45.79,26.06,26.06,0,0,0-5.85,3.39c-2.91,2.16-6.44,5.13-9.82,7-3.13,1.73-5.8,3.16-9.07,1.86-4.23-1.68-6.24-3.86-6.42-7.8a15.39,15.39,0,0,1,.44-4.12c.4-1.6,3.11-4.92,4.33-5.48s5.18.05,7.37-.61a2.38,2.38,0,0,0,1.58-3,2.37,2.37,0,0,0-3-1.58,25.52,25.52,0,0,0-6.51,3.45c-1.66,1.19-5.32,4.37-5.32,4.37a40,40,0,0,0-3-5.15,27.1,27.1,0,0,0-4.5-3.72,34.25,34.25,0,0,0-5.8-2.7,2.1,2.1,0,0,0-2.67,1.27,2.09,2.09,0,0,0,1.27,2.67c1.67.59,2.55.09,5,.67a10.59,10.59,0,0,1,4.52,2.34c1.53,1.41,2.49,5.21,2.76,7.12a8.54,8.54,0,0,1-1.5,5c-.88,1.13-5.13,2.33-7.06,2.13-5.07-.53-7.21-1.55-10-5.64A9.18,9.18,0,0,1-656-33.62a5.78,5.78,0,0,0,.42-3.25c-2.44-5.91-.18-12.3,6-14,1.64-.45,1.87-1.34,2.25-2.94,1.15-4.85,7.12-8.81,12.23-8a5.46,5.46,0,0,0,5.33-2.5c3.08-4.28,11.47-3.65,16.33-.5-5.06,5.62-10.31,6.24-11.53,5.94s-2.5-2.22-3.5-2.74a1.69,1.69,0,0,0-2.28.72,1.69,1.69,0,0,0,.72,2.28,15.17,15.17,0,0,0,3.13.92s4.28,1.23,7.53.63a27.39,27.39,0,0,0-.83,9.08s.19,2.44.38,3.67a11.71,11.71,0,0,0,1,3.44,2.38,2.38,0,0,0,3.15,1.16,2.37,2.37,0,0,0,1.16-3.15c-.89-1.93-4-4-4.14-6.62a11.73,11.73,0,0,1,2.32-7.48,16.24,16.24,0,0,1,4.68-4.35c1.84-1.12,4.66-2.83,6.83-3,8.31-.66,17.14,5.38,19.33,13.42a5.36,5.36,0,0,0,2.17,2.33C-578.67-45.5-578.75-40.71-581.65-36.44Z" transform="translate(660.29 70.82)" fill="#fff"/></svg>
