<svg xmlns="http://www.w3.org/2000/svg" height="60" viewBox="0 0 88.52 71.05"><title>Vector Smart Object5</title><path d="M-463.16,232.91c0,3.74,2,7.41,2,11.15a3.16,3.16,0,0,1-3.18,3.17,3.17,3.17,0,0,1-3.17-3.18c0-3.74,1.6-7.36,1.61-11.1l0-19c0-4.36-2.54-8.19-2.53-12.56,0-2.63,1.54-4.9,4.16-4.89s4.31,2.2,4.31,4.84c0,4.36-3.18,8.28-3.19,12.64Z" transform="translate(529.95 -196.46)" fill="#fff"/><path d="M-446.7,210.76c0-3.74-2-7.37-2.05-11.11a3.16,3.16,0,0,1,3.16-3.18,3.17,3.17,0,0,1,3.18,3.16c0,3.74-1.57,7.36-1.56,11.11l0,19c0,4.36,2.48,8.44,2.49,12.8,0,2.63-1.41,4.65-4,4.66s-4.11-2.13-4.12-4.76c0-4.36,2.88-8.33,2.87-12.69Z" transform="translate(529.95 -196.46)" fill="#fff"/><path d="M-459.67,223.53c-1.61,0-3.49,1.16-3.49,1.83s-2.66-1.68-2.67-2.76,2.66-3.9,2.67-3.14c0,2.53,1.87,2.13,3.48,2.12l5,0c2.7,0,8-2.1,8-4.33,0-1.17,2.76,3.62,2.77,5.23s-2.75,3.78-2.77,2.65c0-1.35-2.87-1.64-4.75-1.62Z" transform="translate(529.95 -196.46)" fill="#fff"/><path d="M-474.38,231.55c0-11.1-15.37-12.2-19.78-9.69-1.34,1.12-1.83,3.27-1.84,5.91,0,4.36.22,7.18.21,11.54l0,13.92c0,3.74-1.6,7.36-1.61,11.1a3.17,3.17,0,0,0,3.17,3.18,3.16,3.16,0,0,0,3.18-3.17c0-3.74-1.57-7.36-1.56-11.11l0-11.17c0-2.71,8.41-1.26,13.74-2.88C-475.63,238.21-474.38,235.75-474.38,231.55Zm-18.08-6.84c1.69-1.49,9.91-1.23,11.7.68s2.58,3.89,2.28,5.47-7.54,6.25-9.22,6.54-3.77.3-4.76-1C-492.46,236.41-494.14,226.2-492.46,224.71Z" transform="translate(529.95 -196.46)" fill="#fff"/><path d="M-518.85,226.79h-3.41c-2,0-4,.85-6,.85a1.71,1.71,0,0,1-1.71-1.71,1.71,1.71,0,0,1,1.71-1.71c2,0,4,.85,6,.85h3.41a1.92,1.92,0,0,0,1.71-1.71V220c0-2-.85-4-.85-6a1.7,1.7,0,0,1,1.71-1.71,1.71,1.71,0,0,1,1.71,1.71c0,2-.85,4-.85,6v3.41a1.91,1.91,0,0,0,1.71,1.71h3.41c2,0,4-.85,6-.85a1.71,1.71,0,0,1,1.71,1.71,1.71,1.71,0,0,1-1.71,1.71c-2,0-4-.85-6-.85h-3.41a1.92,1.92,0,0,0-1.71,1.71v1.72c0,2.35,1.71,4.48,1.71,6.83a2.56,2.56,0,0,1-2.56,2.56,2.56,2.56,0,0,1-2.56-2.56c0-2.35,1.71-4.48,1.71-6.83V228.5A1.92,1.92,0,0,0-518.85,226.79Z" transform="translate(529.95 -196.46)" fill="#fff"/></svg>
