<svg width="51px" height="67px" viewBox="0 0 51 67" xmlns="http://www.w3.org/2000/svg">
    <path d="M30.617 2.479C30.436.871 28.874 0 27.281 0c-.638 0-1.277.134-1.834.402C16.928 4.69 0 21.641 0 41.875 0 56.883 11.369 67 25.387 67 39.412 67 51 57.084 51 41.875c0-17.621-18.318-20.904-20.383-39.396M46.11 38.324c0 9.983-16.385 21.842-27.725 21.842-2.745 0-5.202-.67-7.069-2.278-4.41-3.752-7.066-9.38-7.066-16.013 0-13.601 8.54-25.795 16.116-32.629.98-.938 2.178-1.34 3.368-1.34 1.957 0 3.876 1.139 4.688 3.149 2.34 5.762 6.139 9.983 9.607 13.869 3.217 3.551 6.112 6.566 7.556 10.452.358.939.525 1.943.525 2.948" fill="#fff"/>
</svg>
