<svg xmlns="http://www.w3.org/2000/svg" height="60" viewBox="0 0 221.32 78.83"><title>Vector Smart Object1</title><path d="M-735.92-67h0c-1.93,10.69-8.61,12.74-12.17,14.42s-8.32,3.48-19.68,3.48h-9.73c-1.75-.44-5.11-1.13-5.68-4.07a5.94,5.94,0,0,0-.12-.79l-1.62-12.5a3.64,3.64,0,0,0-.08-.62c-.27-2.74-.36-8,3.67-8.33h27.25l15.5.17C-734.36-75-735.65-69.82-735.92-67ZM-771.73-5.61l-.35,0a2.61,2.61,0,0,1-2.59-2.27l0-.3s-1.21-3.14-1.21-17.66c0-8.17-2.84-12.52-3.38-16.55a2.64,2.64,0,0,1,2.25-3c1.46-.2,3.56-.74,4.25,2.25.94,4,.15,10.08,2.4,16.77,3.7,11,3.78,16.35,3.23,17.93C-768-5.93-769.59-5.61-771.73-5.61Zm39.51-72.31a2.67,2.67,0,0,0-2-.91h-32.42v.12H-787a2.6,2.6,0,0,0-2,.89,2.5,2.5,0,0,0-.62,2.1l10.37,73.29a2.65,2.65,0,0,0,2.62,2.25h16.05v-.1h16A2.61,2.61,0,0,0-742-2.53l10.4-73.29A2.67,2.67,0,0,0-732.22-77.92Z" transform="translate(952.91 78.83)" fill="#fff" fill-rule="evenodd"/><path d="M-862.75-33.93c0-2.42-2-5-5.93-5.58-1-.14-4.8-.34-7.92-.34h-63.88c-1.79,0-4.19-.17-5.69.33-4.72,1.62-6.57,5.94-4.13,9.41,1.62,2.3,4.36,2.94,7.58,2.94h35.35q17.68,0,35.35,0c3.36,0,6.75-.51,8.35-3A6.18,6.18,0,0,0-862.75-33.93Z" transform="translate(952.91 78.83)" fill="#fff"/><path d="M-863.25-22.11c-2.65,0-4.58,1.47-6.87,2.71-4.69,2.54-9.41,2.15-14.13-.34-5.17-2.74-9.8-1.41-15.2.84s-9.77,1.66-14.48-.83c-5.18-2.73-10.31-2.16-15.48.58-4.79,2.54-9.66,3.6-14.4,1-2-1.1-3.21-3.94-6.4-4-1,0-2.7.44-2.7,1.82,0,1.62,1.83,2.13,3,2.16a17.12,17.12,0,0,1,5.54.9c5.63,1.86,11.12,2.64,16.37-.14,4.71-2.5,8.55-2,13.26.47,5.18,2.75,10.37,1.58,15.8-.63,5-2.05,9.15-1.87,13.86.63,5.24,2.78,10,1.27,15.29-1.47,2-1.06,4.41-.19,6.76-.15A1.89,1.89,0,0,0-861-20.28C-861-21.42-862.23-22.1-863.25-22.11Z" transform="translate(952.91 78.83)" fill="#fff"/><path d="M-868.16-14.59c-.9,0-2.17,2.3-3.17,3.32-1.3,1.33-3.71,3.09-9,5s-17.18,3.16-20.06,3.39c-3.63.29-6,.31-13.25.57-6.57.23-13.33.79-20,.75-5,0-8.59-2.55-9.54-5.31-1.13-3.28-.08-4-.58-6.28-.18-.8-1.09-1.82-1.92-1.75a2.49,2.49,0,0,0-2.08,2.33,8.64,8.64,0,0,0,.21,3C-946.5-5.07-940-.08-933.52,0c8.86,0,17.73,0,26.59,0s17.61-.1,26.41,0c7,.1,13.23-5.21,13.62-12.29C-866.83-13.43-866.83-14.56-868.16-14.59Z" transform="translate(952.91 78.83)" fill="#fff"/><path d="M-886.51-10.43c0-.81-.57-1.27-1.45-1.4-.76.18-1.4.54-1.38,1.51A1.23,1.23,0,0,0-888-9,1.31,1.31,0,0,0-886.51-10.43Z" transform="translate(952.91 78.83)" fill="#fff"/><path d="M-925.17-54.67c.89-.16,1.45-.63,1.38-1.57a1.28,1.28,0,0,0-1.42-1.28,1.3,1.3,0,0,0-1.39,1.34C-926.64-55.27-926.05-54.79-925.17-54.67Z" transform="translate(952.91 78.83)" fill="#fff"/><path d="M-933.27-61.31a1.34,1.34,0,0,0,1.49-1.39,1.31,1.31,0,0,0-1.34-1.39,1.32,1.32,0,0,0-1.48,1.41C-934.61-61.82-934.12-61.4-933.27-61.31Z" transform="translate(952.91 78.83)" fill="#fff"/><path d="M-884.33-58.06A1.24,1.24,0,0,0-883-59.4a1.34,1.34,0,0,0-1.47-1.43,1.31,1.31,0,0,0-1.35,1.37A1.31,1.31,0,0,0-884.33-58.06Z" transform="translate(952.91 78.83)" fill="#fff"/><path d="M-945.8-46.73q19.26,0,38.52,0v0c12.46,0,25-.12,37.39,0,3,0,2.57-3.42,2.55-4.42a24.68,24.68,0,0,0-1.55-7.88c-3.32-9.16-10.26-14.38-19.25-17.06-11.54-3.44-23.25-3.43-35-.92a32.73,32.73,0,0,0-16.31,8.2,25.84,25.84,0,0,0-7.83,17.61C-947.28-50.58-947.24-46.82-945.8-46.73Zm.68-5.32c1.26-9.75,6.84-17.29,15.88-20.94,8.46-3.42,18.09-4.26,27.06-3.75a54.34,54.34,0,0,1,17.13,3.88c7.77,3.23,10,6.83,13.06,13.13,1.62,3.35-1.5,5.8-4.71,6.75a89.54,89.54,0,0,1-16,3.17h-49.45C-944.5-49.82-945.43-49.71-945.13-52.05Z" transform="translate(952.91 78.83)" fill="#fff"/><path d="M-810.25-50.86c-3,0-5.8.79-8.8.79h-15.3c-3,0-5.89-1-8.9-1a2.34,2.34,0,0,0-2.57,2.27,2.32,2.32,0,0,0,2.57,2.23c3,0,5.89-1,8.9-1h15.3c3,0,5.92.79,8.93.79,1.4,0,2.54-.66,2.54-2.06S-808.85-50.86-810.25-50.86Z" transform="translate(952.91 78.83)" fill="#fff"/><path d="M-840.5-18.71c3.1-3.66,5-7.72,8.14-11.38l5.25-6.2,5.25-6.2,5.25-6.2c3.1-3.66,6.68-6.35,9.78-10,1.46-1.72,1.82-3.4.52-4.5s-3.06-.26-4.52,1.46c-3.1,3.66-5,7.42-8.11,11.07l-5.25,6.2-5.25,6.2-5.25,6.2c-3.1,3.66-6.91,6.54-10,10.2-1.46,1.72-1.89,3.33-.6,4.42S-842-17-840.5-18.71Z" transform="translate(952.91 78.83)" fill="#fff"/><path d="M-811.67-34.52c-3.51,0-6.43,1-9.94,1h-12.75c-3,0-5.6-1-8.61-1-1.41,0-2.86.9-2.86,2.31s1.53,2.27,2.95,2.27c3,0,5.52-1,8.52-1h12.75c3.51,0,7.48,1,9.73,1s4.58-.27,4.58-2.37S-809.55-34.52-811.67-34.52Z" transform="translate(952.91 78.83)" fill="#fff"/></svg>
