<svg xmlns="http://www.w3.org/2000/svg" height="60" viewBox="0 0 82.81 82.84"><title>Vector Smart Object</title><path d="M-817.12,218.48a30.64,30.64,0,0,1-1,4.58,33.33,33.33,0,0,1-2.5,5.92c-4.09,8-17.54-.27-27.29-10.06l-24.17-24.25c-4-4-4-11.2,0-13.19a40.12,40.12,0,0,1,17.22-4.5c20,0,38,17.59,38,37.59C-816.87,215.53-817,217.52-817.12,218.48Zm-26,31.13a28.41,28.41,0,0,1-11.78,2.88c-19.88-.16-37.84-18-37.84-37.91A34.69,34.69,0,0,1-888.37,197c1.79-3.11,9.57-3.78,12.75-.62l26.75,27.5C-841.58,231.13-831.29,243.77-843.12,249.6Zm29.63-35a41.45,41.45,0,0,0-41.41-41.41,41.47,41.47,0,0,0-41.41,41.43A41.46,41.46,0,0,0-854.91,256h.05c15.37,0,22.7,0,27.3-3.42,3.93-2.92,5.62-6.94,11.23-23l.05-.23a41.3,41.3,0,0,0,2.77-14.78Z" transform="translate(896.31 -173.15)" fill="#fff" fill-rule="evenodd"/><path d="M-834.56,190.23a1.78,1.78,0,0,0-1.33-.63l-21.87.09h-13.78a1.73,1.73,0,0,0-1.33.62,1.77,1.77,0,0,0-.42,1.46l7,50.91a1.81,1.81,0,0,0,1.77,1.56h10.83v-.07h10.79a1.78,1.78,0,0,0,1.75-1.56l7-50.91A1.89,1.89,0,0,0-834.56,190.23Zm-26.21,49.37a2.62,2.62,0,0,1-2.59-2.66,2.62,2.62,0,0,1,2.59-2.66,2.62,2.62,0,0,1,2.59,2.66A2.62,2.62,0,0,1-860.77,239.61Zm-2.92-17.94a1.48,1.48,0,0,1,1.46-1.5,1.48,1.48,0,0,1,1.46,1.5,1.48,1.48,0,0,1-1.46,1.5A1.48,1.48,0,0,1-863.69,221.66Zm9.22,11.92a3.88,3.88,0,0,1-3.82-3.94,3.88,3.88,0,0,1,3.82-3.94,3.88,3.88,0,0,1,3.82,3.94A3.88,3.88,0,0,1-854.47,233.58Zm17.12-36.22-.1,1.07a12.18,12.18,0,0,1-8.08,9.39,34.4,34.4,0,0,1-13,2.42h-6.56a3.4,3.4,0,0,1-3-2.74,3.29,3.29,0,0,0-.12-.51l-1.33-8.54a7.07,7.07,0,0,0-.08-.73c-.18-1.9.12-4.82,2.83-5.06l17.17-.17h9.21C-837.61,192.67-837.17,195.43-837.35,197.36Z" transform="translate(896.31 -173.15)" fill="#fff" fill-rule="evenodd"/></svg>
