<svg xmlns="http://www.w3.org/2000/svg" height="60" viewBox="0 0 38.79 88.4"><title>Vector Smart Object8</title><path d="M-591.66,114l.35-.43.21-.71a160.62,160.62,0,0,1,.48-33.46l-.44-.86a.74.74,0,0,0,.2.16c-.38-1.46.82-3.59-.31-5.68,2.22-8.19-3-15.63-7.34-22a3.37,3.37,0,0,1,.05-.6l0-.18a.79.79,0,0,0-.31,0l.87-.72c.17-1.55.48-4-.79-5.17l-.39-.22a12.06,12.06,0,0,0-6.84,0l-.68.84-.48,4.33.92,1a.58.58,0,0,0-.38-.08l.06.22a3.37,3.37,0,0,1,0,.6c-.67,1-1.42,2.1-2.18,3.29-1.23-2.09-2.6-4.09-3.9-6a3.34,3.34,0,0,1,0-.59l0-.18a.78.78,0,0,0-.31,0l.86-.71c.17-1.53.48-3.93-.78-5.12l-.39-.22a11.94,11.94,0,0,0-6.77,0l-.67.83-.48,4.29.91,1a.58.58,0,0,0-.38-.08l.06.22a3.34,3.34,0,0,1,0,.59c-3.52,5.21-9.4,14-7.8,20.56a37.6,37.6,0,0,1,.12,6.9,1.6,1.6,0,0,0,.28-.15l-.41.77a159,159,0,0,1,.48,33.12l.21.7.35.43c-1.13,5.06-1.87,6.95.31,12.34l.7.6c5.54,1.2,8.61,1.59,12.5,1.19.17.52.37,1.07.61,1.66l.71.61c8.38,1.81,11.15,1.82,19.54,0l.71-.61C-589.77,121-590.52,119.14-591.66,114Zm-22.61-42.2a38,38,0,0,1,.12,7,1.62,1.62,0,0,0,.28-.15l-.41.78a160.63,160.63,0,0,1,.48,33.46l.21.71.35.43c-.82,3.67-1.43,5.7-.9,8.57a5.51,5.51,0,0,1-2.11.41,40.62,40.62,0,0,1-8.86-1.2c-1.84-4.79-.91-6.59.08-11.16l-.19-.82-.4-.49a161,161,0,0,0-.48-32.91c.41-1.2.15-7.14-.06-8-1.44-5.88,4.52-14.58,7.66-19.21l.17-.44c.09-.75,3.78-.81,3.88,0l.17.44c1.47,2.17,3.12,4.52,4.51,7C-612.7,61.15-615.43,67-614.27,71.83Zm21.23,2c1,1.2-.33,4.38.38,5.76-1.34,10.73,2.71,46.82-9.66,46.88a41,41,0,0,1-9-1.21c-.09-.24-.17-.46-.25-.69-.19-.65-.71-2.75-.76-3.23-.23-2.38.41-4.22,1.09-7.35l-.19-.83-.4-.49a162.68,162.68,0,0,0-.48-33.24c.41-1.21.15-7.21-.06-8.07-.92-3.78,1.18-8.71,3.64-13,.21-.26,1-1.72,1.21-2,1-1.66,2.06-3.17,2.89-4.39l.17-.44c.09-.76,3.82-.82,3.92,0l.17.44c4,5.95,9.44,13.31,7.11,20.95Z" transform="translate(628.84 -40.56)" fill="#fff" stroke="#fff" stroke-linecap="round" stroke-linejoin="round" fill-rule="evenodd"/><path d="M-600.29,73.46a1.13,1.13,0,0,0,0-.14.49.49,0,0,0-.53-.44,1.09,1.09,0,0,0-.68.35,17.31,17.31,0,0,1-1.18,1.34l-2,1.92a6.53,6.53,0,0,1-1.26.86l-.14.11a.82.82,0,0,0,0,1.15.82.82,0,0,0,1.15,0,.93.93,0,0,0,.12-.14,6.49,6.49,0,0,1,.91-1.22l1.26-1.19a.74.74,0,0,1,1.25.55l-.17,7.09c-.06,2.62-1.16,3.29-1.2,4.86a1.63,1.63,0,0,0,1.59,1.67,1.63,1.63,0,0,0,1.67-1.59c0-1.57-1-2.29-1-4.91Z" transform="translate(628.84 -40.56)" fill="#fff"/></svg>
