<svg width="27" height="23" viewBox="0 0 27 23" xmlns="http://www.w3.org/2000/svg">
    <path fill="#fff" d="M2.531 13.964C1.133 13.964 0 12.861 0 11.5s1.133-2.464 2.531-2.464c.49 0 .946.144 1.331.38 1.07.657 2.241 1.15 3.504 1.23.403.026.769.041 1.072.041h12.9c1.027 0 1.54-1.21.814-1.918l-5.294-5.155c-.562-.548-1.683-1.06-2.144-1.508a1.273 1.273 0 0 1-.37-.873C14.34.627 14.751 0 15.609 0c.324 0 .648.121.895.361.415.404.986 1.543 1.549 2.091l8.699 8.475a.808.808 0 0 1 .001 1.164l-3.408 3.321c-4.285 4.171-4.651 5.658-4.962 6.346-.278.616-.797 1.242-1.939 1.242-1.168-.002-2.108-.915-2.101-2.054 0-.926.661-1.66 1.324-1.89.764-.266 3.14-1.551 6.516-4.837.71-.692.159-1.888-.845-1.888h-12.9c-.303 0-.667.014-1.072.04-1.262.082-2.433.573-3.504 1.231a2.52 2.52 0 0 1-1.331.362"/>
</svg>
