<svg xmlns="http://www.w3.org/2000/svg" height="60" viewBox="0 0 63.56 84.78"><title>Vector Smart Object7</title><path d="M-825.93,352.16c-.72,12.59-17.88,26.17-32,26.17a24.25,24.25,0,0,1-15-5.67c-5.48-4.74-10-14.27-10-22.67,0-17.24,11.26-34.84,21.33-42.83,5.25-4.17,8.38-4.75,9.83-4.75,2.46,0,3.74,6,4.75,8.5,2.91,7.34,7.18,11.82,11.5,16.67a41.12,41.12,0,0,1,8.17,14A30,30,0,0,1-825.93,352.16Zm-21.44-51.37c-.21-2.07-2.17-3.15-4.16-3.15a4.8,4.8,0,0,0-2.28.53c-10.62,5.4-31.7,26.83-31.7,52.47,0,19,14.17,31.78,31.62,31.78s31.94-12.58,31.94-31.78C-821.94,328.34-844.77,324.18-847.36,300.79Z" transform="translate(885.5 -297.64)" fill="#fff" fill-rule="evenodd"/><path d="M-858.95,347.51h-5.31c-3.09,0-5.75,1.24-8.84,1.24-1.44,0-2.56-.76-2.56-2.22a2.19,2.19,0,0,1,2.47-2.22c3.09,0,5.85,1.32,8.94,1.32H-859a3.7,3.7,0,0,0,2.91-3v-5.16c0-3.09-1-5.31-1-8.41,0-1.45.58-2.87,2-2.87s2.09,1.58,2.09,3c0,3.09-.89,5-.89,8.13v5.31c0,1.24,1.51,3,2.75,3h5.22c3.08,0,5.75-1.26,8.84-1.26,1.44,0,2.59.72,2.59,2.16s-1.06,2.12-2.5,2.12c-3.09,0-5.86-1.15-8.94-1.15h-5.22c-1.24,0-2.75,1.76-2.75,3v3.78c0,3.6,1.72,4.83,1.72,8.44,0,2.17-.62,4.47-2.78,4.47s-3.09-2.11-3.09-4.28c0-3.6,1.94-5,1.94-8.62v-3.84A3.55,3.55,0,0,0-858.95,347.51Z" transform="translate(885.5 -297.64)" fill="#fff"/></svg>
