<svg width="60px" height="60px" viewBox="0 0 60 60" xmlns="http://www.w3.org/2000/svg">
    <path d="M54.375 16.404h-4.746c-2.13 0-4.132-1.119-5.03-4.848C43.007 4.956 37.065 0 30 0c-7.067 0-13.01 4.956-14.599 11.556-.898 3.729-2.9 4.848-5.03 4.848H5.625A5.626 5.626 0 0 0 0 22.031v32.344A5.625 5.625 0 0 0 5.625 60h48.75A5.625 5.625 0 0 0 60 54.375V22.031a5.626 5.626 0 0 0-5.625-5.627M19.496 11C21.163 6.782 25.206 3.75 30 3.75s8.837 3.032 10.502 7.249c1.072 2.715-.722 5.405-3.385 5.405H22.884c-2.664 0-4.458-2.69-3.388-5.405M30 56.25H15.116C9.49 56.25 3.75 53.762 3.75 45.326V28.125c0-4.213 3.703-7.914 7.417-7.914 3.411 0 3.143 5.57 5.708 5.57 2.715 0 2.443-5.625 6.302-5.625H36.82c3.863 0 3.589 5.625 6.304 5.625 2.567 0 2.295-5.57 5.707-5.57 3.713 0 7.418 3.7 7.418 7.914 0 20.86-9.728 28.125-26.25 28.125" fill="#fff"/>
</svg>
