<svg width="87px" height="49px" viewBox="0 0 87 49" xmlns="http://www.w3.org/2000/svg">
    <path d="M20.363 48.87c-2.207 0-4.394-1.149-5.573-2.928-.737-1.114-1.735-3.509-.14-7.032 1.531-3.38 4.564-5.396 8.12-5.396 1.174 0 2.293.24 3.147.678 2.797 1.426 4.58 5.45 2.58 9.46-1.728 3.462-4.466 5.219-8.134 5.219zm2.406-10.924c-1.023 0-2.905.36-3.992 2.762-.385.843-.729 2.017-.2 2.816.389.59 1.21.91 1.786.91 1.313 0 2.82-.21 4.08-2.735 1.066-2.138-.23-3.381-.607-3.573-.121-.063-.5-.18-1.067-.18zM69.478 49c-2.207 0-4.395-1.15-5.573-2.929-.737-1.114-1.736-3.508-.14-7.031 1.53-3.38 4.564-5.397 8.119-5.397 1.174 0 2.294.24 3.148.678 2.797 1.427 4.579 5.45 2.58 9.46-1.729 3.463-4.466 5.22-8.134 5.22zm2.406-10.922c-1.024 0-2.905.359-3.993 2.762-.384.842-.728 2.017-.2 2.816.39.59 1.211.91 1.787.91 1.312 0 2.82-.211 4.08-2.735 1.066-2.139-.23-3.382-.608-3.574-.12-.064-.499-.18-1.066-.18zM10.937 39.417c-.514 1.23-.399 3.325-2.255 3.325s-1.924-2.411-1.527-4.368c.397-1.957 1.527-2.14 2.854-2.086 1.593.067 1.99.588.928 3.13zM81.524 39.07c.132 1.325-.592 3.297 1.187 3.822 1.782.526 2.55-1.764 2.742-3.75.192-1.986-.836-2.48-2.121-2.806-1.547-.386-2.08.002-1.808 2.735zM59.986 39.549c-.414 1.495-.331 3.258-2.789 3.258H34.1c-.862 0-1.658.13-1.327-2.347.331-2.478-1.194-4.172 1.128-4.172h25.618c1.062 0 1.064 1.11.467 3.26zM83.149 19.1c-.935-1.878-1.327-3.194-2.72-7.256-1.09-3.174-2.125-3.52-3.452-3.52s-4.779-.065-7.434-.065-3.054 1.303-3.185 2.607C66.224 12.17 64.83 24.23 64.3 28.597c-.531 4.368 2.157 3.091 3.054 2.628 1.128-.586 1.792-1.063 5.11-1.063 3.317 0 5.575 1.825 6.238 2.41.664.587 2.123.587 3.982.587 2.854 0 3.385-1.304 3.585-2.672.2-1.368.2-3.258.465-5.866s-2.258-2.85-3.585-5.521zm-7.699 2.085c-2.336-.231-3.262-.38-4.447-.542-1.262-.175-2.655-.065-2.324-2.672.331-2.608.465-3.976.465-3.976.134-1.172.134-2.607 2.39-2.607h3.32c1.13 0 2.074.227 2.985 2.757.996 2.758 1.593 4.237 1.66 5.607.067 1.369-1.195 1.715-4.049 1.433zM63.12.726A2.272 2.272 0 0 0 61.45 0H14.545c-1.247 0-1.96 1.026-2.258 2.215-.304 1.219 1.175 2.618 2.351 2.433 4.014-.628 6.257-.745 8.141-.171 1.19.363 1.79.924 1.79 2.15 0 1.223-.79 1.947-1.88 2.543-1.592.868-4.34.424-8.495-.175-6.637-.958-9.126-.922-11.86-.436C1.11 8.78 0 9.867 0 11.093c0 1.223 1.183 2.314 2.426 2.42 2.379.207 5.02.388 11.858-.17 7.433-.612 11.239-.873 13.187-.437 1.214.271 2.807 1.427 2.807 2.651 0 1.223-1.057 1.89-2.257 2.216-2.232.607-5.087.803-10.462-.09-7.345-1.216-10.796-.692-11.771-.346-1.073.384-2.081 1.462-2.081 2.607 0 1.219 1.004 2.134 2.238 2.214 3.386.217 6.448-.726 10.377-.566 2.124.09 2.87 1.423 2.566 2.608-.707 2.782-3.33 2.403-6.35 2.403-2.721 0-2.81 4.664-2.81 4.664 0 .021-.013.04-.013.06 0 .005.004.011.004.017l-.002.017.004-.002c.02 1.208 1.016 2.186 2.252 2.186h2.313c.61 0 1.193-.242 1.618-.672.028-.025 2.719-2.632 6.699-2.632 4.103 0 7.02 2.33 7.038 2.344.406.338.926.524 1.457.524H58.62c1.162 0 2.135-.866 2.247-2.003l2.834-28.682a2.218 2.218 0 0 0-.58-1.698z" fill="#fff"/>
</svg>
