<svg xmlns="http://www.w3.org/2000/svg" height="60" viewBox="0 0 54.77 84.96"><title>Vector Smart Object4</title><path d="M-603.55,346.34h0a6.33,6.33,0,0,0,2.9.7,6.36,6.36,0,0,0,6.36-6.36,6.36,6.36,0,0,0-6.36-6.36,6.36,6.36,0,0,0-6.36,6.36,6.33,6.33,0,0,0,.65,2.79v0c.82,2.06-3.4,5-3.4,5-1.27,1.28-4.28,2.42-5.74,1.88l-.06,0a15.9,15.9,0,0,0-8.45-2.43,16,16,0,0,0-4.28.6.16.16,0,0,0-.1,0,1.48,1.48,0,0,1-2-1l-1.63-4.51c-.37-1-.56-1.42.29-2.11a.41.41,0,0,0,.07-.09,4.85,4.85,0,0,0,1.84-3.79,4.83,4.83,0,0,0-1-3s0,0,0-.07c-.72-.91-.5-1.28,1-3.42,0,0,5.82-9.4,6.6-9.17h.07a2,2,0,0,0,.51.07,2,2,0,0,0,2-2,2,2,0,0,0-2-2,2,2,0,0,0-2,2,2,2,0,0,0,.17.8c.51,1.1-6.31,9.61-6.31,9.61-1.51,2.14-2.48,2.41-3.67,2.27h-.18a4.87,4.87,0,0,0-4.87,4.88,4.88,4.88,0,0,0,4.88,4.88l.23,0h.09c1-.13,1.28.33,1.66,1.37l1.63,4.51a1.83,1.83,0,0,1-1,2.26.12.12,0,0,0-.06.06A16,16,0,0,0-640,363.94a16,16,0,0,0,16,16c1.48,0,2.77,0,3.89,0h0c2.54,0,5.54,1,6.31,2.95,0,0,.61,2.78,0,3.15h0a9,9,0,0,0-2.88,3.13h0c-.48.93-1.9.71-5.2-.28l-14.39-4.3c-2.83-.85-3.93-1.44-4.45-3.71a.41.41,0,0,0-.07-.16,4.24,4.24,0,0,0-4-2.91,4.25,4.25,0,0,0-4.25,4.25,4.25,4.25,0,0,0,4.25,4.25,4.22,4.22,0,0,0,1-.14l.16,0c1-.29,1.34-.41,2.47,1.18,0,0,5,6.55,4.6,7.17l0,0a2.24,2.24,0,0,0-.37,1.22,2.25,2.25,0,0,0,2.25,2.25,2.25,2.25,0,0,0,2.25-2.25,2.25,2.25,0,0,0-2.25-2.25,2.23,2.23,0,0,0-.94.21l-.06,0c-.83.38-4.93-6.79-4.93-6.79-1.13-1.59-1.09-2-.85-2.25s2.05.09,4.88.94l14.39,4.3c3.3,1,4.43,1.81,4.43,2.83,0,0,0,0,0,0,0,.24,0,.47,0,.72a9,9,0,0,0,9,9,9,9,0,0,0,9-9,9,9,0,0,0-9-9,9,9,0,0,0-1.87.2h0c-.87.08-1.88-2.34-1.88-2.34-.73-1.83,0-4.05,1-6.25.63-1.31,1.33-3.25,2.43-6.37h0a16,16,0,0,0,1.1-5.81,15.94,15.94,0,0,0-2.8-9v0c-.89-1.56.76-4.15,2-5.42C-608.77,349.46-604.89,345.68-603.55,346.34Zm.65-9.34a1.5,1.5,0,0,1,1.5,1.5,1.5,1.5,0,0,1-1.5,1.5,1.5,1.5,0,0,1-1.5-1.5A1.5,1.5,0,0,1-602.91,337Zm-8.75,51.25a2.37,2.37,0,0,1,2.38,2.38,2.37,2.37,0,0,1-2.37,2.38,2.38,2.38,0,0,1-2.37-2.37A2.38,2.38,0,0,1-611.66,388.25Zm1.67-24.31a11.15,11.15,0,0,1-.31,3c-1.39,4.87-4.19,5.77-6.23,7.17-2.56,1.75-5,3.87-7.46,3.87a14,14,0,0,1-14-14,14,14,0,0,1,14-14A14,14,0,0,1-610,363.94Z" transform="translate(649.03 -317.54)" fill="#fff"/></svg>
