<svg xmlns="http://www.w3.org/2000/svg" xmlns:xlink="http://www.w3.org/1999/xlink" width="26" height="26" viewBox="0 0 32 32">
  <path fill="#323b50" d="M27.3 27.3C30.4 24.2 32 20.1 32 16c0-4.1-1.6-8.2-4.7-11.3S20.1 0 16 0C11.9 0 7.8 1.6 4.7 4.7 1.6 7.8 0 11.9 0 16c0 2.4.5 4.8 1.6 6.9.6 1.3.8 4.1-.6 4.1-.6 0-1 .4-1 1s.4 1 1 1h5c1.5 0 2-.4 2-2v-5c0-.6-.4-1-1-1s-1 .4-1 1c0 .9-2.3.8-2.7 0-.8-1.9-1.3-4-1.3-6 0-3.6 1.4-7.2 4.1-9.9C8.7 3.5 12.3 2 16 2s7.3 1.5 9.9 4.1C28.6 8.8 30 12.4 30 16c0 2.4-.6 4.9-1.9 7-1.9 3.3-7.5 4.6-11 3.2-.3-.1-.7-.2-1.1-.2-1.7 0-3 1.3-3 3s1.3 3 3 3c4.3 0 8.3-1.7 11.3-4.7"/>
</svg>
