<svg xmlns="http://www.w3.org/2000/svg" viewBox="0 0 19.4 28.2">
  <path stroke="#fff" fill="none" stroke-miterlimit="10" stroke-width="2" d="M18.2 22.1c-.1-.2-.3-.3-.3-.3v-1c0-.5-.4-1.1-.4-1.1v-5.3s.4-.4.4-.8v-1.4s.5-.2.5-1.6-.9-2.4-3.6-3.1c-2.2-.6-3.4-.9-3.4-2.3V3.7h.4v-2c0-.4-1.1-.6-2.1-.6h-.1-.1c-.9-.1-2 .1-2 .5v2h.4v1.5c0 1.4-1.2 1.7-3.4 2.3C1.9 8.2 1 9.2 1 10.6s.5 1.6.5 1.6v1.4c0 .4.4.8.4.8v5.3s-.4.7-.4 1.1v1s-.2.1-.3.3c-.1.2-.2 1-.1 1.6s-.3 1.2 1.2 2.4c1.2.9 4 1.1 6.6 1.1h1.8c2.6 0 5.4-.2 6.6-1.1 1.5-1.2 1.1-1.8 1.2-2.4s-.2-1.4-.3-1.6zM7.1 18.5c0 .7-.6 1.3-1.4 1.3-.7 0-1.3-.6-1.3-1.3v-3.9c0-.7.6-1.3 1.3-1.3.7 0 1.4.6 1.4 1.3v3.9z"/>
  <path stroke="#fff" fill="#fff" stroke-miterlimit="10" d="M17.3 18c-2.1 5.9-10.2 8.9-10.2 8.9l2.6.4 4.6-.2 2.6-.9 1.2-1.6v-2.4l-.8-4.2z"/>
</svg>
