<svg xmlns="http://www.w3.org/2000/svg" viewBox="0 0 18.4 27.2">
  <path fill="none" stroke="#063851" stroke-miterlimit="10" d="M17.7 21.6c-.1-.2-.3-.3-.3-.3v-1c0-.5-.4-1.1-.4-1.1v-5.3s.4-.4.4-.8v-1.4s.5-.2.5-1.6c0-1.3-.9-2.4-3.6-3.1-2.1-.7-3.3-1-3.3-2.4V3.1h.4v-2c0-.5-1.1-.6-2.1-.6h-.1-.1c-1 0-2.1.2-2.1.6v2h.4v1.5C7.4 6 6.2 6.3 4 6.9 1.4 7.6.4 8.7.4 10s.5 1.6.5 1.6V13c0 .4.4.8.4.8v5.3s-.4.7-.4 1.1v1s-.2.1-.3.3c-.1.2-.2 1-.1 1.6s-.3 1.2 1.2 2.4c1.2.9 4 1.1 6.6 1.1h1.8c2.6 0 5.4-.2 6.6-1.1 1.5-1.2 1.1-1.8 1.2-2.4 0-.5-.1-1.3-.2-1.5zM6.6 18c0 .7-.6 1.3-1.4 1.3-.7 0-1.3-.6-1.3-1.3v-3.9c0-.7.6-1.3 1.3-1.3.7 0 1.4.6 1.4 1.3V18z"/>
</svg>
