<svg width="18px" height="32px" viewBox="0 0 18 32" xmlns="http://www.w3.org/2000/svg">
    <path fill="#063851" d="M17.774 26.879c-.097-.217-.291-.341-.291-.341v-2.949c0-.466-.42-1.117-.42-1.117v-7.263s.452-.372.452-.776V11.05S18 10.832 18 9.498c0-1.335-.978-2.389-3.682-3.104-2.228-.59-3.488-.9-3.488-2.297 0-1.397.032-1.521.032-1.521h.42V.621C11.282.187 10.184 0 9.086 0c-.033 0-.055.004-.085.006C8.968.004 8.948 0 8.914 0 7.816 0 6.718.186 6.718.621v1.955h.42s.032.124.032 1.521c0 1.397-1.26 1.707-3.488 2.297C.978 7.109 0 8.163 0 9.498c0 1.335.484 1.552.484 1.552v3.383c0 .404.452.776.452.776v7.263s-.42.652-.42 1.117v2.949s-.194.124-.291.341c-.097.217-.183 1.003-.14 1.624.042.621-.301 1.201 1.206 2.359 1.218.937 4.154 1.103 6.803 1.132V32c.291 0 .595 0 .905-.002.31.002.615.002.906.002v-.007c2.65-.029 5.585-.195 6.803-1.132 1.507-1.158 1.164-1.738 1.206-2.359.043-.62-.043-1.406-.14-1.623zM6.295 21.338c0 .7-.625 1.269-1.396 1.269-.767 0-1.391-.568-1.391-1.269v-5.826c0-.701.624-1.271 1.391-1.271.771 0 1.396.569 1.396 1.271v5.826z"/>
</svg>
