<svg xmlns="http://www.w3.org/2000/svg" viewBox="0 0 18 27" width="18" height="27">
    <path fill="#063851" d="M17.774 21.69a.894.894 0 0 0-.291-.354v-.998c0-.483-.42-1.159-.42-1.159v-5.471s.452-.386.452-.805v-1.448S18 11.231 18 9.847c0-1.384-.978-2.477-3.682-3.218-2.228-.611-3.488-.933-3.488-2.381 0-1.448.032-1.577.032-1.577h.42V.644c0-.45-1.098-.644-2.196-.644-.033 0-.055.004-.085.006C8.968.004 8.948 0 8.914 0 7.816 0 6.718.193 6.718.644v2.027h.42s.032.129.032 1.577-1.26 1.77-3.488 2.381C.978 7.37 0 8.464 0 9.847c0 1.384.484 1.609.484 1.609v1.448c0 .418.452.805.452.805v5.471s-.42.676-.42 1.159v.998s-.194.129-.291.354c-.097.225-.183 1.04-.14 1.684s-.301 1.245 1.206 2.446c1.218.971 4.154 1.143 6.803 1.174V27c.291 0 .595 0 .905-.002.31.002.615.002.906.002v-.007c2.65-.03 5.585-.202 6.803-1.174 1.507-1.201 1.164-1.802 1.206-2.446.043-.643-.043-1.458-.14-1.683zM6.295 18.004c0 .726-.625 1.315-1.396 1.315-.767 0-1.391-.589-1.391-1.315v-3.981c0-.727.624-1.317 1.391-1.317.771 0 1.396.59 1.396 1.317v3.981z"/>
</svg>
