<svg width="26" height="26" viewBox="0 0 26 26" xmlns="http://www.w3.org/2000/svg">
    <path d="M23.562 1.625h-2.438C20.252 1.625 20.386 0 19.5 0c-.886 0-.752 1.625-1.625 1.625h-9.75C7.252 1.625 7.386 0 6.5 0s-.752 1.625-1.625 1.625H2.438A2.437 2.437 0 0 0 0 4.062v19.5A2.437 2.437 0 0 0 2.438 26h21.125A2.437 2.437 0 0 0 26 23.562v-19.5a2.437 2.437 0 0 0-2.438-2.437zM1.856 5.548c.595-1.219 1.74-2.298 3.019-2.298.873 0 .739 1.625 1.625 1.625S7.252 3.25 8.125 3.25h9.75c.873 0 .739 1.625 1.625 1.625s.752-1.625 1.625-1.625c.808 0 1.514.33 2.065.837 1.877 1.727-4.389 3.225-6.94 3.225h-13c-1.039 0-1.86-.812-1.394-1.764zM24.375 16.25c0 3.655-1.946 8.125-8.938 8.125H6.5c-2.199 0-4.875-1.252-4.875-3.983V10.96c0-1.117.905-2.023 2.023-2.023h18.705c1.117 0 2.023.905 2.023 2.023v5.29z" fill="#FFF"/>
    <path d="M14.953 19.394a.26.26 0 0 0-.075-.102.163.163 0 0 0-.096-.032h-1.228v-6.218a.149.149 0 0 0-.023-.087c-.015-.023-.047-.042-.093-.056a1.08 1.08 0 0 0-.206-.029 5.673 5.673 0 0 0-.358-.009c-.121 0-.217.001-.294.003a1.879 1.879 0 0 0-.183.012.569.569 0 0 0-.113.023.264.264 0 0 0-.073.038l-1.616 1.047a.716.716 0 0 0-.111.087.287.287 0 0 0-.064.105.586.586 0 0 0-.029.154 4.52 4.52 0 0 0-.006.23c0 .148.006.262.017.344.012.081.034.138.067.171s.077.045.133.035a.883.883 0 0 0 .218-.078l1.21-.669v4.897h-1.402a.148.148 0 0 0-.093.032.26.26 0 0 0-.073.102.64.64 0 0 0-.046.183c-.01.076-.015.17-.015.282 0 .108.006.201.017.276a.67.67 0 0 0 .05.18.236.236 0 0 0 .072.096.149.149 0 0 0 .087.029h4.154c.034 0 .065-.01.093-.029a.245.245 0 0 0 .073-.096.673.673 0 0 0 .049-.18c.012-.075.017-.168.017-.276 0-.113-.005-.207-.015-.282a.575.575 0 0 0-.045-.183z" fill="#FFF"/>
</svg>
