<svg width="26" height="26" viewBox="0 0 26 26" xmlns="http://www.w3.org/2000/svg">
    <path d="M6.5 11.375a1.624 1.624 0 1 0-.001 3.249 1.624 1.624 0 0 0 .001-3.249M13 11.375a1.624 1.624 0 1 0-.001 3.249A1.624 1.624 0 0 0 13 11.375M19.5 11.375a1.624 1.624 0 1 0-.001 3.249 1.624 1.624 0 0 0 .001-3.249M6.5 17.875a1.625 1.625 0 1 0 0 3.25 1.625 1.625 0 0 0 0-3.25M13 17.875a1.625 1.625 0 1 0 0 3.25 1.625 1.625 0 0 0 0-3.25M19.5 17.875a1.625 1.625 0 1 0 0 3.25 1.625 1.625 0 0 0 0-3.25" fill="#FFF"/>
    <path d="M23.562 1.625h-2.438C20.252 1.625 20.386 0 19.5 0c-.886 0-.752 1.625-1.625 1.625h-9.75C7.252 1.625 7.386 0 6.5 0s-.752 1.625-1.625 1.625H2.438A2.437 2.437 0 0 0 0 4.062v19.5A2.437 2.437 0 0 0 2.438 26h21.125A2.437 2.437 0 0 0 26 23.562v-19.5a2.437 2.437 0 0 0-2.438-2.437M1.856 5.548c.595-1.219 1.74-2.298 3.019-2.298.873 0 .739 1.625 1.625 1.625S7.252 3.25 8.125 3.25h9.75c.873 0 .739 1.625 1.625 1.625s.752-1.625 1.625-1.625c.808 0 1.514.33 2.065.837 1.877 1.727-4.389 3.225-6.94 3.225h-13c-1.039 0-1.86-.812-1.394-1.764M24.375 16.25c0 3.655-1.946 8.125-8.938 8.125H6.5c-2.199 0-4.875-1.252-4.875-3.983V10.96c0-1.117.905-2.023 2.023-2.023h18.705c1.117 0 2.023.905 2.023 2.023v5.29z" fill="#FFF"/>
</svg>
