<svg xmlns="http://www.w3.org/2000/svg" viewBox="0 0 14 14" width="14" height="14">
    <path fill="#063851" d="M.138 12.495A.979.979 0 0 0 0 13a1 1 0 0 0 1.706.708c.725-.725 1.046-1.79 1.771-2.515L5.64 9.029a1.906 1.906 0 0 1 2.695 0l.463.463c1.144 1.144 1.5 2.925 2.644 4.069A1.496 1.496 0 0 0 14 12.502c0-.291-.083-.581-.249-.826-.971-1.439-3.072-1.714-4.3-2.943l-.41-.41a1.906 1.906 0 0 1 0-2.695l1.764-1.765c.91-.909 2.388-1.258 3.056-2.358A.971.971 0 0 0 14 .999a1.002 1.002 0 0 0-1.706-.707c-.883.883-1.408 2.079-2.29 2.961L8.335 4.922a1.906 1.906 0 0 1-2.695 0L3.739 3.02C2.879 2.161 2.544.77 1.505.139A1 1 0 1 0 .292 1.706c.888.888 2.111 1.392 3 2.279l1.643 1.643a1.906 1.906 0 0 1 0 2.695L2.58 10.677c-.717.718-1.915.95-2.442 1.818"/>
</svg>
