<?xml version="1.0" encoding="utf-8"?>
<svg width="27" height="27" viewBox="0 0 27 27" xmlns="http://www.w3.org/2000/svg">
  <path fill="#587f93" d="M 0.658 24.123 C 0.485 24.415 0.394 24.746 0.396 25.086 C 0.396 26.553 1.98 27.47 3.246 26.736 C 3.389 26.653 3.521 26.552 3.638 26.435 C 5.015 25.053 5.625 23.023 7.003 21.641 L 11.113 17.517 C 12.528 16.099 14.82 16.099 16.234 17.517 L 17.114 18.399 C 19.288 20.58 19.965 23.975 22.139 26.155 C 23.68 27.714 26.325 27.013 26.9 24.895 C 26.967 24.647 27 24.394 27 24.137 C 27 23.582 26.842 23.029 26.526 22.562 C 24.681 19.819 20.689 19.295 18.355 16.953 L 17.576 16.171 C 16.162 14.753 16.162 12.452 17.576 11.034 L 20.928 7.67 C 22.657 5.937 25.466 5.272 26.735 3.175 C 26.91 2.884 27.001 2.55 27 2.211 C 26.991 0.741 25.399 -0.168 24.134 0.574 C 23.997 0.654 23.87 0.751 23.758 0.863 C 22.08 2.546 21.082 4.826 19.406 6.507 L 16.234 9.688 C 14.82 11.107 12.528 11.107 11.113 9.688 L 7.501 6.063 C 5.867 4.426 5.23 1.774 3.256 0.572 C 2.231 -0.475 0.46 -0.017 0.069 1.397 C -0.163 2.236 0.2 3.124 0.951 3.559 C 2.638 5.251 4.962 6.212 6.651 7.903 L 9.774 11.034 C 11.187 12.452 11.187 14.753 9.774 16.171 L 5.298 20.658 C 3.936 22.027 1.659 22.469 0.658 24.123"/>
</svg>
