<svg xmlns="http://www.w3.org/2000/svg" viewBox="0 0 42 42" width="42" height="42">
  <path fill="#fff" d="M41.7 40.5L29 27.7c2.7-2.9 4.3-6.8 4.3-11.1C33.2 7.5 25.8 0 16.6 0S0 7.5 0 16.6s7.5 16.6 16.6 16.6c4.3 0 8.2-1.6 11.1-4.3l12.8 12.8c.2.2.4.3.6.3s.4-.1.6-.3c.4-.3.4-.9 0-1.2zM1.8 16.6c0-8.2 6.7-14.9 14.9-14.9s14.9 6.7 14.9 14.9-6.7 14.9-14.9 14.9S1.8 24.8 1.8 16.6z"/>
  <path fill="#fff" d="M21 21.5c.6-.5 1.6-1.7 1.7-4.3.7-.5 1.1-1.6 1.1-2.6 0-.6-.1-1.1-.4-1.5-.1-.2-.3-.4-.4-.5.4-.9.9-2.4.5-4.1-.6-2.4-3.7-3.3-6.1-3.3-2.2 0-4.8.7-5.8 2.5-.8 0-1.4.2-1.8.7-.9 1.1-.2 2.9.3 4.1-.2.1-.3.3-.5.5-.3.4-.4.9-.4 1.5 0 1 .4 2.1 1.1 2.6.1 2.6 1.1 3.8 1.7 4.3v2.4c-1.3.5-2.6 1.1-3.9 1.7l.8 1.6c1.4-.7 2.9-1.3 4.3-1.9.3-.1.6-.5.6-.8V21c0-.3-.2-.7-.6-.8 0 0-1.2-.6-1.2-3.6 0-.5-.3-.8-.8-.8-.2-.1-.5-1-.3-1.6.1-.2.1-.2.2-.2.5 0 .9-.4.9-.9 0-.3-.1-.5-.3-1.1-.7-1.7-.8-2.3-.7-2.5 0 0 .2-.1.8 0 .5.1.9-.2 1-.6.3-1.1 2.1-2 4.4-2s4.1.8 4.4 2c.3 1.3-.2 2.5-.6 3.3-.2.4-.3.6-.3.9 0 .5.4.9.9.9 0 0 .1.2.1.6 0 .6-.2 1.1-.3 1.2-.5 0-.9.4-.9.9 0 3-1.2 3.5-1.2 3.5-.4.1-.6.5-.6.8v3.5c0 .4.2.7.6.8 1.4.6 2.9 1.2 4.3 1.9l.8-1.6c-1.2-.6-2.6-1.2-3.9-1.7v-2.4z"/>
</svg>
