<svg xmlns="http://www.w3.org/2000/svg" viewBox="0 0 42 42" width="42" height="42">
  <path fill="#fff" d="M21 0C9.4 0 0 9.4 0 21s9.4 21 21 21 21-9.4 21-21S32.6 0 21 0zM8.8 35.8c.2-7 5.3-12.2 12.2-12.2 7.1 0 12 5 12.2 12.2-3.3 2.7-7.6 4.4-12.2 4.4s-8.9-1.7-12.2-4.4zm26.1-1.6c-.8-7.4-6.3-12.4-13.9-12.4-7.4 0-13 5.2-13.9 12.5-3.3-3.4-5.3-8.1-5.3-13.3C1.8 10.4 10.4 1.8 21 1.8S40.2 10.4 40.2 21c0 5.1-2 9.8-5.3 13.2z"/>
  <path fill="#fff" d="M16.6 13.1c-.5 0-.9.4-.9.9 0 1.4-1.2 2.6-2.6 2.6s-2.6-1.2-2.6-2.6c0-.5-.4-.9-.9-.9s-.9.4-.9.9c0 2.4 2 4.4 4.4 4.4s4.4-2 4.4-4.4c0-.5-.4-.9-.9-.9zM32.4 13.1c-.5 0-.9.4-.9.9 0 1.4-1.2 2.6-2.6 2.6s-2.6-1.2-2.6-2.6c0-.5-.4-.9-.9-.9s-.9.4-.9.9c0 2.4 2 4.4 4.4 4.4s4.3-2 4.4-4.4c0-.5-.4-.9-.9-.9z"/>
</svg>
