<svg xmlns="http://www.w3.org/2000/svg" viewBox="0 0 41 41" width="41" height="41">
  <path fill="#fff" d="M41 1c0-.3 0-.6-.2-.8-.3-.1-.6-.2-.8-.2-.8.1-8 1.4-10 3.4L18.9 14.5c-2.7 0-6.5.1-8.2.6-1.4.5-3.2 1.9-4.1 2.8L.3 24.2c-.3.3-.3.7-.2 1 .2.3.5.5.8.5H1l7.9-1c0 .3 0 .5.2.7l6.3 6.3c.2.2.4.3.6.3l-.8 8c0 .4.2.7.5.9.1.1.3.1.4.1.2 0 .5-.1.6-.3l6.3-6.3c.9-.9 2.3-2.7 2.7-4.1.4-1.3.7-4.1.7-8.1L37.6 11c2-2 3.3-9.2 3.4-10zM7.9 19.2c.9-.9 2.4-2 3.4-2.4.9-.3 2.9-.4 5.8-.5l-5.4 5.4-1 1-7.3.9 4.5-4.4zM11 25c.3-.3.7-.8 1.3-1.3l5 5-1.2 1.3-5.1-5zm13.1 4.7c-.3 1-1.5 2.6-2.3 3.4l-4.5 4.5.8-7.2 1.1-1.1 5.4-5.4c0 3.8-.3 5.2-.5 5.8zm-5.5-2.2l-5-5c5.6-5.6 16.7-16.8 17.7-17.7 1-1.2 4.8-2.2 7.7-2.8-.6 2.8-1.6 6.7-2.7 7.7L18.6 27.5z"/>
  <path fill="#fff" d="M11.6 30.6c-.3.3-.3.9 0 1.3 1.2 1.2-.3 2.8-.6 3.2-1 1-5.1 2.3-8.2 3.2C3.6 35.1 5 31 6 30c.3-.3 2-1.8 3.2-.6.3.3.9.3 1.3 0 .3-.3.3-.9 0-1.3-.8-.8-1.9-1.1-3-.9-.9.2-1.9.7-2.7 1.6-1.9 1.9-3.8 9.7-4 10.6-.1.3 0 .6.2.8.2.2.4.3.6.3h.2c.9-.2 8.7-2.2 10.5-4.1 1.9-1.9 2.1-4.2.6-5.7-.3-.4-.9-.4-1.3-.1z"/>
</svg>
