<svg xmlns="http://www.w3.org/2000/svg" viewBox="0 0 41 40" width="41" height="40">
  <path fill="#fff" d="M2.3 40c-.2 0-.4-.1-.6-.3-.3-.3-.3-.7-.2-1l4.1-8.6C2 26.7 0 22.4 0 17.8 0 8 9.2 0 20.5 0S41 8 41 17.8s-9.2 17.8-20.5 17.8c-2.3 0-4.6-.3-6.8-1L2.7 40h-.4zM20.5 1.8C10.1 1.8 1.7 9 1.7 17.8c0 4.3 2 8.3 5.6 11.3.3.3.4.7.2 1.1l-3.3 7 9.1-4.4c.2-.1.4-.1.6 0 2.1.7 4.3 1 6.6 1 10.4 0 18.8-7.2 18.8-16s-8.4-16-18.8-16z"/>
  <path fill="#fff" d="M17.9 15.3c-.5 0-.9-.4-.9-.9 0-1.5-1.1-2.7-2.6-2.7S12 12.9 12 14.4c0 .5-.4.9-.9.9s-.9-.4-.9-.9c0-2.5 1.9-4.5 4.3-4.5s4.3 2 4.3 4.5c0 .5-.4.9-.9.9zm12 0c-.5 0-.9-.4-.9-.9 0-1.5-1.1-2.7-2.6-2.7-1.4 0-2.6 1.2-2.6 2.7 0 .5-.4.9-.9.9s-.9-.4-.9-.9c0-2.5 1.9-4.5 4.3-4.5s4.3 2 4.3 4.5c.2.5-.2.9-.7.9zm-6 12.6h-6.8c-4.7 0-8.5-4-8.5-9 0-.5.4-.9.9-.9s.9.4.9.9c0 4 3.1 7.2 6.8 7.2H24c3.8 0 6.8-3.2 6.8-7.2 0-.5.4-.9.9-.9s.9.4.9.9c-.1 4.9-4 9-8.7 9z"/>
</svg>
