<svg xmlns="http://www.w3.org/2000/svg" viewBox="0 0 50 50" width="50" height="50">
  <path fill="#fff" d="M19.4 26.8c.7 0 1.2-.6 1.2-1.2s-.6-1.2-1.2-1.2c-.7 0-1.2.6-1.2 1.3-.1.5.5 1.1 1.2 1.1z"/>
  <circle fill="#fff" cx="25.9" cy="17.9" r="1.2"/>
  <path fill="#fff" d="M18.1 22c.7 0 1.2-.6 1.2-1.2s-.6-1.2-1.2-1.2c-.7 0-1.2.6-1.2 1.3-.1.5.5 1.1 1.2 1.1zm9.9 1.6c.6 0 1.2-.6 1.2-1.2s-.6-1.2-1.2-1.2c-.6-.1-1.2.5-1.2 1.2s.6 1.2 1.2 1.2zm2.1 4.5c.6 0 1.2-.6 1.2-1.2s-.6-1.2-1.2-1.2-1.2.5-1.2 1.2.6 1.2 1.2 1.2zM18 15.9c0-.6-.5-1.3-1.2-1.3s-1.2.6-1.2 1.3c0 .7.6 1.2 1.2 1.2s1.2-.6 1.2-1.2z"/>
  <path fill="#fff" d="M45 47.6c-1.5.1-2.8-.7-3.4-2 5.2-2.9 8.4-8.3 8.4-14.2 0-1.4-1.1-2.5-2.5-2.5H26.7c0-.7-.5-1.3-1.2-1.3-.2 0-.3 0-.5.1-.5.2-.8.7-.8 1.2H6.5V7.6c0-2.8 2.2-5 5-5 1.1 0 2.2.4 3.1 1.1-2.3 1.6-3.3 4.6-2.3 7.2.2.6.7 1.1 1.3 1.4.3.2.7.2 1.1.2.3 0 .6-.1.9-.1l7-2.6c1.3-.5 2-1.9 1.5-3.2-.9-2.5-3.2-4.1-5.9-4.1-.4 0-.8 0-1.1.1C15.7 1 13.7 0 11.5 0 7.4 0 4 3.4 4 7.5v21.2H2.5c-1.4 0-2.5 1.1-2.5 2.5 0 5.9 3.2 11.3 8.4 14.2-.6 1.4-1.9 2.2-3.4 2.1-.7 0-1.2.6-1.2 1.2 0 .7.6 1.3 1.2 1.3 2.4.2 4.7-1.3 5.6-3.5 1.8.7 3.7 1 5.6 1h17.5c1.9 0 3.8-.3 5.6-1 .9 2.3 3.2 3.7 5.6 3.5.7 0 1.2-.6 1.2-1.2s-.4-1.2-1.1-1.2zM16.9 5.2c.4-.2.9-.2 1.3-.2 1.6 0 3 1 3.5 2.5l-7 2.6c-.8-2 .2-4.2 2.2-4.9zm16.9 39.9H16.3c-7.6 0-13.7-6.2-13.8-13.8h45c0 7.6-6.2 13.8-13.7 13.8z"/>
  <circle fill="#fff" cx="20.3" cy="14.6" r="1.2"/>
  <circle fill="#fff" cx="23.8" cy="13.3" r="1.2"/>
  <circle fill="#fff" cx="22" cy="19.3" r="1.2"/>
  <circle fill="#fff" cx="23.7" cy="24" r="1.2"/>
</svg>
