<svg xmlns="http://www.w3.org/2000/svg" viewBox="0 0 42 37" width="42" height="37">
  <path fill="#fff" d="M41.1 0H.9C.4 0 0 .4 0 .9v28.2c0 .5.4.9.9.9h11.4v6.1c0 .3.2.7.5.8.1.1.2.1.3.1.3 0 .5-.1.7-.2l6.7-6.8h20.6c.5 0 .9-.4.9-.9V.9c0-.5-.4-.9-.9-.9zm-.8 28.2H20.2c-.2 0-.4.1-.6.3L14.1 34v-4.9c0-.5-.4-.9-.9-.9H1.8V1.8h38.5v26.4z"/>
  <path fill="#fff" d="M16.6 12.3c.5 0 .9-.4.9-.9 0-2.4 2-4.4 4.4-4.4s4.4 2 4.4 4.4-2 4.4-4.4 4.4c-.5 0-.9.4-.9.9v1.8c0 .5.4.9.9.9s.9-.4.9-.9v-.9c2.9-.4 5.2-3 5.2-6.1 0-3.4-2.8-6.3-6.2-6.3-3.4 0-6.1 2.8-6.1 6.2 0 .5.4.9.9.9z"/>
  <circle fill="#fff" cx="21.9" cy="22.9" r="1.8"/>
</svg>
