<svg xmlns="http://www.w3.org/2000/svg" viewBox="0 0 42 42" width="42" height="42">
  <path fill="#fff" d="M31.6 27.3l-6.2-6.2 6.3-6.1c2.8 1 6 .3 8.1-1.8 2.2-2.2 2.8-5.4 1.6-8.3-.1-.2-.2-.3-.4-.3-.1-.1-.3 0-.4.1l-3.3 3.4h-3.1V4.7l3.3-3.3c.1-.1.1-.2.1-.4s-.2-.3-.3-.4c-2.9-1.3-6.2-.6-8.4 1.6-2.2 2.1-2.9 5.3-1.8 8.1L21 16.4l-6-6.1c1-2.8.3-6-1.8-8.1C11 .1 7.8-.5 4.9.7c-.2.1-.3.2-.3.4 0 .1 0 .3.2.4l3.4 3.3V8H4.8L1.5 4.6c-.1-.1-.2-.1-.4-.1-.2.1-.3.2-.4.3C-.5 7.7.1 11 2.4 13.2c2.1 2.1 5.3 2.8 8.1 1.7l6 6-6.2 6.2c-2.8-1-6-.3-8.1 1.8C0 31.1-.6 34.4.6 37.3c.1.2.2.3.4.3.1.1.3 0 .4-.1l3.3-3.3H8v3.1l-3.4 3.3c-.1.1-.1.2-.1.4s.1.3.3.4c1 .4 2 .6 3 .6 2 0 3.9-.8 5.3-2.3 2.1-2.1 2.8-5.3 1.7-8.1l6.2-6 6.1 6.1c-1 2.8-.3 6 1.8 8.1 1.5 1.4 3.4 2.2 5.4 2.2 1 0 2-.2 2.9-.4.2-.1.3-.2.3-.4.1-.1 0-.3-.1-.4L34 37.5v-3.1h3.1l3.3 3.3c.1.1.2.1.4.1s.3-.2.4-.3c1.3-2.9.6-6.2-1.6-8.4-2-2.2-5.2-2.9-8-1.8zM10.9 13.9c0-.1-.2-.1-.3-.1-.1 0-.2 0-.3.1-2.5 1.1-5.4.5-7.3-1.4C1.2 10.7.6 8.2 1.3 5.9l2.9 3c.1.1.3.2.4.2h4.1c.3 0 .5-.2.5-.5V4.5c0-.1-.1-.3-.2-.3L6 1.4c2.3-.7 4.7-.1 6.5 1.7 1.9 1.9 2.5 4.8 1.4 7.3-.1.1 0 .4.1.5l6.3 6.3-3.1 3.1-6.3-6.4zM14 31.7c1 2.5.5 5.4-1.4 7.3-1.8 1.8-4.3 2.4-6.6 1.7l3.1-2.8c0-.1.1-.3.1-.4v-3.8c0-.3-.2-.5-.5-.5H4.6c-.1 0-.2 0-.3.1l-2.9 2.9c-.7-2.3-.1-4.8 1.7-6.6 1.9-1.9 4.8-2.5 7.3-1.4.1.1.4 0 .5-.1l6.8-6.8 3.8-3.8 6.7-6.7c.1-.1.2-.3.1-.5-1.1-2.5-.5-5.4 1.4-7.3 1.7-1.8 4.3-2.4 6.6-1.7l-2.9 2.9s-.1.2-.1.3v4c0 .3.2.5.5.5h3.8c.2 0 .3 0 .4-.1l2.9-3c.7 2.3.1 4.7-1.7 6.5-1.9 1.9-4.8 2.5-7.3 1.4-.1-.1-.4 0-.5.1L14.1 31.2c-.1.1-.2.3-.1.5zm26.7 4.5l-2.9-2.9s-.2-.1-.3-.1h-3.8c-.3 0-.5.2-.5.5v3.8c0 .1 0 .2.1.3l2.9 2.9c-2.3.7-4.8.1-6.6-1.7-1.9-1.9-2.5-4.8-1.4-7.3.1-.1 0-.4-.1-.5l-6.4-6.4 3.1-3.1 6.4 6.4c.1.1.3.2.5.1 2.5-1.1 5.4-.5 7.3 1.4 1.8 1.7 2.4 4.3 1.7 6.6z"/>
</svg>
