<svg xmlns="http://www.w3.org/2000/svg" viewBox="0 0 44 47" width="44" height="47">
  <path fill="#fff" d="M23 3.9c-.1 0-.2 0-.3.1-.8-2.3-2.9-4-5.4-4H7.7C5.1 0 3 1.7 2.2 4c-.1-.1-.2-.1-.3-.1-.5 0-1 .4-1 1v2c0 .5.4 1 1 1 0 2.2 1.7 3.9 3.8 3.9h2.9c1.6 0 3-.8 3.8-2 .9 1.2 2.3 2 3.8 2h2.9c2.1 0 3.8-1.8 3.8-3.9.5 0 1-.4 1-1v-2c0-.5-.4-1-.9-1zM8.6 9.8H5.7c-1.1 0-1.9-.9-1.9-2v-2C3.8 3.7 5.5 2 7.7 2h3.8v4.9c0 1.6-1.3 2.9-2.9 2.9zm12.4-2c0 1.1-.9 2-1.9 2h-2.9c-1.6 0-2.9-1.3-2.9-2.9V2h3.8C19.3 2 21 3.7 21 5.9v1.9z"/>
  <path fill="#fff" d="M40.2 18.3v-3.6c0-.5-.4-1-1-1h-1.1c-.5-2.2-2.5-3.9-4.7-3.9h-1.9c-4.5 0-6.7 2.6-6.7 7.8v15.2c0 8.1-3.7 12.2-11 12.2-6.6 0-12-5.5-12-12.2v-7.3c0-3.5 2.6-6.4 5.9-6.8.4 1.7 1.9 2.9 3.7 2.9 2.1 0 3.8-1.8 3.8-3.9s-1.7-3.9-3.8-3.9c-1.8 0-3.3 1.3-3.7 3-4.3.3-7.7 4.1-7.7 8.7v7.3C0 40.6 6.2 47 13.9 47c8.3 0 12.9-5 12.9-14.2V17.6c0-5.2 2.3-5.9 4.8-5.9h1.9c1 0 2.2.8 2.7 2h-.8c-.5 0-1 .4-1 1v3.6c-2.3 1.1-3.8 3.5-3.8 6.2v18.6c0 2.2 1.7 3.9 3.8 3.9h5.7c2.1 0 3.8-1.8 3.8-3.9V24.5c.1-2.7-1.5-5.1-3.7-6.2zm-28.7-2.6c1.1 0 1.9.9 1.9 2s-.9 2-1.9 2c-1.1 0-1.9-.9-1.9-2s.8-2 1.9-2zm24.8 0h1.9v2h-1.9v-2zm1 3.9c2.3 0 4.2 1.7 4.7 3.9h-9.4c.5-2.2 2.4-3.9 4.7-3.9zM40.2 45h-5.7c-1.1 0-1.9-.9-1.9-2h9.6c-.1 1.2-1 2-2 2zm1.9-3.9h-9.6V25.5h9.6v15.6z"/>
</svg>
