<svg xmlns="http://www.w3.org/2000/svg" viewBox="0 0 42 34" width="42" height="34">
  <path fill="#fff" d="M42 9.2c0-2-1.6-3.7-3.5-3.7S35 7.2 35 9.2c0 1.2.6 2.3 1.5 3L30.7 18l-8-9.1c1.6-.7 2.7-2.3 2.7-4.2 0-2.5-2-4.6-4.4-4.6s-4.4 2.1-4.4 4.6c0 1.9 1.1 3.6 2.7 4.2l-8 9.1-5.7-5.9c.9-.7 1.4-1.7 1.4-2.9 0-2-1.6-3.7-3.5-3.7S0 7.2 0 9.2s1.5 3.6 3.4 3.7l3.3 13.8c-2.1.1-3.3 1.9-3.3 3.7C3.5 32.2 4.7 34 7 34h28c2.3 0 3.5-1.8 3.5-3.7 0-1.8-1.1-3.5-3.2-3.7l3.4-13.8c1.8-.1 3.3-1.6 3.3-3.6zm-3.5-1.8c1 0 1.8.8 1.8 1.8s-.8 1.8-1.8 1.8-1.8-.8-1.8-1.8.8-1.8 1.8-1.8zM18.4 4.6c0-1.5 1.2-2.8 2.6-2.8s2.6 1.2 2.6 2.8-1.2 2.8-2.6 2.8-2.6-1.3-2.6-2.8zM1.8 9.2c0-1 .8-1.8 1.8-1.8s1.8.8 1.8 1.8S4.5 11 3.5 11s-1.7-.8-1.7-1.8zm34.9 21.1c0 .8-.5 1.8-1.7 1.8H7c-1.3 0-1.8-1-1.8-1.8s.5-1.8 1.8-1.8H35c1.3 0 1.7 1 1.7 1.8zm-3.3-3.7H8.6L5.7 14.8l5.1 5.2c.2.2.4.3.6.3.2 0 .5-.1.6-.3l9-10.3L30 20c.2.2.4.3.6.3.2 0 .5-.1.6-.3l5.2-5.2-3 11.8z"/>
</svg>
