<svg width="26" height="26" xmlns="http://www.w3.org/2000/svg" viewBox="0 0 26 26">
    <path fill="#FFF" d="M25.291 15.125c-.567-.589-1.385-.874-2.171-1.005l-.189-.03c-.353-.041-.778-.121-.639-1.133.191-1.183.311-2.058.311-2.058a1.62 1.62 0 0 0-1.593-1.941h-3.564c-.287 0-.591-.033-.338-.471.002-.002.001-.004.002-.007.299-.484.474-.976.474-1.475 0-2.235-4.733-3.339-4.948-5.191-.107-.918 1.336-1.795.453-1.815-1.974-.042-4.101 1.734-4.101 3.391 0 2.849 4.862 2.873 4.862 5.002 0 .028-.021.061-.021.061-.017.253-.169.472-.609.489-.017.001-.014.006-.025.008H9.932a.06.06 0 0 1-.008-.008c-.27 0-.405-.049-.448-.302 0-1.345-2.503-2.042-3.213-2.987-.472-.627.583-1.428-.048-1.366-1.133.112-2.33 1.18-2.33 2.171 0 1.234 1.686 1.597 2.62 2.179.165.166-.216.312-.234.314H1.626a1.62 1.62 0 0 0-1.593 1.94s1.163 5.88 1.827 7.759C4.142 25.116 7.826 26 9.24 26l2.333-.019.016-.012a32.239 32.239 0 0 0 1.683-.07c.958-.077 3.257-.719 5.287-2.964.013-.011.027-.021.038-.033.317-.346.882-.536 1.402-.661 2.287-.054 5.288-1.043 5.939-4.625.23-1.265-.224-2.053-.647-2.491zm-15.99 9.251c-4.299-.34-6.16-6.458-7.067-10.786a2.461 2.461 0 0 1 .228-1.641c.162-.323.398-.606.683-.824.43-.348.983-.558 1.584-.558h3.368v.008h9.809c.601 0 1.154.21 1.584.558.285.218.521.501.683.824.252.485.35 1.059.228 1.641-.926 4.426-6.546 10.7-11.1 10.778zm14.94-7.066c-.367 2.02-1.784 2.789-3.076 3.064l-.014.002c-.343.073-.826.002-.654-.388.208-.438.407-.895.586-1.397.199-.558.397-1.351.582-2.215.109-.383.455-.626.889-.597h.006c.6.065 1.186.221 1.487.536.135.14.302.397.194.995z"/>
</svg>
