<svg xmlns="http://www.w3.org/2000/svg" viewBox="0 0 130 103" width="130" height="103">
    <path fill="#FFF" d="M117.439 42.959l-.055-.05C115.902 19.011 95.94 0 71.534 0 46.169 0 25.532 20.52 25.532 45.739v23.35h-2.465l-.296-2.682-9.327 1.019c-1.38-9.827-3.938-25.123-7.326-32.376-5.116-10.948-7.64.296-5.148 4.574 2.481 4.256 5.319 16.801 6.934 28.407l-.024.003 1.125 10.181 1.636 14.803 14.891-1.629-.04-.358h.04v8.848h-4.079V103H42.52v-3.12h-3.333V45.739c0-17.735 14.512-32.162 32.347-32.162 9.742 0 18.473 4.312 24.398 11.109 1.846 4.321 3.87 11.533 3.87 16.377 0 5.885 4.314 7.68 9.43 7.181 4.542-.443 8.023.175 8.26-3.637h.019c-.004-.152-.028-.299-.034-.451.001-.38.019-.735-.038-1.197zM115.924 72.689a23.376 23.376 0 0 0-1.063-1.518 64.28 64.28 0 0 1-1.652-2.363 36.422 36.422 0 0 1-1.765-2.949 17.124 17.124 0 0 1-1.376-3.332c-.103-.355-.288-.617-.561-.785a1.3 1.3 0 0 0-.884-.19 1.292 1.292 0 0 0-.874.19c-.276.168-.467.43-.571.785a19.944 19.944 0 0 1-1.382 3.326 33.09 33.09 0 0 1-1.743 2.955 55.005 55.005 0 0 1-1.662 2.363c-.505.676-.862 1.184-1.066 1.518a8.488 8.488 0 0 0-1.022 2.163 8.216 8.216 0 0 0-.363 2.466c0 1.194.226 2.316.677 3.372a8.63 8.63 0 0 0 4.627 4.607 8.584 8.584 0 0 0 3.379.67 8.643 8.643 0 0 0 6.154-2.522 8.674 8.674 0 0 0 1.853-2.755 8.488 8.488 0 0 0 .677-3.372 8.28 8.28 0 0 0-.361-2.466 8.694 8.694 0 0 0-1.022-2.163zm-8.467 8.082c-.42.418-.935.63-1.539.63a2.083 2.083 0 0 1-1.536-.636 2.102 2.102 0 0 1-.63-1.537 1.87 1.87 0 0 1 .338-1.144c.063-.094.157-.218.285-.383.128-.162.266-.358.414-.589.147-.228.292-.474.429-.732.138-.259.251-.536.332-.832.06-.215.185-.299.367-.262.194-.028.313.056.354.262.082.287.197.561.345.823.151.268.295.514.439.742.144.231.279.43.407.598.129.169.222.293.285.374.226.324.338.708.338 1.144a2.077 2.077 0 0 1-.628 1.542zM129.214 77.954l.704-16.202h-5.88l.704 16.202zM129.124 81.024c-.584-.515-1.313-.774-2.187-.774-.874 0-1.603.258-2.186.774-.584.516-.876 1.175-.876 1.978 0 .804.292 1.463.876 1.979.584.515 1.313.774 2.186.774s1.602-.258 2.187-.774c.584-.515.876-1.175.876-1.979 0-.803-.292-1.462-.876-1.978z"/>
</svg>
