<svg xmlns="http://www.w3.org/2000/svg" viewBox="0 0 110 86" width="110" height="86">
    <path fill="#FFF" d="M110 23.089c0 3.867-.409 7.797-1.228 11.788-1.882 9.121-5.657 16.92-11.325 23.394-5.667 6.473-12.983 11.93-21.944 16.369-8.758 4.397-17.719 6.596-26.886 6.596-6.057 0-11.909-.957-17.556-2.871-.614-.203-2.415-1.059-5.402-2.565-2.988-1.506-4.952-2.26-5.893-2.26-.655 0-1.464.652-2.425 1.955a42.817 42.817 0 0 0-2.763 4.276 21 21 0 0 1-3.222 4.275C10.088 85.348 8.86 86 7.674 86c-1.228 0-2.271-.224-3.131-.671-.859-.448-1.494-.937-1.902-1.467-.41-.53-.962-1.384-1.657-2.565a13.279 13.279 0 0 0-.369-.671 15.366 15.366 0 0 1-.337-.611 2.736 2.736 0 0 1-.184-.581A3.549 3.549 0 0 1 0 78.609c0-1.425.635-2.922 1.904-4.489 1.269-1.568 2.66-2.902 4.174-4.001a44.44 44.44 0 0 0 4.174-3.421c1.269-1.18 1.904-2.158 1.904-2.931 0-.163-.287-.936-.859-2.322-.573-1.384-.901-2.28-.983-2.687a36.334 36.334 0 0 1-.552-6.351c0-4.684.889-9.163 2.67-13.438 1.78-4.276 4.215-8.032 7.304-11.27a53.555 53.555 0 0 1 10.466-8.49 57.5 57.5 0 0 1 12.523-5.833c2.25-.733 5.217-1.252 8.901-1.557 3.682-.305 7.355-.489 11.018-.549 3.662-.062 7.316-.184 10.957-.367 3.643-.183 6.988-.671 10.036-1.466 3.049-.794 5.371-1.944 6.968-3.451l1.81-1.801c.798-.794 1.402-1.365 1.811-1.711.409-.346.962-.754 1.657-1.222s1.443-.793 2.24-.977C98.92.092 99.811 0 100.792 0c1.597 0 3.039.937 4.328 2.809 1.29 1.873 2.261 4.154 2.916 6.841s1.146 5.212 1.474 7.574c.327 2.362.49 4.317.49 5.865zM74.643 39.091c1.064 0 1.985-.387 2.763-1.16.777-.774 1.166-1.69 1.166-2.749 0-1.059-.389-1.974-1.166-2.749-.777-.773-1.698-1.16-2.763-1.16-7.038 0-13.545 1.008-19.519 3.023-5.976 2.016-11.285 4.744-15.93 8.185-4.644 3.441-9.463 7.91-14.455 13.407-.778.856-1.167 1.772-1.167 2.749 0 1.059.389 1.975 1.167 2.749.777.773 1.698 1.16 2.762 1.16.983 0 1.904-.387 2.763-1.16 1.105-.978 2.619-2.423 4.542-4.336a261.165 261.165 0 0 1 4.113-4.032c5.606-5.048 11.1-8.632 16.481-10.749 5.381-2.119 11.795-3.178 19.243-3.178z"/>
</svg>
