<svg xmlns="http://www.w3.org/2000/svg" viewBox="0 0 27 27" width="27" height="27">
    <path fill="#fff" d="M25.313 18.562c-.932 0-1.688.755-1.688 1.688 0 1.37.556 5.063-3.375 5.063H6.75c-3.931 0-3.375-3.692-3.375-5.063a1.688 1.688 0 1 0-3.375 0C0 21.944 1.524 27 6.75 27h13.5c5.225 0 6.75-5.056 6.75-6.75 0-.932-.755-1.688-1.687-1.688"/>
    <path fill="#fff" d="M8.407 16.366s2.434 2.429 3.406 3.401c.73.731.5 2.172 1.688 2.172 1.21 0 .957-1.44 1.688-2.172l3.405-3.401c.564-.563 1.733-1.134 2.149-1.549.247-.247.353-.571.353-.894 0-.859-.626-1.27-1.247-1.266a1.326 1.326 0 0 0-.898.37c-.46.46-.987 1.582-1.548 2.143l-1.083 1.076c-.726.726-1.974.212-1.974-.815V7.593c0-1.883.857-4.471.857-5.906a1.704 1.704 0 0 0-3.405.001c0 1.435.858 4.022.858 5.906v7.838c0 1.027-1.248 1.54-1.975.815l-1.08-1.076c-.562-.561-1.089-1.683-1.55-2.143a1.323 1.323 0 0 0-.898-.37c-.621-.004-1.248.407-1.248 1.266 0 .323.105.647.353.894.417.414 1.586.985 2.149 1.548"/>
</svg>
