<svg width="20" height="26" xmlns="http://www.w3.org/2000/svg" viewBox="0 0 20 26">
    <path fill="#FFF" d="M12.007.963C11.936.332 11.323 0 10.698 0c-.25 0-.501.052-.719.161C6.638 1.817 0 8.389 0 16.25 0 22.084 4.458 26 9.956 26 15.456 26 20 22.141 20 16.25c0-6.836-7.183-8.114-7.993-15.287m6.076 13.911c0 3.863-6.426 8.477-10.872 8.477-1.077 0-2.04-.271-2.773-.886-1.729-1.455-2.771-3.642-2.771-6.215 0-5.289 3.35-9.998 6.32-12.675a1.96 1.96 0 0 1 1.32-.506c.767 0 1.52.44 1.838 1.22.917 2.246 2.407 3.878 3.768 5.37 1.261 1.383 2.397 2.565 2.963 4.068.141.371.207.755.207 1.147"/>
</svg>
