<svg width="15" height="17" viewBox="0 0 23 27" xmlns="http://www.w3.org/2000/svg">
    <path d="M9.036 2.524C9.036 1.13 10.139 0 11.5 0s2.464 1.13 2.464 2.524c0 .488-.144.943-.38 1.326-.657 1.067-1.15 2.235-1.23 3.494-.026.402-.041.766-.041 1.068v12.861c0 1.024 1.21 1.535 1.918.811l5.155-5.277c.548-.561 1.06-1.678 1.508-2.138.232-.23.545-.363.873-.369.606-.004 1.233.406 1.233 1.261 0 .324-.121.647-.361.893-.404.413-1.543.983-2.091 1.544l-8.475 8.672a.81.81 0 0 1-1.164.001l-3.321-3.397c-4.171-4.272-5.658-4.637-6.346-4.947C.626 18.05 0 17.532 0 16.394c.002-1.164.915-2.102 2.054-2.095.926 0 1.66.659 1.89 1.32.266.762 1.551 3.131 4.837 6.496.692.708 1.888.159 1.888-.842V8.412c0-.302-.014-.664-.04-1.068-.082-1.258-.573-2.426-1.231-3.494a2.506 2.506 0 0 1-.362-1.326" fill="#888"/>
</svg>
