<svg width="26" height="32" viewBox="0 0 14 17" xmlns="http://www.w3.org/2000/svg">
    <path d="M7.808 8.5H6.192C2.787 8.5 0 11.25 0 14.61v.559C0 16.179.83 17 1.856 17h10.287c1.025 0 1.856-.82 1.856-1.831v-.56C14 11.25 11.213 8.5 7.808 8.5M4.46 15.938c-2.576 0-3.507-1.197-3.296-2.266a5.12 5.12 0 0 1 5.027-4.11h1.616c1.761 0 3.297.898 4.238 2.224 1.175 1.657-3.062 4.152-7.585 4.152M7 7.438c2.082 0 3.77-1.665 3.77-3.72C10.77 1.666 9.081 0 7 0S3.23 1.665 3.23 3.719 4.919 7.438 7 7.438m0-6.375c1.198 0 2.19.783 2.564 1.843.556 1.583-3.031 3.844-4.177 2.938-.639-.505-1.08-1.257-1.08-2.125 0-1.465 1.208-2.656 2.693-2.656" fill="#063851"/>
</svg>
