<svg width="32" height="32" viewBox="0 0 26 26" xmlns="http://www.w3.org/2000/svg">
    <path d="M8.95 21.125a2.44 2.44 0 0 0-2.44 2.438A2.44 2.44 0 0 0 8.95 26a2.44 2.44 0 0 0 2.442-2.438 2.44 2.44 0 0 0-2.441-2.437m9.766 0a2.44 2.44 0 0 0-2.442 2.438A2.44 2.44 0 0 0 18.717 26a2.44 2.44 0 0 0 2.441-2.438 2.44 2.44 0 0 0-2.441-2.437m5.656-16.25H6.069c-2.645 0-2.17-2.54-2.855-3.543C2.68.548 1.814 0 .814 0A.815.815 0 0 0 0 .812c0 .31.177.582.435.72 1.279.678 1.673 3.278 1.86 4.155L4.58 16.535a2.725 2.725 0 0 0 2.661 2.153h13.916a2.97 2.97 0 0 0 2.914-2.38l1.896-9.482a1.626 1.626 0 0 0-1.595-1.95m-.61 4.664c-.934 4.477-6.9 7.523-11.474 7.523h-1.523a5.425 5.425 0 0 1-5.314-4.306l-.79-3.73A2.098 2.098 0 0 1 6.713 6.5h14.55a2.52 2.52 0 0 1 1.588.56c.285.22.52.504.683.83a2.48 2.48 0 0 1 .228 1.649" fill="#063851"/>
</svg>
