<svg xmlns="http://www.w3.org/2000/svg" viewBox="0 0 26 32" width="26" height="32">
    <path fill="#063851" d="M23 2h-3.859c-.62 0-1.071-.512-1.149-1.128a1 1 0 0 0-1.984 0C15.93 1.488 15.479 2 14.859 2h-3.718c-.62 0-1.071-.512-1.149-1.128a1 1 0 0 0-1.984 0C7.93 1.488 7.479 2 6.859 2H3a3 3 0 0 0-3 3v24a3 3 0 0 0 3 3h20a3 3 0 0 0 3-3V5a3 3 0 0 0-3-3m1 18c0 4.499-2.395 10-11 10H8c-2.707 0-6-1.541-6-4.902V8.251C2 6.141 3.961 4 6 4c.29 0 .84.027.987.027.554 0 .949.53 1.021 1.101a1 1 0 0 0 1.984 0C10.07 4.512 10.521 4 11.141 4h3.718c.62 0 1.071.512 1.149 1.128a1 1 0 0 0 1.984 0c.073-.57.467-1.101 1.022-1.101.17 0 .81-.027.986-.027 2.309 0 4 2.165 4 4.251V20z"/>
</svg>
