<svg xmlns="http://www.w3.org/2000/svg" viewBox="0 0 20 26" width="20" height="26">
    <path fill="#063851" d="M18.831 5.84l-.498-.486-4.323-4.215A4.042 4.042 0 0 0 11.189 0H2.5C1.119 0 0 1.091 0 2.438v21.125C0 24.909 1.119 26 2.5 26h15c1.381 0 2.5-1.091 2.5-2.438V8.591c0-1.031-.42-2.021-1.169-2.751m-.498 5.535v4.875c0 3.83-4.405 8.125-8.333 8.125H6.667c-2.152 0-5-1.884-5-3.982V5.078c0-1.908 1.585-3.453 3.542-3.453H9.16c1.182 0 2.507 1.292 2.507 2.444v2.203c0 1.024.85 1.854 1.901 1.854h2.448c1.137 0 2.318 1.33 2.318 2.438v.811z"/>
</svg>
