<svg xmlns="http://www.w3.org/2000/svg" viewBox="0 0 26 26" width="26" height="26">
    <path fill="#063851" d="M25.702 10.799l-9.37-9.412C15.455.505 14.241 0 13 0s-2.456.505-3.333 1.387l-9.37 9.412c-.156.155-.297.364-.297.576 0 .489.542.811.869.811a2.431 2.431 0 0 1 2.426 2.437v8.939A2.432 2.432 0 0 0 5.722 26h14.556a2.432 2.432 0 0 0 2.427-2.438v-8.939a2.431 2.431 0 0 1 2.426-2.437c.327 0 .869-.322.869-.811 0-.212-.142-.421-.298-.576M11.375 23.02v-4.332a1.626 1.626 0 0 1 3.25 0v3.047c0 1.624-3.25 2.775-3.25 1.285m10.893-12.288c0 .563-.173 1.138-.509 1.641a4.047 4.047 0 0 0-.679 2.249v4.471c0 3.656-4.83 4.299-4.83 2.403v-2.81c0-1.792-1.458-3.25-3.25-3.25s-3.25 1.458-3.25 3.25v3.622c0 1.93-4.831 3.148-4.831-.102v-7.585c0-.831-.25-1.605-.679-2.249a2.975 2.975 0 0 1-.508-1.641c0-.67.244-1.326.75-1.834l6.337-6.364c.574-.577 1.37-.909 2.181-.909s1.606.332 2.181.909l6.336 6.364c.506.509.751 1.165.751 1.835m-7.643-.982a1.624 1.624 0 1 1-3.249.001 1.624 1.624 0 0 1 3.249-.001"/>
</svg>
