<svg width="20" height="25" xmlns="http://www.w3.org/2000/svg" viewBox="0 0 20 25">
    <path fill="#FFF" d="M19.779.288A.938.938 0 0 0 19.096 0H7.937v.033H.904A.937.937 0 0 0 .221.32a.793.793 0 0 0-.212.665l3.578 23.298c.063.411.445.717.895.717h5.527v-.033h5.51c.45 0 .832-.305.895-.717L19.992.952a.795.795 0 0 0-.213-.664zm-13.6 22.987c-.041 0-.081.007-.121.007-.446 0-.834-.304-.895-.723l-.014-.1s-.418-.993-.418-5.608c0-2.601-.974-3.983-1.162-5.263-.067-.457.281-.877.776-.939.5-.063 1.219-.236 1.46.716.32 1.265.047 3.199.822 5.33 1.275 3.509 1.304 5.192 1.116 5.694-.294.779-.825.885-1.564.886zM17.723 3.673c-.004.027-.002.043-.004.067-.659 3.401-2.378 3.893-3.531 4.473-1.234.623-2.736 1.227-6.642 1.227H4.197c-.601-.144-1.062-.506-1.257-1.436a1.001 1.001 0 0 0-.054-.176l-.6-3.91a1.664 1.664 0 0 0-.01-.221c-.093-.875.178-1.883 1.564-1.995h8.223V1.67h4.03c1.447.082 1.724 1.112 1.63 2.003z"/>
</svg>
