<svg xmlns="http://www.w3.org/2000/svg" viewBox="0 0 100 100" width="100" height="100">
    <path fill="#FFF" d="M50 0C22.385 0 0 22.385 0 50c0 27.612 22.385 50 50 50s50-22.388 50-50c0-27.615-22.385-50-50-50m43.175 56.784c-.233 1.512-.572 2.987-.96 4.44C89.378 71.765 72.099 83.647 75.7 70.93l-.085.098c1.138-4.315 1.985-9.204 2.325-14.912.101-1.666 1.443-2.991 3.113-2.991h9.026c1.936 0 3.396 1.747 3.096 3.659M71.219 11.806c8.579 4.782 15.381 12.36 19.171 21.497 2.686 6.476-2.33 13.573-9.337 13.573-1.669 0-3.012-1.326-3.113-2.991-.825-13.925-4.449-23.413-8.809-29.863-.912-1.347.666-3.007 2.088-2.216m-18.094 1.922c0-2.666 3.107-4.103 5.153-2.394 4.353 3.638 9.216 10.059 11.769 21.247 1.673 7.335-4.073 14.294-11.593 14.294H56.25a3.127 3.127 0 0 1-3.125-3.125V13.728zm0 42.522a3.126 3.126 0 0 1 3.125-3.125h12.247c1.788 0 3.241 1.497 3.122 3.281a72.095 72.095 0 0 1-1.473 10.507c-5.925 20.334-17.021 18.324-17.021 5.168V56.25zm-6.25 14.353c.038 8.731-3.429 19.868-12.465 8.912-2.928-5.365-5.298-12.759-6.017-22.99-.128-1.828 1.285-3.4 3.116-3.4H43.75a3.126 3.126 0 0 1 3.125 3.125v14.353zM41.734 11.25c2.051-1.697 5.141-.259 5.141 2.403V35.03c0 6.54-5.303 11.844-11.844 11.844h-3.528c-1.785 0-3.241-1.497-3.119-3.282 1.244-18.374 7.72-27.689 13.35-32.342m-12.965.562c1.428-.793 3.015.861 2.099 2.213-3.543 5.241-6.599 12.488-8.062 22.491-.865 5.902-5.774 10.359-11.74 10.359H9.921c-1.936 0-3.397-1.747-3.096-3.659C8.937 29.7 17.253 18.237 28.769 11.812M9.921 53.125h9.026c1.669 0 3.015 1.324 3.113 2.991.572 9.596 2.487 17.037 5.04 22.874h-.034c4.018 8.31-4.75 6.465-11.707-2.409-4.41-5.627-7.381-12.419-8.534-19.797-.3-1.912 1.16-3.659 3.096-3.659"/>
</svg>
