<svg xmlns="http://www.w3.org/2000/svg" viewBox="0 0 24 24" width="24" height="24">
    <path fill="#063851" d="M22.144 19.534c-.795-.14-1.644-.341-2.264-.856-.519-.431-1.199-1.082-2.177-2.06-1.241-1.24-.403-3.885-.045-5.12a8.987 8.987 0 0 0 .353-2.499c0-4.97-4.032-9-9.005-9a8.975 8.975 0 0 0-6.369 2.637A8.986 8.986 0 0 0 0 9.005c0 4.974 4.029 9.005 9 9.005.867 0 1.706-.122 2.499-.353.748-.217 2.013-.609 3.17-.609.754 0 1.461.166 1.95.655 1.032 1.032 1.696 1.724 2.12 2.226.553.653.614 1.599.842 2.422A2.252 2.252 0 0 0 21.75 24c.621 0 1.199-.232 1.606-.639A2.28 2.28 0 0 0 24 21.75a2.25 2.25 0 0 0-1.856-2.216M5.41 15.593A7.51 7.51 0 0 1 1.5 9.005c0-2.005.78-3.89 2.197-5.308A7.459 7.459 0 0 1 9.006 1.5c3.755 0 6.876 2.771 7.42 6.374.671 4.434-7.085 9.874-11.016 7.719"/>
</svg>
