<svg xmlns="http://www.w3.org/2000/svg" viewBox="0 0 32 39" width="32" height="39">
    <path fill="#FFF" d="M30.609 16.069c-.001-7.95-6.511-14.393-14.539-14.392-8.029.002-14.536 6.447-14.535 14.398.001 7.95 6.436 18.204 14.464 18.203 8.029-.001 14.612-10.258 14.61-18.209z"/>
    <path fill="#063851" d="M16 0C7.163 0 0 7.095 0 15.844 0 27.671 13.127 39 16 39c2.871 0 16-11.329 16-23.156C32 7.095 24.836 0 16 0M8.485 29.861C5.332 26.022 2.46 20.966 2.46 15.844 2.46 8.452 8.534 2.438 16 2.438c7.464 0 13.537 6.015 13.537 13.406 0 .838-.076 1.675-.218 2.504-1.333 7.763-15.816 17.622-20.834 11.513"/>
    <path fill="#063851" d="M21.009 20.724a.535.535 0 0 0-.174-.211v-.593c0-.288-.251-.689-.251-.689v-3.256s.271-.229.271-.478v-.862s.29-.134.29-.957c0-.824-.586-1.474-2.204-1.916-1.335-.363-2.089-.555-2.089-1.417s.019-.938.019-.938h.252V8.201c0-.268-.657-.383-1.315-.383-.02 0-.033.002-.051.003-.02-.001-.032-.003-.053-.003-.657 0-1.315.115-1.315.383v1.206h.252s.019.076.019.938-.754 1.054-2.089 1.417c-1.618.442-2.204 1.092-2.204 1.916 0 .824.29.957.29.957v.862c0 .249.271.478.271.478v3.256s-.252.402-.252.689v.593s-.115.077-.174.211c-.058.133-.11.618-.084 1.002.025.383-.18.741.722 1.456.73.578 2.487.68 4.074.698v.004l.542-.001.541.001v-.004c1.587-.018 3.344-.12 4.074-.698.902-.715.697-1.073.722-1.456.026-.384-.025-.869-.084-1.002zm-6.873-2.193c0 .431-.374.783-.836.783-.46 0-.832-.351-.832-.783v-2.37c0-.433.373-.784.832-.784.462 0 .836.352.836.784v2.37z"/>
</svg>
