<svg xmlns="http://www.w3.org/2000/svg" viewBox="0 0 22 22" width="22" height="22">
    <path fill="#063851" d="M0 7.133c0 1.744.549 3.521 2.396 5.367l7.103 7.103C11.273 21.376 13.048 22 14.668 22c3.851 0 6.826-3.525 6.826-3.525a1.716 1.716 0 0 0 0-2.431l-2.916-2.916a1.711 1.711 0 0 0-1.215-.503c-.44 0-.88.167-1.215.503a1.715 1.715 0 0 1-2.43 0L8.87 8.281a1.718 1.718 0 0 1 0-2.43 1.718 1.718 0 0 0 0-2.43L5.954.504a1.718 1.718 0 0 0-2.43 0C3.523.504 0 3.377 0 7.133m6.359-4.279c.79.79 1.276 1.832.828 3.128-.382 1.11-.248 2.313.71 3.272l4.847 4.847a3.073 3.073 0 0 0 2.187.906c.388 0 .765-.071 1.117-.207.397-.153 1.797-.458 2.827.571 2.318 2.318-7.304 4.361-9.623 2.043l-5.885-5.886c-1.402-1.402-2.053-2.839-1.992-4.395.058-1.475.645-2.704 1.295-3.639.714-1.024 2.563-1.766 3.689-.64"/>
</svg>
