<svg xmlns="http://www.w3.org/2000/svg" viewBox="0 0 22 22" width="22" height="22">
    <path fill="#063851" d="M22 11c0-6.075-4.925-11-11-11S0 4.925 0 11s4.925 11 11 11c4.089 0 6.043 0 7.267-.909 1.04-.772 1.493-1.841 2.985-6.102l-.011.008A10.97 10.97 0 0 0 22 11m-1.594 2.034c-.954 3.352-2.878 3.966-4.28 4.927-1.759 1.206-3.454 2.664-5.126 2.664A9.625 9.625 0 0 1 1.375 11c0-5.315 4.309-9.625 9.625-9.625s9.625 4.31 9.625 9.625c0 .698-.036 1.388-.219 2.034"/>
    <path fill="#063851" d="M14.818 8.689l-.353.177a1.919 1.919 0 0 1-2.777-1.716V4.812a.687.687 0 1 0-1.376 0v5.591c0 .447.227.855.608 1.09a1.28 1.28 0 0 0 1.248.057l3.264-1.632a.687.687 0 0 0-.614-1.229"/>
</svg>
