<svg xmlns="http://www.w3.org/2000/svg" viewBox="0 0 50 29" width="50" height="29">
    <path fill="#fff" d="M11.737 28.923c-1.272 0-2.533-.68-3.212-1.734-.424-.659-1.001-2.076-.081-4.162.882-2 2.631-3.194 4.68-3.194.677 0 1.322.142 1.815.401 1.613.844 2.639 3.226 1.487 5.599-.996 2.051-2.574 3.09-4.689 3.09zm1.387-6.465c-.59 0-1.675.212-2.301 1.635-.221.499-.42 1.194-.115 1.666.225.35.698.539 1.029.539.757 0 1.626-.124 2.351-1.619.614-1.266-.133-2.001-.35-2.115-.069-.037-.287-.106-.614-.106zM40.043 29c-1.272 0-2.533-.68-3.212-1.734-.424-.659-1.001-2.076-.081-4.162.882-2 2.631-3.194 4.68-3.194.677 0 1.322.142 1.815.401 1.613.844 2.639 3.226 1.487 5.599-.996 2.051-2.574 3.09-4.689 3.09zm1.387-6.465c-.59 0-1.675.212-2.301 1.635-.221.499-.42 1.194-.115 1.666.225.35.698.539 1.029.539.757 0 1.626-.124 2.351-1.619.614-1.266-.133-2.001-.35-2.115-.069-.037-.286-.106-.614-.106zm-35.124.794c-.296.728-.23 1.968-1.301 1.968s-1.109-1.428-.88-2.585c.229-1.157.88-1.267 1.645-1.235.918.039 1.148.347.536 1.852zm40.68-.205c.075.784-.342 1.951.684 2.262 1.027.311 1.469-1.044 1.58-2.219.11-1.176-.482-1.469-1.223-1.66-.89-.23-1.198-.001-1.041 1.617zm-12.413.282c-.239.885-.191 1.929-1.607 1.929H19.654c-.497 0-.956.077-.765-1.389.191-1.466-.688-2.469.65-2.469h14.765c.614 0 .614.656.269 1.929zm13.35-12.102c-.538-1.112-.765-1.89-1.568-4.294-.628-1.878-1.224-2.083-1.989-2.083s-2.754-.039-4.284-.039-1.76.772-1.836 1.543c-.077.772-.88 7.909-1.186 10.494-.306 2.585 1.243 1.83 1.76 1.555.65-.347 1.033-.629 2.945-.629 1.913 0 3.213 1.08 3.596 1.428.383.347 1.224.347 2.295.347 1.645 0 1.951-.772 2.066-1.582.115-.81.115-1.929.268-3.472.152-1.544-1.302-1.686-2.067-3.268zm-4.437 1.234c-1.346-.138-1.88-.224-2.563-.321-.727-.104-1.53-.039-1.339-1.582.191-1.543.268-2.353.268-2.353.077-.694.077-1.543 1.377-1.543h1.913c.65 0 1.195.135 1.721 1.632.574 1.632.918 2.508.956 3.318.039.811-.688 1.016-2.333.849zM36.38.429A1.3 1.3 0 0 0 35.416 0H8.384c-.718 0-1.13.608-1.302 1.312-.175.721.677 1.549 1.355 1.439 2.313-.371 3.606-.441 4.692-.101.686.215 1.032.547 1.032 1.273 0 .723-.455 1.152-1.083 1.505-.918.514-2.502.251-4.896-.104-3.825-.567-5.26-.546-6.835-.258C.64 5.196 0 5.84 0 6.566c0 .723.681 1.37 1.397 1.432 1.371.122 2.894.229 6.834-.101 4.284-.362 6.478-.516 7.6-.258.701.16 1.619.844 1.619 1.57 0 .723-.61 1.119-1.302 1.312-1.286.359-2.931.475-6.029-.053-4.233-.72-6.222-.41-6.784-.205-.618.227-1.2.866-1.2 1.543 0 .721.579 1.264 1.29 1.31 1.951.129 3.716-.429 5.98-.334 1.224.053 1.653.842 1.479 1.543-.408 1.647-1.92 1.423-3.66 1.423-1.568 0-1.62 2.761-1.62 2.761 0 .012-.007.023-.007.036l.002.01-.001.01.002-.002a1.306 1.306 0 0 0 1.298 1.294h1.333c.351 0 .687-.143.932-.398.016-.014 1.567-1.558 3.861-1.558 2.364 0 4.045 1.379 4.056 1.388.234.2.533.31.84.31h15.862c.669 0 1.23-.512 1.295-1.185L36.71 1.439a1.32 1.32 0 0 0-.33-1.01z"/>
</svg>
