<svg xmlns="http://www.w3.org/2000/svg" viewBox="0 0 40 43" width="40" height="43">
    <g fill="#FFF">
        <path d="M38.151 39.454h-.761V5.628c0-.373-.315-.675-.704-.675H33.34c-.389 0-.704.302-.704.675v18.351c-.019.699-.422.948-.895.948v.007h-9.039v2.252h-1.35v3.14l4.331.002c.53 0 .911.418.911.872a.669.669 0 0 1-.021.174s-.065.472-.173 1.109c-.077.545.159.588.358.61l.106.016c.44.071.898.224 1.215.541.237.236.491.661.362 1.343-.363 1.931-2.044 2.463-3.322 2.492-.292.067-.609.169-.787.357-.005.006-.012.011-.019.017-1.127 1.2-2.402 1.55-2.945 1.595h-2.754c-.963-.184-2.577-.981-3.648-3.904-.373-1.013-1.024-4.182-1.024-4.182a.709.709 0 0 1-.019-.174c0-.456.381-.872.911-.872l4.276.002v-3.14h-1.145v-2.252H8.514c-.015-.001-.022-.007-.039-.007-.779 0-.974-.344-1.019-.724V5.573c0-.373-.315-.675-.704-.675H3.406c-.389 0-.704.302-.704.675v33.882h-.853C.828 39.454 0 40.248 0 41.227S.828 43 1.849 43h36.302C39.172 43 40 42.207 40 41.227s-.828-1.773-1.849-1.773z"/>
        <path d="M25.66 35.936c.429-.088.901-.333 1.022-.979.036-.191-.019-.273-.063-.319-.1-.101-.296-.151-.495-.172l-.001.001c-.145-.01-.259.068-.296.191-.061.276-.126.53-.193.708a5.351 5.351 0 0 1-.195.447c-.058.124.103.147.217.124l.004-.001zM20.581 10.955c-2.215-.388-3.172-2.002-3.582-2.519-.41-.517-1.081.863-.785 1.623.484 1.249 1.281 2.11 3.281 2.495 1.997.387 2.647 1.08 2.971 1.432.348.379.787 1.22 1.153 1.11.312-.094.605-1.183.154-2.12-.363-.751-1.227-1.679-3.192-2.021z"/>
        <path d="M30.391 1.715C30.258 1.645 27.795 0 20.191 0 12.578 0 10.059 1.76 9.923 1.835a.672.672 0 0 0-.354.586v19.868c0 .373.315.675.704.675h19.779c.389 0 .704-.302.704-.675V2.308a.67.67 0 0 0-.365-.593zM24.905 16.04a3.672 3.672 0 0 1-1.132.78c-1.977.882-4.771.215-6.796-1.626-1.189-1.078-1.984-2.469-2.24-3.917-.256-1.456.081-2.779.92-3.632a3.644 3.644 0 0 1 1.109-.758c1.992-.889 4.797-.231 6.819 1.609 1.184 1.07 1.973 2.468 2.224 3.932.249 1.461-.08 2.779-.904 3.612z"/>
    </g>
</svg>
