<svg xmlns="http://www.w3.org/2000/svg" viewBox="0 0 28 63" width="28" height="63">
    <g fill="#FFF">
        <path d="M2.204 6.79c.127.288.382.452.382.452v3.91c0 .618.548 1.482.548 1.482v5.726s-.592.494-.592 1.029v4.486s-.635.288-.635 2.057c0 1.77 1.281 3.168 4.821 4.116 2.917.782 4.566 1.193 4.566 3.045 0 1.852-.041 2.017-.041 2.017h-.551v2.593c0 .576 1.438.823 2.876.823.043 0 .074-.005.114-.008.041.003.069.008.114.008 1.438 0 2.876-.247 2.876-.823V35.11h-.55s-.041-.165-.041-2.017c0-1.852 1.648-2.264 4.566-3.045 3.54-.947 4.821-2.346 4.821-4.116 0-1.769-.635-2.057-.635-2.057v-4.486c0-.535-.592-1.029-.592-1.029v-5.726s.549-.864.549-1.482v-3.91s.255-.164.382-.452c.127-.289.239-1.331.184-2.153-.057-.824.323-1.51-1.581-3.127C21.773-.198 18.347.048 14.877.009V0c-.382 0-.78 0-1.185.002C13.288 0 12.89 0 12.508 0v.009C9.039.048 5.195.267 3.601 1.51 1.626 3.045 2.077 3.814 2.02 4.637c-.055.823.057 1.864.184 2.153z"/>
        <path d="M0 57.795V38.559c0-1.403.752-2.623 3.699-2.623 2.946 0 20.06-.122 21.565-.122 1.505 0 2.57 1.037 2.57 3.477s.125 18.504.125 18.504h-3.197V40.694c0-1.342-.376-1.891-2.069-1.891H5.329c-1.317 0-2.194-.488-2.194 2.44v16.552H0z"/>
        <path d="M18.242 36.18c0 .573-.478 1.037-1.066 1.037h-7.021c-.588 0-1.066-.464-1.066-1.037s.478-1.037 1.066-1.037h7.021c.588 0 1.066.464 1.066 1.037zM9.497 45.896c.264-.929.56-1.985.658-2.395.188-.793-.063-1.22-1.066-1.22s-1.128.305-.94 1.159c.098.442.329 1.517.529 2.456-1.036.078-1.74.475-1.407 1.448.376 1.098 1.003 5.002 1.881 5.002 1.003 0 1.505-3.904 1.818-5.002.279-.976-.434-1.371-1.473-1.448zM19.151 45.957c.264-.929.56-1.985.658-2.395.188-.793-.063-1.22-1.066-1.22s-1.128.305-.94 1.159c.098.442.329 1.518.529 2.456-1.036.078-1.74.475-1.407 1.448.376 1.098 1.003 5.002 1.881 5.002 1.003 0 1.505-3.904 1.818-5.002.279-.976-.434-1.371-1.473-1.448z"/>
        <path d="M.041 41.019v19.236c0 1.403.752 2.623 3.699 2.623 2.946 0 20.06.122 21.565.122 1.505 0 2.57-1.037 2.57-3.477S28 41.019 28 41.019h-3.197V58.12c0 1.342-.376 1.891-2.069 1.891H5.37c-1.317 0-2.194.488-2.194-2.44V41.019H.041z"/>
    </g>
</svg>
