<svg xmlns="http://www.w3.org/2000/svg" viewBox="0 0 44 39" width="44" height="39">
    <g fill="#FFF">
        <path d="M13.406 29.136L8.108 12.833a.696.696 0 0 0-.654-.481h-.006a.692.692 0 0 0-.655.47l-5.6 16.3C.453 29.396 0 29.893 0 30.801c0 2.524 3.031 4.438 7.275 4.438 5.111 0 7.536-2.872 7.536-4.525 0-.882-.16-1.34-1.405-1.578zm-6.39-.249c-1.526 0-3.035-.112-4.262-.039l4.678-13.614 4.462 13.736c-1.134-.066-2.698-.083-4.878-.083zM42.595 23.218L37.297 6.916a.696.696 0 0 0-.654-.482c-.262-.059-.564.188-.66.471l-5.601 16.3c-.74.272-1.194.769-1.194 1.679 0 2.523 3.032 4.438 7.275 4.438 5.111 0 7.536-2.872 7.536-4.525.001-.883-.159-1.342-1.404-1.579zm-6.391-.249c-1.526 0-3.035-.111-4.261-.037L36.62 9.317l4.462 13.737c-1.134-.067-2.697-.085-4.878-.085z"/>
        <path d="M33.933 5.514c1.807.101 3.109.175 3.972.031 2.349-.391 3.495-2.587 3.802-3.82a1.389 1.389 0 0 0-1-1.681 1.391 1.391 0 0 0-1.688.994c-.004.017-.428 1.57-1.57 1.759-.561.095-1.921.018-3.362-.065-3.307-.184-7.841-.441-11.967.519-4.785 1.116-9.986 3.422-13.091 4.802-.827.366-1.485.66-1.911.828-.835.331-1.387-.37-1.54-.594a1.384 1.384 0 0 0-1.905-.417 1.397 1.397 0 0 0-.425 1.922c.499.786 1.74 1.967 3.428 1.967.454 0 .94-.085 1.452-.286.452-.176 1.145-.485 2.02-.873 2.713-1.204 7.069-3.13 11.212-4.275-1.65 4.575-2.795 21.005-3.499 26.043-.66 4.724-.779 6.632.432 6.632h7.413c1.905 0 1.819-2.02 1.039-6.198-.695-3.729-2.293-22.783-4.07-26.82l.07-.018c3.744-.872 8.045-.629 11.188-.45z"/>
    </g>
</svg>
