<svg xmlns="http://www.w3.org/2000/svg" viewBox="0 0 11 26" width="11" height="26">
    <path fill="#0D6E9C" d="M9.461 9.659C8.243 5.853 7.168 2.2 7.168 2.2s.382 0 .382-.609S7.788 0 6.641 0h-1.04-1.242C3.212 0 3.45.982 3.45 1.591s.382.609.382.609-1.075 3.654-2.293 7.46C.32 13.466-.253 14.532.105 15.648s.717 3.096.358 5.43-.645 2.487.287 3.705c.804 1.05 2.32 1.194 4.468 1.214V26l.531-.002.545.002v-.005c2.023-.021 3.156-.168 3.956-1.213.932-1.218.645-1.37.287-3.705-.358-2.334 0-4.314.358-5.43.358-1.116-.216-2.182-1.434-5.988z"/>
</svg>
