<svg xmlns="http://www.w3.org/2000/svg" viewBox="0 0 26 27" width="26" height="27">
    <path fill="#23120D" d="M24.823 22.794c1.561-2.842 1.57-6.237.024-8.257a4.14 4.14 0 0 0-1.159-1.045c-1.196-.715-2.797-.716-4.39-.003-1.586.709-2.964 2.019-3.879 3.686-1.563 2.846-1.583 6.232-.05 8.234.334.438.735.799 1.189 1.069 1.172.701 2.763.697 4.364-.01 1.605-.711 2.991-2.016 3.901-3.674zm-7.528 1.94c-.223-.385.621-1.129.961-1.637.316-.472.933-1.413.844-3.807-.091-2.395.681-3.554 1.978-4.468.79-.557 2.544-.187 2.064.43-.482.617-2.072 2.175-1.926 4.815.13 2.343-.698 3.598-1.46 4.23-.949.788-2.27.766-2.461.437zm-6.614-8.727c-1.172-3.039-3.722-5.147-6.198-5.131a3.929 3.929 0 0 0-1.504.303C1.701 11.716.71 13.027.26 14.774c-.447 1.738-.314 3.678.374 5.46 1.174 3.043 3.709 5.155 6.164 5.138a3.992 3.992 0 0 0 1.541-.313c1.252-.525 2.234-1.832 2.694-3.581.457-1.755.333-3.699-.352-5.471zm-3.198 7.369c-.428-.056-.466-1.208-.637-1.801-.16-.55-.486-1.639-2.342-3.048-1.859-1.409-2.253-2.758-2.139-4.387.07-.992 1.434-2.2 1.601-1.424.166.777.356 3.044 2.432 4.559 1.843 1.345 2.276 2.8 2.279 3.815.005 1.265-.828 2.333-1.194 2.286zm4.885-12.137c3.018.899 6.177.093 7.684-1.957.321-.437.554-.917.694-1.424.377-1.382-.006-3.003-1.052-4.446-1.041-1.435-2.59-2.516-4.36-3.043C12.312-.532 9.159.26 7.666 2.292a4.38 4.38 0 0 0-.709 1.462c-.37 1.354.016 2.965 1.057 4.417 1.046 1.454 2.593 2.544 4.354 3.068zM8.755 4.082c.305-.319 1.2.357 1.753.58.515.206 1.538.606 3.743-.059 2.205-.667 3.469-.163 4.63.931.707.666.785 2.531.095 2.193-.69-.34-2.521-1.575-4.942-.794-2.147.693-3.514.156-4.284-.464-.959-.773-1.255-2.116-.995-2.387z"/>
</svg>
