<svg width="36" height="40" xmlns="http://www.w3.org/2000/svg" viewBox="0 0 36 40">
  <path fill="#fff" d="M12.4 32.5c-2.1 0-3.7 1.7-3.7 3.7s1.7 3.7 3.7 3.7 3.7-1.7 3.7-3.7-1.6-3.7-3.7-3.7M12.4 0C4.7 0 0 5.2 0 10c0 5.8 5.8 8.7 8.7 8.7 1.4 0 2.5-1.1 2.5-2.5s-1.1-2.5-2.5-2.5c-.2 0-.6.1-1 .1-2.1.3-5.2-1.7-5.2-3.9 0-3.9 6-6.2 9.9-6.2 3.9 0 9.9 2.3 9.9 6.2 0 7.2-12.4 10.3-12.4 17.5 0 1.4 1.1 2.5 2.5 2.5s2.5-1.1 2.5-2.5c0-.2 0-.5-.1-.7-.3-1.1-.1-2.5.5-3.4 1.1-1.6 2.5-2.9 4-4.3 2.7-2.5 5.5-5 5.5-9.1 0-4.7-4.7-9.9-12.4-9.9M28.6 23.8c0 1.9 1.4 3.4 3.2 3.7.2 0 .4.1.5.1.2 0 .4 0 .5-.1 1.8-.3 3.2-1.8 3.2-3.7 0-4-2.5-7.8-2.5-11.8v-.8c0-2.8.6-5.5 1.2-8.2.1-.4.1-.7 0-1.1-.2-.9-1-1.6-1.9-1.8-.2-.1-.3-.1-.5-.1v.1V0c-.2 0-.4 0-.5.1-.9.2-1.6.9-1.9 1.8-.1.4-.1.8 0 1.1.6 2.7 1.2 5.4 1.2 8.2v.8c-.1 4-2.5 7.7-2.5 11.8M32.3 32.5c-2.1 0-3.7 1.7-3.7 3.7s1.7 3.7 3.7 3.7c2.1 0 3.7-1.7 3.7-3.7s-1.7-3.7-3.7-3.7"/>
</svg>
