<svg xmlns="http://www.w3.org/2000/svg" viewBox="0 0 47.2 84" width="32" height="57">
  <path d="M2.6 81.5c0 .7.2 1 .7 1.5.4.5 1 .9 1.7 1 .8.1 1.6-.1 2.3-.5.7-.5 1.2-1.2 1.4-2 .1-.3.2-.7.1-1.1l-.3-1.2c-.4-.7-1-1.2-1.8-1.4-.8-.2-1.6-.1-2.4.3h-.1c-.5.3-.8.4-1.1.9l-1-.6H2v.9l-1.9.2-.1.1v.1l1.7.7-.5 1.1s-.1.1 0 .1l.1.1 1.3-.2zm26.2-1v-.2l-.2.2c-1-.5-1.9-1.2-2.8-2-.4-.4-.4-1.1 0-1.6l5.8-6.1-.9 10.5-1.9-.8zm-12.2-38c-2.7 9.9-3.5 20-2.2 30.1h.1c.7 0 1.4.2 2 .4a75.9 75.9 0 0 1 2-30c.4-1.5-.1-3.4-.6-5.2-.5-1.9-1.2-4.1-1.5-6.8-.6-5.3.2-12.8 7-23.2l.1-.4c.1-.8 4.6-.8 4.7 0l.1.4c6.8 10.4 7.6 17.8 7 23.2-.3 2.7-1 5-1.5 6.8-.5 1.8-1.1 3.6-.6 5.2a59.3 59.3 0 0 1 2 20.6l-4 4.1-7.6 8c-.8 1.4-.6 3.2.5 4.4l1.8 1.5h-1c-2.3-.2-3.8-.1-5.9-.5l.4-.7a5.5 5.5 0 0 0-2.9-7.4c-.6-.3-1.3-.4-2-.4h-.2c-.9 0-1.5-.1-2.3.4l-.8-1.7c-.1-.1-.1-.1-.2 0l-.1.2-.7 1.2-2.7-1.2h-.2c0 .1-.1.1 0 .2L8.9 74l-1.6 1.1-.2.1c-.1 0 0 .1 0 .2l2.2.6c-.6 1-.5 1.7-.4 2.8.1 1.2.7 2.4 1.6 3.3 1 1.1 2.4 1.6 3.9 1.6a5 5 0 0 0 3.1-1l.4.2c2.7.5 5.4.7 8.1.7l2.9-.1V83c4.9 1.9 10.6.7 14.5-3.3a14.2 14.2 0 0 0-.2-19.6 3.3 3.3 0 0 0-4.3-.4l-.9 1a75.7 75.7 0 0 0-2.8-18.2c-.2-.9 0-2.1.6-4.1.5-1.9 1.3-4.3 1.6-7.2.7-5.8-.3-13.6-7.2-24.3v-.6l.1-.2H30l.9-.7c.2-1.6.5-4-.8-5.2l-.7-.2h-7l-.7.3c-1.3 1.2-.9 3.6-.8 5.2l.9.7h-.3v.2l.1.6c-6.9 10.6-7.9 18.5-7.2 24.3.3 2.9 1.1 5.2 1.6 7.2.6 1.9.9 3.1.6 4zm27.8 24.4l-10.2.7 5.8-5.7c.4-.4 1.1-.5 1.5 0 1.5 1.4 2.4 3.1 2.9 5zm-1.9 10.2l-8.8-8.3 11.2.5a12 12 0 0 1-2.4 7.8zm-1.8 1.8a11 11 0 0 1-7.6 2.7l-.3-11.2 7.9 8.5z" fill-rule="evenodd" clip-rule="evenodd" fill="#fff"/>
</svg>