<svg xmlns="http://www.w3.org/2000/svg" viewBox="0 0 41 51" width="32" height="40">
  <path fill="#fff" d="M22.9 25.5h-4.7C8.2 25.5 0 33.7 0 43.8v1.7c0 3 2.4 5.5 5.4 5.5h30.1c3 0 5.4-2.5 5.4-5.5v-1.7c.1-10.1-8.1-18.3-18-18.3m-9.8 22.3c-7.5 0-10.3-3.6-9.7-6.8 1.3-7 7.4-12.3 14.7-12.3h4.7c5.2 0 9.7 2.7 12.4 6.7 3.5 4.9-8.9 12.4-22.1 12.4M20.5 22.3c6.1 0 11-5 11-11.2S26.6 0 20.5 0s-11 5-11 11.2 4.9 11.1 11 11.1m0-19.1c3.5 0 6.4 2.3 7.5 5.5 1.6 4.7-8.9 11.5-12.2 8.8-1.9-1.5-3.2-3.8-3.2-6.4 0-4.3 3.6-7.9 7.9-7.9"/>
</svg>
