<svg xmlns="http://www.w3.org/2000/svg" viewBox="0 0 37 39" width="39" height="41">
  <path d="M25.6 10l.2-1.5 1.1-4.6c.4-1.3 1-1.8 2-.9L31 5l1.4 1.5c2 2.1-2 4.4-5.4 5h-.4c1.5-.8 3.6-4.9 3.7-5 .1-.1-4.3 2-4.9 3.8.2-.1.2-.2.2-.3m1.1 3.4l.2-.5.4-.2c2.9-.5 8.4-1.8 9.5-3 .2-.2.2-.5.1-.9A36.9 36.9 0 0 0 28.2 0c-.4-.1-.8-.1-1 .1a26.6 26.6 0 0 0-2.9 9.6l-.2.4c-.2.2-.6.3-.9.1l.4.4c-.9-.3-1.9-.5-3.2-.5-7 0-14.2 10.8-11.5 16.1A25 25 0 0 0 0 29.1c-.2.2-.2.6-.1.9a41.2 41.2 0 0 0 8.7 8.8c.4.1.8.1 1-.1 1.2-1.2 2.4-6.7 2.9-9.6l.1-.2c.7.2 1.5.3 2.4.3 4.6 0 9.2-4.7 11.1-9.1a8.4 8.4 0 0 0 .6-6.7M11.4 29l-.2 1.5-1.1 4.6c-.4 1.3-1 1.8-2 .9L6 34l-1.4-1.5c-2-2.1 2-4.4 5.4-5l.2.2c-1.5 1-3.4 4.8-3.5 4.9-.1.1 4.3-2 4.8-3.8l-.1.2m3.7-1.8C4.8 28.4 14 12.3 20.5 12.3c4.8 0 3.2 13.9-5.4 14.9" fill-rule="evenodd" clip-rule="evenodd" fill="#fff"/>
</svg>