<svg xmlns="http://www.w3.org/2000/svg" viewBox="0 0 51.2 67.2" width="47" height="62">
  <path fill="#fff" d="M21.5 13.1c-1.9 0-3.5 1.1-3.5 2.5s1.6 2.5 3.5 2.5S25 17 25 15.6s-1.6-2.5-3.5-2.5zm0 4c-.8 0-1.5-.7-1.5-1.5s.7-1.5 1.5-1.5 1.5.7 1.5 1.5-.7 1.5-1.5 1.5zM41.6 45.5c-1.3 2.7-5.1 1.7-4.8 5.1v.2c1.6 1 4 .4 5.3-1.5a5 5 0 0 0 .9-3.6c-.2-.8-1.1-.8-1.4-.2zM40.9 43.7v-.2c-1.6-1.1-4-.4-5.3 1.5a4.5 4.5 0 0 0-.9 3.4c.1.7 1.1.8 1.4.2 1.1-2.2 4.7-1.6 4.8-4.9z"/>
  <path fill="#fff" d="M48.5 26.6c-.2-1.3-.8-2.5-2.5-2.4H33.8a.8.8 0 0 1-.8-.8v-5.8l-.1-.4-7.1-10.4-.1-.4v-5c0-.3-.1-.5-.3-.6l-.9-.6c-.2-.1-.5-.2-.8 0L9.3 7.1c-.3.2-.5.4-.5.7v4c0 .3-.2.6-.4.7l-6.3 3.1c-.7.6-2.2 1.4-2.1 3.6v30.6c0 2.9 1.2 3.6 2.4 4.1l14.9 5.9c.7.3 1 .2 1.7-.1l5.1-2.5-.2 6 .1.4s2 2.9 3.7 3.3c2.8.7 16-.1 18.2-.1 4 0 4.9-2.2 5.1-4.7.9-9.6-2.5-35.5-2.5-35.5zM11 9c0-.3.2-.6.4-.7l11.8-5.4c.5-.2 1.1.1 1.1.7v2.2c0 .3-.2.6-.4.7l-11.8 5.4c-.5.2-1.1-.1-1.1-.7V9zm1.8 8.6l2.2 3.2c.4.6-.2 1.4-.9 1.1l-6.7-2.6c-.7-.3-.6-1.4.2-1.5l4.5-.6c.2 0 .5.1.7.4zm-5.5-2.7l2.1-1.1c.3-.2.8-.1 1 .2l.6.8c.3.5 0 1.1-.5 1.2l-2.7.3c-.9.2-1.3-1-.5-1.4zm7.5 39.5c-2.6 2.5-9.8-1.5-11.1-2.2-.7-.3-1.9-.5-1.8-3.3V19.8c.1-1.1 1.2-1.3 1.6-1.1l12.9 5.6c.3.1.5.4.5 1.6-.1 3.7.5 26-2.1 28.5zM18 22.8l-5.7-8.3c-.3-.4-.1-.9.3-1.1l11-5.1c.3-.2.7-.1.9.2l5.9 8.1c.3.4.1.9-.3 1.1L19 23.1c-.4.2-.8 0-1-.3zm5.4 1.3l-.4.2-.2.2-1.8 4.6c-.1.2 0 .3.1.5l.4.2 3.4.1.3.7-1 24.3c.1-.1 0 0 0 0h-.1L19.8 57c-.5.3-1.1-.1-1.1-.7l.1-31.2c0-.3.2-.6.4-.7l10.9-5.3c.5-.2 1.1.1 1.1.7v3.5c0 .4-.3.8-.8.8h-7zm0 4.7c-.5 0-.9-.5-.7-1 .3-.6 1.2-.6 1.4 0 .2.5-.2 1-.7 1zM26 63.3a.8.8 0 0 1-.2-.5l.2-25.7 1.1 27.4-1.1-1.2zm1.4-34.2c-.3 0-.5-.1-.7-.4l-1-1.6c-.3-.5.1-1.2.7-1.2h18.1l.6.3 1.4 1.6c.4.5.1 1.3-.6 1.3H27.4zM36.9 65c-4.6.1-6.4.2-7.2-.4a320 320 0 0 1-1.8-29.8c-.1-3.2 1.9-3.8 2-3.8l16.3.2s2-.1 2.1 2.4l1.3 20.7c-.2.1.7 10.5-12.7 10.7z"/>
</svg>