<svg xmlns="http://www.w3.org/2000/svg" viewBox="0 0 34 39" width="34" height="39">
    <path fill="#FFF" d="M32.744 11.677h-9.88c2.155-.977 4.36-2.405 4.774-4.273.204-.922.072-2.323-1.713-3.76-.996-.801-1.996-1.207-2.974-1.207-2.947 0-4.492 3.492-5.259 6.277C16.499 5.008 14.258 0 10.851 0c-.862 0-1.707.313-2.515.932C6.338 2.46 6.109 4.067 6.268 5.146c.392 2.649 3.632 4.973 6.462 6.531H1.256c-.694 0-1.256.551-1.256 1.232v6.85c0 .681.562 1.231 1.256 1.231h.55v16.779c0 .68.562 1.231 1.256 1.231H30.78c.694 0 1.256-.551 1.256-1.231V20.99h.707c.694 0 1.256-.551 1.256-1.231v-6.85a1.242 1.242 0 0 0-1.255-1.232zm-3.246 22.986c0 .873-.236 1.874-1.413 1.874h-6.988c-.785 0-1.309-.358-1.309-1.847V22.101c.069-.582.337-1.111 1.388-1.111h6.596c.994 0 1.727.103 1.727 1.412 0 .155.01.279.026.382v10.059l-.027 1.82zm-25.179.423V22.07c.072-.637.357-1.08 1.466-1.08h6.308c1.204 0 2.513.129 2.513 1.181v13.077c-.069.717-.341 1.289-1.413 1.289h-7.33c-.798 0-1.422-.135-1.544-1.451zm26-20.946c.679.066 1.082.337 1.168 1.293v1.957c-.072.687-.342 1.058-1.185 1.138h-9.441c-.864 0-1.074-.308-1.074-1.385v-1.667c0-.642.236-1.335 1.885-1.335h8.647zm-7.368-9.241c.375 0 .853.225 1.379.649.444.356.953.878.853 1.334-.216.973-2.126 2.062-4.18 2.894-.004.002-.006.001-.011.004-.78.334-.897-.159-.698-.953.657-2.107 1.619-3.928 2.657-3.928zM8.754 4.791c-.034-.233-.14-.948 1.127-1.918.356-.272.682-.41.969-.41 1.483 0 3.173 3.27 4.341 6.723.331 1.191-.287.842-1.215.337l.017.022C11.361 8.09 8.974 6.28 8.754 4.791zm5.825 10.35c0 .082.013.137.026.195v1.96c0 .616.026 1.231-1.937 1.231H3.641c-.567-.005-1.026-.087-1.129-.873v-2.309c0-.82.263-1.205 1.466-1.205h8.532c1.257 0 2.069.027 2.069 1.001z"/>
</svg>
