<svg xmlns="http://www.w3.org/2000/svg" viewBox="0 0 20 66" width="16" height="54">
  <path d="M6.8.1S6 0 5.8.4c-.3.3-.2.5-.4.6-.1.1-.2.3-.3.9S5 4.2 5 4.2v.1s-.6.1-.6.6.3.6.3.6V6s0 .6.6.7c.6.1-1 6.9-1 6.9S.5 33 .2 36.3c-.2 3.3 0 5.7.3 8.1.3 2.3.5 6.9.1 9.4s-.9 5-.6 6.3.4 3.4 1.5 4.6c.7.8 5.1 1.4 8.4 1.3 3.9.1 7.7-.5 8.4-1.3 1.1-1.2 1.2-3.2 1.5-4.6.3-1.3-.2-3.8-.6-6.3-.4-2.5-.1-7.1.1-9.4.3-2.4.5-4.8.3-8.1s-4-22.7-4-22.7-1.7-6.8-1-6.9c.7-.1.7-.7.7-.7v-.4s.3-.1.3-.6-.6-.6-.6-.6v-.2s-.1-1.8-.1-2.4-.2-.7-.4-.8c-.1-.1-.1-.2-.3-.6s-1-.3-1-.3L10 0 6.8.1zm5.9 7c.5 4.1 1.3 9.5 1.3 9.5s2.7 16.9 2.8 19.9a44 44 0 0 1-.2 7.5c-.2 2.2-.4 6.4-.1 8.7.3 2.3-.3 7.2-1.7 8.8C13.5 63 10.4 64 9 63.9c-2.3.1-4.4-.5-4.9-1.2-.8-1.1-.8-3-1-4.2-.2-1.2.2-3.5.4-5.8.3-2.3.1-6.5-.1-8.7-.2-2.2-.4-4.4-.2-7.5.1-3 2.8-19.9 2.8-19.9s.9-5.4 1.4-9.4c.2-2.3 5-2.4 5.3-.1z" fill-rule="evenodd" clip-rule="evenodd" fill="#fff"/>
  <path d="M11.7 15s.1.5.2 1.3.4 2 .6 3.4c.2 1.4.5 3 .8 4.8.3 1.8.6 3.6.8 5.5.3 1.9.5 3.8.6 5.6.1 1.8.1 3.5.1 4.9 0 .7-.1 1.4-.1 2-.1.6-.1 1.1-.2 1.5-.1.8-.2 1.3-.2 1.3V44v-1.5-1.9c0-.7-.1-1.5-.2-2.3l-.3-2.5-.3-2.7c-.1-.9-.3-1.9-.4-2.8-.3-1.9-.5-3.8-.7-5.5-.2-1.8-.3-3.4-.5-4.8-.1-1.4-.2-2.6-.2-3.4V15z" fill="#fff"/>
  <path d="M14.3 54.9s0 .1.1.4c0 .1.1.3.1.5v.6c0 .5-.1 1-.3 1.5-.2.5-.5 1.1-.9 1.6s-.8.9-1.4 1.2c-.2.2-.5.3-.8.4-.3.1-.5.2-.7.2-.5.1-.8.1-1.1 0-.3 0-.4-.1-.4-.1s.1 0 .4-.1c.2-.1.6-.2.9-.4.4-.2.8-.4 1.1-.8.2-.1.4-.3.6-.5.2-.2.4-.4.5-.6.2-.2.3-.4.5-.6.1-.2.3-.4.4-.7.2-.4.4-.9.6-1.3.1-.2.1-.4.2-.5.1-.2.1-.3.1-.4.1-.3.1-.4.1-.4z" fill="#fff"/>
</svg>