<svg xmlns="http://www.w3.org/2000/svg" viewBox="0 0 40 30" width="40" height="30">
    <path fill="#FFF" d="M35 0H5C2.242 0 0 2.242 0 5v20c0 2.758 2.242 5 5 5h30c2.758 0 5-2.242 5-5V5c0-2.758-2.242-5-5-5M7.511 2.5h24.977c2.302 0 3.75 1.445 3.75 3.3 0 1.497-.412 3.352-2.798 4.157-3.356 1.133-12.65 4.217-12.65 4.217a2.521 2.521 0 0 1-1.58 0S9.917 11.089 6.56 9.957C4.174 9.152 3.761 7.297 3.761 5.8c0-1.855 1.449-3.3 3.75-3.3m29.989 15c0 5.209-7.698 10-16.239 10H7.401A4.902 4.902 0 0 1 2.5 22.599v-6.158c0-2.56 2.507-4.367 4.936-3.557l2.094.698v.001c.612.204 1.215.429 1.808.676 2.32.965 4.201 2.661 5.894 4.518A3.732 3.732 0 0 0 20 20a3.731 3.731 0 0 0 2.765-1.221c1.695-1.856 3.576-3.554 5.897-4.519a26.276 26.276 0 0 1 1.808-.676l-.001-.002 2.095-.697c2.429-.81 4.937.997 4.937 3.557V17.5z"/>
</svg>
