<svg xmlns="http://www.w3.org/2000/svg" viewBox="0 0 32 40" width="32" height="40">
    <g fill="#FFF">
        <path d="M15.999 10c-3.394 0-6.154 2.804-6.154 6.251 0 3.446 2.76 6.25 6.154 6.25 3.393 0 6.154-2.804 6.154-6.25 0-3.447-2.761-6.251-6.154-6.251m-2.353 9.116a3.749 3.749 0 0 1-1.339-2.865c0-2.068 1.656-3.75 3.692-3.75 1.333 0 2.403.788 3.151 1.796 1.451 1.954-3.506 6.421-5.504 4.819"/>
        <path d="M16 0C7.163 0 0 7.277 0 16.25 0 28.38 13.127 40 16 40c2.871 0 16-11.62 16-23.75C32 7.277 24.836 0 16 0M8.485 30.626C5.332 26.689 2.46 21.504 2.46 16.25 2.46 8.669 8.534 2.5 16 2.5c7.464 0 13.537 6.169 13.537 13.75 0 .86-.076 1.718-.218 2.568-1.333 7.962-15.816 18.075-20.834 11.808"/>
    </g>
</svg>
