<svg xmlns="http://www.w3.org/2000/svg" viewBox="0 0 40 40" width="40" height="40">
    <path fill="#FFF" d="M38.189 33.769c2.402-4.211 2.415-9.24.037-12.232a6.302 6.302 0 0 0-1.783-1.548c-1.84-1.059-4.302-1.06-6.754-.005-2.439 1.05-4.559 2.991-5.967 5.46-2.405 4.217-2.436 9.232-.077 12.198a6.385 6.385 0 0 0 1.83 1.584c1.803 1.038 4.251 1.033 6.714-.015 2.468-1.052 4.6-2.986 6-5.442zm-11.582 2.874c-.343-.571.955-1.673 1.479-2.425.486-.699 1.436-2.093 1.299-5.64-.14-3.548 1.048-5.265 3.043-6.619 1.215-.825 3.914-.277 3.175.638-.742.914-3.187 3.222-2.963 7.134.2 3.472-1.073 5.331-2.246 6.267-1.461 1.165-3.493 1.132-3.787.645zM16.432 23.714c-1.803-4.502-5.726-7.626-9.535-7.602a6.262 6.262 0 0 0-2.313.448c-1.966.796-3.491 2.738-4.184 5.326-.688 2.574-.484 5.449.575 8.089 1.806 4.508 5.706 7.637 9.483 7.612a6.335 6.335 0 0 0 2.371-.464c1.927-.778 3.437-2.714 4.144-5.305.704-2.599.513-5.478-.541-8.104zm-4.919 10.917c-.659-.082-.717-1.789-.981-2.669-.246-.815-.748-2.428-3.604-4.516-2.859-2.087-3.466-4.086-3.29-6.499.108-1.469 2.206-3.26 2.463-2.11.256 1.152.547 4.51 3.742 6.755 2.836 1.992 3.502 4.148 3.507 5.652.008 1.874-1.275 3.457-1.837 3.387zm7.515-17.981c4.643 1.332 9.503.138 11.822-2.899a6.334 6.334 0 0 0 1.067-2.11c.58-2.048-.01-4.449-1.618-6.587-1.601-2.126-3.984-3.727-6.708-4.508-4.65-1.335-9.501-.161-11.798 2.85a6.417 6.417 0 0 0-1.091 2.165c-.569 2.006.024 4.392 1.626 6.544 1.611 2.154 3.99 3.77 6.7 4.545zM13.469 6.048c.469-.472 1.846.529 2.698.86.792.306 2.366.897 5.759-.087 3.393-.988 5.337-.242 7.124 1.379 1.088.987 1.208 3.75.147 3.248-1.061-.504-3.879-2.333-7.602-1.177-3.304 1.027-5.406.232-6.591-.687-1.479-1.145-1.935-3.134-1.535-3.536z"/>
</svg>
