<svg width="41" height="40" xmlns="http://www.w3.org/2000/svg" viewBox="0 0 41 40">
  <ellipse fill="#fff" cx="10.5" cy="37.1" rx="2.9" ry="2.9"/>
  <ellipse fill="#fff" cx="22" cy="37.1" rx="2.9" ry="2.9"/>
  <path fill="#fff" d="M28.7 14.6H7.1c-3.1 0-2.6-3-3.4-4.3-.5-.9-1.6-1.5-2.7-1.5-.5 0-1 .4-1 1 0 .4.2.7.5.9 1.5.8 2 3.9 2.2 5l2.7 13c.3 1.5 1.6 2.6 3.1 2.6h16.4c1.7 0 3.1-1.2 3.4-2.9L30.6 17v-.4c0-1-.8-2-1.9-2zm-.7 5.6c-1.1 5.4-8.1 9-13.5 9h-1.8c-3 0-5.6-2.2-6.3-5.2l-.9-4.5c-.3-1.6.9-3 2.4-3H25c.7 0 1.4.3 1.9.7.3.3.6.6.8 1 .3.6.4 1.3.3 2z"/>
  <ellipse fill="#fff" cx="35.6" cy="15.9" rx="1.6" ry="1.6"/>
  <path fill="#fff" d="M35.6 0c-3.3 0-5.4 2.3-5.4 4.4 0 2.6 2.5 3.8 3.8 3.8.6 0 1.1-.5 1.1-1.1 0-.6-.5-1.1-1.1-1.1-.1 0-.3 0-.4.1-.9.2-2.2-.8-2.2-1.7 0-1.7 2.6-2.7 4.3-2.7 1.7 0 4.3 1 4.3 2.7 0 3.1-5.4 4.5-5.4 7.7 0 .6.5 1.1 1.1 1.1.6 0 1.1-.5 1.1-1.1v-.3c-.1-.5-.1-1.1.2-1.5.5-.7 1.1-1.3 1.7-1.9 1.2-1.1 2.4-2.2 2.4-4C41 2.3 38.9 0 35.6 0z"/>
</svg>
