<svg xmlns="http://www.w3.org/2000/svg" viewBox="0 0 39 39" width="39" height="39">
    <path fill="#FFF" d="M36.562 17.064c-1.436 0-2.761-.88-3.22-2.239a14.489 14.489 0 0 0-.741-1.79c-.64-1.292-.334-2.855.687-3.876a2.439 2.439 0 0 0-3.448-3.447c-1.02 1.02-2.583 1.326-3.877.687a14.546 14.546 0 0 0-1.788-.74c-1.362-.459-2.239-1.784-2.239-3.221a2.437 2.437 0 0 0-4.874 0c0 1.437-.878 2.761-2.238 3.221-.617.208-1.214.456-1.789.74-1.294.639-2.856.333-3.877-.687a2.437 2.437 0 1 0-3.447 3.447c1.021 1.021 1.327 2.584.687 3.876a14.553 14.553 0 0 0-.741 1.79c-.46 1.359-1.785 2.239-3.22 2.239a2.436 2.436 0 1 0 .001 4.874c1.435 0 2.76.878 3.22 2.239.208.615.456 1.213.741 1.789.64 1.292.334 2.855-.687 3.876a2.437 2.437 0 1 0 3.447 3.447c1.021-1.02 2.583-1.326 3.877-.686.575.283 1.172.531 1.789.739 1.36.459 2.238 1.784 2.238 3.221a2.438 2.438 0 1 0 4.876 0c0-1.437.877-2.761 2.239-3.221a14.765 14.765 0 0 0 1.788-.739c1.294-.64 2.857-.334 3.877.686a2.438 2.438 0 0 0 3.448-3.447c-1.021-1.021-1.327-2.584-.687-3.876.285-.576.533-1.174.741-1.789.459-1.36 1.784-2.239 3.22-2.239a2.437 2.437 0 1 0-.003-4.874m-25.69 11.035a12.143 12.143 0 0 1-3.56-8.599c0-6.721 5.467-12.188 12.188-12.188 5.755 0 10.578 4.013 11.85 9.385 1.797 7.603-14.963 16.935-20.478 11.402"/>
</svg>
