<svg xmlns="http://www.w3.org/2000/svg" viewBox="0 0 38.7 58.7" width="35" height="54">
  <path d="M9.8 6.6c0-.5-7.9-1.6-8.5-1.8a1 1 0 0 0-1.3.8c-.1.7.3 1.4.9 1.5.6.2 8.9-.5 8.9-.5m1.5-1.2C11.8 5 7.6.7 7.2.3 6.8-.2 6-.2 5.4.3c-.6.5-.8 1.3-.4 1.8.4.4 6.3 3.3 6.3 3.3m0 1.6s-6 2.9-6.3 3.4c-.4.4-.2 1.2.4 1.7.6.5 1.5.5 1.8 0 .4-.4 4.6-4.7 4.1-5.1m8.8 51.6H23h-.1c-1 0-1.9 0-2.8-.1v.1zm2.9 0c.7.1 1.2.1 1.6 0H23zm3.2 0c.5.1.9.1 1.6 0h-1.6zm4.9 0v-.2c-1 .1-2 .2-3.2.2h3.2zm-8.1 0H27.8c1.2 0 2.3 0 3.2-.2 5.9-.7 7.5-3.8 7.5-8.9v-.1c0-1.1-.1-2.3-.2-3.6-.2-2.5-.6-5.6-.6-9.3 0 0-7.3-10-7.9-14.8-.1-.9-.1-1.8-.1-2.8l-.3-.3.5-.6v-2.5s-.1-.3-.1-.4c1.3-1.3 3.2-.7 3.6-1.6 4.1-8.6-16.9-9-20.3-8.9-.3 0-.1 4.8.1 5 .8.8 2.5.9 3.3 1.6-.6 1.4-4.2 7.1-5.7 10.6-.1.2 4.9-2.2 5-2.4l4.3-4.8 1 .8c0 .1-.1.2-.1.2v2.5l.5.6.3.4c-.1-.1-.2-.2-.3-.2v-.2l-.3.4c0 .8-.1 1.8-.3 2.7h-.3c-.3 4.7-7.6 14.7-7.6 14.7-.1 3.7-.4 6.8-.6 9.3-.7 7.5.2 11.9 7.8 12.7.8.1 1.7.1 2.8.1zm-1-2c-2.9-.4-6.7-1.7-7.7-4.8-.8-2.7.6-11.5.7-14.7 0 0 7.4-10.3 7.9-15.4h.3c.2-.8.3-1.6.3-2.3.4-.6.2-1.4-.2-1.9v-1.7l.2-.2c1.1-1.3-3-4.3-4-3.2l-5 5.8c.6-1.2 4-5.7 4.4-7v-.4c-.1-1.1-3-2-3.8-2.5l.4-2.1c2 0 18.2.8 16.5 5.8-2 .3-2.7.7-4.1 2.3-.4.5-.2 1.1.2 1.5v1.7c-.4.5-.6 1.3-.2 1.9 0 .8 0 1.5.1 2.3.5 5.1 7.9 15.5 7.9 15.5v.1c.1 3.4.4 5.7.1 9.6-1.9 9.6-14 9.7-14 9.7" fill-rule="evenodd" clip-rule="evenodd" fill="#fff"/>
</svg>