<svg xmlns="http://www.w3.org/2000/svg" viewBox="0 0 32 40" width="32" height="40">
    <path fill="#FFF" d="M28.308 2.5h-4.75c-.762 0-1.317-.64-1.413-1.41A1.24 1.24 0 0 0 20.923 0c-.627 0-1.144.475-1.221 1.09-.096.77-.652 1.41-1.414 1.41h-4.576c-.762 0-1.317-.64-1.413-1.41A1.24 1.24 0 0 0 11.077 0c-.627 0-1.144.475-1.221 1.09-.096.77-.652 1.41-1.414 1.41h-4.75C1.653 2.5 0 4.179 0 6.25v30C0 38.322 1.653 40 3.692 40h24.615C30.346 40 32 38.322 32 36.25v-30c0-2.071-1.654-3.75-3.692-3.75m1.23 22.5c0 5.624-2.947 12.5-13.538 12.5H9.846c-3.332 0-7.385-1.926-7.385-6.128V10.314C2.462 7.676 4.875 5 7.385 5c.357 0 1.034.034 1.214.034.683 0 1.168.663 1.257 1.376.077.615.594 1.09 1.221 1.09.626 0 1.143-.475 1.221-1.09.096-.77.652-1.41 1.414-1.41h4.576c.762 0 1.317.64 1.413 1.41.077.615.594 1.09 1.221 1.09.626 0 1.143-.475 1.221-1.09.089-.713.575-1.376 1.257-1.376.211 0 .999-.034 1.215-.034 2.841 0 4.923 2.706 4.923 5.314V25z"/>
    <path fill="#FFF" d="M8.929 17.042c-1.643 0-2.568-1.373-2.668-1.529a1 1 0 0 1 1.68-1.085c.021.031.432.614.988.614.38-.048 1.555-1.064 2.404-2.088a1 1 0 0 1 1.54 1.276c-.701.846-2.488 2.812-3.944 2.812zM26.257 16H16.82a1 1 0 0 1 0-2h9.437a1 1 0 0 1 0 2zM8.544 24.777c-1.643 0-2.568-1.373-2.668-1.529a1 1 0 0 1 1.68-1.085c.021.031.432.614.988.614.38-.048 1.555-1.064 2.404-2.088a1 1 0 0 1 1.54 1.276c-.7.846-2.488 2.812-3.944 2.812zM25.873 23.734h-9.436a1 1 0 0 1 0-2h9.436a1 1 0 0 1 0 2z"/>
</svg>
