<svg xmlns="http://www.w3.org/2000/svg" viewBox="0 0 42 42" width="42" height="42">
    <path fill="#FFF" d="M41.988 10.277c.176-2.483-1.665-3.021-2.453-3.25a9.354 9.354 0 0 1-.27-.082c.09-.251.27-.618.402-.884.627-1.269 1.674-3.393-.092-5.175-1.564-1.58-3.377-.66-4.577-.051-.648.33-1.319.671-1.878.728-.142-.033-.5-.307-.737-.488-.798-.609-2.454-1.879-4.238-.349-1.252 1.074-1.044 2.894-.45 4.562a18.03 18.03 0 0 0-2.936-.788 1.366 1.366 0 0 0-1.166.389L5.395 23.51a1.364 1.364 0 0 0-.388.996c.008.233.126 1.814 1.337 4.234-2.454.023-6.154.472-6.332 2.983-.176 2.483 1.665 3.021 2.453 3.25.08.023.18.053.27.082-.09.251-.27.618-.402.884-.627 1.269-1.674 3.392.092 5.175 1.565 1.581 3.376.66 4.577.051.648-.33 1.319-.671 1.878-.728.142.033.5.307.737.488.521.398 1.407 1.075 2.454 1.075.558 0 1.164-.193 1.784-.725 1.32-1.133 1.02-3.098.353-4.836 1.971.786 3.541.936 3.662.946a1.336 1.336 0 0 0 1.061-.391l18.198-18.281c.341-.342.475-.841.353-1.31a28.927 28.927 0 0 0-1.499-4.145c2.443-.061 5.835-.58 6.005-2.981zm-5.776-7.013c1.156-.589 1.327-.587 1.457-.455.317.32.236.72-.415 2.038-.282.571-.548 1.156-.665 1.758-.017.006-.034.003-.05.009L33.574 7.76l.796-3.714c.69-.208 1.311-.512 1.842-.782zm-6.322-.465c.046-.039.078-.059.083-.068.169.045.55.336.782.514.267.204.57.42.898.608l-.521 2.429c-.83-1.501-1.398-3.083-1.242-3.483zm-4.889 4.523c1.322.306 4.335 1.19 6.138 3.181.711.785 1.323 1.756 1.836 2.738H19.217l5.784-5.919zM2.716 32.225h-.002s-.016-.043-.018-.151c.571-.394 2.763-.678 4.707-.598.188.007.37-.03.538-.097l.075.106-3.52 1.36c-.022.009-.037.028-.059.038-.43-.288-.899-.428-1.224-.523a6.417 6.417 0 0 0-.497-.135zm3.072 6.511c-1.156.588-1.328.586-1.457.455-.317-.32-.236-.72.415-2.038.282-.571.548-1.155.665-1.757.017-.005.033-.003.05-.009l2.966-1.146-.798 3.714c-.688.207-1.311.512-1.841.781zm6.322.466c-.046.039-.078.059-.083.068-.168-.045-.55-.336-.782-.513a7.848 7.848 0 0 0-.898-.606l.521-2.43c.828 1.499 1.398 3.08 1.242 3.481zm5.396-4.615c-1.322-.243-4.596-1.113-6.801-3.983-1.199-1.56-1.911-2.895-2.344-3.928h17.02l-7.875 7.911zm10.582-10.632H8.748l7.81-7.993h17.62c.204.547.365 1.029.479 1.394l-6.569 6.599zm6.509-13.431c-.024-.001-.042.01-.066.01-.039-.062-.082-.122-.121-.183l3.094-1.196c.022-.009.037-.028.059-.038.43.288.899.429 1.224.523.184.054.462.135.498.135h.001s.016.043.018.151c-.571.395-2.762.683-4.707.598z"/>
</svg>
