<svg xmlns="http://www.w3.org/2000/svg" viewBox="0 0 59 46" width="59" height="46">
    <g fill="#FFF">
        <path d="M11.98 42.506c-.067-.148-.197-.233-.197-.233v-2.012c0-.318-.283-.762-.283-.762v-4.955s.307-.254.307-.529v-2.308s.325-.149.325-1.06-.659-1.631-2.482-2.119c-1.502-.401-2.352-.614-2.352-1.566 0-.953.022-1.039.022-1.039h.283v-1.334c0-.297-.74-.424-1.48-.424-.022 0-.037.003-.057.004-.022-.001-.036-.004-.059-.004-.74 0-1.48.127-1.48.424v1.334h.285s.02.085.02 1.039c0 .952-.85 1.164-2.35 1.566C.659 29.016 0 29.736 0 30.646c0 .91.325 1.06.325 1.06v2.308c0 .276.307.529.307.529v4.955s-.283.444-.283.762v2.012s-.132.086-.197.233c-.065.148-.122.684-.094 1.108.028.423-.201.819.813 1.609.82.639 2.799.753 4.585.773V46l.61-.001.61.001v-.004c1.786-.02 3.765-.133 4.585-.773 1.014-.79.783-1.186.813-1.609.028-.425-.029-.96-.094-1.108zm-7.738-3.781c0 .478-.421.866-.941.866-.516 0-.935-.388-.935-.866V34.75c0-.479.42-.868.935-.868.52 0 .941.389.941.868v3.975zM58.017 0H20.234a.986.986 0 0 0-.983.989v44.023c0 .546.44.989.983.989a.986.986 0 0 0 .983-.989v-6.221h35.816v5.963c0 .546.44.989.983.989a.987.987 0 0 0 .984-.989V.989A.986.986 0 0 0 58.017 0zm-.984 1.977V18.52H21.218V1.977h35.815zm-35.815 34.86V20.474h35.816v16.363H21.218z"/>
        <ellipse cx="46.985" cy="10.372" rx="5.879" ry="5.72"/>
        <ellipse cx="31.397" cy="28.623" rx="5.879" ry="5.72"/>
        <ellipse cx="47.117" cy="28.623" rx="5.879" ry="5.72"/>
    </g>
</svg>
