<svg xmlns="http://www.w3.org/2000/svg" viewBox="0 0 32 30" width="29" height="27">
  <path d="M12 0c-.4 0-.7.2-.9.6L8.4 5.9A3.7 3.7 0 0 1 5 8H2a2 2 0 0 0-2 2v5c0 1.1.9 2 2 2h1.3l1.2 8.9A4.6 4.6 0 0 0 9.1 30h13.8c2.4 0 4.3-1.7 4.7-4.1l1.2-8.9H30a2 2 0 0 0 2-2v-5a2 2 0 0 0-2-2h-3c-1.5 0-2.8-.8-3.4-2.1L20.9.6c-.2-.4-.5-.6-.9-.6l-.4.1c-.5.2-.7.8-.4 1.3l2.2 4.4c.4 1-.3 2.2-1.4 2.2h-8c-1.1 0-1.8-1.2-1.3-2.2l2.2-4.4c.2-.5 0-1.1-.4-1.3L12 0m14.3 19.8C25.7 24.5 18.8 28 14 28h-2.9a5.1 5.1 0 0 1-5-4.4l-.5-3.9c-.1-1.4 1-2.7 2.5-2.7h15.8c1.5 0 2.6 1.3 2.4 2.8M19 15H4.5A2.5 2.5 0 0 1 2 12.5C2 11.1 3.1 10 4.5 10h1.8c1.4 0 2 1 2.9 1 .9 0 1.6-.9 2.9-1h8.1c1.4 0 2 1 2.9 1 .9 0 1.6-.9 2.9-1h1c1.2 0 2.2.8 2.2 2 0 2.2-7 3-10.2 3" fill="#323b50"/>
</svg>