<svg xmlns="http://www.w3.org/2000/svg" viewBox="0 0 40 40" width="40" height="40">
    <path fill="#FFF" d="M20 6.25c1.074 0 2.5-2.681 2.5-3.906C22.5 1.051 21.379 0 20 0s-2.5 1.051-2.5 2.344c0 1.225 1.426 3.906 2.5 3.906m0 27.5c-1.074 0-2.5 2.68-2.5 3.906C17.5 38.949 18.621 40 20 40s2.5-1.051 2.5-2.344c0-1.226-1.426-3.906-2.5-3.906M37.656 17.5c-1.226 0-3.906 1.426-3.906 2.5s2.68 2.5 3.906 2.5C38.949 22.5 40 21.378 40 20c0-1.379-1.051-2.5-2.344-2.5M6.25 20c0-1.074-2.68-2.5-3.906-2.5C1.051 17.5 0 18.621 0 20c0 1.378 1.051 2.5 2.344 2.5 1.226 0 3.906-1.427 3.906-2.5M20 9.999c-5.514 0-10 4.487-10 10 0 5.515 4.486 10 10 10s10-4.485 10-10c0-5.513-4.486-10-10-10M14.115 24.6c-.992-1.278-1.615-2.858-1.615-4.601 0-4.136 3.364-7.5 7.5-7.5 2.07 0 3.912.869 5.286 2.214 5.053 4.943-8.801 12.937-11.171 9.887M6.25 3.75a2.5 2.5 0 1 0 0 5 2.5 2.5 0 0 0 0-5m27.5 5a2.5 2.5 0 1 0 0-5 2.5 2.5 0 0 0 0 5m-27.5 22.5a2.499 2.499 0 1 0 0 5 2.5 2.5 0 1 0 0-5m27.5 0a2.499 2.499 0 1 0 0 5 2.5 2.5 0 0 0 0-5"/>
</svg>
