<svg xmlns="http://www.w3.org/2000/svg" viewBox="0 0 39.2 43.8" width="38" height="40">
  <path d="M13.6 4.9L13.2.8c0-.4-.4-.8-.9-.8H2.1c-.4 0-.8.4-.8.8 0 .5.4.9.8.9h9.5l.3 3.3H9c-3-.3-9-.5-9 4l1.8 2.5s.9 25.9 1.6 27.3c.7 1.4 2.7 3.8 4.4 4.2 1.8.4 9.4 1.7 12-.3 1.8 1.2 5 1.6 7.4.6 11.9 3.4 17.8-23.1 4-22.6l.8-.9-2.1-2.1-2.3 1.7-3.7-2.6.3-5.2L25.9 9v-.3c0-4.6-8.5-4.2-12.3-3.8m8.6 5.9l-.3 6.1-.9.9.7 2.8c-8 1-8.9 12.4-4.6 18.4.3.5.5 2 .8 2.4-2.4 1-6.7.2-9.2-.3-2.6-.5-3.4-3.2-3.4-3.2L3.7 10.8h18.5zm-2.3 28.9l-.4-.7h-.4c-4.3-4.6-2.5-16.5 3.8-16.5h1.3l-.9-3.8 4.2 3-2 2.2 3.3-.9c11.8-3.1 7 22.6-8.9 16.7" fill-rule="evenodd" clip-rule="evenodd" fill="#fff"/>
</svg>