<svg xmlns="http://www.w3.org/2000/svg" viewBox="0 0 26 49" width="26" height="49">
    <path fill="#FFF" d="M25.673 41.158c-.14-.333-.42-.523-.42-.523V36.12c0-.713-.607-1.711-.607-1.711V23.288s.653-.57.653-1.188v-5.18s.7-.333.7-2.376c0-2.044-1.413-3.658-5.318-4.753-3.219-.903-5.038-1.378-5.038-3.517 0-2.139.047-2.329.047-2.329h.607V.951c0-.665-1.586-.951-3.172-.951-.048 0-.08.006-.124.009C12.954.006 12.925 0 12.875 0c-1.586 0-3.172.285-3.172.951v2.994h.606s.047.19.047 2.329c0 2.139-1.819 2.614-5.038 3.517C1.413 10.885 0 12.499 0 14.543c0 2.044.7 2.376.7 2.376v5.18c0 .618.653 1.188.653 1.188v11.121s-.606.998-.606 1.711v4.515s-.28.19-.42.523c-.14.333-.264 1.536-.203 2.486s-.434 1.839 1.742 3.612c1.76 1.435 6 1.689 9.827 1.733V49c.42 0 .86 0 1.308-.003.446.003.886.003 1.306.003v-.01c3.828-.045 8.068-.299 9.827-1.733 2.176-1.773 1.681-2.661 1.742-3.612.061-.951-.063-2.154-.203-2.487zM9.092 32.673c0 1.072-.902 1.943-2.016 1.943-1.108 0-2.009-.87-2.009-1.943v-8.922c0-1.074.901-1.946 2.009-1.946 1.114 0 2.016.872 2.016 1.946v8.922z"/>
</svg>
