<svg xmlns="http://www.w3.org/2000/svg" viewBox="0 0 37 54" width="27" height="40">
  <path fill="#fff" d="M18.5 0C8.3 0 0 8.3 0 18.6c0 4.7 1.7 9.1 4.9 12.5 3.6 3.9 5.5 6.6 5.5 11.4v1.2c0 1.7.9 3.2 2.2 4 2.7 1.8 1.6 3.2 2.6 4.6 1 1.4 2.4 1.7 3.4 1.7.9 0 2.4-.3 3.4-1.7.5-.7.5-1.4.7-2.1.2-.7.5-1.5 1.7-2.3.1-.1.2-.1.2-.2 1.3-.9 2.2-2.3 2.2-4v-1.2c0-4.8 2-7.5 5.5-11.4 3.1-3.4 4.9-7.9 4.9-12.5C37 8.3 28.7 0 18.5 0m-5.2 38c-.8-4.1-2.9-5.9-5.9-9.2-2.6-2.8-4-6.4-4-10.3 0-8.4 6.8-15.2 15.1-15.2s15.1 6.8 15.1 15.2c0 3.8-1.4 7.5-4 10.3l-.4.4c-1.7 1.8-2.9 2.3-4.2 4.5-1.2 2.2-4 4.9-6.6 6.1-2.3 1.3-4.6 1.2-5.1-1.8"/>
</svg>
