<svg xmlns="http://www.w3.org/2000/svg" viewBox="0 0 33.9 84.1" width="23" height="57">
  <path d="M13.9 36.7l-.9.6v2.4l.4.7c6.9 4.6 4.6 12.7 3.2 19.3-.7 3.3 4.3 22.7-6.5 22.7-4.4 0-8.4-.8-8.4-5.6 0-5 2-9.8 2-14.9 0-7.8-5.2-15.6 3.1-21.6l.3-.7v-2.4l-.9-.6-.3-.2h.2c.1 0 .1.1.2.1H14l.2.2c-.2.1-.2 0-.3 0zm0-.1c.1 0 .1-.1.2-.1h.2c-.1 0-.4.1-.4.1zm-7.7 0v.1h-.1l-.1.1.2-.2zm1.2-9.2h-.3c-.6.2-1 .9-.8 1.5-1.7 1.9-1.4 4.3-1.4 6.6-.6.7-.4 2 .4 2.5v1.2C-3.4 45.9 2 53.7 2 61.9c0 5-2 9.8-2 14.9 0 6.1 5.2 7.3 10.1 7.3s10.1-1.2 10.1-7.3c0-4.2-2.6-14.1-2-16.8 1.6-7.2 3.7-15.6-3.5-20.8V38c.8-.5 1.1-1.8.4-2.5 0-2.5-.1-5.7-1.7-7.8l-.7-.3H7.4z" fill-rule="evenodd" clip-rule="evenodd" fill="#fff"/>
  <path d="M13.8 80.5l.5.6c.6.1 1 .2 1.5.2l1.2-1.2-1.2 1.2c1.7.2 3 .2 4.9.3 8.9.6 13.4-22.5 8.4-38.6-.5-1.5.1-3.4.6-5.2.5-1.9 1.2-4.1 1.5-6.8.6-5.3-.2-12.8-7-23.2l-.2-.4c-.1-.8-4.6-.8-4.7 0l-.2.4c-6.8 10.4-7.6 17.8-7 23.2.3 2.7 1 5 1.5 6.8.4 1.5.8 3 .7 4.4l1 .3-1-.3c0 .3-.1.5-.1.8-3.1 12.3-3.5 25.1-.4 37.5z" fill="none"/>
  <path d="M31.1 42.5c-.2-.9 0-2.1.6-4.1.6-1.9 1.3-4.3 1.6-7.2.7-5.8-.3-13.6-7.2-24.2v-.8h-.3l.9-.7c.2-1.6.5-4-.8-5.2l-.6-.3h-7l-.7.3c-1.3 1.2-1 3.6-.8 5.2l.9.7h-.3V7c-5.9 9.2-7.5 16.3-7.4 21.8h2c-.1-5.1 1.3-11.9 7.2-20.9l.2-.4c.1-.8 4.6-.8 4.7 0l.2.4c6.8 10.4 7.6 17.8 7 23.2-.3 2.7-1 5-1.5 6.8-.5 1.8-1.1 3.6-.6 5.2 5 16.1.5 39.2-8.4 38.6-1.9-.1-3.3-.1-4.9-.3l-1.8 1.8a48.98 48.98 0 0 0 15.8-.1l.5-.3 1-1 .3-.5c3.2-12.9 2.9-26.1-.6-38.8z" fill="#fff"/>
</svg>