<svg xmlns="http://www.w3.org/2000/svg" viewBox="0 0 75.7 83.7" width="51" height="57">
  <style>
    .st2{fill:none;stroke:#fff;stroke-width:1.5;stroke-miterlimit:10}
  </style>
  <path fill="#fff" clip-rule="evenodd" fill-rule="evenodd" d="M39.4 7.4l.2.4c6.8 10.4 7.6 17.8 7 23.2-.3 2.7-1 5-1.5 6.8-.5 1.8-1.1 3.6-.6 5.2 5 16.1.5 39.2-8.4 38.6-2.5-.2-4-.1-6.5-.6l-.6-.6c-3-12.3-2.7-25.1.7-37.4.4-1.5-.1-3.4-.6-5.2-.5-1.9-1.2-4.1-1.5-6.8-.6-5.3.2-12.8 7-23.2l.1-.4c.1-.8 4.6-.8 4.7 0zm-2.3 76.3c2.7 0 5.4-.2 8.1-.7l.5-.3 1-1 .3-.5c3.2-12.9 2.9-26.1-.6-38.8-.2-.9 0-2.1.6-4.1.5-1.9 1.3-4.3 1.6-7.2.7-5.8-.3-13.6-7.2-24.3V6h-.3l.9-.5c.2-1.6.5-4-.8-5.2l-.6-.3h-7l-.7.3c-1.3 1.2-.9 3.6-.8 5.2l.9.7h-.3V7c-6.9 10.6-7.9 18.5-7.2 24.3.3 2.9 1.1 5.2 1.6 7.2.6 2 .8 3.2.6 4.1a76.15 76.15 0 0 0-.6 38.8l.3.5 1 1 .5.3c2.7.3 5.5.5 8.2.5z"/>
  <path fill="#fff" d="M66.5 75.1l-.6-2h-3.1l-.6 2h-2l3-8.6h2.2l3 8.6h-1.9zm-1.1-3.6c-.6-1.8-.9-2.9-1-3.1s-.1-.4-.2-.6c-.1.5-.5 1.7-1.1 3.7h2.3zM62.2 41.7l2.6-.3c1.2-.1 2.1-.1 2.7.2.6.3.9.8 1 1.5.1.5 0 .9-.2 1.3s-.5.6-.9.7v.1c.6.1 1 .2 1.2.5s.4.7.5 1.3c.1.8-.1 1.4-.6 1.9s-1.2.8-2.2.9l-3.2.4-.9-8.5zm2.1 3.2l1-.1c.5-.1.8-.2 1-.3s.3-.4.2-.8c0-.3-.2-.5-.4-.7-.3-.1-.6-.1-1.2-.1l-.8.1.2 1.9zm.2 1.4l.3 2.2 1.2-.1c.5-.1.9-.2 1.1-.4.2-.2.3-.5.3-.9-.1-.7-.6-1-1.6-.9l-1.3.1zM14.5 23.3c0 1.4-.4 2.5-1.2 3.2s-2 1.1-3.5 1.1H7.4V19h2.7c1.4 0 2.5.4 3.3 1.1.7.9 1.1 1.9 1.1 3.2zm-1.9.1c0-1.8-.8-2.8-2.4-2.8h-1v5.6h.8c1.7 0 2.6-.9 2.6-2.8zM13.5 55.7l-4.9.7-1.2-8.5 4.9-.7.2 1.5-3.1.4.3 1.9 2.9-.4.2 1.5-2.9.4.3 2.2 3.1-.4.2 1.4z"/>
  <circle class="st2" cx="63.7" cy="71.4" r="9.5"/>
  <circle class="st2" cx="65.5" cy="45.3" r="9.5"/>
  <circle class="st2" cx="10.2" cy="24.1" r="9.5"/>
  <circle class="st2" cx="10.5" cy="51.8" r="9.5"/>
  <path class="st2" d="M63.7 61.9l1.8-7.1M56.3 42.8l-8.5 10.6M55.1 75.5L47.6 72M26.1 60.9l-7.5-3.6M26.4 31.4l-6.6-8M9 33.6l1.5 8.7"/>
</svg>