<svg xmlns="http://www.w3.org/2000/svg" viewBox="0 0 31 40" width="31" height="40">
    <g fill="#FFF">
        <path d="M31 3.75C31 1.678 29.266 0 27.125 0H3.875C1.734 0 0 1.677 0 3.75v32.5C0 38.32 1.734 40 3.875 40h23.248c2.14 0 3.875-1.68 3.875-3.75V27.5H31V3.75zM28.414 25c0 5.891-6.827 12.5-12.916 12.5h-5.166c-3.335 0-7.749-2.898-7.749-6.125V7.812C2.583 4.878 5.04 2.5 8.072 2.5H22.928c3.032 0 5.489 2.378 5.489 5.312V22.5h-.002V25z"/>
        <path d="M22.845 10.781H7.992c-.758 0-1.374-.596-1.374-1.328 0-.735.616-1.329 1.374-1.329h14.853c.758 0 1.374.594 1.374 1.329-.001.732-.616 1.328-1.374 1.328zM19.212 16.25h-7.507c-.758 0-1.374-.596-1.374-1.328 0-.735.616-1.329 1.374-1.329h7.507c.758 0 1.374.594 1.374 1.329 0 .732-.616 1.328-1.374 1.328zM10.696 33.125c-2.427 0-4.401-1.91-4.401-4.258 0-2.349 1.974-4.259 4.401-4.259s4.401 1.91 4.401 4.259c-.001 2.347-1.975 4.258-4.401 4.258zm0-5.86c-.912 0-1.653.718-1.653 1.601 0 .881.742 1.6 1.653 1.6.912 0 1.654-.719 1.654-1.6-.001-.883-.742-1.601-1.654-1.601z"/>
        <path d="M12.431 32.109s1.729 2.129 3.148 2.734c1.588.676.43-1.875 1.318-2.031.888-.156 3.364-.312 1.507-1.562s-3.982-1.98-3.982-1.98l-1.991 2.839z"/>
    </g>
</svg>
