<svg xmlns="http://www.w3.org/2000/svg" viewBox="0 0 48 34.9" width="49" height="36">
  <path d="M22.7 0c-1.4 0-2.5.5-2.5 2.3l4.9-.1c.1-1.8-1-2.2-2.4-2.2m19 20.8c-.1 1.7-.6 3.3-1.3 4.6 2-.9 3.4-2.4 4.4-3.7 2.8-3.8 3.8-8.8 3.1-11.3-.2-.8-.6-1.5-1.1-2-1.9-1.9-5.5-1.3-7.9.3-.9.6-1.7.9-2.4 1.2l1.2 1.1 1.9 2.3.4-.6c.4-.6.7-1.1 1.2-1.5 1-.8 2.2-.8 3 0 .3.3.5.7.6 1.1.7 2.1-.7 5.2-2 7.2l-1.1 1.3M12.4 31.5l-.4-.2-.4-.2-.3.8c0 .3.1.7.4 1 1.3 1.3 5.6 2.1 10.6 2 2.9 0 5.6-.4 7.7-1 2.3-.6 3.5-1.4 3.5-2.4l-.3-.9-.4.2-.4.2c-3 1.4-6.5 2.1-10.1 2.2-3.6.2-7.1-.5-9.9-1.7m.7-23.2L10.8 10l-2-.4C6.5 7.3 3 4.7 0 7.7l.2 1.1c5 2.8 2.9 5.6 5.7 9.2C.2 44.1 63.8 29.1 31.5 7.3l1-1.7-.5-.5c-3.1-2.9-21.6-2.9-18.9 3v.2zm-9.9 0a11 11 0 0 1 4.4 2.9l.2.2 3.4.7 6-4.4c-.8-.1-1.7-.1-2.4-.4 0-.1 0-.4.2-.6 1.2-1.8 11.7-1.9 14.9-.5L28.8 8C55 25.7 1.7 43.3 8.1 17.4c-2.5-2.8-1.9-6.6-4.9-9.1" fill-rule="evenodd" clip-rule="evenodd" fill="#fff"/>
</svg>