<svg xmlns="http://www.w3.org/2000/svg" viewBox="0 0 51 45" width="40" height="32">
  <path fill="#fff" d="M37.5 0c-1.4 0-2.7.2-4 .6-5.5 1.7-4.4 2.1-8 2.1-3.6 0-2.4-.4-8-2.1-1.3-.4-2.6-.6-4-.6C6.1 0 0 6.1 0 13.7c0 16 10.8 22.2 17.2 26.1 2.8 1.7 5 5.2 8.3 5.2 3.3 0 5.5-3.5 8.3-5.2 6.4-4 17.2-10.1 17.2-26.1C51 6.1 44.9 0 37.5 0M11.2 31.8c-4.3-3.8-8-9.2-8-18.1 0-5.8 4.6-10.4 10.4-10.4 1 0 2.1.2 3.1.5 3.5 1.1 5.3 6.3 8.9 6.3 3.6 0 5.4-5.2 8.9-6.3 1-.3 2-.5 3.1-.5C43.3 3.3 48 8 48 13.7c-.2 13.7-26.5 27-36.8 18.1"/>
</svg>
