<svg xmlns="http://www.w3.org/2000/svg" viewBox="0 0 33 19" width="33" height="19">
    <path fill="#E3B717" d="M7.747 18.949c-.839 0-1.672-.446-2.12-1.136-.28-.432-.66-1.36-.054-2.727.582-1.31 1.736-2.092 3.089-2.092.447 0 .873.093 1.198.263 1.064.553 1.742 2.114.981 3.668-.657 1.344-1.699 2.024-3.094 2.024zm.915-4.235c-.39 0-1.105.139-1.519 1.071-.146.327-.277.782-.076 1.092.148.229.461.353.679.353.499 0 1.073-.081 1.552-1.061.406-.829-.088-1.311-.231-1.385a.965.965 0 0 0-.405-.07zM26.429 19c-.839 0-1.672-.446-2.12-1.136-.28-.432-.66-1.36-.054-2.727.582-1.31 1.736-2.092 3.089-2.092.447 0 .873.093 1.198.263 1.064.553 1.742 2.114.981 3.668C28.866 18.319 27.824 19 26.429 19zm.915-4.235c-.39 0-1.105.139-1.519 1.071-.146.327-.277.782-.076 1.092.148.229.461.353.679.353.499 0 1.073-.081 1.552-1.061.406-.829-.088-1.311-.231-1.385a.965.965 0 0 0-.405-.07zm-23.182.519c-.196.477-.151 1.289-.858 1.289s-.732-.935-.581-1.694c.151-.758.581-.83 1.086-.809.605.026.757.229.353 1.214zm26.849-.134c.05.513-.226 1.278.451 1.482.678.204.97-.684 1.043-1.454.073-.77-.318-.962-.807-1.088-.588-.15-.791 0-.687 1.06zm-8.193.185c-.158.58-.126 1.264-1.06 1.264h-8.786c-.328 0-.631.051-.505-.91.126-.961-.454-1.618.429-1.618h9.745c.404 0 .405.43.177 1.264zm8.811-7.929c-.355-.728-.505-1.239-1.035-2.814-.414-1.231-.808-1.365-1.313-1.365s-1.818-.025-2.828-.025c-1.01 0-1.161.506-1.212 1.011s-.581 5.182-.783 6.875c-.202 1.694.821 1.199 1.161 1.019.429-.228.682-.412 1.944-.412s2.121.708 2.373.935c.252.227.808.227 1.515.227 1.086 0 1.288-.506 1.363-1.036.076-.531.076-1.264.177-2.275.103-1.01-.857-1.104-1.362-2.14zm-2.928.809c-.888-.09-1.241-.147-1.691-.21-.48-.068-1.01-.025-.884-1.036.126-1.011.177-1.542.177-1.542.05-.455.05-1.011.909-1.011h1.262c.429 0 .789.088 1.136 1.07.379 1.069.606 1.643.631 2.174.025.53-.455.664-1.54.555zM24.011.281A.86.86 0 0 0 23.375 0H5.534c-.475 0-.746.398-.86.859-.116.473.447 1.015.894.944 1.527-.243 2.38-.289 3.097-.066.453.14.681.358.681.833 0 .474-.301.755-.715.986-.606.337-1.651.164-3.231-.068-2.525-.371-3.472-.358-4.512-.169-.466.085-.888.507-.888.983 0 .474.45.897.922.938.905.08 1.91.15 4.51-.066 2.828-.237 4.275-.338 5.016-.169.462.105 1.068.553 1.068 1.028 0 .474-.402.733-.859.859-.848.236-1.934.312-3.979-.034-2.793-.472-4.106-.269-4.477-.134-.408.148-.792.567-.792 1.011 0 .472.382.828.851.859 1.288.085 2.453-.281 3.947-.219.808.035 1.091.551.976 1.011-.269 1.079-1.267.932-2.416.932-1.035 0-1.069 1.809-1.069 1.809 0 .008-.005.015-.005.024l.002.006-.001.006.002-.001a.86.86 0 0 0 .857.848h.88a.854.854 0 0 0 .615-.261c.01-.009 1.034-1.021 2.548-1.021 1.561 0 2.67.904 2.677.909a.86.86 0 0 0 .555.203h10.469a.858.858 0 0 0 .854-.776L24.229.942a.862.862 0 0 0-.218-.661z"/>
</svg>
