<svg xmlns="http://www.w3.org/2000/svg" viewBox="0 0 30 39" width="30" height="39">
    <g fill="#FFF">
        <path d="M30 3.656C30 1.637 28.322 0 26.25 0H3.75C1.678 0 0 1.635 0 3.656v31.687C0 37.362 1.678 39 3.75 39h22.498c2.071 0 3.75-1.638 3.75-3.656v-8.531H30V3.656zm-2.502 20.719c0 5.744-6.607 12.187-12.499 12.187h-5c-3.227 0-7.499-2.826-7.499-5.972V7.617c0-2.861 2.378-5.18 5.312-5.18h14.376c2.934 0 5.312 2.318 5.312 5.18v14.32h-.002v2.438z"/>
        <path d="M22.108 10.512H7.734c-.734 0-1.329-.581-1.329-1.295C6.404 8.5 7 7.921 7.734 7.921h14.374c.734 0 1.329.58 1.329 1.296 0 .714-.596 1.295-1.329 1.295zM18.592 15.844h-7.265c-.734 0-1.329-.581-1.329-1.295 0-.716.596-1.296 1.329-1.296h7.265c.734 0 1.329.58 1.329 1.296.001.714-.595 1.295-1.329 1.295z"/>
    </g>
</svg>
