<svg xmlns="http://www.w3.org/2000/svg" viewBox="0 0 40 37" width="40" height="37">
    <g fill="#FFF">
        <path d="M36.25 0H3.75C1.678 0 0 1.656 0 3.7v20.967c0 2.044 1.678 3.7 3.75 3.7h10.754c4.662 0 8.984 1.047 10.704 3.083 1.562 1.85 1.549 4.018 2.535 4.999l.008.01c.367.36.846.541 1.326.541.508 0 .961-.18 1.327-.541.836-.826.8-3.4 1.34-4.705.869-2.096 2.406-3.387 4.166-3.387h.339c2.071 0 3.75-1.656 3.75-3.7V3.7C40 1.656 38.321 0 36.25 0m1.25 12.333c0 5.549-2.994 13.567-13.75 13.567H10c-3.385 0-7.5-1.901-7.5-6.046V7.708c0-2.895 2.378-5.242 5.312-5.242h24.375c2.933 0 5.312 2.347 5.312 5.243v4.624z"/>
        <path d="M10 11.1c-1.382 0-2.5 1.104-2.5 2.467 0 1.362 1.118 2.467 2.5 2.467 1.381 0 2.5-1.105 2.5-2.467 0-1.363-1.119-2.467-2.5-2.467M20 11.1c-1.382 0-2.5 1.104-2.5 2.467 0 1.362 1.118 2.467 2.5 2.467 1.381 0 2.5-1.105 2.5-2.467 0-1.363-1.119-2.467-2.5-2.467M30 11.1c-1.382 0-2.5 1.104-2.5 2.467 0 1.362 1.118 2.467 2.5 2.467 1.381 0 2.5-1.105 2.5-2.467 0-1.363-1.119-2.467-2.5-2.467"/>
    </g>
</svg>
