<svg xmlns="http://www.w3.org/2000/svg" viewBox="0 0 40 40" width="40" height="40">
    <g fill="#FFF">
        <path d="M28.602 9.933c-.235 0-.48.059-.72.193l-11.054 6.143a1.46 1.46 0 0 0-.57.57L10.119 27.89c-.584 1.051.251 2.189 1.278 2.189.235 0 .479-.059.718-.192l11.055-6.143c.24-.134.438-.33.57-.57l6.139-11.052c.585-1.05-.25-2.189-1.277-2.189m-3.668 5.944l-2.579 4.642a4.734 4.734 0 0 1-1.838 1.838l-.004.002c-1.854 1.03-3.899-1.014-2.867-2.869a4.725 4.725 0 0 1 1.837-1.838l4.647-2.581c.519-.288 1.093.285.804.806"/>
        <path d="M40 20C40 8.954 31.045 0 20 0 8.954 0 0 8.954 0 20c0 11.045 8.954 20 20 20 7.433 0 10.985 0 13.211-1.652 1.89-1.404 2.714-3.348 5.427-11.095l-.02.013A19.905 19.905 0 0 0 40 20m-2.9 3.698c-1.734 6.094-5.233 7.21-7.781 8.959C26.12 34.849 23.039 37.5 20 37.5c-9.665 0-17.5-7.835-17.5-17.5S10.335 2.5 20 2.5 37.5 10.335 37.5 20c0 1.27-.067 2.524-.4 3.698"/>
    </g>
</svg>
