<svg xmlns="http://www.w3.org/2000/svg" viewBox="0 0 19 49" width="19" height="49">
    <path fill="#FFF" d="M16.342 18.204C14.238 11.031 12.38 4.145 12.38 4.145s.66 0 .66-1.148C13.04 1.85 13.452 0 11.471 0H9.674 7.529C5.548 0 5.96 1.85 5.96 2.998c0 1.148.66 1.148.66 1.148s-1.857 6.886-3.961 14.059C.554 25.378-.436 27.386.183 29.49s1.238 5.834.619 10.233-1.114 4.686.495 6.982c1.388 1.978 4.008 2.25 7.718 2.288V49c.325 0 .616-.002.917-.003.313.001.614.003.939.003v-.009c3.495-.039 5.451-.317 6.832-2.286 1.609-2.295 1.114-2.582.495-6.982-.619-4.399 0-8.129.619-10.233.62-2.104-.371-4.113-2.475-11.286z"/>
</svg>
