<svg xmlns="http://www.w3.org/2000/svg" viewBox="0 0 14 26" width="14" height="26">
    <path fill="#1A4F29" d="M13.824 21.839a.687.687 0 0 0-.226-.277v-2.396c0-.378-.327-.908-.327-.908v-5.901s.352-.303.352-.63V8.978S14 8.801 14 7.717c0-1.084-.761-1.941-2.864-2.522-1.733-.479-2.712-.731-2.712-1.866 0-1.135.025-1.236.025-1.236h.327V.504C8.776.151 7.921 0 7.067 0 7.041 0 7.024.003 7 .005 6.975.003 6.96 0 6.933 0c-.854 0-1.708.151-1.708.504v1.589h.327s.025.101.025 1.236-.98 1.387-2.713 1.866C.761 5.776 0 6.632 0 7.717c0 1.084.377 1.261.377 1.261v2.749c0 .328.352.63.352.63v5.901s-.327.53-.327.908v2.396s-.151.101-.226.277c-.075.176-.142.815-.109 1.319.033.504-.234.976.938 1.917.947.761 3.231.896 5.291.92V26c.226 0 .463 0 .704-.002.241.002.478.002.704.002v-.005c2.061-.024 4.344-.158 5.291-.92 1.172-.941.905-1.412.938-1.917.033-.504-.033-1.142-.109-1.319zm-8.928-4.502c0 .569-.486 1.031-1.086 1.031-.597 0-1.082-.462-1.082-1.031v-4.734c0-.57.485-1.032 1.082-1.032.6 0 1.086.463 1.086 1.032v4.734z"/>
</svg>
