<svg xmlns="http://www.w3.org/2000/svg" viewBox="0 0 40 40" width="40" height="40">
    <path fill="#FFF" d="M38.91 23.269c-.872-.907-2.13-1.344-3.339-1.546a22.134 22.134 0 0 0-.291-.046c-.544-.063-1.197-.186-.983-1.743.294-1.82.479-3.166.479-3.166a2.493 2.493 0 0 0-2.451-2.985h-5.483c-.441 0-.91-.051-.519-.725.002-.003.001-.007.004-.01.46-.744.729-1.502.729-2.269 0-3.438-7.281-5.137-7.612-7.986-.165-1.412 2.056-2.761.697-2.792-3.041-.067-6.313 2.665-6.313 5.214 0 4.383 7.48 4.42 7.48 7.696a.218.218 0 0 1-.032.094c-.026.389-.26.726-.936.752-.026.001-.022.01-.039.013H15.28a1.84 1.84 0 0 1-.012-.013c-.416 0-.623-.075-.689-.465 0-2.069-3.85-3.141-4.944-4.596-.727-.965.897-2.197-.073-2.102-1.743.173-3.584 1.816-3.584 3.341 0 1.898 2.594 2.457 4.031 3.352.252.256-.333.48-.361.483H2.502a2.493 2.493 0 0 0-2.451 2.985s1.79 9.046 2.81 11.937C6.373 38.64 12.04 40 14.215 40l3.589-.029.024-.018a49.483 49.483 0 0 0 2.59-.108c1.474-.118 5.011-1.106 8.135-4.561.02-.016.041-.032.059-.05.488-.532 1.357-.825 2.157-1.017 3.519-.083 8.136-1.605 9.137-7.116.352-1.946-.346-3.158-.996-3.832zm-24.6 14.233c-6.614-.523-9.477-9.935-10.872-16.594a3.782 3.782 0 0 1 .351-2.525 3.68 3.68 0 0 1 1.051-1.268 3.863 3.863 0 0 1 2.437-.859h5.182v.013h15.09c.925 0 1.775.323 2.437.859a3.68 3.68 0 0 1 1.051 1.268c.388.747.538 1.63.351 2.525-1.426 6.808-10.072 16.46-17.078 16.581zm22.983-10.871c-.564 3.108-2.744 4.29-4.733 4.713l-.022.004c-.528.112-1.27.002-1.006-.596.319-.673.627-1.377.902-2.15.306-.859.611-2.078.895-3.408.167-.589.7-.963 1.368-.918l.01-.001c.923.1 1.824.34 2.288.825.208.216.465.61.298 1.531z"/>
</svg>
