<svg width="32" height="41" xmlns="http://www.w3.org/2000/svg" viewBox="0 0 32 41">
  <path fill="#fff" d="M32 3.8C32 1.7 30.2 0 28 0H4C1.8 0 0 1.7 0 3.8v33.3C0 39.3 1.8 41 4 41h24c2.2 0 4-1.7 4-3.8V3.8zm-2.7 21.8c0 6-7 12.8-13.3 12.8h-5.3c-3.4 0-8-3-8-6.3V8c0-3 2.5-5.4 5.7-5.4h15.4c3.1 0 5.7 2.4 5.7 5.4v17.6z"/>
  <path fill="#fff" d="M23.6 11.1H8.2c-.8 0-1.4-.6-1.4-1.4 0-.8.6-1.4 1.4-1.4h15.3c.8 0 1.4.6 1.4 1.4.1.7-.5 1.4-1.3 1.4M23.6 17.6H8.2c-.8 0-1.4-.6-1.4-1.4 0-.8.6-1.4 1.4-1.4h15.3c.8 0 1.4.6 1.4 1.4.1.8-.5 1.4-1.3 1.4"/>
  <path fill="#fff" d="M19.8 24.3h-7.7c-.8 0-1.4-.6-1.4-1.4 0-.8.6-1.4 1.4-1.4h7.7c.8 0 1.4.6 1.4 1.4.1.8-.6 1.4-1.4 1.4"/>
</svg>
