<svg xmlns="http://www.w3.org/2000/svg" viewBox="0 0 21 26" width="21" height="26">
    <path fill="#323B50" d="M12.607.963C12.533.332 11.889 0 11.233 0c-.262 0-.526.052-.755.161C6.97 1.817 0 8.389 0 16.25 0 22.084 4.681 26 10.454 26 16.229 26 21 22.141 21 16.25c0-6.836-7.543-8.114-8.393-15.287m6.38 13.911c0 3.863-6.747 8.477-11.416 8.477-1.13 0-2.142-.271-2.911-.886-1.816-1.455-2.91-3.642-2.91-6.215 0-5.289 3.517-9.998 6.636-12.675a2.119 2.119 0 0 1 1.387-.506c.806 0 1.596.44 1.93 1.22.963 2.246 2.528 3.878 3.956 5.37 1.324 1.383 2.516 2.565 3.111 4.068.148.371.217.755.217 1.147"/>
</svg>
