<svg width="38" height="33" xmlns="http://www.w3.org/2000/svg" viewBox="0 0 38 33">
  <path fill="#fff" d="M15 16.5h-3.1C5.4 16.5 0 21.8 0 28.4v1.1c0 2 1.6 3.6 3.6 3.6h19.8c2 0 3.6-1.6 3.6-3.6v-1.1c-.1-6.6-5.5-11.9-12-11.9M8.6 30.9c-4.9 0-6.7-2.3-6.3-4.4.9-4.5 4.9-8 9.7-8h3c3.4 0 6.3 1.7 8.1 4.3 2.3 3.3-5.8 8.1-14.5 8.1M13.4 14.4c4 0 7.2-3.2 7.2-7.2S17.4 0 13.4 0 6.2 3.2 6.2 7.2s3.2 7.2 7.2 7.2m0-12.3c2.3 0 4.2 1.5 4.9 3.6 1.1 3.1-5.8 7.5-8 5.7-1.2-1-2.1-2.4-2.1-4.1.1-2.9 2.4-5.2 5.2-5.2M29.4 9.7h-1.8c-1.1 0-2.1.5-3.2.5-.5 0-.9-.4-.9-.9s.4-.9.9-.9c1.1 0 2.1.5 3.2.5h1.8c.4 0 .9-.5.9-.9V6.1c0-1.1-.5-2.1-.5-3.2 0-.5.4-.9.9-.9s.9.4.9.9c0 1.1-.5 2.1-.5 3.2v1.8c0 .4.5.9.9.9h1.8c1.1 0 2.1-.5 3.2-.5.5 0 .9.4.9.9s-.4.9-.9.9c-1.1 0-2.1-.5-3.2-.5H32c-.4 0-.9.5-.9.9v.9c0 1.2.9 2.4.9 3.6 0 .7-.6 1.4-1.4 1.4-.7 0-1.4-.6-1.4-1.4 0-1.2.9-2.4.9-3.6v-.9c.2-.3-.3-.8-.7-.8"/>
</svg>
