<svg xmlns="http://www.w3.org/2000/svg" viewBox="0 0 30 40" width="30" height="40">
    <g fill="#FFF">
        <path d="M18.01 1.482C17.904.511 16.985 0 16.047 0c-.375 0-.751.08-1.079.248C9.957 2.795 0 12.906 0 25c0 8.975 6.687 15 14.934 15C23.184 40 30 34.062 30 25c0-10.518-10.775-12.483-11.99-23.518m9.114 21.401c0 5.944-9.639 13.042-16.309 13.042-1.615 0-3.06-.416-4.159-1.363C4.062 32.323 2.5 28.959 2.5 25c0-8.137 5.025-15.381 9.48-19.5a2.9 2.9 0 0 1 1.981-.779c1.151 0 2.28.676 2.757 1.876 1.376 3.456 3.611 5.967 5.652 8.262 1.892 2.128 3.595 3.946 4.445 6.258.21.572.309 1.163.309 1.766"/>
        <path d="M7.62 20.036v2.484h2.622v-2.484h1.133v6.202h-1.133v-2.733H7.62v2.733H6.488v-6.202H7.62zM12.418 26.238v-.69l.707-.654c1.409-1.307 2.072-2.025 2.083-2.815 0-.535-.286-1.004-1.069-1.004-.535 0-.975.267-1.278.497l-.332-.8c.432-.35 1.088-.617 1.841-.617 1.324 0 1.97.837 1.97 1.813 0 1.049-.756 1.896-1.805 2.861l-.514.451v.02h2.446v.938h-4.049zM23.113 23.073c0 2.079-1.26 3.266-2.963 3.266-1.757 0-2.861-1.343-2.861-3.157 0-1.914 1.205-3.257 2.952-3.257 1.804 0 2.872 1.372 2.872 3.148zm-4.628.082c0 1.27.635 2.273 1.72 2.273 1.096 0 1.711-1.022 1.711-2.319 0-1.169-.578-2.272-1.711-2.272-1.123 0-1.72 1.039-1.72 2.318z"/>
    </g>
</svg>
