<svg xmlns="http://www.w3.org/2000/svg" viewBox="0 0 30 39" width="30" height="39">
    <g fill="#FFF">
        <path d="M29.668.45A1.384 1.384 0 0 0 28.644 0H11.905v.051H1.356C.964.051.59.215.332.5a1.266 1.266 0 0 0-.319 1.036L5.38 37.881c.095.643.668 1.119 1.343 1.119h8.29v-.05h8.265c.675 0 1.248-.477 1.343-1.12l5.367-36.344a1.273 1.273 0 0 0-.32-1.036zm-3.084 5.281c-.015.14-.017.251-.015.347l-.922 6.244c-.005.019-.01.03-.015.051-.019.091-.045.164-.066.249-.841 6.315-1.14 9.832-1.453 11.524-.148.794-.385 1.98-.785 3.265-.598 1.381-2.293 1.165-2.192-.634l1.024-11.208c.043-.473-.32-.888-.811-.93a.874.874 0 0 0-.968.779L18.88 31.854c-.325 1.731-1.248 2.722-2.261 3.332-1.48.776-3.036 1.287-5.02 1.287-.957 0-3.667 0-4.145-2.22-.479-2.221-3.029-20.827-3.507-24.273 0 0 .024-.002.052-.007l-.57-3.86a2.77 2.77 0 0 0-.015-.344c-.14-1.366.267-2.939 2.346-3.113h12.335v-.05h6.045c2.17.128 2.586 1.735 2.444 3.125z"/>
        <path d="M15.291 14.892c-.493 0-.893.384-.893.858v16.998c0 .474.4.858.893.858s.893-.384.893-.858V15.749c0-.473-.399-.857-.893-.857zM8.96 15.1c-.491.047-.848.467-.8.938l1.754 16.998c.045.443.433.773.887.773.03 0 .06-.001.09-.005.491-.047.848-.467.8-.938L9.936 15.868a.88.88 0 0 0-.976-.768z"/>
    </g>
</svg>
