<svg xmlns="http://www.w3.org/2000/svg" viewBox="0 0 36 36" width="36" height="36">
    <path fill="#FFF" d="M18 0C8.058 0 0 8.058 0 18c0 9.94 8.058 18 18 18s18-8.06 18-18c0-9.942-8.058-18-18-18m15.543 20.442a15.394 15.394 0 0 1-.345 1.599c-1.021 3.795-7.242 8.072-5.945 3.494l-.031.035a27.16 27.16 0 0 0 .837-5.368c.036-.6.52-1.077 1.121-1.077h3.249c.696 0 1.222.629 1.114 1.317M25.639 4.25a15.823 15.823 0 0 1 6.902 7.739c.967 2.331-.839 4.886-3.361 4.886a1.133 1.133 0 0 1-1.121-1.077c-.297-5.013-1.602-8.429-3.171-10.751-.329-.484.239-1.081.751-.797m-6.514.692c0-.96 1.118-1.477 1.855-.862 1.567 1.31 3.318 3.621 4.237 7.649.602 2.64-1.466 5.146-4.174 5.146h-.793a1.125 1.125 0 0 1-1.125-1.125V4.942zm0 15.308c0-.621.504-1.125 1.125-1.125h4.409c.644 0 1.167.539 1.124 1.181a26.082 26.082 0 0 1-.53 3.783c-2.133 7.32-6.128 6.597-6.128 1.861v-5.7zm-2.25 5.167c.014 3.143-1.234 7.153-4.487 3.208-1.054-1.931-1.907-4.593-2.166-8.277a1.134 1.134 0 0 1 1.122-1.224h4.407c.621 0 1.125.504 1.125 1.125v5.168zM15.024 4.05c.738-.611 1.851-.093 1.851.865v7.696a4.265 4.265 0 0 1-4.264 4.264h-1.27c-.643 0-1.167-.539-1.123-1.182.448-6.614 2.779-9.968 4.806-11.643m-4.667.202c.514-.286 1.085.31.756.796-1.276 1.888-2.376 4.496-2.903 8.098-.312 2.125-2.079 3.729-4.227 3.729h-.411a1.136 1.136 0 0 1-1.115-1.317c.76-4.866 3.754-8.993 7.9-11.306M3.572 19.125h3.249c.601 0 1.085.477 1.121 1.077.206 3.455.895 6.133 1.814 8.235h-.012c1.446 2.992-1.71 2.328-4.214-.867a15.392 15.392 0 0 1-3.072-7.127 1.135 1.135 0 0 1 1.114-1.318"/>
</svg>
