<svg width="14" height="14" viewBox="0 0 14 14" xmlns="http://www.w3.org/2000/svg">
    <path d="M5.688 7.438h-1.75c-1.032 0-2.032.437-3.063.437a.875.875 0 0 1 0-1.75c1.031 0 2.031.438 3.063.438h1.75c.412 0 .875-.463.875-.875v-1.75c0-1.032-.438-2.032-.438-3.063a.875.875 0 0 1 1.75 0c0 1.031-.437 2.031-.437 3.063v1.75c0 .412.462.875.875.875h1.75c1.03 0 2.031-.438 3.062-.438a.875.875 0 0 1 0 1.75c-1.031 0-2.032-.437-3.062-.437h-1.75c-.413 0-.875.462-.875.875v.875c0 1.202.875 2.297.875 3.5a1.313 1.313 0 0 1-2.625 0c0-1.203.875-2.298.875-3.5v-.875c0-.413-.463-.875-.875-.875" fill="#fff"/>
</svg>
