<svg width="64px" height="36px" viewBox="0 0 64 36" xmlns="http://www.w3.org/2000/svg">
    <path d="M14.981 35.904c-1.623 0-3.232-.845-4.1-2.152-.542-.818-1.276-2.578-.103-5.168 1.127-2.482 3.36-3.963 5.973-3.963.864 0 1.687.176 2.315.498 2.058 1.049 3.369 4.005 1.899 6.952-1.272 2.544-3.286 3.833-5.984 3.833zm1.77-8.025c-.753 0-2.137.264-2.937 2.03-.283.62-.536 1.483-.147 2.068.288.435.89.67 1.314.67.965 0 2.075-.155 3.001-2.01.784-1.571-.169-2.485-.447-2.626-.089-.046-.367-.132-.784-.132zM51.11 36c-1.624 0-3.233-.844-4.1-2.152-.542-.818-1.277-2.577-.103-5.167 1.126-2.483 3.359-3.963 5.972-3.963.864 0 1.688.176 2.316.498 2.057 1.048 3.368 4.004 1.898 6.951C55.82 34.71 53.807 36 51.109 36zm1.77-8.024c-.754 0-2.138.263-2.938 2.029-.283.62-.536 1.483-.147 2.069.288.435.89.67 1.314.67.966 0 2.075-.155 3.001-2.01.785-1.572-.168-2.485-.446-2.626-.09-.048-.368-.132-.785-.132zM8.047 28.96c-.378.904-.293 2.443-1.659 2.443s-1.415-1.772-1.123-3.21 1.123-1.572 2.1-1.532c1.171.048 1.464.43.682 2.299zM59.97 28.707c.098.973-.435 2.421.874 2.807 1.31.385 1.875-1.298 2.017-2.755.14-1.459-.616-1.822-1.56-2.06-1.138-.286-1.53-.001-1.33 2.008zM44.127 29.055c-.304 1.099-.243 2.394-2.05 2.394h-16.99c-.634 0-1.22.095-.976-1.725s-.878-3.065.83-3.065h18.844c.781 0 .781.816.342 2.396zM61.166 14.033c-.686-1.38-.977-2.346-2.002-5.331-.801-2.33-1.562-2.587-2.538-2.587s-3.515-.048-5.468-.048-2.247.958-2.344 1.916S47.691 17.8 47.3 21.009c-.39 3.21 1.588 2.273 2.247 1.931.83-.43 1.319-.781 3.759-.781s4.1 1.34 4.59 1.771c.487.43 1.562.43 2.93.43 2.099 0 2.49-.957 2.636-1.962.147-1.006.147-2.394.343-4.31s-1.663-2.092-2.64-4.055zm-5.664 1.533c-1.718-.17-2.4-.28-3.271-.399-.928-.127-1.953-.047-1.71-1.963.245-1.916.343-2.92.343-2.92.097-.862.097-1.916 1.758-1.916h2.44c.83 0 1.526.167 2.196 2.027.733 2.028 1.172 3.113 1.22 4.12.052 1.003-.876 1.258-2.976 1.05zM46.433.535A1.674 1.674 0 0 0 45.203 0H10.703C9.785 0 9.26.756 9.04 1.63c-.224.893.863 1.922 1.729 1.786 2.953-.463 4.603-.547 5.988-.127.875.266 1.285.856 1.285 1.756s-.55 1.255-1.35 1.692c-1.172.639-3.194.313-6.25-.127-4.882-.704-6.713-.678-8.723-.32C.817 6.45 0 7.25 0 8.15c0 .9.87 1.701 1.784 1.78 1.75.15 3.693.284 8.723-.128 5.468-.448 5.858-.64 7.29-.319.894.2 2.05.638 2.066 1.948.011.9-.656 1.53-1.528 1.804-1.22.383-3.271.144-5.42-.24-5.39-.96-7.94-.51-8.658-.254-.789.28-1.53 1.075-1.53 1.916 0 .893.738 1.568 1.646 1.626 2.49.16 4.743-.533 7.633-.414 1.563.064 2.111 1.044 1.888 1.916-.52 2.044-2.45 1.764-4.672 1.764-2.001 0-2.067 3.426-2.067 3.426 0 .017-.009.03-.009.045 0 .004.003.007.003.014l-.001.01h.003a1.644 1.644 0 0 0 1.657 1.606h1.702c.448 0 .876-.177 1.19-.493.02-.02 2-1.934 4.928-1.934 3.018 0 5.163 1.71 5.177 1.722.299.249.68.385 1.072.385h20.246c.854 0 1.57-.636 1.653-1.473L46.86 1.785a1.627 1.627 0 0 0-.427-1.25zM27.067 15.73a.136.136 0 0 1-.061.068l-1.864 1.042 1.29 2.22c.02.034.027.07.023.103a.238.238 0 0 1-.066.118.895.895 0 0 1-.166.146 3 3 0 0 1-.295.182c-.117.066-.22.116-.306.152a1.023 1.023 0 0 1-.211.067.289.289 0 0 1-.14-.006.157.157 0 0 1-.079-.069l-3.138-5.407c-.08-.135-.1-.253-.066-.35a.435.435 0 0 1 .21-.237l2.86-1.598a.142.142 0 0 1 .09-.017.246.246 0 0 1 .107.05c.039.03.082.074.126.134.046.061.096.136.149.228.053.094.095.172.123.24a.58.58 0 0 1 .05.17.267.267 0 0 1-.01.116.145.145 0 0 1-.059.07l-1.987 1.112.931 1.603 1.864-1.043a.152.152 0 0 1 .09-.02.214.214 0 0 1 .104.047.691.691 0 0 1 .123.125 3.03 3.03 0 0 1 .266.461.671.671 0 0 1 .051.174c.007.05.003.09-.009.12zm7.035-.742a.976.976 0 0 1-.187.148 6.802 6.802 0 0 1-.686.383.813.813 0 0 1-.207.069.23.23 0 0 1-.132-.011.432.432 0 0 1-.102-.067l-1.318-1.029a6.285 6.285 0 0 0-.427-.293 1.554 1.554 0 0 0-.38-.176.894.894 0 0 0-.365-.029 1.056 1.056 0 0 0-.383.135l-.386.215 1.319 2.27c.018.031.026.065.018.102a.234.234 0 0 1-.065.116c-.038.04-.094.088-.167.141a3.637 3.637 0 0 1-.598.336 1.323 1.323 0 0 1-.213.07.254.254 0 0 1-.134-.006.162.162 0 0 1-.077-.067l-3.143-5.414c-.079-.135-.102-.252-.064-.351a.426.426 0 0 1 .207-.236l1.575-.879c.16-.09.294-.159.4-.213a7.36 7.36 0 0 1 .295-.133c.263-.103.516-.168.76-.193a1.85 1.85 0 0 1 .687.046c.214.058.41.158.589.3.178.143.336.333.475.569.114.2.194.397.237.59a1.615 1.615 0 0 1-.147 1.111 2.316 2.316 0 0 1-.368.512c.115-.008.23-.005.348.012.116.017.233.05.356.098.12.048.246.11.374.189.126.078.262.17.403.279l1.197.888c.112.09.193.158.239.203a.85.85 0 0 1 .1.113.228.228 0 0 1 .03.095c-.002.03-.022.066-.06.107zm4.506-2.531a.146.146 0 0 1-.064.069l-3.053 1.705a.448.448 0 0 1-.313.057c-.104-.021-.196-.1-.275-.234l-3.018-5.199c-.08-.134-.103-.25-.066-.35a.44.44 0 0 1 .21-.237l3.034-1.695a.165.165 0 0 1 .089-.02c.031.005.064.02.103.051a.654.654 0 0 1 .12.127c.042.057.09.13.144.223.05.085.09.16.116.225.026.066.042.12.048.165a.228.228 0 0 1-.01.112.144.144 0 0 1-.059.07l-2.171 1.211.845 1.456 1.837-1.025a.136.136 0 0 1 .092-.018c.035.003.068.02.103.046a.611.611 0 0 1 .12.122c.041.057.09.127.138.213a2.1 2.1 0 0 1 .117.227c.027.063.041.116.044.16a.199.199 0 0 1-.012.108.172.172 0 0 1-.066.068l-1.837 1.025.978 1.683 2.187-1.223a.159.159 0 0 1 .092-.019c.033.005.069.02.106.05a.597.597 0 0 1 .12.125 2.404 2.404 0 0 1 .259.447.561.561 0 0 1 .048.164.172.172 0 0 1-.006.11zM43.3 9.836a.146.146 0 0 1-.064.069l-3.053 1.705a.448.448 0 0 1-.312.057c-.105-.02-.197-.098-.275-.233l-3.019-5.198c-.08-.135-.101-.253-.065-.351a.441.441 0 0 1 .209-.236l3.034-1.697a.165.165 0 0 1 .089-.02c.031.005.064.02.103.051.038.03.078.072.12.127.043.055.091.13.144.222.05.086.09.161.116.226.028.064.042.12.048.165a.228.228 0 0 1-.01.112.14.14 0 0 1-.059.068l-2.171 1.212.845 1.456 1.836-1.026a.17.17 0 0 1 .094-.018.194.194 0 0 1 .101.046.611.611 0 0 1 .119.123c.042.055.09.125.139.213.051.088.092.165.115.226a.486.486 0 0 1 .046.161.17.17 0 0 1-.014.11.167.167 0 0 1-.064.067l-1.838 1.025.978 1.682 2.188-1.222a.162.162 0 0 1 .093-.019c.033.003.068.02.105.05a.597.597 0 0 1 .119.125 2.404 2.404 0 0 1 .26.447.626.626 0 0 1 .05.164.172.172 0 0 1-.007.11z" fill="#fff"/>
    <path d="M29.76 11.209c-.167-.085-.371-.098-.612-.037-.072.021-.15.049-.234.084a3.407 3.407 0 0 0-.34.17l-.554.311.981 1.692.63-.352c.176-.098.317-.204.425-.32.107-.114.182-.233.228-.357a.83.83 0 0 0 .039-.38 1.046 1.046 0 0 0-.138-.387c-.114-.199-.254-.34-.425-.424z" fill="#fff"/>
</svg>
