<svg width="64px" height="36px" viewBox="0 0 64 36" xmlns="http://www.w3.org/2000/svg">
    <path d="M14.98 35.903c-1.623 0-3.232-.844-4.099-2.151-.542-.817-1.276-2.578-.103-5.166 1.127-2.481 3.357-3.963 5.973-3.963.864 0 1.687.176 2.315.496 2.058 1.05 3.368 4.005 1.898 6.952-1.27 2.544-3.284 3.832-5.983 3.832zm1.77-8.024c-.752 0-2.136.264-2.936 2.03-.283.618-.536 1.483-.147 2.068.287.435.89.671 1.314.671.965 0 2.074-.156 3-2.009.785-1.572-.168-2.485-.446-2.626-.087-.046-.366-.134-.784-.134zM51.109 36c-1.623 0-3.232-.844-4.1-2.152-.542-.816-1.276-2.577-.103-5.166 1.127-2.48 3.358-3.963 5.973-3.963.864 0 1.687.176 2.315.497 2.058 1.05 3.369 4.004 1.899 6.951C55.823 34.71 53.809 36 51.109 36zm1.77-8.026c-.753 0-2.137.264-2.937 2.03-.283.618-.536 1.483-.147 2.068.288.435.89.671 1.314.671.965 0 2.075-.156 3.001-2.009.784-1.572-.169-2.485-.447-2.626-.087-.046-.365-.134-.784-.134zM8.049 28.96c-.378.904-.294 2.442-1.661 2.442s-1.415-1.771-1.123-3.209 1.123-1.57 2.1-1.532c1.171.047 1.465.43.684 2.299zM59.97 28.707c.096.973-.436 2.421.874 2.807 1.31.385 1.874-1.298 2.017-2.755.14-1.459-.616-1.822-1.561-2.061-1.137-.285-1.53-.002-1.33 2.009zM44.129 29.055c-.305 1.098-.244 2.393-2.05 2.393h-16.99c-.635 0-1.22.095-.977-1.724.244-1.82-.878-3.065.83-3.065h18.846c.781 0 .78.816.34 2.396zM61.167 14.033c-.686-1.38-.976-2.346-2.001-5.331-.802-2.331-1.563-2.587-2.539-2.587s-3.515-.048-5.468-.048-2.247.958-2.343 1.916-1.124 9.817-1.514 13.026c-.39 3.21 1.587 2.273 2.245 1.931.83-.43 1.318-.782 3.759-.782s4.1 1.341 4.59 1.772c.487.43 1.562.43 2.929.43 2.1 0 2.49-.957 2.637-1.963.147-1.005.147-2.393.342-4.309s-1.66-2.092-2.637-4.055zm-5.663 1.533c-1.719-.169-2.4-.28-3.272-.399-.928-.129-1.953-.047-1.709-1.963.244-1.916.342-2.921.342-2.921.097-.861.097-1.916 1.758-1.916h2.44c.83 0 1.527.167 2.197 2.026.732 2.028 1.171 3.113 1.22 4.12.05 1.005-.877 1.261-2.976 1.053zM40.634 9.528a2.49 2.49 0 0 0-.344-.437 1.07 1.07 0 0 0-.37-.247.78.78 0 0 0-.414-.037 1.34 1.34 0 0 0-.47.189 1.948 1.948 0 0 0-.516.449 2.014 2.014 0 0 0-.194.273c-.056.095-.11.188-.154.283.235.37.453.671.654.895.199.222.386.383.563.478a.877.877 0 0 0 .506.121c.165-.015.331-.075.5-.174.162-.1.286-.218.373-.35.084-.135.131-.279.148-.437a1.39 1.39 0 0 0-.054-.492 1.833 1.833 0 0 0-.228-.514z" fill="#fff"/>
    <path d="M46.433.535A1.674 1.674 0 0 0 45.203 0H10.702C9.784 0 9.26.755 9.04 1.627c-.225.895.864 1.925 1.728 1.789 2.952-.463 4.602-.547 5.988-.127.876.266 1.317.68 1.317 1.58s-.581 1.431-1.383 1.868c-1.171.637-3.193.31-6.249-.129-4.882-.702-6.713-.676-8.724-.319C.817 6.45 0 7.25 0 8.15c0 .9.87 1.7 1.784 1.78 1.75.152 3.693.285 8.722-.127 5.468-.448 8.268-.64 9.7-.32.894.2 2.066 1.05 2.066 1.947s-.778 1.389-1.66 1.628c-1.643.446-3.74.59-7.697-.064-5.402-.894-7.94-.51-8.658-.256-.789.282-1.531 1.074-1.531 1.917 0 .893.739 1.567 1.647 1.627 2.49.16 4.743-.533 7.633-.415 1.562.064 2.11 1.044 1.887 1.916-.52 2.042-2.45 1.764-4.671 1.764-2.001 0-2.067 3.426-2.067 3.426 0 .017-.01.03-.01.045 0 .004.004.009.004.013l-.002.011h.003a1.644 1.644 0 0 0 1.658 1.605h1.701c.449 0 .878-.177 1.19-.492.021-.02 2-1.934 4.928-1.934 3.019 0 5.164 1.71 5.176 1.722.299.249.681.385 1.074.385h20.245c.855 0 1.57-.636 1.653-1.471L46.86 1.784a1.624 1.624 0 0 0-.426-1.25zm-14.531 16.55c-.112.341-.3.663-.569.97-.267.306-.601.582-1.009.827-.21.13-.423.239-.63.33-.21.09-.403.16-.58.214a3.182 3.182 0 0 1-.454.106.81.81 0 0 1-.253.018.31.31 0 0 1-.12-.044.9.9 0 0 1-.227-.247c-.045-.064-.093-.141-.154-.231a2.8 2.8 0 0 1-.146-.256.673.673 0 0 1-.067-.186.222.222 0 0 1-.005-.122.155.155 0 0 1 .06-.07c.037-.024.103-.036.201-.04a3.627 3.627 0 0 0 .888-.17c.197-.064.415-.165.653-.312.206-.126.381-.257.522-.405.143-.144.242-.295.304-.46.06-.163.075-.335.052-.513a1.43 1.43 0 0 0-.22-.56 1.409 1.409 0 0 0-.363-.4.938.938 0 0 0-.46-.178 1.34 1.34 0 0 0-.57.064c-.209.064-.445.175-.703.333a5.357 5.357 0 0 0-.543.372c-.156.123-.31.228-.458.319-.103.066-.192.08-.269.06-.078-.025-.159-.105-.24-.24l-1.852-2.939c-.09-.14-.123-.254-.106-.35.016-.094.086-.176.208-.25l3.267-1.982a.191.191 0 0 1 .11-.025c.04.006.088.025.137.055.045.036.096.09.154.157.055.07.114.156.183.262.131.21.208.37.231.489.019.115-.006.196-.073.237l-2.455 1.488.914 1.449a4.29 4.29 0 0 1 .352-.252c.122-.078.248-.156.387-.239a4.046 4.046 0 0 1 1.074-.475c.343-.089.665-.11.967-.066.301.046.582.161.839.345.257.182.489.437.693.762.228.364.37.732.424 1.098.047.364.017.716-.094 1.058zm3.745.428a.291.291 0 0 1-.074.138 1.03 1.03 0 0 1-.167.158 3.752 3.752 0 0 1-.654.385.707.707 0 0 1-.25.066c-.064 0-.114-.019-.15-.059a.383.383 0 0 1-.077-.165l-2.34-10.714a.28.28 0 0 1-.006-.151.274.274 0 0 1 .073-.141.936.936 0 0 1 .169-.16c.072-.057.168-.12.282-.188a2.94 2.94 0 0 1 .37-.198c.1-.04.184-.06.246-.06a.184.184 0 0 1 .148.058c.035.04.06.095.08.164l2.351 10.716a.277.277 0 0 1-.001.151zm6.72-6.865a2.477 2.477 0 0 1-.448.96 3.235 3.235 0 0 1-.93.813 3.492 3.492 0 0 1-.908.401c-.28.07-.55.094-.811.065a1.996 1.996 0 0 1-.736-.229 3.38 3.38 0 0 1-.672-.487 5.658 5.658 0 0 1-.63-.702c-.203-.27-.402-.56-.602-.88-.166-.263-.33-.547-.485-.853a5.817 5.817 0 0 1-.383-.947 4.15 4.15 0 0 1-.18-.992c-.02-.337.021-.668.118-.99.1-.321.27-.633.508-.931.242-.3.575-.58 1.001-.837.136-.084.277-.158.424-.225.15-.068.285-.123.421-.17.13-.048.249-.082.35-.1a.678.678 0 0 1 .214-.016c.041.007.077.019.108.039a.49.49 0 0 1 .094.069.68.68 0 0 1 .095.112c.036.046.074.104.12.174.066.108.122.198.16.273.039.075.064.137.076.186.011.047.01.09-.004.12a.18.18 0 0 1-.075.083.73.73 0 0 1-.185.066c-.084.019-.18.042-.293.074a3.125 3.125 0 0 0-.858.374c-.29.173-.495.372-.628.597a1.51 1.51 0 0 0-.219.722c-.014.255.03.518.122.79s.22.542.384.807a2.62 2.62 0 0 1 .427-.634c.097-.108.206-.215.333-.322.121-.104.264-.207.421-.3.346-.212.677-.347.985-.404.306-.056.595-.044.864.033.268.08.518.22.745.421.231.202.445.455.633.757.217.343.36.691.44 1.048.077.354.08.7.005 1.035z" fill="#fff"/>
</svg>
