<svg xmlns="http://www.w3.org/2000/svg" viewBox="0 0 61 35" width="61" height="35">
    <path fill="#FFF" d="M25.82 26.571c-2.184-.436-5.076-2.596-12.254-2.349-7.179.248-9.901 6.182-12.378 5.069-2.475-1.113-.744-11.746 2.104-13.354 2.846-1.607 1.981-3.957 2.353-6.306.37-2.348 6.272-7.13 8.561-6.673 1.863.372.846 4.819 2.95 6.055 2.104 1.237 1.608 5.069 3.712 6.306 2.106 1.237 5.076 1.978 7.304-1.361 2.226-3.338-.867-5.316-.124-9.025.744-3.71 2.97-4.204 4.703-4.698 1.732-.495 5.198-.371 7.922 1.978 2.723 2.35 4.085 6.183 6.808 4.575 2.724-1.608 3.218-1.236 5.445.124 2.229 1.36 4.58 3.091 3.714 4.946-.867 1.855-.991 2.721.496 5.07 1.484 2.348 4.578 5.81 3.714 8.036-.867 2.226-3.344 3.585-4.086 6.306-.742 2.721-3.094.248-4.705 1.113-1.608.866-3.834 2.843-5.322 2.597-1.486-.248-4.331-6.554-8.292-6.677-3.963-.124-3.939-1.16-4.681-2.643-.742-1.484-1.755-1.931-3.366-.448-1.606 1.483-3.341 1.606-4.578 1.359z"/>
</svg>
