<svg xmlns="http://www.w3.org/2000/svg" viewBox="0 0 33 40" width="33" height="40">
    <path fill="#FFF" d="M26.645 37.5c-3.639 0-8.885-2.665-8.885-6.25v-7.5c0-1.597.311-3.441 2.543-5.005C25.978 14.768 33 9.263 33 2.404 33 1.077 31.881 0 30.501 0H2.499C1.119 0 0 1.077 0 2.404c0 6.859 7.022 12.365 12.696 16.341 2.231 1.564 2.543 3.408 2.543 5.005v7.5c0 3.585-5.245 6.25-8.885 6.25-.7 0-1.269.56-1.269 1.25S5.654 40 6.354 40h20.291c.7 0 1.269-.56 1.269-1.25s-.569-1.25-1.269-1.25M10.873 14.288c-3.114-2.421-5.937-5.064-7.322-7.942C2.869 4.929 4.751 2.5 6.346 2.5h20.308c1.611 0 3.5 2.47 2.784 3.892-3 5.944-13.275 12.011-18.565 7.896"/>
</svg>
