<svg xmlns="http://www.w3.org/2000/svg" viewBox="0 0 40 40" width="40" height="40">
    <path fill="#FFF" d="M19.873 17.351c-1.379 0-2.5 1.12-2.5 2.5 0 1.378 1.121 2.5 2.5 2.5 1.378 0 2.5-1.122 2.5-2.5 0-1.379-1.122-2.5-2.5-2.5"/>
    <path fill="#FFF" d="M37.5 17.501c-1.472 0-2.832-.902-3.303-2.296a14.613 14.613 0 0 0-.759-1.836c-.657-1.326-.342-2.929.706-3.976a2.502 2.502 0 0 0-3.538-3.535c-1.045 1.046-2.649 1.36-3.976.704a14.812 14.812 0 0 0-1.833-.759C23.4 5.332 22.5 3.973 22.5 2.5a2.499 2.499 0 1 0-5 0c0 1.473-.901 2.832-2.295 3.303a15.17 15.17 0 0 0-1.836.759c-1.327.656-2.93.342-3.976-.704a2.5 2.5 0 1 0-3.536 3.535c1.047 1.047 1.362 2.65.706 3.976a14.613 14.613 0 0 0-.759 1.836c-.472 1.394-1.831 2.296-3.303 2.296A2.498 2.498 0 1 0 2.5 22.5c1.472 0 2.831.901 3.303 2.296a14.6 14.6 0 0 0 .759 1.835c.657 1.326.342 2.928-.706 3.976a2.501 2.501 0 0 0 3.536 3.535c1.046-1.046 2.649-1.36 3.976-.703.591.291 1.204.544 1.836.758 1.394.471 2.295 1.83 2.295 3.303a2.499 2.499 0 1 0 5 0c0-1.473.9-2.832 2.296-3.303a15.216 15.216 0 0 0 1.833-.758c1.327-.657 2.931-.343 3.976.703a2.502 2.502 0 0 0 3.538-3.535c-1.047-1.047-1.362-2.65-.706-3.976a14.6 14.6 0 0 0 .759-1.835c.471-1.395 1.831-2.296 3.303-2.296a2.499 2.499 0 1 0 .002-4.999M11.151 28.82A12.458 12.458 0 0 1 7.5 20c0-6.893 5.608-12.5 12.5-12.5 5.902 0 10.85 4.116 12.153 9.625 1.844 7.798-15.346 17.37-21.002 11.695"/>
</svg>
