<svg width="29" height="72" viewBox="0 0 29 72" xmlns="http://www.w3.org/2000/svg">
    <path d="M14.584 15.765c4.314 0 7.812-3.53 7.812-7.882C22.396 3.529 18.898 0 14.584 0c-4.315 0-7.812 3.53-7.812 7.883.001 4.353 3.497 7.882 7.812 7.882m0-13.514c2.48 0 4.54 1.66 5.313 3.909 1.153 3.355-6.282 8.148-8.657 6.228-1.323-1.072-2.235-2.666-2.235-4.505 0-3.105 2.503-5.632 5.579-5.632M28.958 30.986c0-7.122-5.64-12.97-12.699-12.97h-3.348c-5.01 0-9.359 2.94-11.471 7.19C0 27.762.002 30.482.012 33.325v.695c0 5.676.345 11.871 4.453 13.544 1.962.799 2.497 1.92 2.497 5.21 0 1.243-.026 2.492-.054 3.718-.166 7.539-.338 15.336 6.912 15.506.069 0 1.589-.056 1.589-.056 1.77-.088 3.222-.663 4.286-1.762 2.653-2.735 2.534-8.067 2.41-13.713-.027-1.226-.055-2.474-.055-3.716 0-3.291.536-4.41 2.498-5.21C28.656 45.867 29 39.673 29 33.998l-.042-3.012zM9.183 56.544c.027-1.244.056-2.509.056-3.769 0-3.543-.656-6.006-3.92-7.337-2.663-1.085-3.03-6.128-3.03-11.417l-.002-.703c-.01-3.372.245-5.866 2.332-8.968 1.94-2.48 4.925-4.083 8.293-4.083h3.348c3.595 0 6.734 1.85 8.69 4.594 1.566 2.378 1.789 5.392 1.779 8.433l-.002.704c0 .76-.01 1.513-.03 2.252l-.01-.05c-.178 3.959-5.166 4.55-6.742 8.523-1.136 2.867-.256 8.882-.167 10.007.007.073.016.107.03.111.01.56.012 1.123.024 1.676.033 1.529.066 3.03.044 4.441-.007.012-.01.023-.01.023-.089 1.844-.067 3.898-2.407 5.307-2.705 1.629-2.297 3.426-4.037 3.374-4.283-.42-4.411-5.303-4.239-13.118z" fill="#323b50"/>
</svg>
