<svg xmlns="http://www.w3.org/2000/svg" viewBox="0 0 9 15" width="9" height="15">
    <path fill="#FFF" d="M9 .792a.816.816 0 0 1-.247.569c-.307.293-1.055.627-1.429.984L3.795 5.708c-.484.461-.484 3.112 0 3.573l3.529 3.363c.374.356 1.122.691 1.429.983a.818.818 0 0 1 .247.57c.002.394-.272.803-.844.803a.864.864 0 0 1-.597-.235c-.277-.264-.658-1.006-1.033-1.364 0 0-3.253-3.133-4.361-4.156-.592-.546-.93-.461-1.604-.829l.001-.003A1.064 1.064 0 0 1 0 7.493c.002-.394.229-.734.562-.919v-.003c.685-.375 1.019-.282 1.633-.855a732.132 732.132 0 0 0 4.332-4.129c.375-.357.756-1.1 1.033-1.363A.85.85 0 0 1 8.156 0c.572 0 .846.398.844.792"/>
</svg>
