<svg xmlns="http://www.w3.org/2000/svg" viewBox="0 0 9 15" width="9" height="15">
    <path fill="#FFF" d="M0 .792a.816.816 0 0 0 .247.569c.307.293 1.055.627 1.429.984l3.529 3.363c.484.461.484 3.112 0 3.573l-3.529 3.363c-.374.356-1.122.691-1.429.983a.817.817 0 0 0-.247.569c-.002.395.272.804.844.804a.864.864 0 0 0 .597-.235c.277-.264.658-1.006 1.033-1.364 0 0 3.253-3.133 4.361-4.156.592-.546.93-.461 1.604-.829l-.001-.004c.333-.185.56-.525.562-.919a1.062 1.062 0 0 0-.562-.919l.001-.003c-.686-.374-1.02-.282-1.634-.855-1.094-1.021-4.332-4.129-4.332-4.129C2.098 1.23 1.717.488 1.44.224A.85.85 0 0 0 .844 0C.272 0-.002.398 0 .792"/>
</svg>
