<svg xmlns="http://www.w3.org/2000/svg" viewBox="0 0 25 25" width="25" height="25">
    <path fill="#fff" d="M25 5.399c0-.416-.159-.832-.476-1.151L20.752.477C20.434.159 20.018 0 19.601 0s-.833.159-1.151.477L3.045 15.882a5.525 5.525 0 0 0-1.409 2.402L.032 23.963a.817.817 0 0 0 1.004 1.005l5.679-1.605a5.5 5.5 0 0 0 2.402-1.409L24.524 6.549c.317-.317.476-.734.476-1.15m-4.797 2.844a.805.805 0 0 1-.239.575l-7.657 7.658c-1.674 1.674-6.312 4.128-8.364 4.128-.617 0-1-.222-1-.752 0-.129.023-.273.068-.439a6.624 6.624 0 0 1 1.686-2.874L16.192 5.046a.81.81 0 0 1 1.15 0l2.622 2.622c.16.158.239.367.239.575m2.295-3.463c0 .557-.869.991-1.602.991-.315 0-.604-.081-.789-.265l-1.611-1.612a.812.812 0 0 1 0-1.151l.539-.539a.814.814 0 0 1 1.151 0l2.06 2.059c.176.177.252.353.252.517"/>
</svg>
