<svg viewBox="0 0 26 32" xmlns="http://www.w3.org/2000/svg">
    <path d="M12.999 8c-2.757 0-5 2.243-5 5.001 0 2.757 2.243 5 5 5s5-2.243 5-5a5.006 5.006 0 0 0-5-5.001m-1.912 7.293a2.982 2.982 0 0 1-1.088-2.292c0-1.655 1.346-3 3-3 1.083 0 1.952.631 2.56 1.437 1.179 1.563-2.849 5.136-4.472 3.855" fill="#fff"/>
    <path d="M13 0C5.82 0 0 5.821 0 13c0 9.704 10.666 19 13 19 2.333 0 13-9.296 13-19 0-7.179-5.821-13-13-13M6.894 24.501C4.332 21.351 1.999 17.203 1.999 13 1.999 6.935 6.934 2 13 2c6.065 0 10.999 4.935 10.999 11 0 .688-.062 1.374-.177 2.054-1.084 6.37-12.851 14.46-16.928 9.447" fill="#fff"/>
</svg>
