<svg xmlns="http://www.w3.org/2000/svg" viewBox="0 0 16 26" width="16" height="26" >
    <path fill="#063851" d="M8 21.125c-1.326 0-2.4 1.091-2.4 2.438S6.674 26 8 26s2.4-1.091 2.4-2.438-1.074-2.437-2.4-2.437M8 0C3.059 0 0 3.374 0 6.5c0 3.792 3.766 5.688 5.6 5.688.884 0 1.6-.727 1.6-1.625 0-.897-.716-1.625-1.6-1.625-.155 0-.392.044-.67.089C3.562 9.253 1.6 7.908 1.6 6.5c0-2.555 3.884-4.062 6.4-4.062 2.516 0 6.4 1.508 6.4 4.062 0 4.659-8 6.716-8 11.375 0 .898.716 1.625 1.6 1.625.884 0 1.6-.727 1.6-1.625 0-.152-.021-.298-.059-.438-.202-.727-.094-1.617.326-2.242.692-1.028 1.63-1.906 2.602-2.806C14.205 10.781 16 9.118 16 6.5 16 3.374 12.941 0 8 0"/>
</svg>
