<svg xmlns="http://www.w3.org/2000/svg" viewBox="0 0 19 14" width="19" height="14">
    <path fill="#1E468C" d="M0 .739a.78.78 0 0 0 .22.531c.273.273.938.585 1.27.918l3.137 3.139c.431.431.431 2.904 0 3.335L1.49 11.801c-.333.333-.998.645-1.27.918a.78.78 0 0 0-.22.531c-.002.368.242.75.75.75a.744.744 0 0 0 .53-.22c.246-.246.585-.939.918-1.273 0 0 2.892-2.924 3.877-3.879.526-.51.827-.43 1.426-.773v-.003A.997.997 0 0 0 8 6.994a.995.995 0 0 0-.5-.858v-.002c-.608-.35-.905-.264-1.451-.799-.973-.953-3.851-3.854-3.851-3.854C1.865 1.148 1.526.455 1.28.209A.733.733 0 0 0 .75 0C.242 0-.002.371 0 .739M11 .739a.782.782 0 0 0 .22.531c.273.273.938.585 1.271.918l3.137 3.139c.431.431.431 2.904 0 3.335l-3.137 3.139c-.333.333-.998.645-1.271.918a.784.784 0 0 0-.22.532c-.002.367.242.749.75.749a.744.744 0 0 0 .53-.22c.246-.246.585-.939.918-1.273 0 0 2.892-2.924 3.876-3.879.526-.51.827-.43 1.426-.773v-.003a.995.995 0 0 0 .5-.858.995.995 0 0 0-.5-.858v-.002c-.609-.35-.906-.263-1.452-.798-.973-.953-3.851-3.853-3.851-3.853-.333-.333-.672-1.026-.918-1.272A.723.723 0 0 0 11.75 0c-.508 0-.752.371-.75.739"/>
</svg>
