<svg xmlns="http://www.w3.org/2000/svg" viewBox="0 0 18 26" width="18" height="26">
    <path fill="#063851" d="M13.28 15.991c-.895-.672-1.429-1.791-1.429-2.991s.535-2.319 1.429-2.99C15.68 8.211 18 4.52 18 1.625 18 .741 17.286 0 16.366 0H1.634C.714 0 0 .741 0 1.625 0 4.52 2.32 8.211 4.719 10.01c.896.67 1.43 1.79 1.43 2.99s-.535 2.319-1.43 2.991C2.32 17.789 0 21.48 0 24.375 0 25.259.714 26 1.634 26h14.732c.92 0 1.634-.741 1.634-1.625 0-2.895-2.32-6.586-4.72-8.384M2.468 4.663c-.685-1.406.356-3.038 1.928-3.038h9.208c1.572 0 2.612 1.632 1.927 3.038-.522 1.074-1.265 2.091-2.094 3.018-1.442 1.611-6.331 2.309-7.934.869C4.339 7.504 3.18 6.124 2.468 4.663M9 23.224c-6.392.609-6.746-1.558-6.029-2.658.795-1.222 1.66-2.473 2.733-3.279 1.035-.774 1.738-1.944 1.984-3.247C7.805 13.427 8.371 13 9 13c.628 0 1.195.427 1.311 1.04.247 1.303.95 2.472 1.984 3.247.48.359.924.812 1.375 1.277 1.501 1.545 1.662 4.056-4.67 4.66"/>
</svg>
