<svg xmlns="http://www.w3.org/2000/svg" viewBox="0 0 15 9" width="15" height="9">
    <path fill="#fff" d="M14.208 0a.816.816 0 0 0-.569.247c-.293.307-.627 1.055-.984 1.429L9.292 5.205c-.461.484-3.112.484-3.573 0L2.356 1.676C2 1.302 1.665.554 1.373.247A.817.817 0 0 0 .804 0C.409-.002 0 .272 0 .844c0 .216.078.431.235.596.264.277 1.006.658 1.364 1.033 0 0 3.133 3.253 4.156 4.361.546.592.461.93.829 1.604l.003-.001c.186.334.526.561.92.563.394-.002.734-.229.919-.562l.003.001c.375-.685.282-1.019.855-1.633a732.132 732.132 0 0 1 4.129-4.332c.357-.375 1.1-.756 1.363-1.033A.854.854 0 0 0 15 .844c0-.572-.398-.846-.792-.844"/>
</svg>
