<svg width="32px" height="32px" viewBox="0 0 32 32" xmlns="http://www.w3.org/2000/svg">
    <path d="M32 16c0-8.837-7.164-16-16.001-16C7.163 0 0 7.163 0 16c0 8.836 7.163 16 15.999 16 5.948 0 8.789 0 10.569-1.322 1.513-1.123 2.172-2.678 4.342-8.876l-.016.011A15.907 15.907 0 0 0 32 16zm-2.319 2.958c-1.388 4.875-4.187 5.768-6.226 7.167C20.896 27.879 18.432 30 15.999 30c-7.73 0-14-6.268-14-14s6.27-14 14-14c7.733 0 14 6.268 14 14 0 1.016-.052 2.019-.318 2.958zM9 11c0-1.54 1.667-2.502 3-1.732.619.357 1 1.017 1 1.732 0 1.54-1.667 2.502-3 1.732A1.999 1.999 0 0 1 9 11zm12 2c1.54 0 2.502-1.667 1.732-3A1.999 1.999 0 0 0 21 9c-1.54 0-2.502 1.667-1.732 3 .357.619 1.017 1 1.732 1zm2.333 5.035a1.5 1.5 0 0 0-2.049.548c-.018.03-1.776 3-5.534 3-3.057 0-5.323-3.232-5.343-3.261a1.5 1.5 0 0 0-2.48 1.688c.127.187 3.166 4.573 7.823 4.573 5.47 0 8.025-4.316 8.132-4.5a1.5 1.5 0 0 0-.549-2.048z" fill="#1d5a78" fill-rule="evenodd"/>
</svg>
