<svg xmlns="http://www.w3.org/2000/svg" viewBox="0 0 58 58" width="58" height="58">
    <path fill="#063851" d="M19.969 47.125a5.442 5.442 0 0 0-5.448 5.438c0 3.004 2.439 5.438 5.448 5.438s5.445-2.434 5.445-5.438a5.44 5.44 0 0 0-5.445-5.438m21.784 0a5.442 5.442 0 0 0-5.446 5.438 5.442 5.442 0 0 0 5.446 5.438 5.442 5.442 0 0 0 5.446-5.438 5.442 5.442 0 0 0-5.446-5.438m12.615-36.25H13.539c-5.899 0-4.839-5.664-6.367-7.903C5.977 1.223 4.05 0 1.816 0A1.82 1.82 0 0 0 0 1.812c0 .693.397 1.298.97 1.604 2.853 1.513 3.733 7.314 4.149 9.271l5.101 24.196a6.08 6.08 0 0 0 5.937 4.804H47.2a6.63 6.63 0 0 0 6.5-5.31l4.227-21.152c.055-.235.073-.472.073-.725 0-1.892-1.515-3.625-3.632-3.625m-1.359 10.404c-2.083 9.986-15.39 16.783-25.594 16.783h-3.398a12.1 12.1 0 0 1-11.852-9.606l-1.763-8.319c-.616-2.901 1.618-5.638 4.575-5.638h32.459a5.6 5.6 0 0 1 3.538 1.251 5.373 5.373 0 0 1 1.526 1.848 5.551 5.551 0 0 1 .509 3.681"/>
</svg>
