<svg xmlns="http://www.w3.org/2000/svg" viewBox="0 0 82 46" width="82" height="46">
    <path fill="#063851" d="M19.249 45.878c-2.086 0-4.154-1.079-5.268-2.75-.696-1.046-1.641-3.293-.133-6.601 1.447-3.173 4.315-5.066 7.675-5.066 1.11 0 2.168.226 2.976.637 2.645 1.339 4.329 5.118 2.439 8.881-1.633 3.25-4.221 4.899-7.689 4.899zm2.274-10.255c-.968 0-2.747.337-3.774 2.593-.363.792-.688 1.893-.188 2.643.368.555 1.145.855 1.688.855 1.241 0 2.666-.197 3.856-2.568 1.008-2.008-.218-3.175-.575-3.354-.113-.06-.47-.169-1.007-.169zM65.671 46c-2.086 0-4.154-1.079-5.268-2.75-.696-1.046-1.641-3.293-.133-6.601 1.447-3.173 4.315-5.066 7.675-5.066 1.11 0 2.168.226 2.976.637 2.645 1.339 4.329 5.118 2.439 8.881C71.727 44.352 69.139 46 65.671 46zm2.274-10.254c-.968 0-2.747.337-3.774 2.593-.363.792-.688 1.893-.188 2.643.368.555 1.145.855 1.688.855 1.241 0 2.666-.197 3.856-2.568 1.008-2.008-.218-3.175-.575-3.354-.113-.06-.47-.169-1.007-.169zm-57.604 1.258c-.486 1.155-.376 3.121-2.133 3.121s-1.819-2.264-1.443-4.1c.376-1.836 1.443-2.01 2.698-1.958 1.505.061 1.882.551.878 2.937zm66.716-.325c.124 1.243-.56 3.094 1.121 3.588 1.684.493 2.409-1.656 2.592-3.521.18-1.865-.79-2.329-2.006-2.633-1.46-.364-1.964 0-1.707 2.566zm-20.357.448c-.392 1.404-.314 3.06-2.635 3.06H32.234c-.815 0-1.568.122-1.255-2.203.314-2.325-1.129-3.917 1.067-3.917h24.215c1.004 0 1.004 1.04.439 3.06zM78.594 17.93c-.882-1.763-1.255-2.999-2.572-6.812-1.029-2.979-2.007-3.305-3.262-3.305s-4.517-.061-7.026-.061c-2.509 0-2.886 1.224-3.011 2.448-.126 1.224-1.443 12.545-1.945 16.645s2.039 2.903 2.886 2.467c1.066-.551 1.694-.998 4.83-.998 3.137 0 5.27 1.713 5.897 2.264.627.551 2.007.551 3.764.551 2.698 0 3.199-1.224 3.388-2.509.188-1.285.188-3.06.439-5.508.251-2.447-2.133-2.673-3.388-5.182zm-7.277 1.959c-2.207-.218-3.084-.356-4.203-.509-1.192-.164-2.509-.061-2.196-2.509.314-2.448.439-3.733.439-3.733.126-1.102.126-2.448 2.258-2.448h3.137c1.067 0 1.96.214 2.823 2.589.941 2.589 1.506 3.978 1.568 5.263.064 1.285-1.128 1.61-3.826 1.347zM59.663.681A2.16 2.16 0 0 0 58.082 0H13.75c-1.178 0-1.852.964-2.135 2.081-.288 1.144 1.11 2.457 2.221 2.283 3.793-.589 5.915-.7 7.695-.161 1.125.34 1.692.868 1.692 2.02 0 1.147-.747 1.828-1.776 2.387-1.506.815-4.103.398-8.03-.164-6.273-.9-8.626-.867-11.21-.41C1.049 8.242 0 9.264 0 10.415c0 1.147 1.117 2.172 2.292 2.272 2.249.193 4.746.363 11.208-.161 7.026-.574 10.623-.819 12.464-.409 1.149.254 2.654 1.339 2.654 2.49 0 1.147-1 1.775-2.135 2.081-2.109.57-4.807.754-9.888-.084-6.942-1.142-10.204-.65-11.125-.325-1.014.36-1.968 1.373-1.968 2.448 0 1.144.949 2.004 2.115 2.079 3.199.205 6.095-.681 9.808-.53 2.007.084 2.711 1.335 2.425 2.448-.668 2.612-3.148 2.257-6.003 2.257-2.572 0-2.656 4.379-2.656 4.379 0 .019-.012.036-.012.057 0 .004.004.01.004.015l-.003.014.004-.002c.018 1.134.961 2.052 2.129 2.052h2.186a2.16 2.16 0 0 0 1.529-.631c.025-.023 2.57-2.471 6.332-2.471 3.878 0 6.634 2.188 6.652 2.201.384.318.874.492 1.378.492h26.014c1.098 0 2.017-.813 2.123-1.88l2.678-26.926a2.053 2.053 0 0 0-.542-1.6z"/>
</svg>
