<svg width="26" height="26" xmlns="http://www.w3.org/2000/svg" viewBox="0 0 26 26">
    <path fill="#063851" d="M10.562 13.812h-3.25c-1.915 0-3.773.812-5.688.812a1.625 1.625 0 0 1 .001-3.249c1.915 0 3.772.812 5.688.812h3.25c.767 0 1.625-.858 1.625-1.625v-3.25c0-1.915-.812-3.772-.812-5.688a1.625 1.625 0 0 1 3.249.001c0 1.915-.812 3.772-.812 5.688v3.25c0 .767.858 1.625 1.625 1.625h3.25c1.915 0 3.772-.812 5.688-.812a1.624 1.624 0 1 1-.001 3.249c-1.915 0-3.773-.812-5.688-.812h-3.25c-.767 0-1.625.858-1.625 1.625v1.625c0 2.234 1.625 4.266 1.625 6.5a2.436 2.436 0 1 1-4.875-.001c0-2.234 1.625-4.266 1.625-6.5v-1.625c.001-.766-.858-1.625-1.625-1.625"/>
</svg>
