<svg width="22" height="26" xmlns="http://www.w3.org/2000/svg" viewBox="0 0 22 26">
    <path d="M12.269 13H9.731C4.379 13 0 17.205 0 22.344v.855C0 24.746 1.306 26 2.917 26h16.165C20.694 26 22 24.746 22 23.199v-.855C22 17.205 17.621 13 12.269 13M7.01 24.375c-4.048 0-5.51-1.83-5.179-3.465.725-3.57 3.977-6.285 7.9-6.285h2.538c2.768 0 5.181 1.372 6.66 3.401 1.846 2.533-4.811 6.349-11.919 6.349M11 11.375c3.271 0 5.923-2.546 5.923-5.688C16.923 2.546 14.271 0 11 0S5.077 2.546 5.077 5.688c0 3.141 2.652 5.687 5.923 5.687m0-9.75a4.276 4.276 0 0 1 4.028 2.82c.874 2.42-4.763 5.879-6.564 4.493-1.002-.773-1.695-1.923-1.695-3.25 0-2.24 1.898-4.063 4.231-4.063" fill="#FFF"/>
</svg>
