<svg xmlns="http://www.w3.org/2000/svg" viewBox="0 0 92 100" width="92" height="100">
  <path fill="#fff" d="M25.5 11c16.9 7 41.1 22.2 52.7 31.3 1.5 1.1 2.6 3.6 2.2 5.8-.6 2.9-3.3 5.7-5 6.8-8.3 5.6-20.9 13.6-32.9 19.4-17.3 8.3-33.8 9.4-34.5-.4-.5-6.4-.9-14.5-.9-24.4 0-14.3.8-24.9 1.6-31.9.2-2.2 2.4-5 5.6-6.3C18 9.7 23 9.9 25.5 11M11.7 0C9.3 0 5.5 1.7 3.8 4.6 3 6 0 21.1 0 49.5s3 43.5 3.8 45c1.7 2.9 5.5 4.6 7.8 4.6 18.7 0 74.5-35.9 79.1-45 .8-1.5 1.2-3 1.2-4.6 0-1.6-.4-3.1-1.2-4.6-4.5-9-60.4-44.9-79-44.9"/>
</svg>
