<svg width="17" height="17" viewBox="0 0 17 17" xmlns="http://www.w3.org/2000/svg">
    <path fill="#888" fill-rule="evenodd" d="M8.5 5.843a1.062 1.062 0 1 0 0-2.124 1.062 1.062 0 0 0 0 2.124zm.531 3.188V7.969a.508.508 0 0 0-.064-.25.527.527 0 0 0-.935 0 .502.502 0 0 0-.063.25v1.062c0 .983-.245 1.971-.495 2.922a1.055 1.055 0 0 0 1.025 1.327 1.1 1.1 0 0 0 .228-.021 1.06 1.06 0 0 0 .803-.77 1.002 1.002 0 0 0-.005-.536c-.25-.951-.494-1.939-.494-2.922z"/>
    <path fill="#888" fill-rule="evenodd" d="M17 8.5A8.5 8.5 0 1 0 8.5 17c3.159 0 4.669 0 5.615-.702.804-.597 1.153-1.423 2.306-4.715l-.008.005A8.468 8.468 0 0 0 17 8.5zm-1.232 1.571c-.737 2.59-2.224 3.065-3.307 3.807-1.359.932-2.669 2.059-3.961 2.059A7.439 7.439 0 1 1 15.938 8.5c0 .54-.029 1.073-.17 1.571z"/>
</svg>
