<?xml version="1.0" encoding="UTF-8"?><!DOCTYPE svg PUBLIC "-//W3C//DTD SVG 1.1//EN" "http://www.w3.org/Graphics/SVG/1.1/DTD/svg11.dtd"><svg xmlns="http://www.w3.org/2000/svg" xmlns:xlink="http://www.w3.org/1999/xlink" height="211" viewBox="0 0 107 211" width="107"><svg height="56.238" viewBox="0 0 107 57" width="106.199" x="0" y="0"><path fill="#56AFB8" d="M106.046,25.863l-17.875-25.5c-0.133-0.189-0.336-0.316-0.563-0.353c-0.227-0.036-0.459,0.021-0.644,0.16 L73.484,10.311c-0.094-0.036-0.193-0.062-0.301-0.062H33.02c-0.107,0-0.209,0.024-0.304,0.062L19.235,0.171 c-0.184-0.139-0.414-0.196-0.644-0.16c-0.228,0.035-0.431,0.162-0.563,0.353l-17.875,25.5c-0.131,0.188-0.182,0.42-0.139,0.645 c0.042,0.226,0.173,0.424,0.363,0.551l14.25,9.5c0.145,0.097,0.309,0.144,0.471,0.144c0.27,0,0.533-0.128,0.698-0.365l4.07-5.839 c0.19,0.145,0.19,0.145,0.301,0.241l2.166,1.912v2.996c-0.005,0.006-0.012,0.01-0.017,0.017L21.1,37.339 c-1.251,1.603-0.966,3.922,0.66,5.191l1.677,1.216c0.654,0.512,1.438,0.782,2.267,0.782c0.451,0,0.881-0.103,1.291-0.257 c0.115,0.943,0.592,1.849,1.409,2.486l1.677,1.216c0.654,0.512,1.438,0.782,2.267,0.782c0.392,0,0.766-0.082,1.128-0.198 c0.142,0.896,0.604,1.747,1.383,2.354l1.677,1.217c0.654,0.513,1.438,0.781,2.267,0.781c0.796,0,1.543-0.264,2.166-0.72 c0.192,0.779,0.625,1.51,1.313,2.048l1.677,1.216c0.654,0.512,1.438,0.782,2.267,0.782c1.143,0,2.201-0.517,2.923-1.441l1.217-1.676 c0.157-0.201,0.289-0.414,0.399-0.638c0.062,0.128,0.144,0.246,0.268,0.333l4.008,2.792c0.633,0.426,1.352,0.629,2.061,0.629 c1.182,0,2.34-0.563,3.037-1.601l1.252-1.724c0.461-0.682,0.66-1.478,0.609-2.284l0.775,0.547c0.634,0.427,1.352,0.629,2.061,0.629 c1.182,0,2.34-0.562,3.038-1.6l1.252-1.724c0.431-0.639,0.64-1.376,0.624-2.129l1.455,0.941c0.633,0.426,1.352,0.629,2.061,0.629 c1.182,0,2.34-0.562,3.037-1.6l1.252-1.724c0.498-0.736,0.692-1.607,0.592-2.48L79.9,43.26c0.634,0.427,1.352,0.63,2.061,0.63 c1.182,0,2.34-0.563,3.038-1.601l1.252-1.724c0.552-0.816,0.752-1.798,0.563-2.766c-0.188-0.967-0.74-1.801-1.567-2.358 l-2.031-1.323l3.509-3.069l3.683,5.283c0.165,0.237,0.429,0.365,0.698,0.365c0.162,0,0.326-0.047,0.471-0.144l14.25-9.5 c0.189-0.128,0.32-0.325,0.363-0.551C106.229,26.283,106.177,26.05,106.046,25.863z M14.878,34.681L2.045,26.125L18.916,2.058 l12.268,9.229L14.878,34.681z M24.459,42.389l-1.677-1.217c-0.862-0.675-1.017-1.925-0.325-2.811l0.795-1.096 c0.371-0.435,0.781-0.933,0.781-0.933c0.343-0.264,0.762-0.412,1.208-0.412c0.445,0,0.866,0.146,1.243,0.438l1.677,1.218 c0.418,0.326,0.684,0.795,0.749,1.321c0.064,0.525-0.08,1.046-0.425,1.486l-1.217,1.679C26.615,42.902,25.356,43.089,24.459,42.389z M31.103,46.617l-1.677-1.216c-0.862-0.675-1.017-1.925-0.312-2.827l3.205-4.66c0.379-0.483,0.949-0.763,1.566-0.763 c0.445,0,0.866,0.146,1.243,0.438l1.677,1.219c0.418,0.325,0.684,0.796,0.749,1.32c0.064,0.526-0.08,1.046-0.438,1.506L35.09,44.58 l-0.801,1.17c-0.178,0.229-0.364,0.439-0.524,0.696C33.083,47.144,31.939,47.269,31.103,46.617z M37.557,50.773l-1.677-1.217 c-0.684-0.534-0.913-1.429-0.648-2.205c0.016-0.021,0.2-0.273,0.216-0.293l0.998-1.451l4.327-5.538 c0.379-0.485,0.949-0.763,1.566-0.763c0.445,0,0.866,0.146,1.243,0.438l1.677,1.217c0.418,0.326,0.684,0.796,0.749,1.322 c0.064,0.525-0.08,1.045-0.407,1.463l-5.234,6.701C39.713,51.286,38.454,51.473,37.557,50.773z M49.006,52.097l-1.217,1.678 c-0.653,0.836-1.912,1.022-2.81,0.323l-1.677-1.217c-0.862-0.675-1.017-1.925-0.325-2.811l1.218-1.678 c0.379-0.484,0.949-0.763,1.566-0.763c0.445,0,0.866,0.146,1.243,0.438l1.677,1.218c0.418,0.326,0.684,0.795,0.749,1.321 C49.495,51.135,49.351,51.656,49.006,52.097z M85.143,38.128c0.102,0.521-0.006,1.049-0.287,1.465l-1.252,1.726 c-0.61,0.906-1.847,1.146-2.768,0.526L64.104,30.947c-0.026-0.018-0.054-0.034-0.082-0.049c-0.24-0.129-1.064-0.646-1.557,0.077 c-0.395,0.577-0.131,1.071,0.262,1.327l13.156,8.47c0.812,0.594,0.774,0.596,0.906,1.28c0.1,0.521-0.35,1.158-0.629,1.573 l-1.253,1.725c-0.609,0.905-1.845,1.147-2.769,0.526l-9.279-6.013l-2.398-1.593c-0.051-0.034-0.788-0.474-0.788-0.474 c-0.394-0.255-0.921-0.143-1.175,0.252c-0.256,0.395-0.145,0.92,0.251,1.177l3.132,2.028l5.299,3.521 c0.439,0.297,0.737,0.746,0.84,1.267c0.101,0.521-0.008,1.05-0.287,1.465l-1.254,1.725c-0.61,0.905-1.85,1.147-2.74,0.547 l-8.15-5.747c-0.387-0.272-0.915-0.179-1.186,0.205s-0.178,0.914,0.205,1.185l0.324,0.229l4.514,3.558 c0.438,0.297,0.736,0.746,0.839,1.268c0.101,0.521-0.007,1.05-0.287,1.465l-1.253,1.724c-0.611,0.907-1.85,1.147-2.744,0.544 l-3.996-2.784c-0.28-0.194-0.636-0.192-0.912-0.031c0.047-0.323,0.067-0.653,0.026-0.986c-0.119-0.979-0.613-1.849-1.413-2.473 l-1.677-1.218c-0.58-0.454-1.267-0.706-1.992-0.759l0.905-1.16c0.606-0.774,0.874-1.739,0.754-2.717 c-0.119-0.978-0.613-1.85-1.413-2.473l-1.677-1.217c-0.653-0.513-1.438-0.782-2.266-0.782c-1.144,0-2.203,0.517-2.906,1.416 l-0.306,0.392c-0.206-0.768-0.643-1.452-1.3-1.965l-1.677-1.217c-0.653-0.511-1.438-0.781-2.266-0.781 c-1.144,0-2.203,0.516-2.937,1.457l-0.601,0.873c-0.24-0.602-0.626-1.14-1.164-1.56l-1.677-1.218 c-0.653-0.511-1.438-0.781-2.266-0.781c-0.421,0-0.822,0.093-1.208,0.227v-2.182c0-0.244-0.104-0.477-0.287-0.638l-2.453-2.167 c-0.161-0.144-0.161-0.144-0.417-0.413l11.945-17.14c0.066,0.018,0.129,0.04,0.199,0.04h9.142l-8.321,4.832 c-0.262,0.151-0.423,0.432-0.423,0.734V28.99c0,0.424,0.311,0.781,0.729,0.842c0.328,0.047,0.709,0.076,1.127,0.076 c2.497-0.001,6.301-1.01,7.977-4.977c0.044-0.104,0.066-0.218,0.066-0.33V21.13h8.999c0.568,1.608,2.379,5.761,6.029,6.148 c3.986,0.424,9.828-0.579,10.074-0.622c0.05-0.009,0.089-0.036,0.136-0.053l15.75,10.258C84.743,37.158,85.041,37.608,85.143,38.128 z M81.957,32.96c-0.075,0.066-0.129,0.146-0.176,0.23l-12.412-8.084c-0.244-0.158-1.08-0.153-1.242-0.125 c-0.059,0.01-5.848,1.008-9.604,0.605c-3.291-0.351-4.756-5.482-4.771-5.536c-0.104-0.366-0.438-0.623-0.819-0.623H42.466 c-0.47,0-0.85,0.382-0.85,0.852v4.144c-1.552,3.451-4.942,3.808-6.5,3.773v-10.19l9.911-5.755c0.129-0.074,0.219-0.182,0.29-0.301 h27.867c0.068,0,0.131-0.023,0.194-0.039l12.363,17.737L81.957,32.96z M91.32,34.681L75.016,11.287l12.269-9.229l16.87,24.066 L91.32,34.681z"/></svg><svg height="76.348" viewBox="0 0 80 77" width="79.7" x="0" y="57"><g fill="#56AFB8"><path d="M41.5,33.279c0,0.469,0.379,0.85,0.851,0.85h14.481v36.65c0,0.184,0.07,0.344,0.17,0.481h-9.153 c-0.47,0-0.851,0.382-0.851,0.852s0.381,0.851,0.851,0.851h20.668c0.469,0,0.851-0.381,0.851-0.851s-0.382-0.852-0.851-0.852 H58.362c0.1-0.139,0.17-0.299,0.17-0.481v-36.65h14.484c0.471,0,0.85-0.381,0.85-0.85c0-0.47-0.379-0.852-0.85-0.852H42.351 C41.879,32.429,41.5,32.81,41.5,33.279z"/><path d="M73.017,74.596H42.351c-0.472,0-0.851,0.381-0.851,0.85c0,0.47,0.379,0.851,0.851,0.851h30.666 c0.471,0,0.851-0.381,0.851-0.851C73.866,74.977,73.487,74.596,73.017,74.596z"/><path d="M78.849,51.179h-1.718l-4.809-14.665c-0.111-0.344-0.43-0.578-0.791-0.584 c-0.365-0.033-0.688,0.214-0.812,0.553l-5.462,14.696h-1.741c-0.252,0-0.49,0.111-0.651,0.305 c-0.162,0.192-0.229,0.448-0.187,0.696c0.506,2.807,2.932,8.115,8.504,8.115c5.571,0,7.998-5.31,8.504-8.115 c0.043-0.248-0.022-0.504-0.187-0.696C79.338,51.291,79.101,51.179,78.849,51.179z M71.465,39.354l3.877,11.825h-8.271 L71.465,39.354z M71.183,58.596c-4.272,0-5.988-3.84-6.572-5.718h13.138C77.149,54.751,75.409,58.596,71.183,58.596z"/><path d="M51.687,52.18c0.043-0.248-0.022-0.504-0.187-0.696c-0.162-0.192-0.399-0.305-0.651-0.305h-1.718 l-4.809-14.665c-0.111-0.344-0.43-0.578-0.791-0.584c-0.352-0.033-0.688,0.214-0.812,0.553l-5.461,14.696h-1.743 c-0.252,0-0.49,0.111-0.652,0.305c-0.16,0.192-0.229,0.448-0.184,0.696c0.504,2.807,2.931,8.115,8.503,8.115 C48.754,60.296,51.181,54.986,51.687,52.18z M43.465,39.354l3.877,11.825h-8.271L43.465,39.354z M43.183,58.596 c-4.273,0-5.988-3.84-6.572-5.718h13.138C49.149,54.751,47.409,58.596,43.183,58.596z"/><path d="M35.725,66.59h-4.576l3.229-7.723c-0.486-0.57-0.822-1.254-1.014-1.984l-1.506,3.604l-1.199-8.093 c0.113-0.044,0.217-0.108,0.303-0.196c0.029-0.03,0.041-0.07,0.066-0.104l0.088-2.956l-0.082-2.394 c-0.01-0.254-0.131-0.49-0.332-0.645l-1.277-0.983l6.604-4.938c0.171-0.127,0.284-0.311,0.325-0.516l1.816,1.299 c0.135-0.571,0.361-1.116,0.678-1.604l-2.17-1.551c-0.096-0.068-0.199-0.113-0.309-0.139v-1.105c0-0.2-0.08-0.377-0.195-0.521 c2.998-2.83,5.508-7.943,6.026-17.041c0.012-0.217-0.064-0.414-0.189-0.571c1.252-1.357,2.51-4.009,1.68-9.052 c-0.402-2.434-1.537-4.329-3.373-5.635c-3.381-2.403-8.095-2.044-9.524-1.865c-1.053-0.858-4.482-2.918-11.652-1.092 c-2.832,0.721-4.949,2.279-6.293,4.629c-3.152,5.517-0.91,13.431-0.812,13.765c0.107,0.372,0.447,0.613,0.816,0.613 c0.078,0,0.158-0.011,0.236-0.034c0.451-0.131,0.711-0.602,0.58-1.053c-0.021-0.075-2.145-7.551,0.656-12.447 c1.105-1.936,2.867-3.223,5.236-3.825c7.576-1.931,10.301,0.885,10.318,0.904c0.195,0.222,0.492,0.324,0.783,0.275 c0.053-0.01,5.299-0.883,8.671,1.515c1.454,1.034,2.355,2.558,2.68,4.527c0.9,5.469-0.895,7.498-1.859,8.174l-1.584-2.508 c-0.174-0.273-0.48-0.422-0.811-0.392c-0.15,0.019-14.897,1.575-21.056-3.161c-0.371-0.285-0.906-0.217-1.191,0.155 c-0.287,0.372-0.217,0.906,0.154,1.191c6.072,4.67,18.93,3.809,21.747,3.557l1.719,2.726c0.205,0.321,0.6,0.47,0.969,0.356 c0.029-0.009,0.162-0.055,0.352-0.145c-0.024,0.359-0.053,0.718-0.084,1.063h-2.193c-0.006,0-0.012,0-0.018,0h-8.366 c-0.469,0-0.85,0.381-0.85,0.851v1.114h-2.74v-1.114c0-0.47-0.381-0.851-0.85-0.851h-8.365c-0.006,0-0.012,0-0.018,0h-1.777 c0.416-2.756,1.607-3.896,1.641-3.93c0.348-0.308,0.385-0.84,0.078-1.192c-0.307-0.354-0.844-0.393-1.199-0.085 c-0.111,0.099-2.01,1.826-2.316,6.008c-0.002,0.018-0.01,0.031-0.01,0.05c0,0.01,0.004,0.017,0.004,0.024 c-0.113,1.682,0.02,3.74,0.637,6.263c0.686,2.803,1.984,5.884,4.383,8.159c-0.148,0.153-0.242,0.361-0.242,0.593v1.105 c-0.109,0.024-0.213,0.069-0.309,0.139l-3.896,2.784h-2.443c-0.043,0-0.086,0.004-0.129,0.011c-0.113,0.018-2.846,0.444-5.613,1.96 C1.996,44.628,0,47.719,0,51.5v10.439c0,2.196,1.188,6.351,5.684,6.351H24.85h4.652h6.512c0.01-0.017,0.021-0.032,0.03-0.05 c0.082,0.025,0.164,0.05,0.246,0.05c0.332,0,0.648-0.196,0.785-0.521l2.131-5.099c-0.557-0.256-1.025-0.613-1.408-1.039 L35.725,66.59z M29.506,66.112c-0.064,0.158-0.064,0.321-0.035,0.478h-3.967c0.029-0.155,0.029-0.318-0.037-0.478l-0.5-1.199 l-0.426-1.394l1.08-11.062h3.328l1.641,11.064L29.506,66.112z M18.197,65.932l-5.902-7.923l2.549-2.646 c0.174-0.181,0.26-0.427,0.234-0.676c-0.026-0.249-0.16-0.475-0.365-0.614l-3.621-2.48l1.174-9.302h1.4l9.699,23.202l0.336,1.098 h-5.355C18.387,66.366,18.344,66.129,18.197,65.932z M23.564,52.187c0.004,0.003,0.004,0.008,0.008,0.011 c0.096,0.1,0.217,0.162,0.346,0.205l-0.791,8.11l-1.969-4.711c0.02-0.023,0.049-0.035,0.066-0.062L23.564,52.187z M29.469,50.756 h-4.406l0.123-3.553l1.848-1.423c0.1-0.077,0.176-0.176,0.232-0.285c0.057,0.109,0.133,0.208,0.232,0.285l1.85,1.423L29.469,50.756 z M30.639,22.371h6.54c-0.102,0.587-0.229,1.203-0.348,1.514c-0.568,1.472-1.233,2.128-3.667,2.128 c-2.375,0-2.52-2.107-2.525-2.524V22.371z M24.5,22.371v1.116c0,0.259-0.072,2.523-2.525,2.523c-2.434,0-3.098-0.655-3.666-2.126 c-0.121-0.312-0.248-0.928-0.348-1.515L24.5,22.371L24.5,22.371z M15.674,27.404c-0.486-1.989-0.646-3.652-0.621-5.033h1.186 c0.104,0.658,0.273,1.584,0.484,2.127c0.904,2.344,2.328,3.215,5.252,3.215c2.768,0,3.846-1.895,4.135-3.375h2.92 c0.289,1.48,1.367,3.375,4.135,3.375c2.923,0,4.347-0.871,5.253-3.215c0.209-0.543,0.381-1.469,0.484-2.127h1.273 c-1.73,13.188-8.472,15.275-12.546,15.275C19.82,37.646,16.818,32.076,15.674,27.404z M27.629,39.347 c2.014,0,4.602-0.431,7.041-2.093v1.815l-7.162,5.354c-0.104,0.077-0.184,0.178-0.242,0.288c-0.059-0.11-0.139-0.211-0.242-0.288 l-7.16-5.354v-1.914C21.82,38.492,24.35,39.347,27.629,39.347z M18.18,39.662c0.041,0.205,0.154,0.389,0.324,0.516l6.605,4.938 L23.83,46.1c-0.201,0.153-0.322,0.391-0.33,0.645l-0.102,2.938c-0.168,0.061-0.324,0.159-0.43,0.319l-2.354,3.574l-2.326-4.633 l-3.012-7.206L18.18,39.662z M1.699,61.939V51.5c0-6.146,6.221-8.334,8.822-8.98L9.34,51.894c-0.039,0.314,0.1,0.628,0.363,0.808 l3.221,2.205l-2.354,2.444c-0.287,0.3-0.316,0.764-0.068,1.097l6.064,8.143H5.684C1.768,66.59,1.699,62.128,1.699,61.939z"/></g></svg><svg height="76.347" viewBox="0 0 80 77" width="79.7" x="0" y="134"><g fill="#00B0BA"><path d="M74.851,40.979H64.534l-0.004-3.063c-0.141-1.477-1.229-4.27-4.346-4.27h-0.5H49.35h-0.5 c-3.116,0-4.205,2.793-4.35,4.35v2.983h-1.482h-2.444l-3.896-2.784c-0.095-0.068-0.2-0.114-0.308-0.138V36.95 c0-0.2-0.08-0.377-0.196-0.522c2.997-2.829,5.508-7.943,6.024-17.041c0.013-0.216-0.063-0.414-0.188-0.571 c1.25-1.358,2.51-4.009,1.679-9.051c-0.401-2.434-1.536-4.33-3.373-5.636c-3.379-2.403-8.094-2.043-9.524-1.865 c-1.054-0.858-4.485-2.918-11.652-1.092c-2.832,0.722-4.95,2.279-6.293,4.629c-3.153,5.515-0.91,13.431-0.813,13.765 c0.108,0.372,0.447,0.613,0.816,0.613c0.079,0,0.158-0.011,0.237-0.034c0.451-0.131,0.71-0.603,0.58-1.053 c-0.022-0.075-2.143-7.551,0.656-12.447c1.106-1.935,2.868-3.222,5.237-3.826c7.577-1.931,10.299,0.884,10.319,0.905 C30.073,3.945,30.371,4.051,30.662,4c0.053-0.009,5.298-0.882,8.67,1.515c1.454,1.033,2.355,2.556,2.68,4.526 c0.901,5.469-0.895,7.499-1.859,8.175l-1.583-2.508c-0.173-0.275-0.489-0.43-0.812-0.391c-0.149,0.016-14.903,1.57-21.056-3.162 c-0.372-0.286-0.905-0.217-1.192,0.156c-0.286,0.372-0.216,0.906,0.156,1.192c6.07,4.669,18.93,3.809,21.746,3.556l1.72,2.724 c0.205,0.324,0.601,0.472,0.969,0.358c0.03-0.009,0.163-0.056,0.351-0.145c-1.104,15.666-8.477,18.039-12.821,18.039 c-7.808,0-10.81-5.57-11.954-10.242c-1.894-7.734,1.093-10.604,1.154-10.661c0.349-0.309,0.385-0.841,0.079-1.193 c-0.307-0.355-0.845-0.394-1.199-0.085c-0.159,0.137-3.859,3.468-1.686,12.344c0.687,2.803,1.984,5.884,4.383,8.16 c-0.149,0.153-0.243,0.361-0.243,0.592v1.106c-0.108,0.024-0.213,0.07-0.308,0.138l-3.896,2.784h-2.444 c-0.043,0-0.085,0.004-0.127,0.01c-0.115,0.018-2.847,0.445-5.614,1.961C1.997,45.018,0,48.11,0,51.889v10.44 c0,2.197,1.188,6.351,5.684,6.351h19.167h4.986l0,3.057c0.13,1.5,1.289,4.258,4.688,4.576c0.053,0.012,0.103,0.033,0.159,0.033h0.5 h39.167h0.5c0.057,0,0.105-0.021,0.16-0.033c3.398-0.318,4.557-3.08,4.689-4.65V45.997C79.7,42.028,76.528,40.979,74.851,40.979z M46.197,38.077c0.011-0.111,0.287-2.73,2.653-2.73h0.5h10.334h0.5c2.303,0,2.625,2.454,2.649,2.65v2.983h-7.817 c-0.088,0-0.169,0.025-0.249,0.051c-0.08-0.025-0.161-0.051-0.249-0.051h-8.317L46.197,38.077z M42.948,42.68 c0.109,0.019,0.377,0.07,0.743,0.157c0.083-0.059,0.178-0.104,0.267-0.157h10.561c0.088,0,0.169-0.025,0.249-0.051 c0.08,0.025,0.161,0.051,0.249,0.051h19.831c0.322,0.003,3.154,0.125,3.154,3.316v6.561c-0.219-0.041-0.453,0.002-0.648,0.145 c-0.072,0.051-6.059,4.281-16.144,5.668c-0.473-1.973-1.984-2.557-2.858-2.557h-3.5c-0.059,0-0.111,0.021-0.167,0.033 c-0.056-0.012-0.108-0.033-0.167-0.033h-3.5c-0.884,0-2.423,0.593-2.877,2.621c-9.504-1.176-15.54-4.904-16.605-5.608v-6.829 c0-3.191,2.832-3.313,3.15-3.316h5.617H42.948z M54.85,61.813c-0.059,0-0.111,0.023-0.167,0.034 c-0.056-0.011-0.108-0.034-0.167-0.034h-3.5c-0.054,0-1.316-0.023-1.316-2.15c0-1.997,1.109-2.142,1.316-2.15h3.5 c0.059,0,0.111-0.021,0.167-0.033c0.056,0.012,0.108,0.033,0.167,0.033h3.5c0.054,0,1.316,0.025,1.316,2.15 c0,1.998-1.109,2.143-1.316,2.15H54.85z M23.702,66.979h-5.354c0.04-0.223-0.004-0.461-0.15-0.658L12.296,58.4l2.549-2.647 c0.173-0.18,0.259-0.428,0.233-0.676c-0.025-0.249-0.159-0.475-0.365-0.615l-3.622-2.48l1.174-9.301h1.401l3.369,8.057 c-0.026,0.178-0.011,0.363,0.083,0.533l0.575,1.041l5.674,13.573L23.702,66.979z M21.158,56.192 c0.02-0.023,0.051-0.035,0.068-0.062l2.339-3.553c0.003,0.003,0.003,0.008,0.006,0.01c0.096,0.1,0.217,0.163,0.346,0.206 l-0.792,8.11L21.158,56.192z M27.267,45.885c0.057,0.109,0.133,0.208,0.232,0.285l1.849,1.422l0.123,3.554h-4.407l0.123-3.554 l1.849-1.422C27.134,46.093,27.21,45.995,27.267,45.885z M29.842,45.828l-0.418-0.321l0.466-0.35 C29.864,45.37,29.848,45.594,29.842,45.828z M37.651,40.979h-2.174l0.552-0.412c0.17-0.127,0.284-0.311,0.325-0.515L37.651,40.979z M27.63,39.737c2.014,0,4.601-0.43,7.04-2.092v1.816l-7.161,5.354c-0.103,0.078-0.184,0.178-0.242,0.288 c-0.058-0.11-0.139-0.21-0.242-0.288l-7.161-5.354v-1.915C21.821,38.881,24.35,39.737,27.63,39.737z M18.181,40.052 c0.041,0.204,0.155,0.388,0.325,0.515l6.604,4.939l-1.278,0.982c-0.201,0.154-0.323,0.391-0.332,0.645l-0.101,2.938 c-0.168,0.06-0.324,0.159-0.43,0.319L20.58,54.02l-1.356-2.455l-3.945-9.438L18.181,40.052z M1.7,62.33v-10.44 c0-6.145,6.221-8.334,8.824-8.981L9.34,52.284c-0.04,0.315,0.1,0.627,0.363,0.807l3.221,2.206l-2.353,2.444 c-0.289,0.299-0.318,0.764-0.069,1.097l6.066,8.142H5.684C1.77,66.979,1.701,62.517,1.7,62.33z M25.504,66.979 c0.029-0.156,0.029-0.318-0.037-0.477l-0.499-1.193l-0.428-1.4l1.08-11.063h3.329l0.885,5.978l0.001,8.156H25.504z M74.351,74.646 H35.184c-3.257,0-3.623-2.748-3.65-2.982V54.833c2.343,1.395,8.096,4.304,16.505,5.307c0.203,2.635,1.992,3.375,2.977,3.375h3.5 c0.059,0,0.111-0.023,0.167-0.034c0.056,0.011,0.108,0.034,0.167,0.034h3.5c0.991,0,2.803-0.752,2.982-3.437 c9.315-1.241,15.225-4.805,16.668-5.763l0.004,17.27C77.974,71.897,77.608,74.646,74.351,74.646z"/><path d="M72.351,45.68h2.5c0.469,0,0.85-0.381,0.85-0.851s-0.381-0.851-0.85-0.851h-2.5 c-0.469,0-0.85,0.381-0.85,0.851S71.882,45.68,72.351,45.68z"/><path d="M60.35,45.68h9.5c0.469,0,0.85-0.381,0.85-0.851s-0.381-0.851-0.85-0.851h-9.5 c-0.469,0-0.85,0.381-0.85,0.851S59.881,45.68,60.35,45.68z"/></g></svg></svg>