<svg xmlns="http://www.w3.org/2000/svg" viewBox="0 0 5554.23 988.12"><title>Capcom_logo</title><path d="M3767.88,34.06c-166.68,0-315.31,72-411.94,184.41-28.53-36.64-63.4-75.13-101.5-102.22-80-59.69-183.64-77.86-294.44-80.84-187.57-5.05-337.6,96.28-406.69,210.22C2495,129.19,2442.59,68.38,2239.53,58.28H1747.45l.11,205.09s23.4,7.47,31.31,16.16c6.6,7.24,11,27.25,11,27.25l-1.16,456.5s-12.87-9.33-18-15.31c-9.55-11.13-23.09-37.44-23.09-37.44L1495.5,58.06l-319.69.22L898,784.47V629H698.13c-15.74,43.4-59.94,72.72-113.25,72.72-28.09,0-58.13-6.63-82.47-21.25-31.72-19.06-55.42-41.69-74.94-81.91C412.11,561.38,400.36,515.81,399,475.5c4.68-79.73,28.9-108.15,73.25-141,9.83-7.29,37.3-13.12,45.22-13.16,17.42-.08,31.94,10.49,39.81,26.06C568.73,370,552,397.48,535.41,417L697,528.34,946.66,267.16C859.57,128.36,700.44,35.44,518.56,35.44,243.21,35.44,20,248.43,20,511.16S236.07,972.57,518.56,994l35.72,1.44h380v-.19H1819v-.06l332.63-.47v-.53h52V798.75s-27.87-5.81-39.34-13.62A31,31,0,0,1,2151.13,764c-.22-5,.79-8.8,3.41-12.06s8.57-5.37,10.84-5.84a782.84,782.84,0,0,0,104.44-29.62C2363.36,682.82,2442.08,635,2498,582.06c37.4,220.95,231.57,382.17,466.31,409.09,15.33,1.76,28.54,3.09,42.88,3.59,3.81.13,11.44-.16,11.44-.16h332l-1-163.38c86.34,95.85,254.56,187.72,424.35,187.72,138.74,0,263.18-60.75,350.89-135.87l-.71,113h419.23l2.14-172.87,109.29,1.43v-1.91L4801.44,824V995.44h447.13V768.28s-19.09-1.22-26.56-6.44c-10.1-7-20.56-30.72-20.56-30.72l-62.84-417.34s1.88-27.92,10-38.34c6.68-8.58,28.56-15.72,28.56-15.72V58.28H4731.44V64L4700,169.72,4654.78,63.31v-5h-2.12l-1.22-2.84-.09,2.84H4221.25V269.72l-29.37-40c-80.68-117.63-222.31-195.66-383.59-195.66q-9.86,0-19.62.38Q3778.31,34.06,3767.88,34.06ZM892.5,825.78l0,2.06h-1.87l1.91-2.06h0Z" transform="translate(-20 -30.81)" fill="#0c4da2"/><path d="M518.23,124.82c-227,1.43-412.37,166.77-412.37,383.05S310.51,909.94,558.23,904.35l240.71.68V715.52H753.48c-14.28,35.73-81,70.68-129.37,70.68-25.49,0-89.66-3.47-113.4-11.78C468.8,759.74,409,738.67,357,651.28,343.07,620.65,303.84,546,312.6,437.09c4.25-65.63,45.94-147.57,120.75-184.67,32.62-16.18,65.46-18.83,123.12-13.6,41.4,3.76,82.53,32.86,96.89,67.8,11.11,27,7.92,59.94-5.16,78.7a4.78,4.78,0,0,0-.76,3.8,8.25,8.25,0,0,0,1.41,2.59l22.78,17.8s6.49,4.51,14.06,4.31c4.4-.12,12.27-4.89,12.27-4.89L828.08,272.36C747.64,163.82,604.68,124.82,518.23,124.82Z" transform="translate(-20 -30.81)" fill="#ffcb08"/><path d="M3770,121.16c-240.64,0-435.72,181-435.72,404.28S3529.36,929.72,3770,929.72s435.72-181,435.72-404.28S4010.64,121.16,3770,121.16Zm2.84,125.69c123.87,0,190.26,88.64,217.17,194.3,7.7,30.24,4.58,130.81,0,164.29-14,102.11-97.46,201.62-218.57,198.56-118-3-197-57.93-221.42-205.7-7.16-43.23-7.28-95.15-1.45-138.58,16.9-125.91,100.41-212.87,224.28-212.87h0Z" transform="translate(-20 -30.81)" fill="#ffcb08"/><path d="M1235.63,146.25S1044.29,664,1010,758.28s-72.84,91.44-72.84,91.44L940,906.84l231.25-.06.19-54.87s-14.84-.76-25.72-10.75c-21.1-19.37-7.75-58.34-7.75-58.34L1191.44,646l237.47.5s46.29,115.57,57.63,153.72c14.79,49.77-31.41,50.66-31.41,50.66v55.78l292.44-.16-.19-55.16s-17.42-2.66-35.94-18.81c-21-18.33-35.31-56.12-35.31-56.12l-239.5-629.66Zm68.66,159.19,79.28,220.72-153.56.69Z" transform="translate(-20 -30.81)" fill="#ffcb08"/><path d="M1841,145.44l-1.12,63.47s18.59,5.33,36.38,25.06c9.43,10.46,3.59,143.28,3.59,143.28l-.31,425.16s6.06,16.76-14.28,33.59c-7.68,6.36-14.48,13.09-26.34,14.13l-1.41,56.56,271,.66.66-57.53s-9.59-3.78-24.62-17.34c-8.49-7.66-13.72-18.67-13.59-29.66.23-38.41,1.13-75.31.94-112.81,94.94-22.87,176.9-61.64,208.84-73.41,120.09-47.92,213.27-124,207.81-259.72-1-96.16-49.8-175-154.28-192.78-47.63-13.76-69.49-16.17-88.28-17.22Zm310,107.79c29.23-.56,63.67,6.14,90.18,19.49,33,21.93,53.14,44.65,53.14,92.72,1.36,22.6-5.13,42-16,61.78-11.32,18.89-45.55,55.16-67.17,75.9-63.2,45.18-85.82,58.43-136,81.54l-.8-322.1C2101,257.52,2125,253.4,2151,253.23Z" transform="translate(-20 -30.81)" fill="#ffcb08"/><path d="M2986.75,125.33c-227,1.43-412.37,166.77-412.37,383.05S2779,910.45,3026.75,904.86l240.71.68V716H3222c-14.28,35.73-81,70.68-129.37,70.68-25.49,0-89.66-3.47-113.4-11.78-41.91-14.68-101.71-35.75-153.71-123.14-13.93-30.64-53.17-105.29-44.4-214.19,4.25-65.63,45.94-147.57,120.75-184.67,32.62-16.18,65.46-18.83,123.12-13.6,41.4,3.76,82.53,32.86,96.89,67.8,11.11,27,7.92,59.94-5.16,78.7a4.78,4.78,0,0,0-.76,3.8,8.25,8.25,0,0,0,1.41,2.59l22.78,17.8s6.49,4.51,14.06,4.31c4.4-.12,12.27-4.89,12.27-4.89l130.12-136.55C3216.16,164.32,3073.2,125.33,2986.75,125.33Z" transform="translate(-20 -30.81)" fill="#ffcb08"/><path d="M4314.63,146.94l.25,54.53s23.84,6.42,33.31,13.91c10.82,8.56,8.09,23.75,8.09,23.75s-86.5,537.52-88.37,547.5c-2,10.73-4.88,35.81-20,49.75A68.93,68.93,0,0,1,4215.63,853l-.25,53.78h242.19V856.56s-19.71-1.52-32.84-14.66-9.34-49.22-9.34-49.22L4475,386.59l121.22,349.5,147.66,2,119.94-376.37,66.94,432.94s8.07,32.55-9.34,49.25c-13.4,12.85-32.81,14.66-32.81,14.66v50.25h280.56l-.25-53.78s-6.28,2.15-22.22-10.62c-9.37-7.51-13.89-41-15.91-51.75-1.88-10-77.47-550.84-77.47-550.84s-1.31-22.33,10.94-33.75c8.83-8.23,26.91-16,26.91-16l-.44-44.53-291.28-.34-106.59,307-101.66-307Z" transform="translate(-20 -30.81)" fill="#ffcb08"/><path d="M5434.72,30.81a139.51,139.51,0,1,0,139.51,139.51A139.51,139.51,0,0,0,5434.72,30.81Zm0,18.76A120.75,120.75,0,1,1,5314,170.32,120.75,120.75,0,0,1,5434.72,49.57Z" transform="translate(-20 -30.81)" fill="#0c4da2"/><path d="M5362.91,86.06V251.22h34.84V194H5444l38.31,58,39.13-.25-46.75-61.44c19.2-7.84,32.78-27.17,32.78-49.81,0-29.2-22.58-52.94-50.66-53.56v-.69h-59.09v-.12Zm34.84,33.34,58,.31c11.78,2,19.59,3.21,19.28,20.9-.34,18.93-14.92,21.46-19.28,21.6l-58,.69Z" transform="translate(-20 -30.81)" fill="#0c4da2"/></svg>