<svg width="75.239" height="45.594" version="1.1" viewBox="0 0 75.238564 45.593994" xml:space="preserve" xmlns="http://www.w3.org/2000/svg"><style type="text/css">
	.st0{fill:#010202;}
</style><path class="st0" d="m28.135 17.96h5.8992c0.5495 0 0.9948-0.4555 0.9948-1.0179 0-0.5621-0.4453-1.018-0.9948-1.018h-5.8992c-0.5496 0-0.9949 0.4559-0.9949 1.018 0 0.5624 0.4453 1.0179 0.9949 1.0179z" fill="#010202"/><path class="st0" d="m67.537 3.1495 0.29755 0.58397-1.6195 0.82517-1.5472-3.0366-1.7727 0.90326 1.5474 3.0369-5.4478 2.7758-3.259-2.0651-5.541 2.8233-0.4904-0.96246-30.046 15.309c-0.88468 0.45077-1.5179 1.312-1.6938 2.3036l-0.36475 2.0576-16.679 8.4974c-0.40982 0.20915-0.70989 0.56979-0.84471 1.0151-0.13522 0.44521-0.088456 0.91981 0.13165 1.3359l3.2281 6.1033c0.25541 0.48299 0.70573 0.81481 1.2356 0.91061 0.36956 0.06692 0.73779 0.01206 1.0592-0.15169 0.13962-0.07114 0.2701-0.16287 0.38821-0.27379l11.832-11.118c0.22548-0.13038 2.4194-1.399 3.5221-1.9819 0.67457 0.73889 1.0997 1.6931 1.1877 2.6954l0.46591 5.3063 4.6038-0.29684 0.08304-7.7718 1.6173-0.82404c1.6125-0.82163 2.3628-2.6844 1.8796-4.4003l0.91009-0.50221c2.5886 5.2212 6.8857 9.335 12.211 11.659l0.92305 0.40296 2.6899-6.5575-0.92426-0.40358c-3.8055-1.6617-6.9429-4.7262-8.7424-8.4977l14.733-8.1303-0.48464-0.95115 16.133-8.2203 0.29791 0.58468 6.1814-3.1496-1.5199-2.983-6.1817 3.1497zm-62.521 40.238-2.9119-5.5052 13.183-6.7298 0.89005 1.7468zm12.807-11.641-0.75739-1.4865 2.329-1.1867 0.53811-3.0334c0.06737-0.38079 0.31026-0.71138 0.64981-0.8844l28.273-14.406 0.28193 0.55332-6.0492 3.0822c-1.6981 0.86522-2.4705 2.801-1.9314 4.6044 1.37e-4 2.67e-4 -22.427 12.237-23.334 12.757zm7.9281 6.0929-0.8094 0.05203-0.2898-3.2992c-0.11169-1.2743-0.60006-2.4945-1.3766-3.4987l2.5622-1.3746zm2.755-8.5046-0.66843 0.34058 0.01079-1.0172 1.6063-0.88648c-0.0032 0.64305-0.34806 1.257-0.94869 1.5631zm16.938 3.4419-0.21529 0.52574c-0.31694 0.77316-0.63374 1.5466-0.95108 2.3196-4.4828-2.1994-8.0948-5.8201-10.314-10.338l2.6677-1.4722c1.8735 3.8632 5.0047 7.052 8.8122 8.9648zm-2.4551-14.798c-0.03603-0.72844 0.34074-1.4313 1.0238-1.7793l6.0492-3.0822 0.38122 0.74818zm8.13-7.1697 4.5424-2.3145 1.2604 0.79875-5.22 2.6597z" fill="#010202"/></svg>
