<svg id="Режим_изоляции" width="335.55" height="439.33" data-name="Режим изоляции" version="1.1" viewBox="0 0 335.54938 439.33394" xmlns="http://www.w3.org/2000/svg">
 <defs>
  <style>.cls-1{fill:#fff;}.cls-2{fill:#ed1c24;}.cls-3{fill:#efbb6a;}.cls-4{fill:#d89f55;}.cls-5{fill:#f97c64;}.cls-6{fill:#d88948;}.cls-7{fill:#c4783f;}.cls-8{fill:#e6e6e6;}.cls-9{fill:#b3b3b3;}.cls-10{fill:#181617;}.cls-11{fill:#f05323;}.cls-12{fill:#f99f1c;}</style>
 </defs>
 <title>indie</title>
 <g transform="translate(-140.15 -88.366)" data-name="Режим изоляции">
  <g fill="#fff">
   <path class="cls-1" transform="translate(-6.7,-13.5)" d="m353.2 34.7c5.8 8.6 3.2 30.1-3.6 39.5l-6.1-4.7s2.4-2.7 3.9-14-1.6-17.3-1.6-17.3z"/>
   <path class="cls-1" transform="translate(-6.7,-13.5)" d="m158.1 534.2v-127.4c0-36.3 18.3-60.2 113.1-81.5s128.3-27.4 156.2-34.2 55-11 55-44.5v164.3c0 32.9-43 38.3-98 52.7s-226.3 34.3-226.3 70.6z"/>
   <path class="cls-1" transform="translate(-6.7,-13.5)" d="m158.1 541.2v-127.4c0-36.3 18.3-60.2 113.1-81.5s128.3-27.4 156.2-34.2 55-11 55-44.5v164.3c0 32.9-43 38.3-98 52.7s-226.3 34.3-226.3 70.6z"/>
   <path class="cls-1" transform="translate(-6.7,-13.5)" d="m543.4 177.5s28.5-22 22.6-45.5 4-39.4 39.1-52.9c0.7 7.8 4.9 15.1 4.9 15.1s-22.6 10.1-29.7 25.1-2.2 24.8-8.9 39.6-21.5 20.4-26.6 23.4c-3.3-0.2-1.4-4.8-1.4-4.8z"/>
   <path class="cls-1" transform="translate(-6.7,-13.5)" d="m24.3 231.3s-1.1 23.3 25.8 37.8 69.1 10.6 76.4 38.2c7.4 0.7 9.1-7.7 9.1-7.7s-15.1-21-34.1-25.8-24.5-1.1-44.1-9c-16.2-6.5-21.6-22.2-25.8-35.5-0.4 0.8-7.3 2-7.3 2z"/>
   <path class="cls-1" transform="translate(-6.7,-13.5)" d="m540.1 435.7s19 7.8 22.8 21.5c9.5 0.3 22.8-9.3 22.8-9.3s-8.6-23.3-22.8-24c-3.8 14.5-22.8 11.8-22.8 11.8zm-533.4-90.1s19 7.8 22.8 21.5c9.5 0.3 22.8-9.3 22.8-9.3s-8.6-23.3-22.8-24c-3.8 14.6-22.8 11.8-22.8 11.8zm502.1-67.3s3.8-23.2 7.6-20.2 28.4-0.3 28.4-0.3l-12.3 20.4h-23.7z"/>
   <path class="cls-1" transform="translate(-6.7,-13.5)" d="m585.8 318.6 24.8-31 7.6 16.6-14.3 23z"/>
   <path class="cls-1" transform="translate(-6.7,-13.5)" d="m223.6 44.5 24.8-31 7.6 16.6-14.3 23z"/>
   <path class="cls-1" transform="translate(-6.7,-13.5)" d="m569.7 595.8-11.7-3.9 7.4-22.3 11.7 3.9z"/>
   <path class="cls-1" transform="translate(-6.7,-13.5)" d="m87.7 76.5-10.2-22-14.7 13.1 2 18.5z"/>
   <path class="cls-1" transform="translate(-6.7,-13.5)" d="m70 454.3 21.9 9.5 8.6-24.8-22.8-5.7z"/>
   <path class="cls-1" transform="translate(-6.7,-13.5)" d="m210 594.1 21.9 9.5 8.6-24.8-22.8-5.7z"/>
   <path class="cls-1" transform="translate(-6.7,-13.5)" d="m47 533.6-10.9 17.4 14.5 1.1 9.9-13.7zm66.3-351.3-10.9 17.4 14.5 1.1 9.9-13.7-8.9-3.1z"/>
   <path class="cls-1" transform="translate(-6.7,-13.5)" d="m243.7 432.4q-1.65 29.25-28.8 35.7-27.45 6.6-25.7-22.6l1.7-29.2a11.16 11.16 0 0 1 3.2 -7.4 13.68 13.68 0 0 1 6.6 -3.9 8 8 0 0 1 6.4 0.8c1.7 1.1 2.5 3.2 2.3 6.1l-1.9 32.1c-0.3 5.4 2.4 7.4 8.2 6s8.9-4.8 9.2-10.2l1.9-32.1a11.8 11.8 0 0 1 3.2 -7.4 14.25 14.25 0 0 1 3 -2.5 12 12 0 0 1 3.5 -1.5c2.6-0.6 4.7-0.4 6.5 0.8s2.6 3.1 2.4 6z"/>
   <path class="cls-1" transform="translate(-6.7,-13.5)" d="m268.6 445.7c-0.4 6.3-3.7 10.2-9.8 11.7-6.3 1.5-9.2-0.8-8.8-7l2.8-48.4c0.4-6.2 3.5-10 9.5-11.4l18.9-4.6a30.6 30.6 0 0 1 10.4 -1 13.67 13.67 0 0 1 7.1 2.5 11.69 11.69 0 0 1 3.9 5.7 23 23 0 0 1 0.9 8.6 32.8 32.8 0 0 1 -1.8 8.8 27.75 27.75 0 0 1 -4.1 7.6 26.32 26.32 0 0 1 -6.1 5.9 22.49 22.49 0 0 1 -7.9 3.5l-3.3 0.8c-3.1 0.7-12.3 3-12.3 3l-0.6-14.5s10.6-2.6 12.7-3.1l1.5-0.4a7.41 7.41 0 0 0 3.8 -2.1 6.62 6.62 0 0 0 1.6 -4.1c0.1-1.9-0.4-3.1-1.4-3.7s-2.5-0.6-4.5-0.2l-10 2.4z"/>
   <path class="cls-1" transform="translate(-6.7,-13.5)" d="m315 443.5c-6.1 1.5-9-0.9-8.6-7.1l2.8-48.5a11.56 11.56 0 0 1 3.1 -7.4 13.25 13.25 0 0 1 6.6 -3.9 8.13 8.13 0 0 1 6.4 0.8q2.7 1.65 2.4 6l-2.3 39.4 9.9-2.4c2.9-0.7 5-0.3 6.4 1.1a7.55 7.55 0 0 1 1.9 5.9 12.88 12.88 0 0 1 -2.6 7.1 11.12 11.12 0 0 1 -6.7 4.3z"/>
   <path class="cls-1" transform="translate(-6.7,-13.5)" d="m387.6 413.3-19.9 4.8-3.4 8a15.37 15.37 0 0 1 -3.8 5.3 11.63 11.63 0 0 1 -4.7 2.6 11.43 11.43 0 0 1 -3.6 0.3 7.56 7.56 0 0 1 -3.1 -1 5.56 5.56 0 0 1 -2.1 -2.2 7.12 7.12 0 0 1 -0.7 -3.4 10.19 10.19 0 0 1 0.9 -3.9l25.7-54.9a17.71 17.71 0 0 1 3.2 -4.7 11.8 11.8 0 0 1 5.7 -2.9c2.4-0.6 4.2-0.5 5.4 0.2a6.28 6.28 0 0 1 2.7 3.4l17.9 44.3a8.65 8.65 0 0 1 -0.6 7.2 12.66 12.66 0 0 1 -2.4 3.3 21 21 0 0 1 -3.3 2.6 14.39 14.39 0 0 1 -3.7 1.5c-4.1 1-6.7-0.3-7.9-4zm-13.2-11 9-2.2-3.4-11z"/>
   <path class="cls-1" transform="translate(-6.7,-13.5)" d="m439.7 352.2a14.2 14.2 0 0 1 3.8 -4.5 13.93 13.93 0 0 1 4.4 -2.2 8.31 8.31 0 0 1 3.5 -0.1 7.89 7.89 0 0 1 3 1.2 6.42 6.42 0 0 1 2 2.3 6.29 6.29 0 0 1 0.6 3.4 12.31 12.31 0 0 1 -1.8 5.4l-16.3 27.6-1.2 20.1a11.2 11.2 0 0 1 -3.2 7.5 13.68 13.68 0 0 1 -6.6 3.9c-2.6 0.6-4.7 0.4-6.4-0.7s-2.5-3.2-2.3-6.2l1.2-20.1-13.7-20.5a7.49 7.49 0 0 1 -1.3 -4.3 10.73 10.73 0 0 1 1 -3.8 16.28 16.28 0 0 1 2.3 -3.5 11.8 11.8 0 0 1 3.2 -2.7 13.39 13.39 0 0 1 3.7 -1.6 8.17 8.17 0 0 1 4.1 0.1 5.65 5.65 0 0 1 3.4 2.7l7.5 12.4z"/>
  </g>
  <polygon class="cls-3" points="450.2 358.19 412.34 393.15 394.77 374.13 444.9 327.85 462.47 346.88" fill="#efbb6a"/>
  <polygon class="cls-4" points="416.58 389.24 412.34 393.15 394.77 374.13 411.27 358.89 428.85 377.93" fill="#d89f55"/>
  <polygon class="cls-3" points="317.94 326.64 403.68 247.48 421.25 266.5 335.51 345.67" fill="#efbb6a"/>
  <polygon class="cls-4" points="317.94 326.64 339.32 306.9 356.9 325.92 335.51 345.67" fill="#d89f55"/>
  <path class="cls-5" transform="translate(-6.7,-13.5)" d="m431.3 395.34 25.61-23.64a17.43 17.43 0 1 1 -25.61 23.64z" fill="#f97c64"/>
  <polygon class="cls-6" points="404.62 365.04 363.16 320.14 393.6 292.02 435.06 336.93" fill="#d88948"/>
  <polygon class="cls-7" points="404.62 365.04 363.16 320.14 374.78 309.4 416.24 354.31" fill="#c4783f"/>
  <polygon class="cls-8" points="248.01 220.62 255.07 228.27 276.52 251.5 333.03 312.7 388.6 261.4 247.63 108.73 183.3 94.81 192.06 160.03" fill="#e6e6e6"/>
  <polygon class="cls-1" points="383.39 255.76 361.94 232.53 255.07 228.27 276.52 251.5" fill="#fff"/>
  <polygon class="cls-1" points="354.88 224.88 323.08 190.45 216.21 186.19 248.01 220.62" fill="#fff"/>
  <polygon class="cls-9" points="388.6 261.4 360.81 287.06 183.3 94.81 247.63 108.73" fill="#b3b3b3"/>
  <polygon class="cls-3" points="180.52 372.1 145.56 334.24 164.58 316.67 210.87 366.79 191.83 384.37" fill="#efbb6a"/>
  <polygon class="cls-4" points="149.47 338.47 145.56 334.24 164.58 316.67 179.82 333.17 160.78 350.74" fill="#d89f55"/>
  <polygon class="cls-3" points="212.07 239.84 291.23 325.57 272.21 343.14 193.05 257.4" fill="#efbb6a"/>
  <polygon class="cls-4" points="212.07 239.84 231.82 261.22 212.79 278.79 193.05 257.4" fill="#d89f55"/>
  <path class="cls-5" transform="translate(-6.7,-13.5)" d="m163.58 360 23.64 25.61a17.43 17.43 0 0 1 -23.64 -25.61z" fill="#f97c64"/>
  <polygon class="cls-6" points="173.67 326.51 218.57 285.05 246.69 315.49 201.78 356.96" fill="#d88948"/>
  <polygon class="cls-7" points="173.67 326.51 218.57 285.05 229.31 296.67 184.4 338.14" fill="#c4783f"/>
  <polygon class="cls-8" points="369.39 225.46 361.74 232.52 338.51 253.97 277.31 310.48 226 254.92 378.67 113.95 443.9 105.19 429.98 169.51" fill="#e6e6e6"/>
  <polygon class="cls-1" points="231.64 249.71 254.87 228.26 361.74 232.52 338.51 253.97" fill="#fff"/>
  <polygon class="cls-1" points="262.52 221.2 296.95 189.41 403.82 193.66 369.39 225.46" fill="#fff"/>
  <polygon class="cls-9" points="226 254.92 251.66 282.7 443.9 105.19 378.67 113.95" fill="#b3b3b3"/>
  <path transform="translate(-6.7,-13.5)" d="m474 355.82-17.57-19a5.92 5.92 0 0 0 -8.36 -0.33l-5.49 5.07-33.43-36.21 23.3-21.51a5.92 5.92 0 0 0 0.33 -8.36l-17.57-19a5.92 5.92 0 0 0 -8.36 -0.33l-10.77 9.85-8.78-9.51a5.92 5.92 0 1 0 -8.7 8l8.78 9.51-8.19 7.56a5.92 5.92 0 0 0 8 8.7l23.31-21.46 9.5 10.33-77 71.14-9.54-10.33 38.54-35.57a5.92 5.92 0 1 0 -8 -8.7l-23.43 21.63-18.77-20.3 119.35-110.2a5.92 5.92 0 0 0 1.77 -3.1l13.93-64.32a5.92 5.92 0 0 0 -6.57 -7.12l-65.28 8.79a5.93 5.93 0 0 0 -3.23 1.52l-63.77 58.9-58.9-63.79a5.91 5.91 0 0 0 -3.1 -1.77l-64.29-13.91a5.92 5.92 0 0 0 -7.12 6.57l8.76 65.22a5.92 5.92 0 0 0 1.52 3.23l50.6 54.81a5.92 5.92 0 0 0 8.7 -8l-49.34-53.43-7.39-55 54.25 11.75 57.63 62.41-75.84 70-9.91-10.74a5.92 5.92 0 0 0 -8.36 -0.33l-19 17.57a5.92 5.92 0 0 0 -0.33 8.36l21.51 23.3-36.2 33.43-5.08-5.5a5.92 5.92 0 0 0 -8.36 -0.33l-19 17.57a5.92 5.92 0 0 0 -0.33 8.36l7.82 8.47a23.35 23.35 0 0 0 30.64 33.19l7.82 8.47a5.92 5.92 0 0 0 4.11 1.9 5.91 5.91 0 0 0 4.25 -1.57l19-17.57a5.92 5.92 0 0 0 0.33 -8.36l-5.07-5.49 24.58-22.7a5.92 5.92 0 0 0 -8 -8.7l-24.58 22.7-20.08-21.75 36.2-33.43 49.56 53.71a5.92 5.92 0 0 0 8.36 0.33l19-17.57a5.92 5.92 0 0 0 0.33 -8.36l-9.91-10.74 20.28-18.72 18.72 20.28-10.74 9.92a5.92 5.92 0 0 0 -0.33 8.36l17.57 19a5.92 5.92 0 0 0 8.36 0.33l23.36-21.48 33.43 36.21-5.49 5.07a5.92 5.92 0 0 0 -0.33 8.36l17.57 19a5.92 5.92 0 0 0 8.36 0.33l8.47-7.82a23.35 23.35 0 0 0 33.16 -30.62l8.47-7.82a5.91 5.91 0 0 0 0.36 -8.36zm-298.61 27.95a11.49 11.49 0 0 1 -10.57 -14.77l13.37 14.48a11.58 11.58 0 0 1 -2.8 0.29zm29.2-9.83 5.07 5.49-10.33 9.57-38.25-41.43 10.32-9.57 5.08 5.5zm75.11-26.19-71.14-77 10.33-9.54 71.13 77zm-12.53-51.75 61.83-57.1a5.92 5.92 0 0 0 -8 -8.7l-61.85 57.11-17.62-19.09 146.94-135.68 55-7.39-11.73 54.25-146.95 135.69zm111.5 37.43 21.75-20.08 33.43 36.21-21.75 20.08zm41.16 64.32-9.54-10.33 5.49-5.07l30.44-28.11 5.49-5.07 9.54 10.33zm36.23-14.32a11.47 11.47 0 0 1 -14.72 10.57l14.48-13.37a11.48 11.48 0 0 1 0.24 2.81z"/>
  <path transform="translate(-6.7,-13.5)" d="m340 226.39a5.9 5.9 0 0 0 4.25 -1.57l7.78-7.18a5.92 5.92 0 0 0 -8 -8.7l-7.78 7.18a5.92 5.92 0 0 0 3.75 10.27z"/>
  <path transform="translate(-6.7,-13.5)" d="m363 205.21a5.9 5.9 0 0 0 4.25 -1.57l36.44-33.64a5.92 5.92 0 1 0 -8 -8.7l-36.48 33.69a5.92 5.92 0 0 0 3.79 10.22z"/>
  <path transform="translate(-6.7,-13.5)" d="m279.63 195.63-43.88-47.53a5.92 5.92 0 1 0 -8.7 8l43.88 47.53a5.92 5.92 0 0 0 8.7 -8z"/>
  <path class="cls-1" transform="translate(-6.7,-13.5)" d="m158.1 534.2v-127.4c0-36.3 18.3-60.2 113.1-81.5s128.3-27.4 156.2-34.2 55-11 55-44.5v164.3c0 32.9-43 38.3-98 52.7s-226.3 34.3-226.3 70.6z" fill="#fff"/>
  <path class="cls-10" transform="translate(-6.7,-13.5)" d="m158.1 541.2v-127.4c0-36.3 18.3-60.2 113.1-81.5s128.3-27.4 156.2-34.2 55-11 55-44.5v164.3c0 32.9-43 38.3-98 52.7s-226.3 34.3-226.3 70.6z" fill="#181617"/>
  <g fill="#fff">
   <path class="cls-1" transform="translate(-6.7,-13.5)" d="m224.9 448.6a10.72 10.72 0 0 1 -3.3 7.7 14.41 14.41 0 0 1 -7.2 4 9.88 9.88 0 0 1 -7.1 -0.7q-2.85-1.65-2.7-6.3l1.8-50.2a11.18 11.18 0 0 1 3.2 -7.6 14.49 14.49 0 0 1 7.2 -4.1 9.19 9.19 0 0 1 7 0.8c2 1.2 2.9 3.2 2.8 6.2z"/>
   <path class="cls-1" transform="translate(-6.7,-13.5)" d="m272.7 387.3a10.37 10.37 0 0 1 3.1 -7.3 14 14 0 0 1 7 -3.9 8.57 8.57 0 0 1 6.6 0.7c1.9 1.1 2.7 3.1 2.6 6l-1.9 50.6a11.76 11.76 0 0 1 -1 4.2 15.87 15.87 0 0 1 -2.2 3.5 10.67 10.67 0 0 1 -3.1 2.5 13.79 13.79 0 0 1 -3.6 1.5 10.15 10.15 0 0 1 -4.9 0 7.21 7.21 0 0 1 -4 -2.7l-18-21.9-0.8 22.2a10.37 10.37 0 0 1 -3.1 7.3 14 14 0 0 1 -7 3.9 9 9 0 0 1 -6.6 -0.7c-1.8-1.1-2.7-3.1-2.6-6l1.9-50.7a14.33 14.33 0 0 1 0.9 -4.1 15.87 15.87 0 0 1 2.2 -3.5 12.18 12.18 0 0 1 3.1 -2.5 9.34 9.34 0 0 1 3.6 -1.4 10.56 10.56 0 0 1 5 0 7.21 7.21 0 0 1 4 2.7l17.9 21.9z"/>
   <path class="cls-1" transform="translate(-6.7,-13.5)" d="m300.5 381.7a8.19 8.19 0 0 1 1.1 -3.8 15 15 0 0 1 2.6 -3.6 16.38 16.38 0 0 1 3.5 -2.9 10.33 10.33 0 0 1 3.8 -1.6l9.8-2.3a39.42 39.42 0 0 1 16.5 -0.8 25.72 25.72 0 0 1 11.6 5.1 22.29 22.29 0 0 1 6.7 9.5 30.46 30.46 0 0 1 1.9 12.1 42.5 42.5 0 0 1 -2.7 12.9 44.91 44.91 0 0 1 -7.3 12.4 49.19 49.19 0 0 1 -27.5 16.7l-11.5 2.7c-3.2 0.7-5.7 0.5-7.6-0.7s-2.7-3.3-2.6-6.3zm20.6 34.8a21.43 21.43 0 0 0 7.1 -3 23.77 23.77 0 0 0 5.2 -4.7 22.28 22.28 0 0 0 3.3 -5.8 19.66 19.66 0 0 0 1.3 -6 12.43 12.43 0 0 0 -0.8 -5.1 8.54 8.54 0 0 0 -2.8 -3.9 9.52 9.52 0 0 0 -5 -2.1 18.06 18.06 0 0 0 -7.2 0.4l-1.8 0.4-1.1 30.2z"/>
   <path class="cls-1" transform="translate(-6.7,-13.5)" d="m383.9 411.8a10.72 10.72 0 0 1 -3.3 7.7 15.21 15.21 0 0 1 -7.2 4 9.88 9.88 0 0 1 -7.1 -0.7q-2.85-1.65-2.7-6.3l1.8-50.2a11.18 11.18 0 0 1 3.2 -7.6 14.49 14.49 0 0 1 7.2 -4.1 9.19 9.19 0 0 1 7 0.8c2 1.2 2.9 3.2 2.8 6.2z"/>
   <path class="cls-1" transform="translate(-6.7,-13.5)" d="m402.1 416.5c-6.7 1.6-9.9-0.8-9.7-7.2l1.8-49.2c0.2-6.3 3.7-10.3 10.4-11.8l34.4-8c3.2-0.7 5.6-0.4 7.3 1.1a7.19 7.19 0 0 1 2.4 6 12.47 12.47 0 0 1 -2.9 7.3 12.82 12.82 0 0 1 -7.6 4.5l-24.3 5.6-0.2 6.5 20.2-4.7c2.9-0.7 5.2-0.3 6.7 1a6.36 6.36 0 0 1 2.2 5.5 11.16 11.16 0 0 1 -2.7 6.6 11.64 11.64 0 0 1 -6.9 4.1l-20.2 4.7-0.2 6.6 24.3-5.6c3.2-0.7 5.6-0.4 7.3 1a7 7 0 0 1 2.4 6 12.47 12.47 0 0 1 -2.9 7.3 12.82 12.82 0 0 1 -7.6 4.5z"/>
  </g>
 </g>
</svg>
