<?xml version="1.0" encoding="utf-8"?>
<!-- Generator: Adobe Illustrator 19.0.0, SVG Export Plug-In . SVG Version: 6.00 Build 0)  -->
<svg version="1.1" id="Слой_1" xmlns="http://www.w3.org/2000/svg" xmlns:xlink="http://www.w3.org/1999/xlink" x="0px" y="0px"
	 viewBox="0 0 41 41" style="enable-background:new 0 0 41 41;" xml:space="preserve">
<style type="text/css">
	.st0{fill:#010202;}
</style>
<path class="st0" d="M20.6091003,40.9990005c-0.5673008,0.0004997-1.1401997-0.0180016-1.7228012-0.0555
	c-5.635499-0.3619995-10.6646996-2.8647003-14.1612988-7.0483017C1.1799001,29.6543999-0.4953,24.1580009,0.1285,18.8169994
	C1.7657,4.8067999,14.0885,0.7154,14.2124996,0.6758c0.3642006-0.118,0.7542,0.0845,0.8718004,0.4481
	c0.1169996,0.3637999-0.0837002,0.7541-0.448,0.8714C14.5206003,2.0322001,3.0388,5.8745999,1.5075001,18.9775009
	C0.9356,23.8694992,2.5372,29.1149006,5.7912002,33.0079994c3.2498994,3.8880997,7.9325995,6.2154007,13.1838989,6.5527
	c10.4806004,0.6753998,18.4436016-5.1848984,20.2890987-14.920599c2.1611023-11.3980007-6.3452988-19.1336002-11.7122974-21.9076996
	C23.6282005,0.703,19.9057007,1.2021,18.3952999,2.7003C17.9130993,3.1798,17.4564991,3.9809,18.0191002,5.0812001
	c0.1907005,0.3733997,0.3904991,0.6059999,0.5872002,0.7466998l0.0991001-0.1587
	c1.1975994-1.9240999,2.2318001-3.5881999,3.7789001-2.7033c0.417799,0.2384,0.6047001,0.7095001,0.4996986,1.2603002
	C22.7733994,5.3295999,21.2436008,7.1394,19.5624008,7.3789001c-0.1055012,0.0148001-0.2263012,0.0257001-0.3573017,0.0257001
	c-1.1166,1.2508001-2.6700993,0.6982994-3.832099,0.2845998C14.7561998,7.4699998,14.1198997,7.2420998,13.6746998,7.3034
	c-0.4723997,0.0647001-0.632,0.2515998-0.632,0.3273997c0,0.0935001,0.1859999,0.2952003,0.6362,0.3584003
	c0.8949003,0.1285996,1.2069006,0.5892997,1.3109999,0.9535003c0.1577005,0.5522995,0.0795002,1.5290995-2.4137993,3.6194992
	c-0.0146999,0.0127001-0.0286999,0.0245008-0.0416002,0.0362005c0.3443003,0.1591997,1.0098,0.3432999,1.6978998,0.5214996
	c2.0054998-1.0001993,4.1486006-1.5739994,5.5507002-1.7403994c3.0091991-0.3585005,4.7353992-0.1610003,5.5970001,0.6387997
	c0.4123993,0.3837004,0.6159992,0.9000998,0.5881996,1.4946995c-0.0184994,0.3858004-0.1851006,0.9474001-0.8736,1.4333
	c-1.5720005,1.1099997-5.0629997,1.2573996-8.1205006,0.3423004c-0.9162998-0.2743998-1.7718992-0.4913998-2.5266991-0.6834002
	c-0.0151005-0.0037003-0.0305004-0.0079994-0.0458002-0.0114002c-1.1934004,0.6472006-2.2785997,1.4512005-3.0143003,2.3957005
	c-0.8060999,1.0342999-1.1360998,2.1625996-0.9796,3.351799C10.5969,21.7849007,11.2416,21.9768009,12.4115,22.3253994
	c1.6232996,0.4835014,3.8464003,1.1451015,4.3622999,6.0209007c0.4155998,3.9260998,1.5562992,5.4559994,2.4069004,5.5734997
	c0.6751003,0.0979004,1.4505997-0.653801,1.9328995-1.8571014c0.4496994-1.1220989,1.3355007-2.1265984,2.3003998-2.8814983
	c0.1165009-0.3290997,0.2803001-0.6273994,0.4598999-0.9550991c0.3243008-0.592001,0.7275009-1.3284016,1.1212997-2.7020016
	c0.1601009-0.5600986,0.2600002-1.046999,0.3035011-1.4797993c-1.1713009-0.5235004-2.1431007-1.4120998-2.7529011-1.9703007
	c-2.2346992-2.044199-1.7172985-3.110199-1.3914986-3.4734993c0.6301994-0.7026005,1.8944988-0.4755993,3.0739994,0.5543995
	c1.2938995,1.1302013,2.2910995,2.1666012,2.4554996,3.8803005c0.9731007,0.1814003,1.8129997-0.1933002,2.6701012-1.1042004
	c0.5667992-0.6042995,1.1303997-1.4025002,1.1007996-2.1709995c-1.2087002,0.0142002-2.3800011-0.1478996-2.9954014-0.711401
	c-0.3668995-0.3355999-0.5334988-0.7923985-0.4687996-1.2852001c0.0703011-0.5391998,0.4743996-0.9291992,1.080101-1.0426998
	c1.0161991-0.1955986,2.5942993,0.4185009,3.3405991,1.5988007c0.5262012-0.0506992,1.0893002-0.1364002,1.6642017-0.2626991
	c1.4785004-0.3240013,2.6889992-0.1122017,3.5972977,0.6299992c1.5785027,1.2894001,1.5536003,3.6889992,1.5521011,3.7912998
	c-0.0069008,0.382-0.3233986,0.6665993-0.7066002,0.6800995c-0.3825989-0.0070992-0.6875992-0.3218994-0.6814995-0.7033997
	c0.0004005-0.0375004,0.0045013-1.8446999-1.0473022-2.6993999c-0.5630989-0.4577999-1.3757973-0.5734997-2.4155998-0.3452988
	c-0.4322968,0.0949993-0.9639969,0.1873989-1.5344982,0.2542c0.043499,0.8272991-0.2600002,1.9241982-1.4729004,3.2150993
	c-1.2758007,1.356699-2.5553989,1.7066002-3.7206001,1.5571003c-0.0592003,0.4475994-0.1630001,0.9342003-0.3155994,1.468399
	c-0.2527008,0.8814011-0.5139999,1.5361996-0.7557011,2.0510998c0.3105011-0.1069984,0.5974007-0.1714001,0.8450012-0.1863995
	c0.7940998-0.0417995,1.1424999,0.3593998,1.2777004,0.6058998c0.3696995,0.6739006,0.0549984,1.6562004-0.9908009,3.0909996
	c-0.6348991,0.8719025-1.4011993,1.7332001-2.2628994,1.5114021c-0.7255001-0.1864014-0.9916-0.9823017-1.1249008-1.8154011
	c-0.3841,0.4256992-0.7108002,0.9028988-0.9158993,1.4148998c-0.7459011,1.8618011-2.0536003,2.9049988-3.4118004,2.7142982
	c-1.0907993-0.1498985-3.0079002-1.2346992-3.5970001-6.8006992c-0.4187002-3.9570999-1.8565998-4.3850994-3.3790998-4.8393002
	c-1.1925001-0.3550987-2.677-0.7973995-2.9833002-3.1309986c-0.2065001-1.5699005,0.2174006-3.0447998,1.2600002-4.3824997
	c0.6085997-0.781601,1.3961-1.464901,2.2702999-2.0516005c-0.8908005-0.2971001-1.4025002-0.6208-1.5326004-1.1885004
	c-0.1629-0.7114,0.4521999-1.2264996,0.6544008-1.3964996c1.4811993-1.2419004,1.8466997-1.8827,1.9364996-2.1136999
	c-0.0346003-0.0093002-0.0795002-0.0188007-0.1370001-0.0272999c-1.2650995-0.1789007-1.8302002-0.9999008-1.8277998-1.7337003
	c0.0017996-0.7209001,0.5696001-1.5246,1.8329-1.6968002c0.7802-0.1044998,1.5798998,0.178,2.3527002,0.4534001
	c0.7908001,0.2811999,1.3321991,0.4453998,1.7413998,0.3968997C17.2994995,6.5286999,17.0258999,6.1820002,16.7840004,5.7096
	C16.0583,4.2919998,16.2898006,2.8362999,17.4179993,1.7169c1.9056015-1.8898,6.2181015-2.5710001,10.773901-0.2157
	c5.7079983,2.95,14.7507992,11.1976004,12.4374981,23.3957996C38.7472992,34.8221016,30.9757996,40.9984016,20.6091003,40.9990005z
	 M24.6336994,30.0163994c-0.0216999,0.1825008-0.0175991,0.3858013,0.0149002,0.6429005
	c0.0573006,0.4554996,0.1244011,0.7185001,0.1765995,0.8661003c0.1439018-0.1193008,0.3894005-0.3665009,0.7581005-0.8730011
	c0.5970001-0.8190994,0.7870998-1.2791996,0.8478012-1.5002995C26.0603008,29.1968002,25.3607006,29.5109005,24.6336994,30.0163994z
	 M22.3010006,19.6072998c0.1008987,0.2432003,0.3839989,0.7168999,1.1817989,1.446701
	c0.586401,0.5360985,1.1212997,0.9645996,1.6169014,1.2867985c-0.3054008-0.7609997-0.9167004-1.3822994-1.7867012-2.1422997
	C22.8682995,19.8096008,22.5125008,19.6590996,22.3010006,19.6072998z M28.4487,18.2516994
	c0.1767998,0,0.5126991,0.2144012,0.9601994,0.2639999c-0.3641987-0.1856995-0.7333984-0.2639999-0.9592991-0.2639999
	C28.4491997,18.2516994,28.4491997,18.2516994,28.4487,18.2516994z M16.3962002,13.6834002
	c0.3155994,0.0866003,0.6413002,0.1789999,0.9764996,0.2793999c2.8199005,0.8436003,5.8547001,0.6058998,6.9195004-0.1457996
	c0.1051006-0.0740004,0.2817993-0.2211008,0.2887001-0.3684006c0.0112-0.2344999-0.0641994-0.3379002-0.1466007-0.4152994
	c-0.2896996-0.2685003-1.2577991-0.6625004-4.4874001-0.2775002C18.9719009,12.8717003,17.6961002,13.1866999,16.3962002,13.6834002
	z M21.5508003,4.1841998C21.2616005,4.3311,20.8714008,4.8592,20.4559994,5.4955001
	C20.9834995,5.0872002,21.3901997,4.5359998,21.5508003,4.1841998z"/>
</svg>
