<svg width="382.64" height="462.26" version="1.1" viewBox="0 0 382.64001 462.26382" xmlns="http://www.w3.org/2000/svg" xmlns:xlink="http://www.w3.org/1999/xlink">
 <style>.st0{clip-path:url(#SVGID_2_);fill:#fbab1f}.st1,.st2{fill:#e48c25}.st2,.st3{clip-path:url(#SVGID_4_)}.st3{fill:#fbab1f}.st4{fill:#f99f1c}.st5{fill:#f05323}.st6{fill:#ed1c24}.st7{fill:#fff}.st8{fill:#181617}</style>
 <defs>
  <path id="SVGID_1_" d="m122.75 100.55 297.92-44.091 25.696 323.06-297.92 44.09z"/>
 </defs>
 <clipPath id="SVGID_2_">
  <use width="100%" height="100%" overflow="visible" xlink:href="#SVGID_1_"/>
 </clipPath>
 <path class="st0" transform="translate(-85.482 -64.177)" d="m133.51 214.72 116.32 148.01c4.455 5.676 12.016-1.416 8.726-8.183l-74.937-154.13c-1.075-2.215-3.129-3.435-5.255-3.12l-41.381 6.125c-4.523 0.668-6.573 7.356-3.473 11.304zm292.36-77.556-22.131-29.555c-2.78-3.714-7.877-2.324-9.256 2.518l-9.75 34.277c-1.316 4.637 1.721 9.262 5.7 8.673l31.875-4.717c4.47-0.668 6.547-7.21 3.563-11.196zm-278.58 8.187-17.074 35.566c-2.292 4.766 0.771 10.552 5.234 9.891l32.06-4.744c3.975-0.588 6.216-5.99 4.203-10.132l-14.984-30.82c-2.104-4.334-7.306-4.201-9.44 0.239z" clip-path="url(#SVGID_2_)" fill="#fbab1f"/>
 <path class="st1" d="m301.94 21.64-14.623-19.528c-1.16-1.552-2.876-2.32-4.61-2.063l-73.279 10.844c-5.072 0.75-6.786 8.774-2.604 12.195a58803 58803 0 0 0 73.374 59.855c2.973 2.424 7.084 0.655 8.278-3.54l14.543-51.158c0.658-2.307 0.243-4.835-1.08-6.605z" fill="#e48c25"/>
 <defs>
  <path id="SVGID_3_" d="m122.75 100.55 297.92-44.091 25.696 323.06-297.92 44.09z"/>
 </defs>
 <clipPath id="SVGID_4_">
  <use width="100%" height="100%" overflow="visible" xlink:href="#SVGID_3_"/>
 </clipPath>
 <path class="st2" transform="translate(-85.482 -64.177)" d="m248.63 81.92-73.545 10.884c-1.734 0.257-3.29 1.508-4.18 3.364l-11.1 23.117c-1.013 2.112-1.02 4.708-0.017 6.77l22.322 45.92c1.822 3.752 6.113 4.284 8.637 1.045 14.52-18.59 42.209-54.062 62.342-79.949 3.547-4.564 0.613-11.902-4.46-11.15z" clip-path="url(#SVGID_4_)" fill="#e48c25"/>
 <path class="st3" transform="translate(-85.482 -64.177)" d="m197.66 203.95 94.432 194.23c2.356 4.847 8.36 3.96 9.9-1.462l61.794-217.35c1.32-4.64-1.719-9.26-5.698-8.671l-156.22 23.12c-3.976 0.586-6.218 5.987-4.204 10.133zm149.59-56.296c-21.094-17.191-51.326-41.843-71.035-57.984-2.201-1.805-5.164-1.366-7.035 1.04-16.41 21.154-42.274 54.307-60.318 77.424-3.56 4.558-0.616 11.9 4.462 11.149l131.32-19.436c5.076-0.75 6.798-8.78 2.605-12.193zm-9.42 201.69 90.145-178.2c2.409-4.763-0.649-10.695-5.17-10.026l-41.215 6.1c-2.127 0.315-3.943 2.102-4.645 4.578l-48.931 172.11c-2.149 7.575 6.35 12.295 9.816 5.446z" clip-path="url(#SVGID_4_)" fill="#fbab1f"/>
 <path class="st7" d="m0 508.65v-174.87c0-49.829 21.624-82.735 133.5-111.88s151.37-37.607 184.27-47.008c32.904-9.401 64.87-15.042 64.87-61.11v225.64c0 45.129-50.768 52.648-115.64 72.392-64.87 19.743-267 47.006-267 96.838z" fill="#fff"/>
 <path class="st8" d="m0 462.26v-141.46c0-40.308 21.624-66.929 133.5-90.505 111.88-23.577 151.37-30.423 184.27-38.028 32.904-7.606 64.87-12.169 64.87-49.437v182.53c0 36.507-50.768 42.591-115.64 58.563-64.87 15.97-267 38.026-267 78.338z" fill="#181617"/>
 <path class="st7" d="m62.316 310.96c11.326-2.6 18.289 2.468 18.524 12.729 0.241 10.402-5.934 18.279-16.842 20.787l-7.576 1.74 0.197 8.517c0.124 5.376-1.621 8.446-5.443 9.32-3.82 0.88-5.69-1.359-5.813-6.734l-0.791-34.279c-0.127-5.514 1.345-8.311 7.6-9.747zm-6.13 24.994 4.863-1.119c5.143-1.183 7.662-4.006 7.563-8.336-0.104-4.468-2.65-5.918-7.863-4.719l-4.865 1.116zm47.262-34.445c12.16-2.793 18.978 2.027 19.19 11.174 0.162 7.053-4.099 13.153-11.506 16.118l9.124 7.871c2.28 2.001 3.443 3.911 3.485 5.726 0.068 2.932-2.109 5.468-5.236 6.187-2.223 0.51-3.986-0.209-6.13-2.31l-13.515-13.532 0.282 12.218c0.124 5.376-1.621 8.446-5.442 9.323-3.822 0.878-5.69-1.36-5.815-6.735l-0.79-34.28c-0.128-5.515 1.346-8.31 7.6-9.747l8.754-2.012zm-4.761 23.694 5.21-1.197c4.587-1.055 7.104-3.948 7.017-7.788-0.086-3.7-2.637-5.29-7.154-4.252l-5.351 1.23zm42.171-12.776 7.922-1.82c5.35-1.23 8.029-0.16 8.112 3.4 0.082 3.56-2.52 5.842-7.87 7.072l-7.922 1.82 0.214 9.284 9.52-2.189c5.351-1.226 8.03-0.158 8.11 3.402 0.085 3.56-2.518 5.844-7.867 7.07l-13.134 3.02c-5.976 1.372-7.683 0.011-7.807-5.365l-0.797-34.56c-0.127-5.515 1.344-8.309 7.598-9.746l12.646-2.907c5.35-1.23 8.032-0.089 8.114 3.471 0.082 3.561-2.522 5.773-7.871 7.003l-9.173 2.106 0.206 8.939zm42.355-23.141 8.188 27.95 6.332-31.356c0.943-4.567 3.455-7.67 7.556-8.613 4.933-1.134 7.084 1.25 8.115 6.558l6.275 32.878c0.237 1.14 0.326 2.03 0.34 2.658 0.086 3.702-2.227 6.41-5.56 7.175-3.198 0.735-5.123-1-5.711-5.286l-4.159-28.874-0.07 0.019-6.938 32.335c-0.693 3.245-1.884 6.117-6.123 7.09-3.682 0.847-5.59-0.118-6.732-4.138l-7.93-28.918-0.071 0.016-3.222 29.868c-0.58 5.117-2.263 7.82-5.738 8.618-3.197 0.735-5.541-0.904-5.626-4.605-0.018-0.838 0.095-1.987 0.339-3.516l5.264-35.25c0.782-5.443 2.665-8.613 7.46-9.714 4.17-0.958 6.794 0.824 8.011 5.105zm53.109-11.079 0.808 35.049c0.124 5.375-1.62 8.442-5.443 9.32-3.82 0.88-5.689-1.36-5.813-6.734l-0.808-35.048c-0.123-5.376 1.62-8.444 5.443-9.322 3.822-0.88 5.689 1.36 5.813 6.735zm20.286-4.662 0.46 19.899c0.203 8.796 3.709 12.413 10.242 10.91 6.531-1.5 9.834-6.681 9.63-15.478l-0.458-19.896c-0.123-5.377 1.622-8.445 5.443-9.324 3.822-0.877 5.69 1.36 5.813 6.736l0.488 21.154c0.342 14.803-7.743 24.661-20.667 27.63-12.925 2.97-21.377-3.088-21.718-17.889l-0.49-21.155c-0.123-5.376 1.624-8.443 5.445-9.322 3.822-0.878 5.69 1.36 5.813 6.735zm58.687-14.608 8.19 27.947 6.33-31.354c0.944-4.568 3.457-7.672 7.556-8.613 4.933-1.135 7.085 1.25 8.115 6.558l6.277 32.878c0.235 1.138 0.326 2.029 0.34 2.658 0.086 3.7-2.228 6.409-5.564 7.175-3.195 0.734-5.12-1-5.708-5.285l-4.159-28.875-0.07 0.016-6.937 32.338c-0.695 3.246-1.885 6.115-6.123 7.09-3.684 0.846-5.591-0.12-6.732-4.137l-7.932-28.92-0.069 0.017-3.224 29.867c-0.58 5.116-2.264 7.821-5.737 8.617-3.197 0.736-5.541-0.901-5.626-4.601-0.02-0.84 0.096-1.988 0.339-3.518l5.264-35.25c0.783-5.444 2.666-8.614 7.46-9.715 4.17-0.957 6.795 0.825 8.01 5.107z" fill="#fff"/>
</svg>
