<?xml version="1.0" encoding="utf-8"?>
<!-- Generator: Adobe Illustrator 19.0.0, SVG Export Plug-In . SVG Version: 6.00 Build 0)  -->
<svg version="1.1" id="Слой_1" xmlns="http://www.w3.org/2000/svg" xmlns:xlink="http://www.w3.org/1999/xlink" x="0px" y="0px"
	 viewBox="0 0 39 39" style="enable-background:new 0 0 39 39;" xml:space="preserve">
<style type="text/css">
	.st0{fill:#010202;}
</style>
<path class="st0" d="M38.4651985,33.2929993c-0.3452988-0.3451004-0.8043976-0.5352974-1.2927971-0.5352974
	c-0.2775002,0-0.5454025,0.0612984-0.7884026,0.1776962l-4.4755993-4.4752979L34.0626984,26.3055
	c0.3454018-0.3451004,0.5356026-0.8043003,0.5356026-1.2926006c0-0.4883995-0.1902008-0.9476986-0.5356026-1.2929993
	c-0.3451996-0.3451004-0.8042984-0.5354996-1.2927971-0.5354996c-0.4883995,0-0.9475021,0.1903992-1.292902,0.5354996
	l-0.861599,0.8617992l-5.052-5.0517998c-0.0102997-0.0102997-0.021101-0.0194988-0.0319004-0.0289993L37.9603004,7.0721998
	c0.0932007-0.0931997,0.153801-0.2143998,0.1725006-0.3445997l0.8617973-6.033c0.0271034-0.1899-0.0366974-0.3816-0.1723976-0.517
	c-0.1357002-0.1358-0.3276024-0.1999-0.5172997-0.1725l-6.0328026,0.8616c-0.130497,0.0188-0.2514992,0.0796-0.344698,0.1725
	L19.4999008,13.4663L7.0724001,1.0391999C6.9791999,0.9463,6.8580999,0.8855,6.7275,0.8667L0.6949,0.0051
	c-0.19-0.0274-0.3817,0.0367-0.5173,0.1725C0.0419,0.313-0.022,0.5047,0.0051,0.6946l0.8618,6.033
	c0.0188,0.1301999,0.0792,0.2514,0.1726,0.3445997l12.3969002,12.3965006
	c0.0103998,0.0105991,0.0212994,0.0194988,0.0320997,0.0289993l-5.0839005,5.0839996L7.5228,23.7199001
	C7.1774998,23.3747997,6.7182999,23.1844006,6.23,23.1844006c-0.4884,0-0.9475999,0.1903992-1.2927999,0.5354996
	c-0.3453999,0.3453007-0.5356002,0.8045998-0.5356002,1.2929993c0,0.4883003,0.1902003,0.9475002,0.5356002,1.2926006
	l2.1542997,2.1546001L2.6159,32.9353981C2.3728001,32.8190002,2.1048,32.7577019,1.8275,32.7577019
	c-0.4883,0-0.9475,0.190197-1.2929,0.5352974c-0.3452,0.3456001-0.5354,0.8045998-0.5354,1.2927017
	c0,0.4885979,0.1902,0.9477005,0.5354,1.2929993l2.5855,2.5853996c0.3454001,0.3451004,0.8044999,0.5354996,1.2929001,0.5354996
	s0.9474998-0.1903992,1.2927999-0.5354996c0.3452997-0.3451004,0.5355997-0.8045998,0.5355997-1.2928009
	c0-0.2777977-0.0614996-0.5454979-0.1778998-0.7883987l4.4755998-4.4754009l2.1543007,2.1541004
	c0.3453999,0.3454018,0.8044996,0.5357018,1.2929001,0.5357018c0.4884996,0,0.9475994-0.1903,1.2927999-0.5357018
	c0.7128992-0.7126007,0.7128992-1.8726006,0-2.5853004l-0.8617001-0.8618984L19.5014,25.5307007
	c0.0093002,0.0105991,0.0186005,0.0216999,0.0289001,0.0319996l5.051899,5.0517006l-0.8616982,0.8618984
	c-0.7127018,0.7126999-0.7127018,1.8726997,0,2.5853004c0.3453999,0.3454018,0.8044987,0.5357018,1.2928982,0.5357018
	c0.4885006,0,0.9476013-0.1903,1.2928009-0.5357018l2.1544991-2.1541004l4.4755993,4.4754009
	C32.8199005,36.6259995,32.7584,36.8937988,32.7584,37.171299c0,0.4882011,0.1903,0.9477005,0.5354004,1.2928009
	c0.3453979,0.3451004,0.8045998,0.5354996,1.2929001,0.5354996c0.4884987,0,0.9476013-0.1903992,1.2929001-0.5354996
	l2.5853996-2.5853996c0.3453979-0.3456001,0.5355988-0.8044014,0.5355988-1.2929993
	C39.0005989,34.097599,38.8105011,33.6385994,38.4651985,33.2929993z M24.7012005,20.3917999l5.052,5.0517998l-1.7233009,1.7235012
	l-5.052-5.0519009c-0.0102997-0.0102005-0.0210991-0.0195007-0.0319996-0.0289993l1.7262993-1.7263012
	C24.6816998,20.3707008,24.691,20.3817997,24.7012005,20.3917999z M14.2985001,18.6065998L2.0453,6.3536L1.4708,2.3325
	l4.3085003,4.3087001C5.8983998,6.7600002,6.0544,6.8195,6.2104998,6.8195C6.3664999,6.8195,6.5225,6.7600002,6.6415,6.6412001
	c0.2382002-0.2381001,0.2382002-0.6238999,0-0.862L2.3329,1.4703l4.0211,0.5746l12.283699,12.2835999l-1.7247982,1.7249994
	c-0.0094013-0.0110989-0.0187016-0.0215988-0.0290012-0.032299L8.3649998,7.5025001
	c-0.2378998-0.2378001-0.6238999-0.2378001-0.862,0c-0.2380996,0.2381997-0.2380996,0.6242995,0,0.8618999L16.0217991,16.8834
	c0.0103016,0.0100002,0.0212002,0.0195007,0.0320015,0.0286999l-1.7264004,1.7264004
	C14.3179998,18.6277008,14.3087997,18.6170998,14.2985001,18.6065998z M4.8435998,37.6021996
	c-0.1150999,0.1148987-0.2680998,0.1785011-0.4308,0.1785011c-0.1626997,0-0.3157001-0.0636024-0.4307997-0.1785011
	L1.3966,35.0167007c-0.1151-0.1149025-0.1784-0.2680016-0.1784-0.4309998c0-0.1626015,0.0633-0.3155022,0.1784-0.4305992
	c0.1151-0.1149025,0.268-0.1783028,0.4308-0.1783028c0.1627001,0,0.3157001,0.0634003,0.4308,0.1783028l2.5853999,2.5852966
	c0.1151004,0.1151009,0.1784,0.2681999,0.1784,0.4309006C5.0219998,37.3342018,4.9587002,37.4870987,4.8435998,37.6021996z
	 M5.2746,35.4476013l-1.7232001-1.7235031l4.4021997-4.4020977L9.677,31.0452003L5.2746,35.4476013z M14.4169998,33.199501
	c-0.1150999,0.1151009-0.2679996,0.1784973-0.4306993,0.1784973c-0.1629009,0-0.3157005-0.0633965-0.4308004-0.1784973
	l-7.7564001-7.7562008c-0.1150999-0.1151009-0.1784-0.2677002-0.1784-0.4304008c0-0.162899,0.0633001-0.3157997,0.1784-0.4305992
	c0.1150002-0.1151009,0.2680001-0.1788006,0.4308-0.1788006c0.1627002,0,0.3157001,0.0636997,0.4308,0.1788006l1.2927003,1.2922001
	l2.5849996,2.5853004c0.0002003,0,0.0002003,0,0.0004005,0.0002995c0.0001993,0.0002995,0.0002995,0.0002995,0.0003996,0.0004997
	l2.5852003,2.5848007l1.2925997,1.292799C14.6545,32.5755005,14.6545,32.962101,14.4169998,33.199501z M11.8319998,28.0291004
	L31.4967003,8.3646002c0.2381992-0.2378006,0.2381992-0.6239004,0-0.8618002c-0.2380009-0.2381001-0.6240005-0.2381001-0.8621006,0
	L10.9699001,27.1671009l-1.7233-1.7235012L32.6458015,2.0448999l4.0210991-0.5746l-4.3086014,4.3088999
	c-0.2380981,0.2381001-0.2380981,0.6238999,0,0.862C32.4772987,6.7600002,32.6332016,6.8195,32.789299,6.8195
	c0.1561012,0,0.3120995-0.0594997,0.4312019-0.1782999L37.5289001,2.3325l-0.5742989,4.0211L13.5551996,29.7523003
	L11.8319998,28.0291004z M20.3924007,24.7005997c-0.0102005-0.0105991-0.021101-0.0194988-0.0320015-0.0292988l1.7264004-1.7258015
	c0.0094013,0.0102997,0.0186996,0.0216007,0.0289001,0.031601l5.052,5.0516987L25.4442997,29.7521L20.3924007,24.7005997z
	 M25.4442997,33.199501c-0.115099,0.1151009-0.2679996,0.1784973-0.4307995,0.1784973
	c-0.1627007,0-0.3157005-0.0633965-0.4307995-0.1784973c-0.2376003-0.2374001-0.2376003-0.6236,0-0.8610992l1.2926998-1.2930012
	l2.5851994-2.5848007c0.0000992-0.0002003,0.0002003-0.0002003,0.0002995-0.0004997
	c0.0001011-0.0002995,0.0003014-0.0002995,0.0003014-0.0002995l2.5851994-2.5853004l1.2926998-1.2922001
	c0.1151009-0.1151009,0.2680016-0.1788006,0.4308014-0.1788006c0.1626968,0,0.3155975,0.0636997,0.4306984,0.1788006
	c0.1151009,0.1147995,0.1784019,0.2677002,0.1784019,0.4305992c0,0.1627007-0.0633011,0.3153-0.1784019,0.4304008
	L25.4442997,33.199501z M31.0461998,29.3220005l4.4020996,4.4020977l-1.7233009,1.7235031l-4.4021988-4.402401
	L31.0461998,29.3220005z M37.6030998,35.0167007l-2.5854988,2.5854988
	c-0.1151009,0.1148987-0.2681007,0.1785011-0.4308014,0.1785011s-0.3157005-0.0636024-0.4308014-0.1785011
	c-0.115097-0.1151009-0.1783981-0.2682991-0.1783981-0.4309006c0-0.1627007,0.0633011-0.3157997,0.1783981-0.4309006
	l2.5855026-2.5852966c0.1149979-0.1152,0.2679977-0.1783028,0.4307976-0.1783028
	c0.1627007,0,0.3157005,0.0631027,0.4308014,0.1783028c0.1150017,0.115097,0.1784019,0.2679977,0.1784019,0.4305992
	C37.7815018,34.7486992,37.7181015,34.9017982,37.6030998,35.0167007z"/>
</svg>
