<svg id="Режим_изоляции" width="337.61" height="439.9" version="1.1" viewBox="0 0 337.61063 439.89899" xmlns="http://www.w3.org/2000/svg">
 <style>.st0{fill:#ed1c24}.st1{fill:#ffd077}.st2{fill:#ffe200}.st3{fill:#d77827}.st4{fill:#ffca31}.st5{fill:#ffd144}.st6{fill:#fbab1f}.st7{fill:#feebab}.st8{opacity:.1;fill:#1e0d0d}.st9{fill:#ffc714}.st10{opacity:.1}.st11{fill:#1e0d0d}.st12{fill:#fff}.st13{fill:#181617}.st14{fill:#f05323}.st15{fill:#f99f1c}</style>
 <path class="st0" d="m321.72 34.283c3.735 1.4 1.605 28.567-3.973 33.372-5.578 4.808-1.976-29.906-1.976-29.906l5.948-3.466z" fill="#ed1c24"/>
 <path class="st1" d="m193.44 40.687 0.186 2.824-2.406 15.347-29.144-10.725-1.808-27.38z" fill="#ffd077"/>
 <path class="st2" d="m319.6-1.431-30.109 44.292 0.577 2.409 13.411 55.127-0.743 0.82-0.072 0.059-49.815 53.277-47.194-17.5-0.036 9e-3 -1.09-0.408 3.723-27.633 17.156 8.79 66.363-36.404-18.335-53.11-0.196-2.981 44.922-28.384c0.986-0.603 2.004-0.736 2.822-0.42z" fill="#ffe200"/>
 <path class="st3" d="m193.62 43.511-1.823 15.561-0.362 3.16-29.178-11.275-1.867-28.244 32.753 20.479zm96.109 2.984 14.113 59.42-50.547 55.444-48.38-18.822 3.67-28.46 17.181 9.193 66.324-37.02-18.657-57.968 48.01-30.933z" fill="#d77827"/>
 <path class="st2" d="m322.95-0.825 0.055 0.825a519.6 519.6 0 0 0 -2.282 12.645l-0.325 1.994-3.207 4.98c-1.714 10.31-5.803 37.596-7.07 69.047-0.175 4.269-0.304 8.647-0.433 13.025l1.512 6.761-1.705 1.818c-0.625 33.684 0.196 65.694 0.196 65.694s3.367-0.832 3.708 4.344l0.062 0.942c-1.515 16.761-62.527 44.983-138.38 63.76l-13.006-196.88 29.144 10.725 0.583 0.214 22.092 8.126 0.388 5.884-6.027 35.939-3.723 27.633 1.09 0.408 0.036-0.01 47.194 17.5 49.815-53.276 0.072-0.058 0.743-0.821-9.69-36.792-3.91-14.86-0.388-5.884 30.11-44.292 1.383-2.057c1.087 0.33 1.873 1.29 1.963 2.663z" fill="#ffe200"/>
 <path class="st4" d="m323 0a519.6 519.6 0 0 0 -2.282 12.645l-0.325 1.994-3.207 4.98c-1.714 10.31-5.803 37.596-7.07 69.047-0.175 4.269-0.304 8.647-0.433 13.025l1.512 6.761-1.705 1.818c-0.486 25.437-0.125 49.906 0.11 60.373 0.037 3.42 0.086 5.32 0.086 5.32s3.367-0.831 3.708 4.345l0.062 0.942c0.124 1.883 0.216 3.255 0.306 4.031 0.07 0.5 0.089 0.776 0.089 0.776 0.667 10.12-22.005 24.823-57.329 39.11-22.734 9.175-50.724 18.218-81.058 25.729l-13.005-196.88 29.142 10.727 21.547 7.94 1.13 0.4-4.926 36.502-0.61 4.576-0.103 0.744-2.986 22.148-0.738 5.485 48.32 17.9 36.82-39.376 13.81-14.781-0.057-0.306-1.146-4.7-12.785-52.53 0.277-0.428 0.486-0.678z" fill="#ffca31"/>
 <path class="st5" d="m317.19 19.618c-1.714 10.312-5.803 37.597-7.07 69.048-0.175 4.269-0.304 8.647-0.433 13.025l-11.635-52.417z" fill="#ffd144"/>
 <path class="st6" d="m309.69 175.96c0.203 3.06 4.388 12.31-69.978 39.81l-0.038 9e-3c-17.18 6.367-38.518 13.681-65.064 22.128l-11.545-174.75 43.018 15.862-9.367 69.418 57.556 21.313 7.38-7.968 47.842-51.512c-0.625 33.684 0.196 65.694 0.196 65.694z" fill="#fbab1f"/>
 <path class="st7" d="m313.4 180.31c-2.004 4.763-20.112 16.661-47.875 29.715-24.22 11.417-55.797 23.7-90.582 32.908l-0.33-5.02c26.584-8.455 47.957-15.78 65.1-22.137l0.038-0.01c74.33-27.49 70.144-36.74 69.941-39.8 0 0 3.367-0.832 3.708 4.344z" fill="#feebab"/>
 <path class="st1" d="m130.75 56.206 0.185 2.825 4.325 13.68 26.812-24.578-1.808-27.38z" fill="#ffd077"/>
 <path class="st2" d="m3.1696 76.906 34.898 28.2-0.246 2.61-5.814 59.888 0.828 0.432 0.076 0.02 55.138 27.296 43.4-39.929 0.035-9e-3 1.003-0.925-7.195-24.93-15.461 16.864-68.961-2.901 10.84-60.333-0.196-2.982-47.165-5.586c-1.034-0.103-2.036 0.264-2.788 0.97z" fill="#ffe200"/>
 <path class="st3" d="m130.93 59.031 3.788 14.172 0.76 2.881 26.776-25.127-1.867-28.244-29.037 35.775zm-92.627 49.707-5.935 64.384 56.127 29.035 44.377-41.786-7.25-25.755-15.435 17.267-69.001-3.52 10.52-65.189-50.486-6.549z" fill="#d77827"/>
 <path class="st2" d="m0.0086207 79.124 0.054 0.824a395.69 395.69 0 0 1 3.853 11.126c0.191 0.591 0.383 1.181 0.573 1.772l3.75 3.258c3 9.144 10.505 33.56 15.82 63.382 0.724 4.044 1.418 8.219 2.111 12.393l-0.583 7.28 1.887 0.93c4.984 32.294 8.35 63.675 8.35 63.675s-3.367 0.833-3.025 6.01l0.062 0.942c3.646 15.484 66.362 13.074 142.22-5.705l-13.005-196.88-26.812 24.578-0.537 0.492-20.325 18.626 0.388 5.885 10.507 31.844 7.195 24.93-1.003 0.926-0.036 0.01-43.4 39.928-55.137-27.295-0.076-0.02-0.828-0.433 4.597-40.33 1.852-16.286-0.39-5.882-34.897-28.2-1.608-1.315c-1.007 0.847-1.644 2.16-1.553 3.533z" fill="#ffe200"/>
 <path class="st4" d="m0.062621 79.948a395.69 395.69 0 0 1 3.853 11.126c0.191 0.591 0.383 1.181 0.573 1.772l3.75 3.258c3 9.144 10.505 33.56 15.82 63.382 0.724 4.044 1.418 8.219 2.111 12.393l-0.583 7.28 1.887 0.93c4.984 32.294 8.35 63.675 8.35 63.675s-3.367 0.833-3.025 6.01l0.062 0.942c0.125 1.883 0.215 3.256 0.23 4.05-5e-3 0.52 0.013 0.794 0.013 0.794 1.1 16.632 64.864 14.521 142.36-4.664l-13.005-196.88-26.812 24.578-19.82 18.183-1.043 0.937 9.513 32.928 1.187 4.13 0.196 0.67 5.767 19.981 1.428 4.95-44.439 40.863-40.752-20.171-15.29-7.578 0.018-0.323 0.498-5.107 5.545-57.069-0.323-0.278-0.56-0.42z" fill="#ffca31"/>
 <path class="st5" d="m8.2386 96.104c3 9.144 10.505 33.56 15.82 63.382 0.724 4.044 1.418 8.219 2.111 12.393l4.449-56.398z" fill="#ffd144"/>
 <path class="st8" d="m28.552 118.36-18.274-15.822a356.81 356.81 0 0 0 -2.039 -6.434l22.38 19.377-4.449 56.398c-0.413-2.486-0.837-4.924-1.257-7.383z" fill="#1e0d0d" opacity=".1"/>
 <path class="st9" d="m35.823 243.76s-3.365-31.381-8.35-63.675l61.176 30.662 52.934-48.666-18.089-62.62 39.57-36.308 11.543 174.74c-142.9 25.41-138.53 9.628-138.78 5.863z" fill="#ffc714"/>
 <path class="st10 st11" d="m141.76 164.78-52.932 48.666-60.927-30.538c-0.143-0.942-0.282-1.878-0.427-2.821l61.175 30.662 52.458-48.23 0.653 2.26zm-18.265-65.318 39.568-36.307 0.18 2.697-39.095 35.872z" fill="#1e0d0d" opacity=".1"/>
 <path class="st7" d="m35.823 243.76c0.25 3.765-4.116 19.547 138.78-5.863l0.332 5.03c-74.7 17.219-137.32 13.624-142.14 6.844-0.342-5.178 3.024-6.011 3.024-6.011z" fill="#feebab"/>
 <path class="st8" d="m206.08 79.019-43.018-15.862 0.18 2.697 42.5 15.672z" fill="#1e0d0d" opacity=".1"/>
 <path class="st6" d="m317.19 19.618c-1.714 10.312-5.803 37.597-7.07 69.048-0.175 4.269-0.304 8.647-0.433 13.025l-11.635-52.417z" fill="#fbab1f"/>
 <g fill="#ed1c24">
  <path class="st0" d="m188.08 97.888c0.856 12.959-8.468 25.944-20.822 29.003-12.358 3.06-23.069-4.966-23.925-17.925-0.855-12.959 8.467-25.944 20.824-29.002 12.356-3.06 23.066 4.965 23.923 17.924z"/>
  <path class="st0" d="m183.2 99.095c0.669 10.135-6.622 20.29-16.285 22.683-9.666 2.393-18.042-3.884-18.712-14.02-0.67-10.135 6.622-20.29 16.287-22.682 9.663-2.392 18.041 3.883 18.71 14.019zm132.16-67.544c-7.246 10.094-9.038 32.832-4.415 41.965l6.8-5.86s-1.752-2.552-0.961-14.543c0.792-11.99 4.933-18.83 4.933-18.83zm-309.61 80.955c-3.433 3.176 2.16 28.428 8.183 30.363 6.024 1.936-1.976-29.907-1.976-29.907z"/>
  <path class="st0" d="m11.555 106.76c8.326 6.239 13.014 27.372 9.728 38.465l-7.343-2.36s1.365-3.324-0.96-14.543c-2.325-11.218-7.223-15.82-7.223-15.82l5.799-5.742z"/>
 </g>
 <path class="st12" d="m13.32 439.9v-127.34c0-36.283 18.327-60.246 113.14-81.468 94.815-21.224 128.28-27.386 156.17-34.232 27.886-6.846 54.977-10.953 54.977-44.5v164.31c0 32.863-43.026 38.339-98.005 52.715-54.977 14.377-226.29 34.23-226.29 70.517z" fill="#fff"/>
 <path class="st13" d="m13.32 448.9v-127.34c0-36.283 18.327-60.246 113.14-81.468 94.815-21.224 128.28-27.386 156.17-34.232 27.886-6.846 54.977-10.953 54.977-44.5v164.31c0 32.863-43.026 38.339-98.005 52.715-54.977 14.377-226.29 34.23-226.29 70.517z" fill="#181617"/>
 <path class="st12" d="m77.125 297.11 27.18 38.796 18.83-50.646c2.28-4.825 7.261-7.875 14.271-9.698 8.188-2.13 13.342 0.473 13.574 6.677 0.079 2.15-0.327 4.984-1.558 8.032l-30.053 69.836c-2.93 7.293-6.678 10.864-13.36 12.604-6.519 1.695-10.11 0.17-13.165-4.89l-40.326-56.547c-0.897-1.53-1.655-3.783-1.73-5.813-0.233-6.333 5.61-12.478 13.626-14.564 6.014-1.565 9.464 0.398 12.71 6.213zm112.46-20.453 1.623 65.768c0.248 10.09-4.124 15.871-13.629 17.564-9.502 1.69-14.117-2.494-14.367-12.586l-1.62-65.765c-0.251-10.09 4.114-15.862 13.62-17.553 9.506-1.69 14.124 2.478 14.373 12.572zm59.244-25.428c28.163-5.009 45.404 4.428 45.881 23.682 0.482 19.524-14.945 34.374-42.078 39.201l-18.831 3.352 0.391 15.979c0.255 10.093-4.119 15.873-13.625 17.566-9.505 1.687-14.124-2.494-14.37-12.584l-1.591-64.328c-0.255-10.346 3.435-15.611 18.985-18.377l25.238-4.49zm-15.504 46.977 12.096-2.152c12.79-2.276 19.074-7.604 18.873-15.734-0.206-8.381-6.52-11.072-19.479-8.767l-12.094 2.15z" fill="#fff"/>
</svg>
