<svg width="1920.7" height="1095.8" version="1.1" viewBox="0 0 1920.699 1095.8096" xmlns="http://www.w3.org/2000/svg">
 <path fill="#6083ab" d="m1918 79.143q23 64-150 294-24 32-65 85-40 51-55 72t-30.5 49.5-12 42 13 34.5 32.5 43 57 53q4 2 5 4 141 131 191 221 3 5 6.5 12.5t7 26.5q3.5 19-0.5 34t-25 27.5-59 12.5l-256 4q-24 5-56-5t-52-22l-20-12q-30-21-70-64-40-43-68.5-77.5t-61-58-56.5-15.5q-3 1-8 3.5t-17 14.5-21.5 29.5-17 52-6.5 77.5q0 15-3.5 27.5t-7.5 18.5l-4 5q-18 19-53 22h-115q-71 4-146-16.5t-131.5-53q-56.5-32.5-103-66t-70.5-57.5l-25-24q-10-10-27.5-30t-71.5-91-106-151-122.5-211-130.5-272q-6-16-6-27 0-11 3-16l4-6q15-19 57-19l274-2q12 2 23 6.5t16 8.5l5 3q16 11 24 32 20 50 46 103.5t41 81.5l16 29q29 60 56 104t48.5 68.5 41.5 38.5 34 14 27-5q2-1 5-5t12-22 13.5-47 9.5-81 0-125q-2-40-9-73t-14-46l-6-12q-25-34-85-43-13-2 5-24 16-19 38-30 53-26 239-24 82 1 135 13 20 5 33.5 13.5t20.5 24 10.5 32 3.5 45.5q0 29-1 55t-2.5 70.5-1.5 82.5q0 11-1 42t-0.5 48 3.5 40.5 11.5 39 22.5 24.5q8 2 17 4t26-11 38-34.5 52-67 68-107.5q60-104 107-225 4-10 10-17.5t11-10.5l4-3 5-2.5 13-3 20-0.5 288-2q39-5 64 2.5t31 16.5z"/>
</svg>
