<svg xmlns="http://www.w3.org/2000/svg" viewBox="4219 1705.956 68.583 105.069">
  <defs>
    <style>
      .cls-1 {
        fill: #8b427b;
      }

      .cls-2 {
        fill: #fff;
      }
    </style>
  </defs>
  <g id="Group_8" data-name="Group 8" transform="translate(4219 1705.956)">
    <path id="Path_29" data-name="Path 29" class="cls-1" d="M1077.883,91.333v2.313a11.432,11.432,0,0,1-11.422,11.423h-45.738A11.417,11.417,0,0,1,1009.3,93.646V11.423A11.432,11.432,0,0,1,1020.723,0h45.738a11.432,11.432,0,0,1,11.422,11.423V91.333" transform="translate(-1009.3 0)"/>
    <path id="Path_30" data-name="Path 30" class="cls-2" d="M1095.708,17.9c-22.279,10.455-29.9,18.644-38.4,27.376a17.768,17.768,0,0,0-6.632-4.814,35.36,35.36,0,0,0-7.883-2.6c-.024,0,.26.354.26.307,3.611,4.39,10.785,11.8,15.222,21.972a1.345,1.345,0,0,0,.094.165c10.762-20.627,19.305-28.132,22.94-31.341,3.682-3.634,13.9-10.667,13.9-10.667l.5-.4" transform="translate(-1034.889 -13.676)"/>
    <path id="Path_31" data-name="Path 31" class="cls-2" d="M1033.6,207.9h8.874c3.516,0,6.726,1.227,6.726,5.145a4.761,4.761,0,0,1-3.635,4.7v.071a4.914,4.914,0,0,1,4.437,5.121c0,2.006-.708,5.971-7.528,5.971H1033.6v-21m2.006,9.2h6.891c3.21,0,4.744-1.581,4.744-3.564,0-2.62-1.629-3.941-4.744-3.941h-6.891Zm0,10.077h6.891c2.974.024,5.523-.968,5.523-4.319,0-2.667-2.03-4.059-5.523-4.059h-6.891Z" transform="translate(-1027.865 -158.835)"/>
    <path id="Path_32" data-name="Path 32" class="cls-2" d="M1116.7,207.9h9.605c3.469,0,6.372,1.676,6.372,5.475a5.071,5.071,0,0,1-4.083,5.357v.047c2.738.354,3.54,2.242,3.682,4.744.095,1.44.095,4.319.968,5.381h-2.195a8.613,8.613,0,0,1-.566-3.257c-.165-2.95-.4-6.207-4.2-6.065h-7.576V228.9H1116.7v-21m2.006,9.959h7.481c2.431,0,4.531-1.534,4.531-4.083s-1.534-4.177-4.531-4.177h-7.481Z" transform="translate(-1091.353 -158.835)"/>
    <path id="Path_33" data-name="Path 33" class="cls-2" d="M1211.855,212.8a6.374,6.374,0,0,0-6.443-5.1c-5.546,0-7.906,4.649-7.906,9.228s2.36,9.228,7.906,9.228c3.871,0,6.349-3,6.726-6.726h2.006c-.566,5.145-3.823,8.449-8.732,8.449-6.608,0-9.912-5.216-9.912-10.951S1198.78,206,1205.412,206c3.965,0,7.906,2.384,8.449,6.8h-2.006" transform="translate(-1151.556 -157.383)"/>
    <path id="Path_34" data-name="Path 34" class="cls-2" d="M1036.251,403.143c0-1.086-.212-1.534-.9-1.534-.755,0-.944.755-.944,2.856,0,2.242.307,2.643.944,2.643.543,0,.944-.283.944-1.888h1.487c0,1.6-.4,2.974-2.36,2.974-2.242,0-2.525-1.6-2.525-3.847s.283-3.847,2.525-3.847c2.148,0,2.289,1.558,2.289,2.643h-1.463" transform="translate(-1027.33 -305.981)"/>
    <path id="Path_35" data-name="Path 35" class="cls-2" d="M1061.53,401.1v1.227h-2.643v1.746h2.478V405.3h-2.478v1.982h2.738v1.227H1057.4V401.1h4.13" transform="translate(-1046.048 -306.439)"/>
    <path id="Path_36" data-name="Path 36" class="cls-2" d="M1078.5,401.1h2.761a1.761,1.761,0,0,1,1.982,1.912c0,.991-.4,1.652-1.227,1.817v.024c1.015.142,1.18.684,1.2,2.266,0,.779.047,1.18.33,1.322v.071h-1.628a1.651,1.651,0,0,1-.189-.779l-.047-1.416c-.024-.59-.283-.944-.873-.944h-.8v3.139h-1.487V401.1m1.463,3.257h.614c.708,0,1.133-.307,1.133-1.109a.908.908,0,0,0-1.038-1.015h-.708Z" transform="translate(-1062.168 -306.439)"/>
    <path id="Path_37" data-name="Path 37" class="cls-2" d="M1105.244,401.1v1.227h-1.628v6.183h-1.487v-6.183H1100.5V401.1h4.744" transform="translate(-1078.976 -306.439)"/>
    <rect id="Rectangle_45" data-name="Rectangle 45" class="cls-2" width="1.487" height="7.411" transform="translate(26.975 94.661)"/>
    <path id="Path_38" data-name="Path 38" class="cls-2" d="M1134.6,401.1h4.154v1.227h-2.643v1.746h2.478V405.3h-2.478v3.21h-1.51V401.1" transform="translate(-1105.029 -306.439)"/>
    <rect id="Rectangle_46" data-name="Rectangle 46" class="cls-2" width="1.487" height="7.411" transform="translate(34.457 94.661)"/>
    <path id="Path_39" data-name="Path 39" class="cls-2" d="M1169.028,403.143c0-1.086-.212-1.534-.9-1.534-.755,0-.944.755-.944,2.856,0,2.242.307,2.643.968,2.643.543,0,.944-.283.944-1.888h1.487c0,1.6-.4,2.974-2.36,2.974-2.242,0-2.525-1.6-2.525-3.847s.283-3.847,2.525-3.847c2.148,0,2.289,1.558,2.289,2.643h-1.487" transform="translate(-1128.789 -305.981)"/>
    <path id="Path_40" data-name="Path 40" class="cls-2" d="M1188.883,401.1h1.841l1.959,7.411h-1.558l-.33-1.558h-1.982l-.354,1.558H1186.9l1.982-7.411m.189,4.626h1.463l-.708-3.328h-.024Z" transform="translate(-1144.986 -306.439)"/>
    <path id="Path_41" data-name="Path 41" class="cls-2" d="M1214.244,401.1v1.227h-1.628v6.183h-1.487v-6.183H1209.5V401.1h4.744" transform="translate(-1162.252 -306.439)"/>
    <path id="Path_42" data-name="Path 42" class="cls-2" d="M1236.454,401.1v1.227h-2.667v1.746h2.5V405.3h-2.5v1.982h2.761v1.227H1232.3V401.1h4.154" transform="translate(-1179.671 -306.439)"/>
    <path id="Path_43" data-name="Path 43" class="cls-2" d="M1253.8,401.1h2.454c2.077,0,2.455,1.416,2.455,3.611,0,2.62-.566,3.8-2.549,3.8h-2.36V401.1m1.487,6.325h.661c1.038,0,1.251-.661,1.251-2.667,0-1.676-.141-2.549-1.274-2.549h-.637Z" transform="translate(-1196.097 -306.439)"/>
    <path id="Path_44" data-name="Path 44" class="cls-2" d="M1033.3,307.8h11.045v3.28h-7.057v4.649h6.655v3.257h-6.655v8.591H1033.3V307.8" transform="translate(-1027.636 -235.158)"/>
    <path id="Path_45" data-name="Path 45" class="cls-2" d="M1092.626,306.2c5.995,0,6.726,4.272,6.726,10.29s-.755,10.29-6.726,10.29-6.726-4.272-6.726-10.29c0-6.042.732-10.29,6.726-10.29m0,17.606c2.36,0,2.738-2.03,2.738-7.34,0-5.286-.378-7.34-2.738-7.34s-2.738,2.053-2.738,7.34C1089.888,321.8,1090.266,323.806,1092.626,323.806Z" transform="translate(-1067.822 -233.936)"/>
    <path id="Path_46" data-name="Path 46" class="cls-2" d="M1157.926,306.2c5.995,0,6.726,4.272,6.726,10.29s-.755,10.29-6.726,10.29c-5.995,0-6.726-4.272-6.726-10.29,0-6.042.732-10.29,6.726-10.29m0,17.606c2.36,0,2.738-2.03,2.738-7.34,0-5.286-.378-7.34-2.738-7.34s-2.738,2.053-2.738,7.34C1155.188,321.8,1155.566,323.806,1157.926,323.806Z" transform="translate(-1117.711 -233.936)"/>
    <path id="Path_47" data-name="Path 47" class="cls-2" d="M1219,307.8h6.537c5.546,0,6.537,3.8,6.537,9.605,0,7.009-1.487,10.172-6.8,10.172H1219V307.8m3.988,16.851h1.77c2.761,0,3.328-1.746,3.328-7.127,0-4.484-.354-6.8-3.4-6.8h-1.7Z" transform="translate(-1169.51 -235.158)"/>
  </g>
</svg>
