<svg xmlns="http://www.w3.org/2000/svg" viewBox="4216 1847.583 74.99 98.41">
  <defs>
    <style>
      .cls-1 {
        fill-rule: evenodd;
      }
    </style>
  </defs>
  <g id="Group_9" data-name="Group 9" transform="translate(4216 1847.583)">
    <g id="Group_3" data-name="Group 3" transform="translate(0 0)">
      <path id="Path_20" data-name="Path 20" d="M553.885,656.8v31.423c0,2.776,1.8,5.443,7.07,5.768,7.72.477,13.077-2.689,17.089-8.089l.455.455-4.662,9.867H540.787v-.781s3.34.065,5.183-1.822c1.128-1.149,1.063-2.971,1.063-4.359v-26.24a5.13,5.13,0,0,0-1.865-4.1,7.228,7.228,0,0,0-4.467-1.344V656.8Z" transform="translate(-521.833 -638.584)"/>
      <path id="Path_21" data-name="Path 21" d="M625.626,689.758c-1.128-3.188-2.819-8.306-4.771-10.691a8.945,8.945,0,0,0-2.559-1.93c-.3-.173-.282-.52.087-.629a17.462,17.462,0,0,0,3.795-1.713c2.385-1.5,4.836-3.513,4.879-8.241.043-5.053-2.537-7.46-4.9-8.544a17.9,17.9,0,0,0-7.438-1.41H609.6v.781a14.1,14.1,0,0,1,6.354,1.3c1.93,1,4.532,2.841,4.532,7.894s-2.6,6.874-4.532,7.894a14.1,14.1,0,0,1-6.354,1.3v.672c1.973.152,3.1.5,4.359,2.147,1.778,2.364,2.863,6.9,5.7,13.272A20.791,20.791,0,0,0,625.626,689.758Z" transform="translate(-575.792 -638.427)"/>
      <path id="Path_22" data-name="Path 22" d="M679.155,852.688a34.637,34.637,0,0,1-5.031-8.588H667.9c3.708,6.462,6.094,8.523,8.87,10.518a27.97,27.97,0,0,0,14.7,4.793l.239-.737A16.341,16.341,0,0,1,679.155,852.688Z" transform="translate(-621.449 -785.266)"/>
      <path id="Path_23" data-name="Path 23" d="M507.98,643.583a28.95,28.95,0,0,1-2.342-1.843,28.963,28.963,0,0,1-15.332,4.055c-16.221,0-28.951-15.549-28.452-34.7.5-19.17,10.8-34.7,30.273-34.7,16.221,0,28.951,15.527,28.452,34.7-.26,10.236-3.34,19.43-9.086,25.784.5.737,1.019,1.431,1.561,2.125a14.9,14.9,0,0,0,1.822,1.865,38.582,38.582,0,0,0,13.814-29.731c0-21.165-16.785-38.341-37.495-38.341S453.7,589.975,453.7,611.141s16.785,38.341,37.495,38.341a36.569,36.569,0,0,0,18.325-4.9C508.609,644.016,508.066,643.626,507.98,643.583Z" transform="translate(-453.7 -572.8)"/>
    </g>
    <rect id="Rectangle_43" data-name="Rectangle 43" width="74.599" height="0.651" transform="translate(0.217 82.905)"/>
    <rect id="Rectangle_44" data-name="Rectangle 44" width="74.599" height="0.651" transform="translate(0.217 97.76)"/>
    <g id="Group_4" data-name="Group 4" transform="translate(20.19 86.374)">
      <path id="Path_24" data-name="Path 24" class="cls-1" d="M547.993,976.064h3.578v3.578h1.171V971.9h-1.171v3.123h-3.578V971.9H546.8v7.742h1.193Z" transform="translate(-546.8 -971.726)"/>
      <path id="Path_25" data-name="Path 25" class="cls-1" d="M583.56,973.093h.173l.173.889,1.193,2.841h-1.54v.911h1.908l.781,1.93h1.193l-3.318-7.72h-.564ZM582,976.8l1.431-3.708h.13V971.9h-.542l-3.318,7.72h1.149l.824-1.908h1.865V976.8Z" transform="translate(-572.565 -971.726)"/>
      <path id="Path_26" data-name="Path 26" class="cls-1" d="M685.881,972.861a1.276,1.276,0,1,1,0,2.537v1.041h.087a2.173,2.173,0,0,0,2.385-2.429,2.287,2.287,0,0,0-2.429-2.212h-.043Zm-1.41,0h1.41V971.8H683.3v7.764h1.193v-3.123h1.41V975.4h-1.41v-2.537Z" transform="translate(-653.699 -971.647)"/>
      <path id="Path_27" data-name="Path 27" class="cls-1" d="M624.668,972.509l.022-1a4,4,0,0,0-5.79,3.535c0,3.557,3.144,4.706,5.79,3.925v-1.149a3.2,3.2,0,0,1-4.6-2.776C620.071,972.617,622.717,971.576,624.668,972.509Z" transform="translate(-603.264 -971.099)"/>
      <path id="Path_28" data-name="Path 28" class="cls-1" d="M656.168,972.509l.022-1a4,4,0,0,0-5.79,3.535c0,3.557,3.145,4.706,5.79,3.925v-1.149a3.2,3.2,0,0,1-4.6-2.776C651.571,972.617,654.217,971.576,656.168,972.509Z" transform="translate(-627.933 -971.099)"/>
    </g>
  </g>
</svg>
