<svg xmlns="http://www.w3.org/2000/svg" viewBox="4167 1971.54 171.31 66.898">
  <defs>
    <style>
      .cls-1 {
        fill: #076333;
        fill-rule: evenodd;
      }
    </style>
  </defs>
  <g id="Group_7" data-name="Group 7" transform="translate(4167 1971.54)">
    <path id="Path_10" data-name="Path 10" class="cls-1" d="M18.123,151.8c-10.537,7.7-29.19,27.915-9.349,37.857,19.864,9.943,59.833-1.562,81.214-14.232-23.251,11.175-54.531,15.2-72.481,7.149S8.356,159.763,18.123,151.8Z" transform="translate(-0.024 -126.523)"/>
    <path id="Path_11" data-name="Path 11" class="cls-1" d="M73.8,139.845h3.146c.9,0,1.76.264,1.76,1.166,0,2.508-1.3,4.091-3.806,4.091H73.8v5.851h.22c5.675,0,12.274-4.069,12.274-9.349v-1.452c0-2.64-1.76-2.882-1.76-3.52,0-.792,4.685-3.915,4.685-7.017v-.594c0-5.5-5.1-4.971-10.537-4.971H73.778v5.873l6.071-.022a1.12,1.12,0,0,1,1.166,1.166v.286c0,1.452-1.694,2.64-3.52,2.64h-3.74v5.851Zm-3.344,0H73.8v-5.851H72.128l1.32-4.048h.33v-5.873H63.2c.836,1.144,3.52.836,3.52,3.806l-.33,1.166L59.7,150.976H73.8v-5.851l-4.905-.044Z" transform="translate(-46.573 -104.868)"/>
    <path id="Path_12" data-name="Path 12" class="cls-1" d="M138.1,54.38c20.9-9.327,53.871-16.872,72.789-7.347,13.044,6.555,13.858,15.31,6.445,24.043,10.493-8.447,15.222-23.075-.352-30.554C195.821,30.359,157.92,43.645,138.1,54.38Z" transform="translate(-107.727 -36.89)"/>
    <path id="Path_13" data-name="Path 13" class="cls-1" d="M369.388,139.027c.11,6.181,2.134,9.349,9.7,9.349s15.332-4.861,16.894-11.109h-7.611c-.066,2.508-4.025,5.917-6.731,5.851-2.772-.088-4.18-.748-4.378-3.806-.352-4.993,4.224-13.748,9.063-13.748,3.19,0,4.685.748,4.685,4.091h7.325c1.452-6.225-1.914-9.459-8.469-9.679a21.843,21.843,0,0,0-9.855,2.508C374.183,125.7,369.234,131.724,369.388,139.027Z" transform="translate(-288.135 -101.695)"/>
    <path id="Path_14" data-name="Path 14" class="cls-1" d="M517.6,166.879a2.785,2.785,0,0,1,.572-.088c2.09,0,2.882,1.122,2.288,2.926l-2.86.044v4.048h8.381c2.86-4.861,1.144-11.109-5.477-11.109a15.226,15.226,0,0,0-2.926.264v3.916Zm0,14.276v-5.1a5.55,5.55,0,0,0,.616-.77h7.127A13.544,13.544,0,0,1,517.6,181.156Zm-3.058-11.351a4.923,4.923,0,0,1,3.058-2.926v-3.916a15.507,15.507,0,0,0-6.621,3.08c-1.694,1.276-4.553,4.971-4.8,8.359-.33,4.839,1.76,6.929,6.731,7.3a13.375,13.375,0,0,0,4.685-.55v-5.1c-2.2,2.288-5.191,1.034-4.4-2.244h4.4v-4.048Z" transform="translate(-394.814 -135.025)"/>
    <path id="Path_15" data-name="Path 15" class="cls-1" d="M264.391,167.385a2,2,0,0,1,1.012-.308c.968,0,2.64.11,2.64,1.452,0,2.53-.99,6.863-3.63,8.293v4.619a12.338,12.338,0,0,0,6.181-3.322c2.882-2.6,5.653-7.083,4.311-11.065-1.034-3.036-3.784-4.355-7.457-4.355a13.069,13.069,0,0,0-3.058.374Zm-3.63,7.017c0-2.266,1.782-5.939,3.63-7.017v-4.333c-5.807,1.386-10.691,6.511-10.691,11.923,0,4.883,3.344,6.731,7.9,6.731a15.366,15.366,0,0,0,2.794-.242v-4.619a.781.781,0,0,1-.2.088C261.509,178.23,260.761,176.668,260.761,174.4Z" transform="translate(-197.898 -135.025)"/>
    <path id="Path_16" data-name="Path 16" class="cls-1" d="M712.24,146.679l-1.76,4.971h2.046c-.242,2.838-2.926,7.193-2.926,9.943v1.166c1.43.506,1.012,1.76,3.52,1.76h5.521l1.21-4.377H718.4a1.12,1.12,0,0,1-1.166-1.166,19.7,19.7,0,0,1,1.21-3.762c.506-1.078.726-3.564,1.716-3.564l3.454-.022,1.21-4.949-3.564-.022,1.518-5.257h-7.611a5,5,0,0,1-.286,3.52C714.241,146.811,714.747,146.679,712.24,146.679Z" transform="translate(-553.513 -118.411)"/>
    <path id="Path_17" data-name="Path 17" class="cls-1" d="M619.5,166.046v-1.76h-8.491c.506.44,1.452.924,1.452,1.76,0,.44-2.2,7.017-2.53,7.985-.33.9-2.706,7.831-2.728,8.1h7.3a69.189,69.189,0,0,1,2.222-7.721c1.8-4.685,5.169-5.015,8.821-4l1.848-6.4h-2.64C622.092,164,620.926,165.672,619.5,166.046Z" transform="translate(-473.638 -136.039)"/>
    <path id="Path_18" data-name="Path 18" class="cls-1" d="M195.135,166.324,189.9,183.218h6.973l5.609-17.818-9.107.066Z" transform="translate(-148.132 -137.131)"/>
    <path id="Path_19" data-name="Path 19" class="cls-1" d="M216.5,126.891c0,3.058,1.562,3.212,4.377,3.212,1.65,0,4.883-1.98,5.675-3.872.88-2.134-1.452-3.432-3.344-3.432C220.591,122.8,216.5,124.8,216.5,126.891Z" transform="translate(-168.881 -103.902)"/>
  </g>
</svg>
