<svg xmlns="http://www.w3.org/2000/svg" viewBox="4210 2080.249 86.701 123.751">
  <defs>
    <style>
      .cls-1 {
        fill: none;
        stroke: #000;
        stroke-width: 2px;
      }
    </style>
  </defs>
  <g id="Group_10" data-name="Group 10" transform="translate(4211 2081.249)">
    <path id="Path_48" data-name="Path 48" d="M1027.871,633.528l-11.845-15.253V634.61l11.845,13.089,23.149-33.561V601.346Zm2.461,29.288h-.487l-2.353.027h-.135l-.081-.108-3.245-5.057-.027-.027c0-.027-.027-.027-.027-.054v5.355h-2.758V651.593h2.758v.243l-.027,4.733c1.028-1.055,3.353-3.786,4.3-4.922l.081-.081h1.731l-.379.406-3.84,4.327,4.246,6.112Zm24.907-5.138c-.649-.947-3.083-2.109-3.191-2.164a2.188,2.188,0,0,1-1.244-1.6,1.4,1.4,0,0,1,.487-1.136,2.27,2.27,0,0,1,1.812-.352,2.423,2.423,0,0,1,1.433,1.109l.3.46.162-.514s.271-.757.406-1.082l.081-.189-.189-.108a5.426,5.426,0,0,0-2.948-.73,3.418,3.418,0,0,0-2.515.865,3.669,3.669,0,0,0-1.19,2.434,2.7,2.7,0,0,0,.7,1.974,13.328,13.328,0,0,0,2.488,1.731c.46.27.838.514,1,.622l.135.108a2.189,2.189,0,0,1,.865,1.136,1.561,1.561,0,0,1-.7,1.542,2.646,2.646,0,0,1-2.84-.216,5.035,5.035,0,0,1-.7-.838l-.324-.487-.135.568-.324,1.433-.054.216.189.081a7.84,7.84,0,0,0,2.434.541,6.681,6.681,0,0,0,2.38-.487,3.507,3.507,0,0,0,1.866-2.218A2.927,2.927,0,0,0,1055.239,657.678Zm-39.835-6.112h-1.325v6.788a6.3,6.3,0,0,1-.433,2.109,2.736,2.736,0,0,1-1.082,1.217,4.088,4.088,0,0,1-3.218.081,2.4,2.4,0,0,1-1.136-1.217,5.3,5.3,0,0,1-.433-2.272l.027-6.518v-.243h-.243l-2.191.027h-.243v.243l-.027,6.653a6.3,6.3,0,0,0,.46,2.434,3.748,3.748,0,0,0,1.6,1.785,5.868,5.868,0,0,0,2.948.676h.325a6.132,6.132,0,0,0,2.975-.649,3.81,3.81,0,0,0,1.7-1.866,6.7,6.7,0,0,0,.514-2.758v-6.49Zm29.288,11.548h-.379l-2.677-.027h-.162l-.054-.162-1.19-3.38H1036.5l-1.542,3.38-.081.162h-.162c-.3,0-.811-.027-.838-.027h-.379l.135-.352,4.895-11.25.054-.162h.162l.757.027h.162l.054.135,4.841,11.3Zm-7.87-4.435,3.137-.027-1.487-3.813Zm8.167-59.821a.964.964,0,0,0,.974-.947.947.947,0,0,0-.974-.947.974.974,0,0,0-.892.541,3.52,3.52,0,0,0,.027-1.3h0a.983.983,0,0,0,1.758-.568.947.947,0,0,0-.974-.947,1.012,1.012,0,0,0-.974.838,5.944,5.944,0,0,0-.46-1.109.974.974,0,0,0,.541.162.947.947,0,1,0-.974-.946v.108a6.1,6.1,0,0,0-.784-.865c.054,0,.108.027.162.027a.964.964,0,0,0,.974-.947.947.947,0,0,0-.974-.947.964.964,0,0,0-.974.947,1.132,1.132,0,0,0,.108.433,5.647,5.647,0,0,0-1.082-.514.977.977,0,0,0,.947-.947.974.974,0,0,0-1.947,0,.986.986,0,0,0,.406.784,5.7,5.7,0,0,0-1.623-.162.973.973,0,0,0,.622-.892.947.947,0,0,0-.974-.947.964.964,0,0,0-.974.947.982.982,0,0,0,.73.919,4.556,4.556,0,0,0-1.271.325c-.027.027-.081.027-.108.054a.985.985,0,0,0,.243-.622.974.974,0,0,0-1.947,0,.953.953,0,0,0,.92.947c-.514.189-1,.325-1.46.46a.879.879,0,0,0,.3-.676.947.947,0,0,0-.974-.947.964.964,0,0,0-.974.947.951.951,0,0,0,.73.919c-.649.135-1.082.216-1.082.216V592.07h-.676a2.434,2.434,0,0,0,.974-2.975c-.433-1-1.217-.974-1.6-2a5.285,5.285,0,0,1-.162-1.163,2.333,2.333,0,0,1,.676,0,1.133,1.133,0,0,1,.757.514s.027-1.028,0-2.19c-.324.433-.487.514-.7.568a3.3,3.3,0,0,1-.7.081,2.522,2.522,0,0,1,0-.487,1.565,1.565,0,0,1,.757-1.217h-2.38a1.64,1.64,0,0,1,.757,1.217,2.5,2.5,0,0,1,0,.487,3.5,3.5,0,0,1-.7-.081c-.216-.054-.379-.135-.7-.568-.027,1.163,0,2.19,0,2.19a1.133,1.133,0,0,1,.757-.514,1.569,1.569,0,0,1,.676,0,3.89,3.89,0,0,1-.162,1.163c-.406,1.028-1.163,1-1.6,2a2.452,2.452,0,0,0,.974,2.975h-.676v1.109a10.134,10.134,0,0,1-1.082-.216.982.982,0,0,0,.73-.919.947.947,0,0,0-.974-.947.964.964,0,0,0-.974.947.879.879,0,0,0,.3.676c-.46-.135-.947-.27-1.46-.46a.953.953,0,0,0,.919-.947.974.974,0,0,0-1.947,0,.857.857,0,0,0,.243.622c-.027-.027-.081-.027-.108-.054a3.962,3.962,0,0,0-1.271-.325.946.946,0,0,0-.243-1.866.949.949,0,0,0-.352,1.839,6.742,6.742,0,0,0-1.622.162.986.986,0,0,0,.406-.784.974.974,0,1,0-1,.947,5.433,5.433,0,0,0-1.055.514.793.793,0,0,0,.108-.433.947.947,0,0,0-.974-.946.947.947,0,1,0,0,1.893.343.343,0,0,0,.162-.027,6.109,6.109,0,0,0-.784.865v-.108a.974.974,0,0,0-1.947,0,.947.947,0,0,0,.974.947.975.975,0,0,0,.541-.162,8.568,8.568,0,0,0-.46,1.109.975.975,0,1,0-.974,1.055,1.044,1.044,0,0,0,.784-.379h0a3.524,3.524,0,0,0,.027,1.3.974.974,0,0,0-.892-.541.964.964,0,0,0-.974.947.947.947,0,0,0,.974.947.974.974,0,0,0,.974-.892c.135.595.325,1.136.379,1.352v.162a1.021,1.021,0,0,0-.73-.325.964.964,0,0,0-.974.947.947.947,0,0,0,.974.947.8.8,0,0,0,.27-.054c-.135.189-.189.352-.379.622l2.677,6.382-.514,1.136,1.028.46.433.919c.568-.189,3.759-1.839,10.709-1.839,6.977,0,10.141,1.65,10.709,1.839l.433-.919,1.028-.46-.514-1.136,2.677-6.382c-.162-.243-.243-.406-.379-.622a.929.929,0,0,0,1.244-.892.947.947,0,0,0-.974-.947,1.021,1.021,0,0,0-.73.325v-.162a12.65,12.65,0,0,0,.379-1.352A.858.858,0,0,0,1044.989,598.858Zm-16.659-8.438-.027-.649a2.359,2.359,0,0,1,.676-.216,6.575,6.575,0,0,1,.838-.108v-1.433h.649v1.433a6.563,6.563,0,0,1,.838.108,3.247,3.247,0,0,1,.676.216l-.027.649a3.6,3.6,0,0,0-.757-.162c-.3-.027-.7-.054-1.028-.054s-.757.027-1.055.054A3.214,3.214,0,0,0,1028.33,590.421Zm2.948,1.893v6h-.243v-6Zm-1.163,4.435a.566.566,0,0,1-.568-.541.549.549,0,0,1,.568-.541.566.566,0,0,1,.568.541A.549.549,0,0,1,1030.115,596.749Zm.568.784a.549.549,0,0,1-.568.541.566.566,0,0,1-.568-.541.549.549,0,0,1,.568-.541A.518.518,0,0,1,1030.683,597.533Zm-.568-2.082a.566.566,0,0,1-.568-.541.549.549,0,0,1,.568-.541.566.566,0,0,1,.568.541A.549.549,0,0,1,1030.115,595.451Zm0-1.3a.566.566,0,0,1-.568-.541.549.549,0,0,1,.568-.541.566.566,0,0,1,.568.541A.549.549,0,0,1,1030.115,594.153Zm0-1.325a.566.566,0,0,1-.568-.541.549.549,0,0,1,.568-.541.566.566,0,0,1,.568.541A.549.549,0,0,1,1030.115,592.828Zm-.892-.514v6h-.243v-6Zm-9.844,16.983-.838-.3.324-.838.838.3Zm8.87-4.327a2.689,2.689,0,0,1-2.786.189,2.842,2.842,0,0,1-1.433-1.3,1.4,1.4,0,0,1-.081-1.271.531.531,0,0,1,.676-.189.539.539,0,0,1,.027.919,1.333,1.333,0,0,0,1.136-2.028,1.379,1.379,0,0,0-2.326.243,3.33,3.33,0,0,0-1.569-3.137,3.267,3.267,0,0,0,.162,3.489,1.339,1.339,0,0,0-2.082.865,1.2,1.2,0,0,0,1.758,1.217.525.525,0,0,1-.352-.838.625.625,0,0,1,.757-.108c.433.216.487.811.487,1.19a1.962,1.962,0,0,1-.568,1.325,2.528,2.528,0,0,1-1.893.7c-1.217-.081-2.109-1.65-1.812-1.812.622-.27,1.433.7,1.893,1.352l.3-.108c0-.027-2.028-4.949-2.164-5.246l-.3.189a3.525,3.525,0,0,1,.081,2.164c-.216.46-.541.757-.622.054a4.332,4.332,0,0,1,.568-2.867c-.27-.946-1.514-2.515-.487-4.922a4.662,4.662,0,0,1,5.9-2.326,15.916,15.916,0,0,0,4.786,1.433v4.138h-.974v.487a2.846,2.846,0,0,1,2.055,2.515c-.108.108-.784,0-1.406-.487a3.293,3.293,0,0,1-.974-1.542h-.541v5.6h.433a3.4,3.4,0,0,1,1-1.542,1.927,1.927,0,0,1,1.514-.487A3.175,3.175,0,0,1,1028.249,604.97Zm1.866,3.3-1.055-1.028,1.055-1.028,1.055,1.028Zm10.763,1.028-.324-.838.838-.3.325.838Zm1.839-6.436c-.081.7-.433.379-.622-.054a3.335,3.335,0,0,1,.081-2.163l-.3-.189c-.162.3-2.163,5.219-2.163,5.247l.3.108c.433-.649,1.271-1.623,1.893-1.352.3.162-.595,1.731-1.812,1.812a2.528,2.528,0,0,1-1.893-.7,1.962,1.962,0,0,1-.568-1.325c0-.379.054-.974.487-1.19a.593.593,0,0,1,.757.108c.3.379-.108.811-.352.838a1.2,1.2,0,0,0,1.758-1.217,1.324,1.324,0,0,0-2.082-.865,3.325,3.325,0,0,0,.162-3.489,3.383,3.383,0,0,0-1.568,3.137,1.393,1.393,0,0,0-2.326-.243,1.342,1.342,0,0,0,1.136,2.028.539.539,0,0,1,.027-.92.554.554,0,0,1,.676.189,1.388,1.388,0,0,1-.081,1.271,2.842,2.842,0,0,1-1.433,1.3,2.752,2.752,0,0,1-2.786-.189,3.009,3.009,0,0,1-1.136-2.136,2,2,0,0,1,1.515.487,3.557,3.557,0,0,1,1,1.541h.433v-5.6h-.541a3.293,3.293,0,0,1-.974,1.542c-.622.487-1.3.595-1.406.487a2.846,2.846,0,0,1,2.055-2.515v-.487h-.974V594.18a15.922,15.922,0,0,0,4.787-1.433,4.644,4.644,0,0,1,5.9,2.326c1.028,2.407-.216,3.975-.487,4.922A4.492,4.492,0,0,1,1042.718,602.861Z" transform="translate(-987.549 -578.873)"/>
    <path id="Path_49" data-name="Path 49" d="M997.314,896.012l-2.515-5.9-.027-.081h-.541l-.027.081-2.569,5.868-.081.189h.189a3.193,3.193,0,0,1,.433.027h.081l.027-.081.811-1.758h1.947l.622,1.758.027.081h.081l1.406.027h.189Zm-3.191-4.138.784,1.974h-1.623Zm16.01,4.138-2.515-5.9-.027-.081h-.541l-.027.081-2.569,5.868-.081.189h.189a3.193,3.193,0,0,1,.433.027h.081l.027-.081.811-1.758h1.947l.622,1.758.027.081h.081l1.406.027h.189Zm-3.164-4.138.784,1.974h-1.623Zm38.754-1.947v.865h-1.731l.027,5.192v.135h-1.271v-.135l-.027-5.192h-1.893v-.865h4.9Zm-54.709,6.193h-1.325v-.108l-.216-4.084-2.082,4.138-.027.081h-.3l-.027-.081-2-4-.46,3.948v.108H983.9l.027-.135.811-5.9.027-.108h.811l.027.081,2.028,4.354,2.082-4.327.027-.081h.839v.108l.487,5.9Zm37.861,0h-1.325v-.108l-.216-4.084-2.082,4.138-.027.081h-.3l-.027-.081-2-4-.46,3.948v.108h-.676l.027-.135.811-5.9.027-.108h.811l.027.081,2.028,4.354,2.082-4.327.027-.081h.838v.108l.487,5.9Zm-25.042-6.112v6.139h-.919l-.027-.027-3.867-4.273v4.327h-.757v-6.139h.892l.027.054,3.786,4.165v-4.219h.865Zm36.293,0v6.139h-.92l-.027-.027-3.867-4.3v4.3h-.757v-6.139h.892l.027.054,3.786,4.165v-4.219h.865Zm-23.826,3.407v2.434l-.081.027a6.377,6.377,0,0,1-3.786.162,2.9,2.9,0,0,1-1.893-2.245,3.08,3.08,0,0,1,.325-2.326,3.418,3.418,0,0,1,3.245-1.568,4.885,4.885,0,0,1,1.974.406l.081.054-.027.081-.216.73-.081.3-.135-.27a1.721,1.721,0,0,0-1.569-.757,2.265,2.265,0,0,0-1.055.27,2.666,2.666,0,0,0-.974,1,3.168,3.168,0,0,0-.216,2.272,2.988,2.988,0,0,0,.676,1.163,1.918,1.918,0,0,0,1.433.595h.054a1.989,1.989,0,0,0,.974-.243v-2.109h1.271Zm5,1.92v.73h-3.813v-6.058h3.759v.757h-2.326v1.812h2.109v.649h-2.109v2.136h2.272Zm0,0v.73h-3.813v-6.058h3.759v.757h-2.326v1.812h2.109v.649h-2.109v2.136h2.272Zm12.467,0v.73h-3.813v-6.058h3.759v.757h-2.326v1.812h2.109v.649h-2.109v2.136h2.272Z" transform="translate(-972.082 -802.63)"/>
    <g id="Group_5" data-name="Group 5" transform="translate(31.235 112.15)">
      <path id="Path_50" data-name="Path 50" d="M1055.7,987.273a9.64,9.64,0,0,1,.379-2.948,3.482,3.482,0,0,1,1.136-1.731,2.81,2.81,0,0,1,1.866-.595,3.065,3.065,0,0,1,1.46.325,2.717,2.717,0,0,1,1.028.974,5.754,5.754,0,0,1,.649,1.541,11.938,11.938,0,0,1-.135,5.382,3.63,3.63,0,0,1-1.109,1.731,2.9,2.9,0,0,1-1.893.622,2.8,2.8,0,0,1-2.353-1.082A6.956,6.956,0,0,1,1055.7,987.273Zm1.3,0a6.3,6.3,0,0,0,.595,3.38,1.751,1.751,0,0,0,1.461.838,1.685,1.685,0,0,0,1.46-.838,6.427,6.427,0,0,0,.595-3.38,6.3,6.3,0,0,0-.595-3.381,1.76,1.76,0,0,0-1.487-.838,1.64,1.64,0,0,0-1.406.73A6.909,6.909,0,0,0,1057,987.273Z" transform="translate(-1055.7 -981.973)"/>
      <path id="Path_51" data-name="Path 51" d="M1085.4,987.273a9.636,9.636,0,0,1,.379-2.948,3.48,3.48,0,0,1,1.136-1.731,2.81,2.81,0,0,1,1.866-.595,3.066,3.066,0,0,1,1.46.325,2.716,2.716,0,0,1,1.028.974,5.746,5.746,0,0,1,.649,1.541,11.94,11.94,0,0,1-.135,5.382,3.629,3.629,0,0,1-1.109,1.731,2.9,2.9,0,0,1-1.893.622,2.805,2.805,0,0,1-2.353-1.082A6.956,6.956,0,0,1,1085.4,987.273Zm1.325,0a6.3,6.3,0,0,0,.595,3.38,1.75,1.75,0,0,0,1.46.838,1.685,1.685,0,0,0,1.46-.838,6.429,6.429,0,0,0,.595-3.38,6.3,6.3,0,0,0-.595-3.381,1.76,1.76,0,0,0-1.487-.838,1.64,1.64,0,0,0-1.406.73A6.909,6.909,0,0,0,1086.725,987.273Z" transform="translate(-1077.368 -981.973)"/>
      <path id="Path_52" data-name="Path 52" d="M1122.613,992.285h-1.271V984.2a5.031,5.031,0,0,1-1.217.865,7.356,7.356,0,0,1-1.325.649V984.5a7.414,7.414,0,0,0,1.866-1.217,4.915,4.915,0,0,0,1.136-1.379h.811Z" transform="translate(-1101.735 -981.9)"/>
    </g>
    <g id="Group_6" data-name="Group 6" transform="translate(24.147 95.518)">
      <path id="Path_53" data-name="Path 53" d="M1033.088,924.235a5.921,5.921,0,0,0-1.731-1.163c-.433-.27-.676-.541-.676-.865a.745.745,0,0,1,.271-.622,1.209,1.209,0,0,1,.974-.189,1.412,1.412,0,0,1,.784.595l.162.243.081-.27s.135-.406.216-.6l.054-.108-.108-.054a3.043,3.043,0,0,0-1.6-.406,1.89,1.89,0,0,0-1.379.487,1.942,1.942,0,0,0-.649,1.325,1.443,1.443,0,0,0,.379,1.082,7.891,7.891,0,0,0,1.352.946,3.12,3.12,0,0,1,.541.352l.081.054a1.148,1.148,0,0,1,.46.622.84.84,0,0,1-.379.838,1.408,1.408,0,0,1-1.541-.135,2.012,2.012,0,0,1-.379-.46l-.189-.27-.081.3-.189.784-.027.108.108.054a4.774,4.774,0,0,0,1.325.3,3.717,3.717,0,0,0,1.3-.27,1.965,1.965,0,0,0,1.028-1.19A1.607,1.607,0,0,0,1033.088,924.235Z" transform="translate(-1029.487 -920.692)"/>
      <path id="Path_54" data-name="Path 54" d="M1070.688,924.235a5.922,5.922,0,0,0-1.731-1.163c-.433-.27-.676-.541-.676-.865a.745.745,0,0,1,.271-.622,1.209,1.209,0,0,1,.974-.189,1.412,1.412,0,0,1,.784.595l.162.243.081-.27s.135-.406.216-.6l.054-.108-.108-.054a3.043,3.043,0,0,0-1.6-.406,1.89,1.89,0,0,0-1.379.487,1.941,1.941,0,0,0-.649,1.325,1.443,1.443,0,0,0,.379,1.082,7.89,7.89,0,0,0,1.352.946,3.113,3.113,0,0,1,.541.352l.081.054a1.148,1.148,0,0,1,.46.622.84.84,0,0,1-.379.838,1.408,1.408,0,0,1-1.541-.135,2.016,2.016,0,0,1-.379-.46l-.189-.27-.081.3-.189.784-.027.108.108.054a4.777,4.777,0,0,0,1.325.3,3.717,3.717,0,0,0,1.3-.27,1.966,1.966,0,0,0,1.028-1.19A1.532,1.532,0,0,0,1070.688,924.235Z" transform="translate(-1056.919 -920.692)"/>
      <path id="Path_55" data-name="Path 55" d="M1152.361,924.235a5.923,5.923,0,0,0-1.731-1.163c-.433-.27-.676-.541-.676-.865a.746.746,0,0,1,.27-.622,1.253,1.253,0,0,1,1-.189,1.412,1.412,0,0,1,.784.595l.162.243.081-.27s.135-.406.216-.6l.054-.108-.108-.054a3.043,3.043,0,0,0-1.6-.406,1.889,1.889,0,0,0-1.379.487,1.941,1.941,0,0,0-.649,1.325,1.443,1.443,0,0,0,.379,1.082,7.88,7.88,0,0,0,1.352.946,3.115,3.115,0,0,1,.541.352l.081.054a1.149,1.149,0,0,1,.46.622.84.84,0,0,1-.379.838,1.408,1.408,0,0,1-1.541-.135,2.012,2.012,0,0,1-.379-.46l-.189-.27-.081.3-.189.784-.027.108.108.054a4.777,4.777,0,0,0,1.325.3,3.717,3.717,0,0,0,1.3-.27,1.966,1.966,0,0,0,1.028-1.19A1.624,1.624,0,0,0,1152.361,924.235Z" transform="translate(-1116.524 -920.692)"/>
      <path id="Path_56" data-name="Path 56" d="M1087.584,920.7v.865h-.135l-1.677.027.054,5.355v.135H1084.5v-.135l-.027-5.355-1.839-.027h-.135V920.7h5.084Z" transform="translate(-1068.163 -920.619)"/>
      <path id="Path_57" data-name="Path 57" d="M1106.729,926.325v.757H1102.7V920.7h3.948v.784h-2.434v1.92h2.218v.676h-2.218v2.272h2.515Z" transform="translate(-1082.901 -920.619)"/>
      <path id="Path_58" data-name="Path 58" d="M1126.037,927.082h-.135l-1.136-.027h-.135v-.108l-.243-4.219L1122.251,927l-.027.081h-.325l-.027-.081-2.082-4.138-.46,4.111-.027.108h-.7l.027-.162.838-6.085v-.108h.108l.649-.027h.081l.054.081,2.082,4.489,2.136-4.462.054-.081h.865v.135l.514,6.085Z" transform="translate(-1094.501 -920.619)"/>
      <path id="Path_59" data-name="Path 59" d="M1048.249,926.755a.964.964,0,0,1-.271-.3.774.774,0,0,1-.108-.46l-.027-1.947,2.434-3.6h-1.866a.344.344,0,0,1,.243.189.834.834,0,0,1,.135.325v.135a378.568,378.568,0,0,1-.054.162.094.094,0,0,1-.027.054l-1.244,1.866-1.3-2.164c0-.027-.027-.054-.054-.081s-.027-.054-.054-.081a.875.875,0,0,0-.3-.325,1.232,1.232,0,0,0-.568-.135h-.892a2.253,2.253,0,0,1,.487.352,1.2,1.2,0,0,1,.324.406l1.731,2.84.027,2.028h0a.774.774,0,0,1-.108.46.794.794,0,0,1-.325.27h1.947c-.027,0-.054-.027-.081-.054C1048.3,926.782,1048.275,926.782,1048.249,926.755Z" transform="translate(-1040.294 -920.4)"/>
    </g>
    <rect id="Rectangle_47" data-name="Rectangle 47" class="cls-1" width="84.701" height="107.174"/>
  </g>
</svg>
