<svg xmlns="http://www.w3.org/2000/svg" viewBox="5204.189 1063.544 9.27 11.215">
  <defs>
    <style>
      .cls-1 {
        fill: #7a8e12;
      }
    </style>
  </defs>
  <path id="Path_60" data-name="Path 60" class="cls-1" d="M4.917,5.173a10.229,10.229,0,0,1,.941-1.317h0a8.988,8.988,0,0,1,1.035-.918A.127.127,0,0,0,6.87,2.7l-.823-.376a.292.292,0,0,0-.353.094A14.083,14.083,0,0,0,4.352,5.173,2.948,2.948,0,0,0,0,8.02c0,2.564,1.976,6.446,4.635,5.27C7.458,14.513,9.269,10.56,9.269,8,9.293,5.526,7.387,4.067,4.917,5.173Z" transform="translate(5204.189 1061.24)"/>
</svg>
