<?xml version="1.0" encoding="UTF-8"?>
<svg width="14px" height="14px" viewBox="0 0 14 14" version="1.1" xmlns="http://www.w3.org/2000/svg" xmlns:xlink="http://www.w3.org/1999/xlink">
    <!-- Generator: Sketch 43.2 (39069) - http://www.bohemiancoding.com/sketch -->
    <title>icon</title>
    <desc>Created with Sketch.</desc>
    <defs></defs>
    <g id="Page-3" stroke="none" stroke-width="1" fill="none" fill-rule="evenodd">
        <g id="user" transform="translate(-527.000000, -735.000000)">
            <g id="status-copy-5" transform="translate(501.000000, 733.000000)">
                <g id="icon" transform="translate(26.000000, 2.000000)">
                    <g transform="translate(8.071068, 7.071068) rotate(-315.000000) translate(-8.071068, -7.071068) translate(5.071068, 0.071068)" stroke="#91949C">
                        <path d="M3.42095947,11.0098877 C2.42095947,10.0188293 3.00138855,8.48690796 3.00138855,8.48690796 L1.00308228,8.48690796 C1.00308228,8.48690796 1.60644531,10.0221252 0.606445312,11.0098877 C1.60644531,11.6494751 2,13.220459 2,13.220459 C2,13.220459 2.37976074,11.6384888 3.42095947,11.0098877 Z" id="Combined-Shape"></path>
                        <rect id="Rectangle" x="0.5" y="0.5" width="3" height="8" rx="1"></rect>
                        <path d="M3.50720215,1.95654297 C4.45153809,1.47216797 5.52630615,1.86309814 5.52630615,3.03082275 C5.52630615,4.19854736 4.47027588,4.27624512 4.47027588,5.45227051 C4.47027588,6.6282959 5.35473633,6.67871094 5.72131348,6.67871094" id="Path-4"></path>
                    </g>
                    <path d="M4,1 L2,1 C1.44392888,1 1,1.44641661 1,2.00585866 L1,11.9941413 C1,12.5499371 1.45081649,13 2.0085302,13 L9.9914698,13 C10.5478549,13 11,12.5501929 11,12 L11,10 L12,10 L12,12 C12,13.1045695 11.0980496,14 9.9914698,14 L2.0085302,14 C0.899249601,14 8.52651283e-14,13.1029399 7.63833441e-14,11.9941413 L0,2.00585866 C-8.8817842e-15,0.898053512 0.887729645,-2.0432075e-16 2,0 L4,3.6739404e-16 L4,1 Z" id="Path" fill="#91949C"></path>
                </g>
            </g>
        </g>
    </g>
</svg>