<svg xmlns="http://www.w3.org/2000/svg" viewBox="0 0 92.13 36"><defs><style>.cls-1{fill:#fff;}</style></defs><title>Asset 2</title><g id="Layer_2" data-name="Layer 2"><g id="Layer_1-2" data-name="Layer 1"><g id="Symbols"><g id="logo-_taker.im_Wight" data-name="logo-[taker.im]/Wight"><path id="Combined-Shape" class="cls-1" d="M68.92,23.59,68.62,25h3.46l1.63-7.7a7.12,7.12,0,0,1,.33-.87,3.5,3.5,0,0,1,.43-.71,1.94,1.94,0,0,1,.54-.48,1.26,1.26,0,0,1,.65-.18.62.62,0,0,1,.35.09.71.71,0,0,1,.22.23,1,1,0,0,1,.12.33,2.16,2.16,0,0,1,0,.4,2.46,2.46,0,0,1-.07.6L74.55,25H78l1.63-7.7a6.79,6.79,0,0,1,.33-.86,3.57,3.57,0,0,1,.42-.7,2,2,0,0,1,.52-.47,1.13,1.13,0,0,1,.61-.18q.87,0,.87,1.23a6.72,6.72,0,0,1-.17,1.37q-.17.8-.37,1.65T81.47,21a7.09,7.09,0,0,0-.17,1.42,4.26,4.26,0,0,0,.12,1,2.38,2.38,0,0,0,.4.87,2,2,0,0,0,.74.61,2.6,2.6,0,0,0,1.15.23,3,3,0,0,0,.92-.14,2.3,2.3,0,0,0,.8-.45,2.59,2.59,0,0,0,.6-.77,3.23,3.23,0,0,0,.33-1.12,1.5,1.5,0,0,1-.8.15.88.88,0,0,1-.76-.28,1.2,1.2,0,0,1-.21-.73,4.2,4.2,0,0,1,.09-.79q.09-.45.21-1t.28-1.1q.15-.57.28-1.15t.21-1.14a6.67,6.67,0,0,0,.09-1,3.41,3.41,0,0,0-.2-1.23,2.13,2.13,0,0,0-1.4-1.32,3.53,3.53,0,0,0-1.06-.15,4.21,4.21,0,0,0-.73.07,3.17,3.17,0,0,0-.83.28,4,4,0,0,0-.89.62,5.21,5.21,0,0,0-.89,1.07,2.89,2.89,0,0,0-.32-1,2.12,2.12,0,0,0-.54-.64,2,2,0,0,0-.73-.36,3.34,3.34,0,0,0-.88-.11,4.51,4.51,0,0,0-.67.05,3.38,3.38,0,0,0-.73.2,3.84,3.84,0,0,0-.76.41,4.3,4.3,0,0,0-.77.7L74.62,13H71.16l-1.64,7.73a4.24,4.24,0,0,1-.35.82,3.13,3.13,0,0,1-.5.67,2.2,2.2,0,0,1-.62.44,1.58,1.58,0,0,1-.69.16,1.15,1.15,0,0,1-.74-.19.87.87,0,0,1-.23-.7q0-.19,0-.38a2,2,0,0,1,.08-.39L68.21,13H64.75l-1.63,7.7q-.09.46-.14.85a6.12,6.12,0,0,0,0,.72,3.76,3.76,0,0,0,.2,1.3,2.47,2.47,0,0,0,.54.89,2.1,2.1,0,0,0,.81.52,3,3,0,0,0,1,.16,5.08,5.08,0,0,0,.72-.06,4.22,4.22,0,0,0,.85-.22,4.72,4.72,0,0,0,1.84-1.26ZM56.13,8a8,8,0,0,1,8-8h20a8,8,0,0,1,8,8V28a8,8,0,0,1-8,8h-20a8,8,0,0,1-8-8ZM69.05,9.81a1.82,1.82,0,0,0-.15-.74,2,2,0,0,0-1-1,1.89,1.89,0,0,0-1.49,0,1.92,1.92,0,0,0-.6.42,2,2,0,0,0-.4.61,2,2,0,0,0,0,1.49,1.82,1.82,0,0,0,.4.6,1.93,1.93,0,0,0,.6.4,2,2,0,0,0,1.49,0,2,2,0,0,0,.61-.4,1.85,1.85,0,0,0,.42-.6A1.82,1.82,0,0,0,69.05,9.81Z"/><path id="taker" class="cls-1" d="M5.32,13.32v1.15H1.42V21.8a3,3,0,0,0,.44,1.76,1.59,1.59,0,0,0,1.39.61A2.31,2.31,0,0,0,4.16,24a3.49,3.49,0,0,0,.69-.37,3.54,3.54,0,0,0,.58-.55,3.28,3.28,0,0,1,.46.54.65.65,0,0,1,.11.31.68.68,0,0,1-.2.39,2.49,2.49,0,0,1-.58.48,4.11,4.11,0,0,1-.9.41,3.79,3.79,0,0,1-1.2.17,3.33,3.33,0,0,1-1.91-.48,2.5,2.5,0,0,1-1-1.27,4.39,4.39,0,0,1-.2-1q-.05-.53,0-1.1V9.75l.22,0a1.93,1.93,0,0,1,.35,0A1,1,0,0,1,1,9.94a1.17,1.17,0,0,1,.32.39,1.4,1.4,0,0,1,.14.68v2.32ZM17.9,25a3.75,3.75,0,0,1-.9.13,2.31,2.31,0,0,1-1.3-.36,1.45,1.45,0,0,1-.6-1.21,6.19,6.19,0,0,1-1.71,1.2,5.34,5.34,0,0,1-2.34.48,5.76,5.76,0,0,1-1.21-.14,3.34,3.34,0,0,1-1.19-.51,2.92,2.92,0,0,1-.91-1,3.55,3.55,0,0,1-.36-1.71,3.16,3.16,0,0,1,.68-2.09,4.59,4.59,0,0,1,1.68-1.26,7.9,7.9,0,0,1,2.14-.61,14.85,14.85,0,0,1,2.09-.16h.57l.55,0v-.6A4.69,4.69,0,0,0,15,16a2.17,2.17,0,0,0-.44-.89,2.05,2.05,0,0,0-.88-.59,4.21,4.21,0,0,0-1.46-.21,6,6,0,0,0-2.07.32,5,5,0,0,0-1.37.72H8.5a1.57,1.57,0,0,1-.35-.82.47.47,0,0,1,.19-.36,2.62,2.62,0,0,1,.46-.31,6.25,6.25,0,0,1,1.62-.56,8.8,8.8,0,0,1,1.88-.21,6.44,6.44,0,0,1,2,.27,3,3,0,0,1,1.3.81,3.05,3.05,0,0,1,.69,1.33,7.51,7.51,0,0,1,.2,1.84v5a4.75,4.75,0,0,0,.1,1.1,1.55,1.55,0,0,0,.27.61.79.79,0,0,0,.43.27,3.49,3.49,0,0,0,.57.09Zm-2.8-6.23-.31,0h-.34a17.33,17.33,0,0,0-2,.11,6.63,6.63,0,0,0-1.8.45,3.4,3.4,0,0,0-1.31.92,2.29,2.29,0,0,0-.5,1.54,3.17,3.17,0,0,0,.11.84,1.8,1.8,0,0,0,.39.73,2,2,0,0,0,.74.51,3,3,0,0,0,1.19.2,4.67,4.67,0,0,0,1.46-.22A5.61,5.61,0,0,0,14,23.27a3.71,3.71,0,0,0,.82-.66,1,1,0,0,0,.3-.56ZM20.52,25V7.28l.16,0h.09a1.93,1.93,0,0,1,.35,0,1,1,0,0,1,.39.18,1.17,1.17,0,0,1,.32.39,1.4,1.4,0,0,1,.14.67V25Zm2.27-6.15v-.7L27,14.05a3.54,3.54,0,0,1,.66-.54,1.27,1.27,0,0,1,.66-.19,1.11,1.11,0,0,1,.38.06l.3.11.27.18L24.3,18.45,30,25.08a2,2,0,0,1-2.4-.7Zm18.4,4.73a.83.83,0,0,1-.29.52,3.36,3.36,0,0,1-.81.59,5.79,5.79,0,0,1-1.26.49,6.25,6.25,0,0,1-1.64.2A6.73,6.73,0,0,1,35,25a4.4,4.4,0,0,1-1.75-1.11,5.09,5.09,0,0,1-1.14-2,8.93,8.93,0,0,1-.4-2.84,7.56,7.56,0,0,1,.44-2.71,5.17,5.17,0,0,1,1.17-1.86A4.73,4.73,0,0,1,35,13.48a5.5,5.5,0,0,1,1.94-.35,4.77,4.77,0,0,1,2.1.43,4,4,0,0,1,1.42,1.13,4.51,4.51,0,0,1,.8,1.61,7.11,7.11,0,0,1,.25,1.89,11.57,11.57,0,0,1-.08,1.28h-8.2a7.66,7.66,0,0,0,.28,1.92,4.35,4.35,0,0,0,.74,1.5,3.21,3.21,0,0,0,1.24,1,4.3,4.3,0,0,0,1.78.34A5,5,0,0,0,38.6,24a4.35,4.35,0,0,0,1-.4,3.53,3.53,0,0,0,.67-.49,3.19,3.19,0,0,0,.39-.42,3.78,3.78,0,0,1,.4.51A.78.78,0,0,1,41.2,23.58Zm-1.12-5.2a7.83,7.83,0,0,0-.15-1.56,3.49,3.49,0,0,0-.52-1.29,2.66,2.66,0,0,0-1-.87,3.47,3.47,0,0,0-1.59-.32,3.28,3.28,0,0,0-2.54,1.05,4.46,4.46,0,0,0-1,3Zm6.1-3.7a4.35,4.35,0,0,1,.4-.5,3.34,3.34,0,0,1,.6-.51,3.3,3.3,0,0,1,.79-.39,3,3,0,0,1,1-.15,4.3,4.3,0,0,1,.53,0,2.66,2.66,0,0,1,.55.13,1.11,1.11,0,0,1,.42.26.61.61,0,0,1,.17.45,1.21,1.21,0,0,1-.16.57,2.76,2.76,0,0,1-.31.48,2,2,0,0,0-.62-.43,2.38,2.38,0,0,0-.92-.15,2.53,2.53,0,0,0-.89.16,2.71,2.71,0,0,0-.78.44,2.24,2.24,0,0,0-.54.63,1.44,1.44,0,0,0-.2.72V25H44.75V13.32h.1a1.52,1.52,0,0,1,.91.3A1.21,1.21,0,0,1,46.17,14.68Z"/></g></g></g></g></svg>