<?xml version="1.0" encoding="UTF-8"?>
<svg width="94px" height="36px" viewBox="0 0 94 36" version="1.1" xmlns="http://www.w3.org/2000/svg" xmlns:xlink="http://www.w3.org/1999/xlink" style="background: #0A1439;">
    <!-- Generator: Sketch 43.2 (39069) - http://www.bohemiancoding.com/sketch -->
    <title>logo [taker.im]/Wight</title>
    <desc>Created with Sketch.</desc>
    <defs></defs>
    <g id="Symbols" stroke="none" stroke-width="1" fill="none" fill-rule="evenodd">
        <g id="logo-[taker.im]/Wight" fill="#FFFFFF">
            <path d="M70.7938502,23.5949188 L70.4960938,25 L73.953125,25 L75.5820312,17.3007812 C75.6757817,16.9960922 75.7851556,16.7070326 75.9101562,16.4335938 C76.0351569,16.1601549 76.1777336,15.921876 76.3378906,15.71875 C76.4980477,15.515624 76.6777334,15.3554693 76.8769531,15.2382812 C77.0761729,15.1210932 77.2929676,15.0625 77.5273438,15.0625 C77.6679695,15.0625 77.7832027,15.0917966 77.8730469,15.1503906 C77.9628911,15.2089847 78.0371091,15.2871089 78.0957031,15.3847656 C78.1542972,15.4824224 78.1953124,15.5937494 78.21875,15.71875 C78.2421876,15.8437506 78.2539062,15.9765618 78.2539062,16.1171875 C78.2539062,16.3281261 78.230469,16.5273428 78.1835938,16.7148438 L76.4257812,25 L79.8828125,25 L81.5117188,17.3007812 C81.6054692,16.9960922 81.7148431,16.7089857 81.8398438,16.4394531 C81.9648444,16.1699205 82.105468,15.9355479 82.2617188,15.7363281 C82.4179695,15.5371084 82.5898428,15.3789068 82.7773438,15.2617188 C82.9648447,15.1445307 83.1679677,15.0859375 83.3867188,15.0859375 C83.9648466,15.0859375 84.2539062,15.4960896 84.2539062,16.3164062 C84.2539062,16.6992207 84.1972662,17.1562473 84.0839844,17.6875 C83.9707026,18.2187527 83.8476569,18.7695284 83.7148438,19.3398438 C83.5820306,19.9101591 83.4589849,20.4667942 83.3457031,21.0097656 C83.2324213,21.5527371 83.1757812,22.0273417 83.1757812,22.4335938 C83.1757812,22.7773455 83.2148434,23.1113265 83.2929688,23.4355469 C83.3710941,23.7597672 83.5039053,24.0488269 83.6914062,24.3027344 C83.8789072,24.5566419 84.1269516,24.7597649 84.4355469,24.9121094 C84.7441422,25.0644539 85.1289039,25.140625 85.5898438,25.140625 C85.9101579,25.140625 86.2167954,25.0937505 86.5097656,25 C86.8027358,24.9062495 87.0683582,24.7578135 87.3066406,24.5546875 C87.5449231,24.3515615 87.7460929,24.0957047 87.9101562,23.7871094 C88.0742196,23.4785141 88.1835935,23.1054709 88.2382812,22.6679688 C88.089843,22.7695318 87.8242207,22.8203125 87.4414062,22.8203125 C87.0742169,22.8203125 86.8222663,22.7265634 86.6855469,22.5390625 C86.5488274,22.3515616 86.4804688,22.1093765 86.4804688,21.8125 C86.4804688,21.5859364 86.5097653,21.3222671 86.5683594,21.0214844 C86.6269534,20.7207016 86.6972652,20.394533 86.7792969,20.0429688 C86.8613285,19.6914045 86.9531245,19.3242207 87.0546875,18.9414062 C87.1562505,18.5585918 87.2480465,18.1738301 87.3300781,17.7871094 C87.4121098,17.4003887 87.4824216,17.0214862 87.5410156,16.6503906 C87.5996097,16.279295 87.6289062,15.9335954 87.6289062,15.6132812 C87.6289062,15.1367164 87.5625007,14.7265642 87.4296875,14.3828125 C87.2968743,14.0390608 87.1113293,13.7578136 86.8730469,13.5390625 C86.6347644,13.3203114 86.3535172,13.1601568 86.0292969,13.0585938 C85.7050765,12.9570307 85.3515644,12.90625 84.96875,12.90625 C84.7499989,12.90625 84.5078138,12.9296873 84.2421875,12.9765625 C83.9765612,13.0234377 83.6992202,13.1171868 83.4101562,13.2578125 C83.1210923,13.3984382 82.8242203,13.6035143 82.5195312,13.8730469 C82.2148422,14.1425795 81.9179702,14.4999978 81.6289062,14.9453125 C81.5664059,14.5703106 81.4609382,14.2519544 81.3125,13.9902344 C81.1640618,13.7285143 80.9843761,13.5156258 80.7734375,13.3515625 C80.5624989,13.1874992 80.3203139,13.0683597 80.046875,12.9941406 C79.7734361,12.9199215 79.4804703,12.8828125 79.1679688,12.8828125 C78.9570302,12.8828125 78.7343762,12.9003904 78.5,12.9355469 C78.2656238,12.9707033 78.0234387,13.0371089 77.7734375,13.1347656 C77.5234363,13.2324224 77.2695325,13.3691397 77.0117188,13.5449219 C76.753905,13.720704 76.496095,13.9531236 76.2382812,14.2421875 L76.4960938,13 L73.0390625,13 L71.4017863,20.7261329 C71.3092361,21.0206012 71.1909334,21.2948303 71.046875,21.5488281 C70.8984368,21.8105482 70.7304697,22.0351553 70.5429688,22.2226562 C70.3554678,22.4101572 70.1503917,22.5566401 69.9277344,22.6621094 C69.705077,22.7675787 69.4765637,22.8203125 69.2421875,22.8203125 C68.9062483,22.8203125 68.660157,22.75586 68.5039062,22.6269531 C68.3476555,22.4980462 68.2695312,22.2656267 68.2695312,21.9296875 C68.2695312,21.8046869 68.2753906,21.677735 68.2871094,21.5488281 C68.2988282,21.4199212 68.3242186,21.2890632 68.3632812,21.15625 L70.0859375,13 L66.6289062,13 L65,20.6992188 C64.9374997,21.0039078 64.8906252,21.2871081 64.859375,21.5488281 C64.8281248,21.8105482 64.8125,22.0507802 64.8125,22.2695312 C64.8125,22.7773463 64.8789056,23.2109357 65.0117188,23.5703125 C65.1445319,23.9296893 65.3261707,24.2265613 65.5566406,24.4609375 C65.7871105,24.6953137 66.0585922,24.867187 66.3710938,24.9765625 C66.6835953,25.085938 67.0195295,25.140625 67.3789062,25.140625 C67.5898448,25.140625 67.8300768,25.1210939 68.0996094,25.0820312 C68.369142,25.0429686 68.6523423,24.9687505 68.9492188,24.859375 C69.2460952,24.7499995 69.5527328,24.593751 69.8691406,24.390625 C70.1851727,24.1877402 70.4934062,23.9225075 70.7938502,23.5949188 Z M58,8.00074125 C58,3.58205387 61.5834312,0 66.0007413,0 L85.9992587,0 C90.4179461,0 94,3.58343124 94,8.00074125 L94,27.9992587 C94,32.4179461 90.4165688,36 85.9992587,36 L66.0007413,36 C61.5820539,36 58,32.4165688 58,27.9992587 L58,8.00074125 Z M70.9296875,9.8125 C70.9296875,9.54687367 70.8789068,9.29882928 70.7773438,9.06835938 C70.6757807,8.83788947 70.5371103,8.6347665 70.3613281,8.45898438 C70.185546,8.28320225 69.982423,8.14453176 69.7519531,8.04296875 C69.5214832,7.94140574 69.2734388,7.890625 69.0078125,7.890625 C68.7421862,7.890625 68.4941418,7.94140574 68.2636719,8.04296875 C68.033202,8.14453176 67.8320321,8.28320225 67.6601562,8.45898438 C67.4882804,8.6347665 67.3535161,8.83788947 67.2558594,9.06835938 C67.1582026,9.29882928 67.109375,9.54687367 67.109375,9.8125 C67.109375,10.0781263 67.1582026,10.3261707 67.2558594,10.5566406 C67.3535161,10.7871105 67.4882804,10.9863273 67.6601562,11.1542969 C67.8320321,11.3222665 68.033202,11.4550776 68.2636719,11.5527344 C68.4941418,11.6503911 68.7421862,11.6992188 69.0078125,11.6992188 C69.2734388,11.6992188 69.5214832,11.6503911 69.7519531,11.5527344 C69.982423,11.4550776 70.185546,11.3222665 70.3613281,11.1542969 C70.5371103,10.9863273 70.6757807,10.7871105 70.7773438,10.5566406 C70.8789068,10.3261707 70.9296875,10.0781263 70.9296875,9.8125 Z" id="Combined-Shape"></path>
            <path d="M7.2,13.325 L7.2,14.475 L3.3,14.475 L3.3,21.8 C3.3,22.5666705 3.44583188,23.1541646 3.7375,23.5625 C4.02916812,23.9708354 4.4916635,24.175 5.125,24.175 C5.458335,24.175 5.76249863,24.1166672 6.0375,24 C6.31250138,23.8833328 6.54166575,23.758334 6.725,23.625 C6.925001,23.4749992 7.11666575,23.2916678 7.3,23.075 C7.5333345,23.3083345 7.68749963,23.4874994 7.7625,23.6125 C7.83750038,23.7375006 7.875,23.8416662 7.875,23.925 C7.875,24.0250005 7.808334,24.1541659 7.675,24.3125 C7.541666,24.4708341 7.35000125,24.6291659 7.1,24.7875 C6.84999875,24.9458341 6.55000175,25.0833328 6.2,25.2 C5.84999825,25.3166673 5.45000225,25.375 5,25.375 C4.18332925,25.375 3.54583563,25.2166682 3.0875,24.9 C2.62916438,24.5833317 2.30833425,24.158336 2.125,23.625 C2.0249995,23.3249985 1.9583335,23.0000017 1.925,22.65 C1.8916665,22.2999983 1.875,21.9333352 1.875,21.55 L1.875,9.75 C1.95833375,9.73333325 2.033333,9.725 2.1,9.725 C2.2000005,9.725 2.316666,9.73749988 2.45,9.7625 C2.583334,9.78750012 2.71249938,9.84583287 2.8375,9.9375 C2.96250063,10.0291671 3.07083288,10.1583325 3.1625,10.325 C3.25416713,10.4916675 3.3,10.7166652 3.3,11 L3.3,13.325 L7.2,13.325 Z M19.775,25 C19.441665,25.0833338 19.141668,25.125 18.875,25.125 C18.3749975,25.125 17.9416685,25.0041679 17.575,24.7625 C17.2083315,24.5208321 17.0083335,24.1166695 16.975,23.55 C16.4916642,24.0333357 15.9208366,24.4333318 15.2625,24.75 C14.6041634,25.0666682 13.8250045,25.225 12.925,25.225 C12.5416648,25.225 12.1375021,25.1791671 11.7125,25.0875 C11.2874979,24.9958329 10.8916685,24.8250012 10.525,24.575 C10.1583315,24.3249987 9.85416787,23.9791689 9.6125,23.5375 C9.37083212,23.0958311 9.25,22.5250035 9.25,21.825 C9.25,20.9749958 9.47499775,20.2791694 9.925,19.7375 C10.3750022,19.1958306 10.93333,18.7750015 11.6,18.475 C12.26667,18.1749985 12.9791629,17.9708339 13.7375,17.8625 C14.4958371,17.7541661 15.1916635,17.7 15.825,17.7 C16.025001,17.7 16.2166657,17.7041666 16.4,17.7125 C16.5833343,17.7208334 16.7666658,17.7333333 16.95,17.75 L16.95,17.15 C16.95,16.749998 16.9083338,16.3791684 16.825,16.0375 C16.7416663,15.6958316 16.5958344,15.4000012 16.3875,15.15 C16.1791656,14.8999987 15.8875019,14.7041674 15.5125,14.5625 C15.1374981,14.4208326 14.650003,14.35 14.05,14.35 C13.249996,14.35 12.5583362,14.4583323 11.975,14.675 C11.3916637,14.8916677 10.933335,15.133332 10.6,15.4 L10.375,15.4 C10.1416655,15.066665 10.025,14.7916677 10.025,14.575 C10.025,14.441666 10.0874994,14.3208339 10.2125,14.2125 C10.3375006,14.1041661 10.4916657,14.0000005 10.675,13.9 C11.1083355,13.6666655 11.6499967,13.4791674 12.3,13.3375 C12.9500032,13.1958326 13.574997,13.125 14.175,13.125 C14.9916708,13.125 15.6708306,13.2166657 16.2125,13.4 C16.7541694,13.5833342 17.1874984,13.8541649 17.5125,14.2125 C17.8375016,14.5708351 18.066666,15.0124974 18.2,15.5375 C18.333334,16.0625026 18.4,16.6749965 18.4,17.375 L18.4,22.375 C18.4,22.841669 18.433333,23.208332 18.5,23.475 C18.566667,23.741668 18.6583327,23.9458326 18.775,24.0875 C18.8916673,24.2291674 19.0333325,24.3208331 19.2,24.3625 C19.3666675,24.4041669 19.5583322,24.4333333 19.775,24.45 L19.775,25 Z M16.975,18.775 C16.8749995,18.7583332 16.7708339,18.75 16.6625,18.75 L16.325,18.75 C15.6749968,18.75 15.0208366,18.7874996 14.3625,18.8625 C13.7041634,18.9375004 13.1041694,19.0874989 12.5625,19.3125 C12.0208306,19.5375011 11.583335,19.8458314 11.25,20.2375 C10.916665,20.6291686 10.75,21.1416635 10.75,21.775 C10.75,22.0583348 10.7874996,22.3374986 10.8625,22.6125 C10.9375004,22.8875014 11.0666658,23.1291656 11.25,23.3375 C11.4333342,23.5458344 11.6791651,23.716666 11.9875,23.85 C12.2958349,23.983334 12.6916642,24.05 13.175,24.05 C13.6916693,24.05 14.1791644,23.9750007 14.6375,23.825 C15.0958356,23.6749992 15.4999983,23.4916677 15.85,23.275 C16.2000018,23.0583322 16.474999,22.8375011 16.675,22.6125 C16.875001,22.3874989 16.975,22.2000008 16.975,22.05 L16.975,18.775 Z M22.4,25 L22.4,7.275 C22.4833337,7.25833325 22.5374999,7.25 22.5625,7.25 L22.65,7.25 C22.7500005,7.25 22.866666,7.26249987 23,7.2875 C23.133334,7.31250012 23.2624994,7.37083287 23.3875,7.4625 C23.5125006,7.55416712 23.6208329,7.6833325 23.7125,7.85 C23.8041671,8.0166675 23.85,8.24166525 23.85,8.525 L23.85,25 L22.4,25 Z M24.675,18.85 L24.675,18.15 L28.825,14.05 C29.0583345,13.8166655 29.2791656,13.6375006 29.4875,13.5125 C29.6958344,13.3874994 29.9166655,13.325 30.15,13.325 C30.283334,13.325 30.4083327,13.3458331 30.525,13.3875 C30.6416672,13.4291669 30.7416662,13.4666665 30.825,13.5 L31.1,13.675 L26.175,18.45 L31.875,25.075 C31.6249987,25.1750005 31.366668,25.225 31.1,25.225 C30.4833302,25.225 29.941669,24.9416695 29.475,24.375 L24.675,18.85 Z M43.075,23.575 C43.075,23.7250007 42.9791676,23.899999 42.7875,24.1 C42.5958324,24.300001 42.3250018,24.4958324 41.975,24.6875 C41.6249983,24.8791676 41.2041691,25.041666 40.7125,25.175 C40.2208309,25.308334 39.675003,25.375 39.075,25.375 C38.274996,25.375 37.5375034,25.2583345 36.8625,25.025 C36.1874966,24.7916655 35.6041691,24.4208359 35.1125,23.9125 C34.6208309,23.4041641 34.241668,22.7541706 33.975,21.9625 C33.708332,21.1708294 33.575,20.2250055 33.575,19.125 C33.575,18.0749948 33.7208319,17.1708371 34.0125,16.4125 C34.3041681,15.6541629 34.6958309,15.0333357 35.1875,14.55 C35.6791691,14.0666642 36.2374969,13.7083345 36.8625,13.475 C37.4875031,13.2416655 38.13333,13.125 38.8,13.125 C39.6166708,13.125 40.3166638,13.2666652 40.9,13.55 C41.4833363,13.8333347 41.9583315,14.208331 42.325,14.675 C42.6916685,15.141669 42.9583325,15.6791636 43.125,16.2875 C43.2916675,16.8958364 43.375,17.5249967 43.375,18.175 C43.375,18.575002 43.3500003,18.9999977 43.3,19.45 L35.1,19.45 C35.1166668,20.1500035 35.2083325,20.7916637 35.375,21.375 C35.5416675,21.9583363 35.7874984,22.4583313 36.1125,22.875 C36.4375016,23.2916687 36.8499975,23.6124989 37.35,23.8375 C37.8500025,24.0625011 38.4416633,24.175 39.125,24.175 C39.6416693,24.175 40.0916648,24.1208339 40.475,24.0125 C40.8583353,23.9041661 41.1874986,23.7708341 41.4625,23.6125 C41.7375014,23.4541659 41.9624991,23.2916675 42.1375,23.125 C42.3125009,22.9583325 42.4416663,22.8166672 42.525,22.7 C42.6916675,22.8833342 42.8249995,23.0541659 42.925,23.2125 C43.0250005,23.3708341 43.075,23.4916663 43.075,23.575 Z M41.95,18.375 C41.95,17.8249973 41.9000005,17.3041691 41.8,16.8125 C41.6999995,16.3208309 41.5250013,15.8916685 41.275,15.525 C41.0249988,15.1583315 40.6875021,14.8666678 40.2625,14.65 C39.8374979,14.4333323 39.3083365,14.325 38.675,14.325 C37.6249947,14.325 36.7791699,14.6749965 36.1375,15.375 C35.4958301,16.0750035 35.1583335,17.0749935 35.125,18.375 L41.95,18.375 Z M48.05,14.675 C48.1500005,14.5249992 48.2833325,14.3583342 48.45,14.175 C48.6166675,13.9916657 48.8166655,13.8208341 49.05,13.6625 C49.2833345,13.5041659 49.5458319,13.3750005 49.8375,13.275 C50.1291681,13.1749995 50.4499982,13.125 50.8,13.125 C50.9500008,13.125 51.124999,13.1374999 51.325,13.1625 C51.525001,13.1875001 51.7083325,13.2291664 51.875,13.2875 C52.0416675,13.3458336 52.1833328,13.4333327 52.3,13.55 C52.4166673,13.6666672 52.475,13.8166657 52.475,14 C52.475,14.1833343 52.4208339,14.374999 52.3125,14.575 C52.2041661,14.775001 52.1000005,14.9333327 52,15.05 C51.8166657,14.8666657 51.6083345,14.7250005 51.375,14.625 C51.1416655,14.5249995 50.8333352,14.475 50.45,14.475 C50.1499985,14.475 49.8541681,14.5291661 49.5625,14.6375 C49.2708319,14.7458339 49.0125011,14.8916657 48.7875,15.075 C48.5624989,15.2583343 48.383334,15.4666655 48.25,15.7 C48.116666,15.9333345 48.05,16.1749988 48.05,16.425 L48.05,25 L46.625,25 L46.625,13.325 L46.725,13.325 C47.058335,13.325 47.3624986,13.424999 47.6375,13.625 C47.9125014,13.825001 48.05,14.1749975 48.05,14.675 Z" id="taker"></path>
        </g>
    </g>
</svg>