<svg width="58px" height="14px" viewBox="0 0 58 14" xmlns="http://www.w3.org/2000/svg">
  <path d="M0 0h9.02v2.581H5.823V13.74H3.13V2.58H0V.001zM20.563 9.397h-8.316c.12.721.442 1.297.963 1.719.521.427 1.187.643 1.996.643.966 0 1.8-.335 2.494-1.002l2.181 1.008c-.542.76-1.196 1.324-1.955 1.686-.757.365-1.657.549-2.7.549-1.62 0-2.938-.505-3.955-1.51-1.017-1.004-1.526-2.265-1.526-3.775 0-1.552.506-2.84 1.522-3.86 1.013-1.024 2.287-1.537 3.817-1.537 1.623 0 2.944.513 3.963 1.537 1.018 1.02 1.527 2.374 1.527 4.056l-.01.486zm-2.59-2.008a2.538 2.538 0 0 0-1.01-1.383c-.505-.353-1.087-.531-1.753-.531-.72 0-1.354.198-1.898.596-.343.25-.66.685-.95 1.317h5.611zM33.413 5.635l-2.156 1.163c-.404-.415-.805-.703-1.201-.87-.396-.16-.859-.24-1.39-.24-.97 0-1.751.285-2.35.855-.597.567-.899 1.296-.899 2.184 0 .866.29 1.57.865 2.115.575.547 1.332.823 2.269.823 1.157 0 2.06-.389 2.706-1.17l2.041 1.378C32.191 13.29 30.63 14 28.614 14c-1.814 0-3.234-.53-4.263-1.587-1.026-1.06-1.54-2.297-1.54-3.719 0-.982.25-1.89.749-2.717.5-.825 1.197-1.475 2.09-1.95.896-.471 1.895-.709 3.002-.709 1.024 0 1.943.202 2.758.603a5.222 5.222 0 0 1 2.003 1.714zM45.678 5.635l-2.154 1.163c-.406-.415-.805-.703-1.2-.87-.396-.16-.862-.24-1.392-.24-.968 0-1.752.285-2.35.855-.597.567-.896 1.296-.896 2.184 0 .866.288 1.57.863 2.115.578.547 1.332.823 2.27.823 1.16 0 2.06-.389 2.705-1.17l2.041 1.378C44.458 13.29 42.897 14 40.881 14c-1.813 0-3.234-.53-4.262-1.587-1.027-1.06-1.54-2.297-1.54-3.719 0-.982.25-1.89.75-2.717.497-.825 1.196-1.475 2.09-1.95.893-.471 1.894-.709 3-.709 1.025 0 1.944.202 2.759.603a5.213 5.213 0 0 1 2 1.714zM52.529 3.317c.974 0 1.889.24 2.746.721a5.242 5.242 0 0 1 2.003 1.947A5.18 5.18 0 0 1 58 8.65c0 .955-.242 1.851-.726 2.688a5.21 5.21 0 0 1-1.975 1.955 5.543 5.543 0 0 1-2.76.706c-1.48 0-2.743-.52-3.788-1.557-1.046-1.033-1.57-2.294-1.57-3.775 0-1.587.59-2.91 1.774-3.967 1.035-.92 2.228-1.383 3.574-1.383zm.043 2.398c-.805 0-1.475.276-2.008.828-.537.549-.803 1.255-.803 2.113 0 .884.263 1.602.792 2.148.53.549 1.2.822 2.01.822.81 0 1.484-.276 2.022-.831.54-.555.808-1.264.808-2.14 0-.872-.265-1.578-.793-2.124-.529-.543-1.205-.816-2.028-.816z" fill="#000"/>
</svg>
