<?xml version="1.0" encoding="utf-8"?>
<!-- Generator: Adobe Illustrator 16.0.0, SVG Export Plug-In . SVG Version: 6.00 Build 0)  -->
<!DOCTYPE svg PUBLIC "-//W3C//DTD SVG 1.1//EN" "http://www.w3.org/Graphics/SVG/1.1/DTD/svg11.dtd">
<svg version="1.1" id="Layer_1" xmlns="http://www.w3.org/2000/svg" xmlns:xlink="http://www.w3.org/1999/xlink" x="0px" y="0px"
	 width="218.076px" height="70px" viewBox="0 0 218.076 70" enable-background="new 0 0 218.076 70" xml:space="preserve">
<path fill="#27BDC0" d="M23.072,52.945C23.072,63.988,17.846,70,6.999,70C4.536,70,2.169,69.705,0,69.114l0.592-9.561
	c1.282,0.392,3.058,0.789,5.127,0.789c4.83,0,6.9-2.367,6.9-7.692V0h10.451v52.945H23.072z"/>
<path fill="#27BDC0" d="M49.197,9.664v19.52H64.48v9.662H49.197v20.504h18.929v9.663H38.746V0h29.382v9.662H49.197V9.664z"/>
<path fill="#27BDC0" d="M92.379,9.664v19.52h14.787v9.662H92.379v30.172H81.93V0h28.887v9.662H92.379V9.664z"/>
<path fill="#27BDC0" d="M133.093,9.664v19.52h14.787v9.662h-14.787v30.172h-10.449V0h28.887v9.662h-18.438V9.664z"/>
<path fill="#27BDC0" d="M163.359,69.017V0h10.455v69.017H163.359z"/>
<path fill="#27BDC0" d="M206.935,9.86v59.157h-10.449V9.86h-11.142V0h32.732v9.86H206.935z"/>
</svg>
